<svg xmlns="http://www.w3.org/2000/svg" xmlns:xlink="http://www.w3.org/1999/xlink" width="200" zoomAndPan="magnify" viewBox="0 0 150 149.999998" height="200" preserveAspectRatio="xMidYMid meet" version="1.2"><g id="b710017bca"><path style="fill-rule:nonzero;fill:#0b2a3a;fill-opacity:1;stroke-width:3;stroke-linecap:butt;stroke-linejoin:miter;stroke:#2bd1ff;stroke-opacity:1;stroke-miterlimit:4;" d="M 62.000003 32.000001 C 62.000003 32.491668 61.988336 32.981668 61.963336 33.471668 C 61.940003 33.961668 61.903336 34.451668 61.855003 34.940001 C 61.80667 35.428335 61.74667 35.916668 61.675003 36.401668 C 61.603336 36.888335 61.520003 37.371668 61.423336 37.853335 C 61.328336 38.335001 61.220003 38.813335 61.10167 39.290001 C 60.98167 39.765001 60.850003 40.238335 60.708336 40.708335 C 60.565003 41.178335 60.41167 41.645002 60.24667 42.106668 C 60.08167 42.568335 59.905003 43.026668 59.71667 43.480002 C 59.528336 43.933335 59.330003 44.383335 59.120003 44.826668 C 58.910003 45.270002 58.688336 45.708335 58.458336 46.141669 C 58.22667 46.575002 57.985003 47.001669 57.73167 47.423335 C 57.480003 47.845002 57.216669 48.258335 56.943336 48.666669 C 56.671669 49.075002 56.388336 49.476669 56.096669 49.871669 C 55.803336 50.265002 55.501669 50.651669 55.190003 51.031669 C 54.878336 51.411669 54.558336 51.783336 54.228336 52.146669 C 53.898336 52.510002 53.560003 52.866669 53.213336 53.213336 C 52.866669 53.560002 52.510003 53.898336 52.146669 54.228336 C 51.783336 54.558336 51.411669 54.878336 51.031669 55.190002 C 50.651669 55.501669 50.265002 55.803336 49.871669 56.096669 C 49.476669 56.388336 49.075002 56.671669 48.666669 56.943336 C 48.258336 57.216669 47.845002 57.480002 47.423336 57.731669 C 47.001669 57.985003 46.575002 58.226669 46.141669 58.458336 C 45.708335 58.688336 45.270002 58.910003 44.826669 59.120003 C 44.383335 59.330003 43.933335 59.528336 43.480002 59.716669 C 43.026669 59.905003 42.568335 60.081669 42.106669 60.246669 C 41.645002 60.411669 41.178335 60.565003 40.708335 60.708336 C 40.238335 60.850003 39.765002 60.981669 39.290002 61.101669 C 38.813335 61.220003 38.335002 61.328336 37.853335 61.423336 C 37.371668 61.520003 36.888335 61.603336 36.401668 61.675003 C 35.916668 61.746669 35.428335 61.806669 34.940002 61.855003 C 34.451668 61.903336 33.961668 61.940003 33.471668 61.963336 C 32.981668 61.988336 32.491668 62.000003 32.000001 62.000003 C 31.508335 62.000003 31.018335 61.988336 30.528335 61.963336 C 30.038335 61.940003 29.548335 61.903336 29.060001 61.855003 C 28.571668 61.806669 28.083334 61.746669 27.598334 61.675003 C 27.111668 61.603336 26.628334 61.520003 26.146668 61.423336 C 25.665001 61.328336 25.186668 61.220003 24.710001 61.101669 C 24.235001 60.981669 23.761668 60.850003 23.291667 60.708336 C 22.821667 60.565003 22.355001 60.411669 21.893334 60.246669 C 21.431667 60.081669 20.973334 59.905003 20.520001 59.716669 C 20.066667 59.528336 19.616667 59.330003 19.173334 59.120003 C 18.730001 58.910003 18.291667 58.688336 17.858334 58.458336 C 17.425 58.226669 16.998334 57.985003 16.576667 57.731669 C 16.155 57.480002 15.741667 57.216669 15.333334 56.943336 C 14.925 56.671669 14.523334 56.388336 14.128334 56.096669 C 13.735 55.803336 13.348334 55.501669 12.968334 55.190002 C 12.588334 54.878336 12.216667 54.558336 11.853333 54.228336 C 11.49 53.898336 11.133333 53.560002 10.786667 53.213336 C 10.44 52.866669 10.101667 52.510002 9.771667 52.146669 C 9.441667 51.783336 9.121667 51.411669 8.81 51.031669 C 8.498333 50.651669 8.196667 50.265002 7.903333 49.871669 C 7.611667 49.476669 7.328333 49.075002 7.056667 48.666669 C 6.783333 48.258335 6.52 47.845002 6.268333 47.423335 C 6.015 47.001669 5.773333 46.575002 5.541666 46.141669 C 5.311666 45.708335 5.09 45.270002 4.88 44.826668 C 4.67 44.383335 4.471666 43.933335 4.283333 43.480002 C 4.095 43.026668 3.918333 42.568335 3.753333 42.106668 C 3.588333 41.645002 3.435 41.178335 3.291666 40.708335 C 3.15 40.238335 3.018333 39.765001 2.898333 39.290001 C 2.78 38.813335 2.671666 38.335001 2.576666 37.853335 C 2.48 37.371668 2.396666 36.888335 2.325 36.401668 C 2.253333 35.916668 2.193333 35.428335 2.145 34.940001 C 2.096666 34.451668 2.06 33.961668 2.036666 33.471668 C 2.011666 32.981668 2 32.491668 2 32.000001 C 2 31.508334 2.011666 31.018334 2.036666 30.528334 C 2.06 30.038334 2.096666 29.548334 2.145 29.060001 C 2.193333 28.571667 2.253333 28.083334 2.325 27.598334 C 2.396666 27.111667 2.48 26.628334 2.576666 26.146667 C 2.671666 25.665001 2.78 25.186667 2.898333 24.710001 C 3.018333 24.235001 3.15 23.761667 3.291666 23.291667 C 3.435 22.821667 3.588333 22.355 3.753333 21.893334 C 3.918333 21.431667 4.095 20.973334 4.283333 20.52 C 4.471666 20.066667 4.67 19.616667 4.88 19.173334 C 5.09 18.73 5.311666 18.291667 5.541666 17.858334 C 5.773333 17.425 6.015 16.998333 6.268333 16.576667 C 6.52 16.155 6.783333 15.741667 7.056667 15.333333 C 7.328333 14.925 7.611667 14.523333 7.903333 14.128333 C 8.196667 13.735 8.498333 13.348333 8.81 12.968333 C 9.121667 12.588333 9.441667 12.216667 9.771667 11.853333 C 10.101667 11.49 10.44 11.133333 10.786667 10.786666 C 11.133333 10.44 11.49 10.101666 11.853333 9.771666 C 12.216667 9.441666 12.588334 9.121666 12.968334 8.81 C 13.348334 8.498333 13.735 8.196666 14.128334 7.903333 C 14.523334 7.611666 14.925 7.328333 15.333334 7.056666 C 15.741667 6.783333 16.155 6.52 16.576667 6.268333 C 16.998334 6.014999 17.425 5.773333 17.858334 5.541666 C 18.291667 5.311666 18.730001 5.089999 19.173334 4.879999 C 19.616667 4.669999 20.066667 4.471666 20.520001 4.283333 C 20.973334 4.094999 21.431667 3.918333 21.893334 3.753333 C 22.355001 3.588333 22.821667 3.434999 23.291667 3.291666 C 23.761668 3.149999 24.235001 3.018333 24.710001 2.898333 C 25.186668 2.779999 25.665001 2.671666 26.146668 2.576666 C 26.628334 2.479999 27.111668 2.396666 27.598334 2.324999 C 28.083334 2.253333 28.571668 2.193333 29.060001 2.144999 C 29.548335 2.096666 30.038335 2.059999 30.528335 2.036666 C 31.018335 2.011666 31.508335 1.999999 32.000001 1.999999 C 32.491668 1.999999 32.981668 2.011666 33.471668 2.036666 C 33.961668 2.059999 34.451668 2.096666 34.940002 2.144999 C 35.428335 2.193333 35.916668 2.253333 36.401668 2.324999 C 36.888335 2.396666 37.371668 2.479999 37.853335 2.576666 C 38.335002 2.671666 38.813335 2.779999 39.290002 2.898333 C 39.765002 3.018333 40.238335 3.149999 40.708335 3.291666 C 41.178335 3.434999 41.645002 3.588333 42.106669 3.753333 C 42.568335 3.918333 43.026669 4.094999 43.480002 4.283333 C 43.933335 4.471666 44.383335 4.669999 44.826669 4.879999 C 45.270002 5.089999 45.708335 5.311666 46.141669 5.541666 C 46.575002 5.773333 47.001669 6.014999 47.423336 6.268333 C 47.845002 6.52 48.258336 6.783333 48.666669 7.056666 C 49.075002 7.328333 49.476669 7.611666 49.871669 7.903333 C 50.265002 8.196666 50.651669 8.498333 51.031669 8.81 C 51.411669 9.121666 51.783336 9.441666 52.146669 9.771666 C 52.510003 10.101666 52.866669 10.44 53.213336 10.786666 C 53.560003 11.133333 53.898336 11.49 54.228336 11.853333 C 54.558336 12.216667 54.878336 12.588333 55.190003 12.968333 C 55.501669 13.348333 55.803336 13.735 56.096669 14.128333 C 56.388336 14.523333 56.671669 14.925 56.943336 15.333333 C 57.216669 15.741667 57.480003 16.155 57.73167 16.576667 C 57.985003 16.998333 58.22667 17.425 58.458336 17.858334 C 58.688336 18.291667 58.910003 18.73 59.120003 19.173334 C 59.330003 19.616667 59.528336 20.066667 59.71667 20.52 C 59.905003 20.973334 60.08167 21.431667 60.24667 21.893334 C 60.41167 22.355 60.565003 22.821667 60.708336 23.291667 C 60.850003 23.761667 60.98167 24.235001 61.10167 24.710001 C 61.220003 25.186667 61.328336 25.665001 61.423336 26.146667 C 61.520003 26.628334 61.603336 27.111667 61.675003 27.598334 C 61.74667 28.083334 61.80667 28.571667 61.855003 29.060001 C 61.903336 29.548334 61.940003 30.038334 61.963336 30.528334 C 61.988336 31.018334 62.000003 31.508334 62.000003 32.000001 Z M 62.000003 32.000001 " transform="matrix(2.34375,0,0,2.34375,0.00000125,0.000002)"/><path style="fill-rule:nonzero;fill:#2bd1ff;fill-opacity:1;stroke-width:1.5;stroke-linecap:butt;stroke-linejoin:miter;stroke:#107a97;stroke-opacity:1;stroke-miterlimit:4;" d="M 43.000002 22 C 43.000002 22.36 42.981669 22.72 42.946669 23.078334 C 42.911669 23.436667 42.858335 23.793334 42.788335 24.146667 C 42.718335 24.500001 42.631669 24.848334 42.526669 25.193334 C 42.421669 25.538334 42.300002 25.876667 42.163335 26.210001 C 42.025002 26.541667 41.871669 26.868334 41.701669 27.185001 C 41.531669 27.503334 41.346669 27.811667 41.146669 28.111667 C 40.946669 28.410001 40.731669 28.700001 40.503335 28.978334 C 40.275002 29.256668 40.033335 29.523334 39.778335 29.778334 C 39.523335 30.033334 39.256668 30.275001 38.978335 30.503334 C 38.700002 30.731668 38.410002 30.946668 38.111668 31.146668 C 37.811668 31.346668 37.503335 31.531668 37.185002 31.701668 C 36.868335 31.871668 36.541668 32.025001 36.210002 32.163334 C 35.876668 32.300001 35.538335 32.421668 35.193335 32.526668 C 34.848335 32.631668 34.500001 32.718334 34.146668 32.788334 C 33.793335 32.858334 33.436668 32.911668 33.078335 32.946668 C 32.720001 32.981668 32.360001 33.000001 32.000001 33.000001 C 31.640001 33.000001 31.280001 32.981668 30.921668 32.946668 C 30.563335 32.911668 30.206668 32.858334 29.853335 32.788334 C 29.500001 32.718334 29.151668 32.631668 28.806668 32.526668 C 28.461668 32.421668 28.123334 32.300001 27.790001 32.163334 C 27.458334 32.025001 27.131668 31.871668 26.815001 31.701668 C 26.496668 31.531668 26.188334 31.346668 25.888334 31.146668 C 25.590001 30.946668 25.300001 30.731668 25.021668 30.503334 C 24.743334 30.275001 24.476668 30.033334 24.221668 29.778334 C 23.966668 29.523334 23.725001 29.256668 23.496668 28.978334 C 23.268334 28.700001 23.053334 28.410001 22.853334 28.111667 C 22.653334 27.811667 22.468334 27.503334 22.298334 27.185001 C 22.128334 26.868334 21.975001 26.541667 21.836667 26.210001 C 21.700001 25.876667 21.578334 25.538334 21.473334 25.193334 C 21.368334 24.848334 21.281667 24.500001 21.211667 24.146667 C 21.141667 23.793334 21.088334 23.436667 21.053334 23.078334 C 21.018334 22.72 21.000001 22.36 21.000001 22 C 21.000001 21.64 21.018334 21.28 21.053334 20.921667 C 21.088334 20.563334 21.141667 20.206667 21.211667 19.853334 C 21.281667 19.5 21.368334 19.151667 21.473334 18.806667 C 21.578334 18.461667 21.700001 18.123334 21.836667 17.79 C 21.975001 17.458333 22.128334 17.131667 22.298334 16.815 C 22.468334 16.496667 22.653334 16.188333 22.853334 15.888333 C 23.053334 15.59 23.268334 15.3 23.496668 15.021667 C 23.725001 14.743333 23.966668 14.476667 24.221668 14.221667 C 24.476668 13.966667 24.743334 13.725 25.021668 13.496667 C 25.300001 13.268333 25.590001 13.053333 25.888334 12.853333 C 26.188334 12.653333 26.496668 12.468333 26.815001 12.298333 C 27.131668 12.128333 27.458334 11.975 27.790001 11.836667 C 28.123334 11.7 28.461668 11.578333 28.806668 11.473333 C 29.151668 11.368333 29.500001 11.281666 29.853335 11.211666 C 30.206668 11.141666 30.563335 11.088333 30.921668 11.053333 C 31.280001 11.018333 31.640001 11 32.000001 11 C 32.360001 11 32.720001 11.018333 33.078335 11.053333 C 33.436668 11.088333 33.793335 11.141666 34.146668 11.211666 C 34.500001 11.281666 34.848335 11.368333 35.193335 11.473333 C 35.538335 11.578333 35.876668 11.7 36.210002 11.836667 C 36.541668 11.975 36.868335 12.128333 37.185002 12.298333 C 37.503335 12.468333 37.811668 12.653333 38.111668 12.853333 C 38.410002 13.053333 38.700002 13.268333 38.978335 13.496667 C 39.256668 13.725 39.523335 13.966667 39.778335 14.221667 C 40.033335 14.476667 40.275002 14.743333 40.503335 15.021667 C 40.731669 15.3 40.946669 15.59 41.146669 15.888333 C 41.346669 16.188333 41.531669 16.496667 41.701669 16.815 C 41.871669 17.131667 42.025002 17.458333 42.163335 17.79 C 42.300002 18.123334 42.421669 18.461667 42.526669 18.806667 C 42.631669 19.151667 42.718335 19.5 42.788335 19.853334 C 42.858335 20.206667 42.911669 20.563334 42.946669 20.921667 C 42.981669 21.28 43.000002 21.64 43.000002 22 Z M 43.000002 22 " transform="matrix(2.34375,0,0,2.34375,0.00000125,0.000002)"/><path style="fill-rule:nonzero;fill:#2bd1ff;fill-opacity:1;stroke-width:1.5;stroke-linecap:butt;stroke-linejoin:round;stroke:#107a97;stroke-opacity:1;stroke-miterlimit:4;" d="M 16 50.000002 C 16 38.000001 48.000002 38.000001 48.000002 50.000002 Z M 16 50.000002 " transform="matrix(2.34375,0,0,2.34375,0.00000125,0.000002)"/></g></svg>
