<svg xmlns="http://www.w3.org/2000/svg" xmlns:xlink="http://www.w3.org/1999/xlink" width="120" zoomAndPan="magnify" viewBox="0 0 90 89.999999" height="120" preserveAspectRatio="xMidYMid meet" version="1.2"><defs><clipPath id="a1c361781c"><path d="M 9 10 L 81 10 L 81 80 L 9 80 Z M 9 10 "/></clipPath><clipPath id="57097f73b3"><path d="M 19.5 10.5 L 70.5 10.5 C 71.1875 10.5 71.871094 10.566406 72.546875 10.703125 C 73.226562 10.835938 73.882812 11.035156 74.519531 11.300781 C 75.15625 11.5625 75.761719 11.886719 76.332031 12.269531 C 76.90625 12.652344 77.4375 13.085938 77.925781 13.574219 C 78.414062 14.0625 78.847656 14.59375 79.230469 15.167969 C 79.613281 15.738281 79.9375 16.34375 80.199219 16.980469 C 80.464844 17.617188 80.664062 18.273438 80.796875 18.953125 C 80.933594 19.628906 81 20.3125 81 21 L 81 69 C 81 69.6875 80.933594 70.371094 80.796875 71.046875 C 80.664062 71.726562 80.464844 72.382812 80.199219 73.019531 C 79.9375 73.65625 79.613281 74.261719 79.230469 74.832031 C 78.847656 75.40625 78.414062 75.9375 77.925781 76.425781 C 77.4375 76.914062 76.90625 77.347656 76.332031 77.730469 C 75.761719 78.113281 75.15625 78.4375 74.519531 78.699219 C 73.882812 78.964844 73.226562 79.164062 72.546875 79.296875 C 71.871094 79.433594 71.1875 79.5 70.5 79.5 L 19.5 79.5 C 18.8125 79.5 18.128906 79.433594 17.453125 79.296875 C 16.773438 79.164062 16.117188 78.964844 15.480469 78.699219 C 14.84375 78.4375 14.238281 78.113281 13.667969 77.730469 C 13.09375 77.347656 12.5625 76.914062 12.074219 76.425781 C 11.585938 75.9375 11.152344 75.40625 10.769531 74.832031 C 10.386719 74.261719 10.0625 73.65625 9.800781 73.019531 C 9.535156 72.382812 9.335938 71.726562 9.203125 71.046875 C 9.066406 70.371094 9 69.6875 9 69 L 9 21 C 9 20.3125 9.066406 19.628906 9.203125 18.953125 C 9.335938 18.273438 9.535156 17.617188 9.800781 16.980469 C 10.0625 16.34375 10.386719 15.738281 10.769531 15.167969 C 11.152344 14.59375 11.585938 14.0625 12.074219 13.574219 C 12.5625 13.085938 13.09375 12.652344 13.667969 12.269531 C 14.238281 11.886719 14.84375 11.5625 15.480469 11.300781 C 16.117188 11.035156 16.773438 10.835938 17.453125 10.703125 C 18.128906 10.566406 18.8125 10.5 19.5 10.5 Z M 19.5 10.5 "/></clipPath><linearGradient x1="0" gradientTransform="matrix(71.999999,0,0,68.999999,9,10.500002)" y1="-0.00000000634058" x2="0" gradientUnits="userSpaceOnUse" y2="1" id="2fbb2d19dd"><stop style="stop-color:#b8d0ff;stop-opacity:1;" offset="0"/><stop style="stop-color:#b7d0ff;stop-opacity:1;" offset="0.00390625"/><stop style="stop-color:#b7cffe;stop-opacity:1;" offset="0.0078125"/><stop style="stop-color:#b6cffe;stop-opacity:1;" offset="0.0117188"/><stop style="stop-color:#b6cefe;stop-opacity:1;" offset="0.015625"/><stop style="stop-color:#b5cefd;stop-opacity:1;" offset="0.0195313"/><stop style="stop-color:#b4cdfd;stop-opacity:1;" offset="0.0234375"/><stop style="stop-color:#b4cdfc;stop-opacity:1;" offset="0.0273438"/><stop style="stop-color:#b3ccfc;stop-opacity:1;" offset="0.03125"/><stop style="stop-color:#b3ccfc;stop-opacity:1;" offset="0.0351563"/><stop style="stop-color:#b2cbfb;stop-opacity:1;" offset="0.0390625"/><stop style="stop-color:#b1cbfb;stop-opacity:1;" offset="0.0429688"/><stop style="stop-color:#b1cafb;stop-opacity:1;" offset="0.046875"/><stop style="stop-color:#b0cafa;stop-opacity:1;" offset="0.0507813"/><stop style="stop-color:#b0c9fa;stop-opacity:1;" offset="0.0546875"/><stop style="stop-color:#afc9f9;stop-opacity:1;" offset="0.0585938"/><stop style="stop-color:#aec8f9;stop-opacity:1;" offset="0.0625"/><stop style="stop-color:#aec8f9;stop-opacity:1;" offset="0.0664063"/><stop style="stop-color:#adc7f8;stop-opacity:1;" offset="0.0703125"/><stop style="stop-color:#adc7f8;stop-opacity:1;" offset="0.0742188"/><stop style="stop-color:#acc6f8;stop-opacity:1;" offset="0.078125"/><stop style="stop-color:#abc6f7;stop-opacity:1;" offset="0.0820313"/><stop style="stop-color:#abc5f7;stop-opacity:1;" offset="0.0859375"/><stop style="stop-color:#aac5f7;stop-opacity:1;" offset="0.0898438"/><stop style="stop-color:#aac4f6;stop-opacity:1;" offset="0.09375"/><stop style="stop-color:#a9c4f6;stop-opacity:1;" offset="0.0976563"/><stop style="stop-color:#a8c3f5;stop-opacity:1;" offset="0.101563"/><stop style="stop-color:#a8c3f5;stop-opacity:1;" offset="0.105469"/><stop style="stop-color:#a7c2f5;stop-opacity:1;" offset="0.109375"/><stop style="stop-color:#a7c2f4;stop-opacity:1;" offset="0.113281"/><stop style="stop-color:#a6c1f4;stop-opacity:1;" offset="0.117188"/><stop style="stop-color:#a5c1f4;stop-opacity:1;" offset="0.121094"/><stop style="stop-color:#a5c0f3;stop-opacity:1;" offset="0.125"/><stop style="stop-color:#a4c0f3;stop-opacity:1;" offset="0.128906"/><stop style="stop-color:#a4c0f3;stop-opacity:1;" offset="0.132813"/><stop style="stop-color:#a3bff2;stop-opacity:1;" offset="0.136719"/><stop style="stop-color:#a2bff2;stop-opacity:1;" offset="0.140625"/><stop style="stop-color:#a2bef1;stop-opacity:1;" offset="0.144531"/><stop style="stop-color:#a1bef1;stop-opacity:1;" offset="0.148438"/><stop style="stop-color:#a1bdf1;stop-opacity:1;" offset="0.152344"/><stop style="stop-color:#a0bdf0;stop-opacity:1;" offset="0.15625"/><stop style="stop-color:#9fbcf0;stop-opacity:1;" offset="0.160156"/><stop style="stop-color:#9fbcf0;stop-opacity:1;" offset="0.164063"/><stop style="stop-color:#9ebbef;stop-opacity:1;" offset="0.167969"/><stop style="stop-color:#9ebbef;stop-opacity:1;" offset="0.171875"/><stop style="stop-color:#9dbaee;stop-opacity:1;" offset="0.175781"/><stop style="stop-color:#9cbaee;stop-opacity:1;" offset="0.179688"/><stop style="stop-color:#9cb9ee;stop-opacity:1;" offset="0.183594"/><stop style="stop-color:#9bb9ed;stop-opacity:1;" offset="0.1875"/><stop style="stop-color:#9bb8ed;stop-opacity:1;" offset="0.191406"/><stop style="stop-color:#9ab8ed;stop-opacity:1;" offset="0.195313"/><stop style="stop-color:#99b7ec;stop-opacity:1;" offset="0.199219"/><stop style="stop-color:#99b7ec;stop-opacity:1;" offset="0.203125"/><stop style="stop-color:#98b6ec;stop-opacity:1;" offset="0.207031"/><stop style="stop-color:#98b6eb;stop-opacity:1;" offset="0.210938"/><stop style="stop-color:#97b5eb;stop-opacity:1;" offset="0.214844"/><stop style="stop-color:#96b5ea;stop-opacity:1;" offset="0.21875"/><stop style="stop-color:#96b4ea;stop-opacity:1;" offset="0.222656"/><stop style="stop-color:#95b4ea;stop-opacity:1;" offset="0.226563"/><stop style="stop-color:#95b3e9;stop-opacity:1;" offset="0.230469"/><stop style="stop-color:#94b3e9;stop-opacity:1;" offset="0.234375"/><stop style="stop-color:#93b2e9;stop-opacity:1;" offset="0.238281"/><stop style="stop-color:#93b2e8;stop-opacity:1;" offset="0.242188"/><stop style="stop-color:#92b1e8;stop-opacity:1;" offset="0.246094"/><stop style="stop-color:#91b1e7;stop-opacity:1;" offset="0.25"/><stop style="stop-color:#91b1e7;stop-opacity:1;" offset="0.253906"/><stop style="stop-color:#90b0e7;stop-opacity:1;" offset="0.257812"/><stop style="stop-color:#90b0e6;stop-opacity:1;" offset="0.261719"/><stop style="stop-color:#8fafe6;stop-opacity:1;" offset="0.265625"/><stop style="stop-color:#8eafe6;stop-opacity:1;" offset="0.269531"/><stop style="stop-color:#8eaee5;stop-opacity:1;" offset="0.273438"/><stop style="stop-color:#8daee5;stop-opacity:1;" offset="0.277344"/><stop style="stop-color:#8dade5;stop-opacity:1;" offset="0.28125"/><stop style="stop-color:#8cade4;stop-opacity:1;" offset="0.285156"/><stop style="stop-color:#8bace4;stop-opacity:1;" offset="0.289062"/><stop style="stop-color:#8bace3;stop-opacity:1;" offset="0.292969"/><stop style="stop-color:#8aabe3;stop-opacity:1;" offset="0.296875"/><stop style="stop-color:#8aabe3;stop-opacity:1;" offset="0.300781"/><stop style="stop-color:#89aae2;stop-opacity:1;" offset="0.304688"/><stop style="stop-color:#88aae2;stop-opacity:1;" offset="0.308594"/><stop style="stop-color:#88a9e2;stop-opacity:1;" offset="0.3125"/><stop style="stop-color:#87a9e1;stop-opacity:1;" offset="0.316406"/><stop style="stop-color:#87a8e1;stop-opacity:1;" offset="0.320312"/><stop style="stop-color:#86a8e1;stop-opacity:1;" offset="0.324219"/><stop style="stop-color:#85a7e0;stop-opacity:1;" offset="0.328125"/><stop style="stop-color:#85a7e0;stop-opacity:1;" offset="0.332031"/><stop style="stop-color:#84a6df;stop-opacity:1;" offset="0.335938"/><stop style="stop-color:#84a6df;stop-opacity:1;" offset="0.339844"/><stop style="stop-color:#83a5df;stop-opacity:1;" offset="0.34375"/><stop style="stop-color:#82a5de;stop-opacity:1;" offset="0.347656"/><stop style="stop-color:#82a4de;stop-opacity:1;" offset="0.351562"/><stop style="stop-color:#81a4de;stop-opacity:1;" offset="0.355469"/><stop style="stop-color:#81a3dd;stop-opacity:1;" offset="0.359375"/><stop style="stop-color:#80a3dd;stop-opacity:1;" offset="0.363281"/><stop style="stop-color:#7fa2dc;stop-opacity:1;" offset="0.367188"/><stop style="stop-color:#7fa2dc;stop-opacity:1;" offset="0.371094"/><stop style="stop-color:#7ea1dc;stop-opacity:1;" offset="0.375"/><stop style="stop-color:#7ea1db;stop-opacity:1;" offset="0.378906"/><stop style="stop-color:#7da1db;stop-opacity:1;" offset="0.382812"/><stop style="stop-color:#7ca0db;stop-opacity:1;" offset="0.386719"/><stop style="stop-color:#7ca0da;stop-opacity:1;" offset="0.390625"/><stop style="stop-color:#7b9fda;stop-opacity:1;" offset="0.394531"/><stop style="stop-color:#7b9fda;stop-opacity:1;" offset="0.398438"/><stop style="stop-color:#7a9ed9;stop-opacity:1;" offset="0.402344"/><stop style="stop-color:#799ed9;stop-opacity:1;" offset="0.40625"/><stop style="stop-color:#799dd8;stop-opacity:1;" offset="0.410156"/><stop style="stop-color:#789dd8;stop-opacity:1;" offset="0.414062"/><stop style="stop-color:#789cd8;stop-opacity:1;" offset="0.417969"/><stop style="stop-color:#779cd7;stop-opacity:1;" offset="0.421875"/><stop style="stop-color:#769bd7;stop-opacity:1;" offset="0.425781"/><stop style="stop-color:#769bd7;stop-opacity:1;" offset="0.429688"/><stop style="stop-color:#759ad6;stop-opacity:1;" offset="0.433594"/><stop style="stop-color:#759ad6;stop-opacity:1;" offset="0.4375"/><stop style="stop-color:#7499d6;stop-opacity:1;" offset="0.441406"/><stop style="stop-color:#7399d5;stop-opacity:1;" offset="0.445312"/><stop style="stop-color:#7398d5;stop-opacity:1;" offset="0.449219"/><stop style="stop-color:#7298d4;stop-opacity:1;" offset="0.453125"/><stop style="stop-color:#7297d4;stop-opacity:1;" offset="0.457031"/><stop style="stop-color:#7197d4;stop-opacity:1;" offset="0.460938"/><stop style="stop-color:#7096d3;stop-opacity:1;" offset="0.464844"/><stop style="stop-color:#7096d3;stop-opacity:1;" offset="0.46875"/><stop style="stop-color:#6f95d3;stop-opacity:1;" offset="0.472656"/><stop style="stop-color:#6f95d2;stop-opacity:1;" offset="0.476562"/><stop style="stop-color:#6e94d2;stop-opacity:1;" offset="0.480469"/><stop style="stop-color:#6d94d1;stop-opacity:1;" offset="0.484375"/><stop style="stop-color:#6d93d1;stop-opacity:1;" offset="0.488281"/><stop style="stop-color:#6c93d1;stop-opacity:1;" offset="0.492188"/><stop style="stop-color:#6c92d0;stop-opacity:1;" offset="0.496094"/><stop style="stop-color:#6b92d0;stop-opacity:1;" offset="0.5"/><stop style="stop-color:#6b92cf;stop-opacity:1;" offset="0.503906"/><stop style="stop-color:#6a91cf;stop-opacity:1;" offset="0.507812"/><stop style="stop-color:#6a91ce;stop-opacity:1;" offset="0.511719"/><stop style="stop-color:#6990ce;stop-opacity:1;" offset="0.515625"/><stop style="stop-color:#6990cd;stop-opacity:1;" offset="0.519531"/><stop style="stop-color:#688fcd;stop-opacity:1;" offset="0.523438"/><stop style="stop-color:#688fcc;stop-opacity:1;" offset="0.527344"/><stop style="stop-color:#678ecc;stop-opacity:1;" offset="0.53125"/><stop style="stop-color:#678ecb;stop-opacity:1;" offset="0.535156"/><stop style="stop-color:#668dcb;stop-opacity:1;" offset="0.539062"/><stop style="stop-color:#668dca;stop-opacity:1;" offset="0.542969"/><stop style="stop-color:#658cca;stop-opacity:1;" offset="0.546875"/><stop style="stop-color:#658cc9;stop-opacity:1;" offset="0.550781"/><stop style="stop-color:#648cc9;stop-opacity:1;" offset="0.554688"/><stop style="stop-color:#648bc8;stop-opacity:1;" offset="0.558594"/><stop style="stop-color:#638bc8;stop-opacity:1;" offset="0.5625"/><stop style="stop-color:#638ac7;stop-opacity:1;" offset="0.566406"/><stop style="stop-color:#628ac7;stop-opacity:1;" offset="0.570312"/><stop style="stop-color:#6289c6;stop-opacity:1;" offset="0.574219"/><stop style="stop-color:#6189c6;stop-opacity:1;" offset="0.578125"/><stop style="stop-color:#6188c5;stop-opacity:1;" offset="0.582031"/><stop style="stop-color:#6188c5;stop-opacity:1;" offset="0.585938"/><stop style="stop-color:#6087c4;stop-opacity:1;" offset="0.589844"/><stop style="stop-color:#6087c4;stop-opacity:1;" offset="0.59375"/><stop style="stop-color:#5f86c3;stop-opacity:1;" offset="0.597656"/><stop style="stop-color:#5f86c3;stop-opacity:1;" offset="0.601562"/><stop style="stop-color:#5e86c2;stop-opacity:1;" offset="0.605469"/><stop style="stop-color:#5e85c2;stop-opacity:1;" offset="0.609375"/><stop style="stop-color:#5d85c1;stop-opacity:1;" offset="0.613281"/><stop style="stop-color:#5d84c1;stop-opacity:1;" offset="0.617188"/><stop style="stop-color:#5c84c0;stop-opacity:1;" offset="0.621094"/><stop style="stop-color:#5c83c0;stop-opacity:1;" offset="0.625"/><stop style="stop-color:#5b83bf;stop-opacity:1;" offset="0.628906"/><stop style="stop-color:#5b82bf;stop-opacity:1;" offset="0.632812"/><stop style="stop-color:#5a82be;stop-opacity:1;" offset="0.636719"/><stop style="stop-color:#5a81be;stop-opacity:1;" offset="0.640625"/><stop style="stop-color:#5981bd;stop-opacity:1;" offset="0.644531"/><stop style="stop-color:#5980bd;stop-opacity:1;" offset="0.648438"/><stop style="stop-color:#5880bc;stop-opacity:1;" offset="0.652344"/><stop style="stop-color:#5880bc;stop-opacity:1;" offset="0.65625"/><stop style="stop-color:#577fbb;stop-opacity:1;" offset="0.660156"/><stop style="stop-color:#577fbb;stop-opacity:1;" offset="0.664062"/><stop style="stop-color:#577eba;stop-opacity:1;" offset="0.667969"/><stop style="stop-color:#567eba;stop-opacity:1;" offset="0.671875"/><stop style="stop-color:#567db9;stop-opacity:1;" offset="0.675781"/><stop style="stop-color:#557db9;stop-opacity:1;" offset="0.679688"/><stop style="stop-color:#557cb8;stop-opacity:1;" offset="0.683594"/><stop style="stop-color:#547cb8;stop-opacity:1;" offset="0.6875"/><stop style="stop-color:#547bb7;stop-opacity:1;" offset="0.691406"/><stop style="stop-color:#537bb7;stop-opacity:1;" offset="0.695312"/><stop style="stop-color:#537ab6;stop-opacity:1;" offset="0.699219"/><stop style="stop-color:#527ab6;stop-opacity:1;" offset="0.703125"/><stop style="stop-color:#527ab5;stop-opacity:1;" offset="0.707031"/><stop style="stop-color:#5179b5;stop-opacity:1;" offset="0.710938"/><stop style="stop-color:#5179b4;stop-opacity:1;" offset="0.714844"/><stop style="stop-color:#5078b4;stop-opacity:1;" offset="0.71875"/><stop style="stop-color:#5078b3;stop-opacity:1;" offset="0.722656"/><stop style="stop-color:#4f77b3;stop-opacity:1;" offset="0.726562"/><stop style="stop-color:#4f77b2;stop-opacity:1;" offset="0.730469"/><stop style="stop-color:#4e76b2;stop-opacity:1;" offset="0.734375"/><stop style="stop-color:#4e76b1;stop-opacity:1;" offset="0.738281"/><stop style="stop-color:#4d75b1;stop-opacity:1;" offset="0.742188"/><stop style="stop-color:#4d75b0;stop-opacity:1;" offset="0.746094"/><stop style="stop-color:#4c74b0;stop-opacity:1;" offset="0.75"/><stop style="stop-color:#4c74af;stop-opacity:1;" offset="0.753906"/><stop style="stop-color:#4c74ae;stop-opacity:1;" offset="0.757812"/><stop style="stop-color:#4b73ae;stop-opacity:1;" offset="0.761719"/><stop style="stop-color:#4b73ad;stop-opacity:1;" offset="0.765625"/><stop style="stop-color:#4a72ad;stop-opacity:1;" offset="0.769531"/><stop style="stop-color:#4a72ac;stop-opacity:1;" offset="0.773438"/><stop style="stop-color:#4971ac;stop-opacity:1;" offset="0.777344"/><stop style="stop-color:#4971ab;stop-opacity:1;" offset="0.78125"/><stop style="stop-color:#4870ab;stop-opacity:1;" offset="0.785156"/><stop style="stop-color:#4870aa;stop-opacity:1;" offset="0.789062"/><stop style="stop-color:#476faa;stop-opacity:1;" offset="0.792969"/><stop style="stop-color:#476fa9;stop-opacity:1;" offset="0.796875"/><stop style="stop-color:#466fa9;stop-opacity:1;" offset="0.800781"/><stop style="stop-color:#466ea8;stop-opacity:1;" offset="0.804688"/><stop style="stop-color:#456ea8;stop-opacity:1;" offset="0.808594"/><stop style="stop-color:#456da7;stop-opacity:1;" offset="0.8125"/><stop style="stop-color:#446da7;stop-opacity:1;" offset="0.816406"/><stop style="stop-color:#446ca6;stop-opacity:1;" offset="0.820312"/><stop style="stop-color:#436ca6;stop-opacity:1;" offset="0.824219"/><stop style="stop-color:#436ba5;stop-opacity:1;" offset="0.828125"/><stop style="stop-color:#426ba5;stop-opacity:1;" offset="0.832031"/><stop style="stop-color:#426aa4;stop-opacity:1;" offset="0.835938"/><stop style="stop-color:#426aa4;stop-opacity:1;" offset="0.839844"/><stop style="stop-color:#4169a3;stop-opacity:1;" offset="0.84375"/><stop style="stop-color:#4169a3;stop-opacity:1;" offset="0.847656"/><stop style="stop-color:#4069a2;stop-opacity:1;" offset="0.851562"/><stop style="stop-color:#4068a2;stop-opacity:1;" offset="0.855469"/><stop style="stop-color:#3f68a1;stop-opacity:1;" offset="0.859375"/><stop style="stop-color:#3f67a1;stop-opacity:1;" offset="0.863281"/><stop style="stop-color:#3e67a0;stop-opacity:1;" offset="0.867188"/><stop style="stop-color:#3e66a0;stop-opacity:1;" offset="0.871094"/><stop style="stop-color:#3d669f;stop-opacity:1;" offset="0.875"/><stop style="stop-color:#3d659f;stop-opacity:1;" offset="0.878906"/><stop style="stop-color:#3c659e;stop-opacity:1;" offset="0.882812"/><stop style="stop-color:#3c649e;stop-opacity:1;" offset="0.886719"/><stop style="stop-color:#3b649d;stop-opacity:1;" offset="0.890625"/><stop style="stop-color:#3b639d;stop-opacity:1;" offset="0.894531"/><stop style="stop-color:#3a639c;stop-opacity:1;" offset="0.898438"/><stop style="stop-color:#3a639c;stop-opacity:1;" offset="0.902344"/><stop style="stop-color:#39629b;stop-opacity:1;" offset="0.90625"/><stop style="stop-color:#39629b;stop-opacity:1;" offset="0.910156"/><stop style="stop-color:#38619a;stop-opacity:1;" offset="0.914062"/><stop style="stop-color:#38619a;stop-opacity:1;" offset="0.917969"/><stop style="stop-color:#386099;stop-opacity:1;" offset="0.921875"/><stop style="stop-color:#376099;stop-opacity:1;" offset="0.925781"/><stop style="stop-color:#375f98;stop-opacity:1;" offset="0.929688"/><stop style="stop-color:#365f98;stop-opacity:1;" offset="0.933594"/><stop style="stop-color:#365e97;stop-opacity:1;" offset="0.9375"/><stop style="stop-color:#355e97;stop-opacity:1;" offset="0.941406"/><stop style="stop-color:#355d96;stop-opacity:1;" offset="0.945312"/><stop style="stop-color:#345d96;stop-opacity:1;" offset="0.949219"/><stop style="stop-color:#345d95;stop-opacity:1;" offset="0.953125"/><stop style="stop-color:#335c95;stop-opacity:1;" offset="0.957031"/><stop style="stop-color:#335c94;stop-opacity:1;" offset="0.960938"/><stop style="stop-color:#325b94;stop-opacity:1;" offset="0.964844"/><stop style="stop-color:#325b93;stop-opacity:1;" offset="0.96875"/><stop style="stop-color:#315a93;stop-opacity:1;" offset="0.972656"/><stop style="stop-color:#315a92;stop-opacity:1;" offset="0.976562"/><stop style="stop-color:#305992;stop-opacity:1;" offset="0.980469"/><stop style="stop-color:#305991;stop-opacity:1;" offset="0.984375"/><stop style="stop-color:#2f5891;stop-opacity:1;" offset="0.988281"/><stop style="stop-color:#2f5890;stop-opacity:1;" offset="0.992188"/><stop style="stop-color:#2e5790;stop-opacity:1;" offset="0.996094"/><stop style="stop-color:#2e578f;stop-opacity:1;" offset="1"/></linearGradient><clipPath id="294e3e8ed0"><path d="M 25 23 L 69 23 L 69 67.5 L 25 67.5 Z M 25 23 "/></clipPath></defs><g id="b675498689"><path style=" stroke:none;fill-rule:nonzero;fill:#2e578f;fill-opacity:1;" d="M 19.5 7.5 L 70.5 7.5 C 71.289062 7.5 72.066406 7.578125 72.839844 7.730469 C 73.613281 7.882812 74.363281 8.113281 75.09375 8.414062 C 75.820312 8.714844 76.511719 9.085938 77.167969 9.523438 C 77.820312 9.960938 78.429688 10.457031 78.984375 11.015625 C 79.542969 11.570312 80.039062 12.179688 80.476562 12.832031 C 80.914062 13.488281 81.285156 14.179688 81.585938 14.90625 C 81.886719 15.636719 82.117188 16.386719 82.269531 17.160156 C 82.421875 17.933594 82.5 18.710938 82.5 19.5 L 82.5 70.5 C 82.5 71.289062 82.421875 72.066406 82.269531 72.839844 C 82.117188 73.613281 81.886719 74.363281 81.585938 75.09375 C 81.285156 75.820312 80.914062 76.511719 80.476562 77.167969 C 80.039062 77.820312 79.542969 78.429688 78.984375 78.984375 C 78.429688 79.542969 77.820312 80.039062 77.167969 80.476562 C 76.511719 80.914062 75.820312 81.285156 75.09375 81.585938 C 74.363281 81.886719 73.613281 82.117188 72.839844 82.269531 C 72.066406 82.421875 71.289062 82.5 70.5 82.5 L 19.5 82.5 C 18.710938 82.5 17.933594 82.421875 17.160156 82.269531 C 16.386719 82.117188 15.636719 81.886719 14.90625 81.585938 C 14.179688 81.285156 13.488281 80.914062 12.832031 80.476562 C 12.179688 80.039062 11.570312 79.542969 11.015625 78.984375 C 10.457031 78.429688 9.960938 77.820312 9.523438 77.167969 C 9.085938 76.511719 8.714844 75.820312 8.414062 75.09375 C 8.113281 74.363281 7.882812 73.613281 7.730469 72.839844 C 7.578125 72.066406 7.5 71.289062 7.5 70.5 L 7.5 19.5 C 7.5 18.710938 7.578125 17.933594 7.730469 17.160156 C 7.882812 16.386719 8.113281 15.636719 8.414062 14.90625 C 8.714844 14.179688 9.085938 13.488281 9.523438 12.832031 C 9.960938 12.179688 10.457031 11.570312 11.015625 11.015625 C 11.570312 10.457031 12.179688 9.960938 12.832031 9.523438 C 13.488281 9.085938 14.179688 8.714844 14.90625 8.414062 C 15.636719 8.113281 16.386719 7.882812 17.160156 7.730469 C 17.933594 7.578125 18.710938 7.5 19.5 7.5 Z M 19.5 7.5 "/><g clip-rule="nonzero" clip-path="url(#a1c361781c)"><g clip-rule="nonzero" clip-path="url(#57097f73b3)"><path style=" stroke:none;fill-rule:nonzero;fill:url(#2fbb2d19dd);" d="M 9 10.5 L 9 79.5 L 81 79.5 L 81 10.5 Z M 9 10.5 "/></g></g><g clip-rule="nonzero" clip-path="url(#294e3e8ed0)"><path style=" stroke:none;fill-rule:nonzero;fill:#1a73e8;fill-opacity:1;" d="M 46.5 43.125 L 68.4375 43.125 C 68.8125 44.8125 69 46.5 69 48.1875 C 69 58.125 60.1875 67.5 47.8125 67.5 C 35.8125 67.5 25.875 57.375 25.875 45.375 C 25.875 33.375 35.8125 23.4375 47.8125 23.4375 C 53.625 23.4375 58.5 25.5 62.25 29.25 L 56.0625 35.4375 C 53.4375 33.75 50.8125 32.8125 47.8125 32.8125 C 40.3125 32.8125 34.3125 38.8125 34.3125 46.3125 C 34.3125 53.8125 40.3125 59.8125 47.8125 59.8125 C 54.9375 59.8125 59.4375 55.6875 60.1875 50.0625 L 46.5 50.0625 Z M 46.5 43.125 "/></g><path style=" stroke:none;fill-rule:nonzero;fill:#ea4335;fill-opacity:1;" d="M 68.4375 48.1875 C 68.8125 46.6875 69 45 69 43.3125 C 69 41.625 68.8125 39.9375 68.4375 38.25 L 46.5 38.25 L 46.5 47.4375 L 59.4375 47.4375 C 58.6875 53.0625 54.1875 57.1875 47.0625 57.1875 C 43.3125 57.1875 39.9375 55.875 37.5 53.4375 L 31.3125 59.4375 C 35.25 63.75 40.6875 66.5625 47.8125 66.5625 C 60.1875 66.5625 69 57.1875 68.4375 48.1875 Z M 68.4375 48.1875 "/><path style=" stroke:none;fill-rule:nonzero;fill:#fbbc05;fill-opacity:1;" d="M 33.5625 50.25 C 33 48.5625 32.625 46.6875 32.625 44.625 C 32.625 42.5625 33 40.6875 33.5625 39 L 27.375 32.8125 C 25.6875 36.5625 24.9375 40.6875 24.9375 44.625 C 24.9375 48.5625 25.6875 52.6875 27.375 56.25 Z M 33.5625 50.25 "/><path style=" stroke:none;fill-rule:nonzero;fill:#34a853;fill-opacity:1;" d="M 47.8125 32.8125 C 50.8125 32.8125 53.4375 33.75 55.5 35.4375 L 61.6875 29.25 C 57.5625 25.5 52.6875 23.4375 46.875 23.4375 C 39.75 23.4375 33.75 27.5625 30.9375 33.9375 L 37.3125 39.5625 C 39.75 33.9375 45.9375 32.8125 47.8125 32.8125 Z M 47.8125 32.8125 "/></g></svg>