<svg xmlns="http://www.w3.org/2000/svg" xmlns:xlink="http://www.w3.org/1999/xlink" width="120" zoomAndPan="magnify" viewBox="0 0 90 89.999999" height="120" preserveAspectRatio="xMidYMid meet" version="1.2"><defs><clipPath id="3b915c00d0"><path d="M 3 3 L 87 3 L 87 87 L 3 87 Z M 3 3 "/></clipPath><clipPath id="c9ab62a4b0"><path d="M 87 45 C 87 46.375 86.933594 47.746094 86.796875 49.117188 C 86.664062 50.484375 86.460938 51.84375 86.191406 53.195312 C 85.925781 54.542969 85.589844 55.875 85.191406 57.191406 C 84.792969 58.507812 84.328125 59.800781 83.804688 61.074219 C 83.277344 62.34375 82.6875 63.585938 82.039062 64.796875 C 81.390625 66.011719 80.6875 67.191406 79.921875 68.332031 C 79.15625 69.476562 78.339844 70.582031 77.464844 71.644531 C 76.59375 72.707031 75.671875 73.726562 74.699219 74.699219 C 73.726562 75.671875 72.707031 76.59375 71.644531 77.464844 C 70.582031 78.339844 69.476562 79.15625 68.332031 79.921875 C 67.191406 80.6875 66.011719 81.390625 64.796875 82.039062 C 63.585938 82.6875 62.34375 83.277344 61.074219 83.804688 C 59.800781 84.328125 58.507812 84.792969 57.191406 85.191406 C 55.875 85.589844 54.542969 85.925781 53.195312 86.191406 C 51.84375 86.460938 50.484375 86.664062 49.117188 86.796875 C 47.746094 86.933594 46.375 87 45 87 C 43.625 87 42.253906 86.933594 40.882812 86.796875 C 39.515625 86.664062 38.15625 86.460938 36.804688 86.191406 C 35.457031 85.925781 34.125 85.589844 32.808594 85.191406 C 31.492188 84.792969 30.199219 84.328125 28.925781 83.804688 C 27.65625 83.277344 26.414062 82.6875 25.203125 82.039062 C 23.988281 81.390625 22.808594 80.6875 21.667969 79.921875 C 20.523438 79.15625 19.417969 78.339844 18.355469 77.464844 C 17.292969 76.59375 16.273438 75.671875 15.300781 74.699219 C 14.328125 73.726562 13.40625 72.707031 12.535156 71.644531 C 11.660156 70.582031 10.84375 69.476562 10.078125 68.332031 C 9.3125 67.191406 8.609375 66.011719 7.960938 64.796875 C 7.3125 63.585938 6.722656 62.34375 6.195312 61.074219 C 5.671875 59.800781 5.207031 58.507812 4.808594 57.191406 C 4.410156 55.875 4.074219 54.542969 3.808594 53.195312 C 3.539062 51.84375 3.335938 50.484375 3.203125 49.117188 C 3.066406 47.746094 3 46.375 3 45 C 3 43.625 3.066406 42.253906 3.203125 40.882812 C 3.335938 39.515625 3.539062 38.15625 3.808594 36.804688 C 4.074219 35.457031 4.410156 34.125 4.808594 32.808594 C 5.207031 31.492188 5.671875 30.199219 6.195312 28.925781 C 6.722656 27.65625 7.3125 26.414062 7.960938 25.203125 C 8.609375 23.988281 9.3125 22.808594 10.078125 21.667969 C 10.84375 20.523438 11.660156 19.417969 12.535156 18.355469 C 13.40625 17.292969 14.328125 16.273438 15.300781 15.300781 C 16.273438 14.328125 17.292969 13.40625 18.355469 12.535156 C 19.417969 11.660156 20.523438 10.84375 21.667969 10.078125 C 22.808594 9.3125 23.988281 8.609375 25.203125 7.960938 C 26.414062 7.3125 27.65625 6.722656 28.925781 6.195312 C 30.199219 5.671875 31.492188 5.207031 32.808594 4.808594 C 34.125 4.410156 35.457031 4.074219 36.804688 3.808594 C 38.15625 3.539062 39.515625 3.335938 40.882812 3.203125 C 42.253906 3.066406 43.625 3 45 3 C 46.375 3 47.746094 3.066406 49.117188 3.203125 C 50.484375 3.335938 51.84375 3.539062 53.195312 3.808594 C 54.542969 4.074219 55.875 4.410156 57.191406 4.808594 C 58.507812 5.207031 59.800781 5.671875 61.074219 6.195312 C 62.34375 6.722656 63.585938 7.3125 64.796875 7.960938 C 66.011719 8.609375 67.191406 9.3125 68.332031 10.078125 C 69.476562 10.84375 70.582031 11.660156 71.644531 12.535156 C 72.707031 13.40625 73.726562 14.328125 74.699219 15.300781 C 75.671875 16.273438 76.59375 17.292969 77.464844 18.355469 C 78.339844 19.417969 79.15625 20.523438 79.921875 21.667969 C 80.6875 22.808594 81.390625 23.988281 82.039062 25.203125 C 82.6875 26.414062 83.277344 27.65625 83.804688 28.925781 C 84.328125 30.199219 84.792969 31.492188 85.191406 32.808594 C 85.589844 34.125 85.925781 35.457031 86.191406 36.804688 C 86.460938 38.15625 86.664062 39.515625 86.796875 40.882812 C 86.933594 42.253906 87 43.625 87 45 Z M 87 45 "/></clipPath><linearGradient x1="0" gradientTransform="matrix(83.999999,0,0,83.999999,3,3.000002)" y1="-0.0000000014881" x2="0" gradientUnits="userSpaceOnUse" y2="1" id="2ab97918e1"><stop style="stop-color:#4b5e73;stop-opacity:1;" offset="0"/><stop style="stop-color:#4b5e73;stop-opacity:1;" offset="0.015625"/><stop style="stop-color:#4a5d72;stop-opacity:1;" offset="0.03125"/><stop style="stop-color:#4a5d71;stop-opacity:1;" offset="0.046875"/><stop style="stop-color:#495c71;stop-opacity:1;" offset="0.0625"/><stop style="stop-color:#495c70;stop-opacity:1;" offset="0.078125"/><stop style="stop-color:#485b70;stop-opacity:1;" offset="0.09375"/><stop style="stop-color:#485b6f;stop-opacity:1;" offset="0.109375"/><stop style="stop-color:#475a6e;stop-opacity:1;" offset="0.125"/><stop style="stop-color:#47596e;stop-opacity:1;" offset="0.140625"/><stop style="stop-color:#46596d;stop-opacity:1;" offset="0.15625"/><stop style="stop-color:#46586c;stop-opacity:1;" offset="0.171875"/><stop style="stop-color:#45586c;stop-opacity:1;" offset="0.1875"/><stop style="stop-color:#45576b;stop-opacity:1;" offset="0.203125"/><stop style="stop-color:#44576b;stop-opacity:1;" offset="0.21875"/><stop style="stop-color:#44566a;stop-opacity:1;" offset="0.234375"/><stop style="stop-color:#435669;stop-opacity:1;" offset="0.25"/><stop style="stop-color:#435569;stop-opacity:1;" offset="0.265625"/><stop style="stop-color:#425568;stop-opacity:1;" offset="0.28125"/><stop style="stop-color:#425467;stop-opacity:1;" offset="0.296875"/><stop style="stop-color:#415467;stop-opacity:1;" offset="0.3125"/><stop style="stop-color:#415366;stop-opacity:1;" offset="0.328125"/><stop style="stop-color:#405366;stop-opacity:1;" offset="0.34375"/><stop style="stop-color:#405265;stop-opacity:1;" offset="0.359375"/><stop style="stop-color:#3f5264;stop-opacity:1;" offset="0.375"/><stop style="stop-color:#3f5164;stop-opacity:1;" offset="0.390625"/><stop style="stop-color:#3e5063;stop-opacity:1;" offset="0.40625"/><stop style="stop-color:#3e5062;stop-opacity:1;" offset="0.421875"/><stop style="stop-color:#3d4f62;stop-opacity:1;" offset="0.4375"/><stop style="stop-color:#3d4f61;stop-opacity:1;" offset="0.453125"/><stop style="stop-color:#3c4e61;stop-opacity:1;" offset="0.46875"/><stop style="stop-color:#3c4e60;stop-opacity:1;" offset="0.484375"/><stop style="stop-color:#3b4d5f;stop-opacity:1;" offset="0.5"/><stop style="stop-color:#3b4d5f;stop-opacity:1;" offset="0.515625"/><stop style="stop-color:#3a4c5e;stop-opacity:1;" offset="0.53125"/><stop style="stop-color:#3a4c5d;stop-opacity:1;" offset="0.546875"/><stop style="stop-color:#394b5d;stop-opacity:1;" offset="0.5625"/><stop style="stop-color:#394b5c;stop-opacity:1;" offset="0.578125"/><stop style="stop-color:#384a5c;stop-opacity:1;" offset="0.59375"/><stop style="stop-color:#384a5b;stop-opacity:1;" offset="0.609375"/><stop style="stop-color:#37495a;stop-opacity:1;" offset="0.625"/><stop style="stop-color:#37485a;stop-opacity:1;" offset="0.640625"/><stop style="stop-color:#364859;stop-opacity:1;" offset="0.65625"/><stop style="stop-color:#364758;stop-opacity:1;" offset="0.671875"/><stop style="stop-color:#354758;stop-opacity:1;" offset="0.6875"/><stop style="stop-color:#354657;stop-opacity:1;" offset="0.703125"/><stop style="stop-color:#344657;stop-opacity:1;" offset="0.71875"/><stop style="stop-color:#344556;stop-opacity:1;" offset="0.734375"/><stop style="stop-color:#334555;stop-opacity:1;" offset="0.75"/><stop style="stop-color:#334455;stop-opacity:1;" offset="0.765625"/><stop style="stop-color:#324454;stop-opacity:1;" offset="0.78125"/><stop style="stop-color:#324353;stop-opacity:1;" offset="0.796875"/><stop style="stop-color:#314353;stop-opacity:1;" offset="0.8125"/><stop style="stop-color:#314252;stop-opacity:1;" offset="0.828125"/><stop style="stop-color:#304252;stop-opacity:1;" offset="0.84375"/><stop style="stop-color:#304151;stop-opacity:1;" offset="0.859375"/><stop style="stop-color:#2f4150;stop-opacity:1;" offset="0.875"/><stop style="stop-color:#2f4050;stop-opacity:1;" offset="0.890625"/><stop style="stop-color:#2e3f4f;stop-opacity:1;" offset="0.90625"/><stop style="stop-color:#2e3f4e;stop-opacity:1;" offset="0.921875"/><stop style="stop-color:#2d3e4e;stop-opacity:1;" offset="0.9375"/><stop style="stop-color:#2d3e4d;stop-opacity:1;" offset="0.953125"/><stop style="stop-color:#2c3d4d;stop-opacity:1;" offset="0.96875"/><stop style="stop-color:#2c3d4c;stop-opacity:1;" offset="0.984375"/><stop style="stop-color:#2b3c4b;stop-opacity:1;" offset="1"/></linearGradient></defs><g id="3c45e13456"><g clip-rule="nonzero" clip-path="url(#3b915c00d0)"><g clip-rule="nonzero" clip-path="url(#c9ab62a4b0)"><path style=" stroke:none;fill-rule:nonzero;fill:url(#2ab97918e1);" d="M 3 3 L 3 87 L 87 87 L 87 3 Z M 3 3 "/></g></g><path style="fill:none;stroke-width:6;stroke-linecap:butt;stroke-linejoin:miter;stroke:#f2d473;stroke-opacity:1;stroke-miterlimit:4;" d="M 116.000005 60.000001 C 116.000005 61.833334 115.911464 63.661459 115.729172 65.489584 C 115.552089 67.312501 115.281255 69.125001 114.92188 70.927084 C 114.567714 72.72396 114.119797 74.500001 113.588547 76.25521 C 113.057297 78.010418 112.437505 79.734377 111.739589 81.432293 C 111.036464 83.125002 110.250005 84.781252 109.385422 86.395835 C 108.520838 88.015627 107.583338 89.588544 106.562505 91.109377 C 105.541672 92.635419 104.45313 94.109377 103.286463 95.526044 C 102.125005 96.942711 100.895838 98.302086 99.598963 99.598961 C 98.302088 100.895836 96.942713 102.125003 95.526046 103.286461 C 94.109379 104.453128 92.635421 105.54167 91.109379 106.562503 C 89.588546 107.583336 88.015629 108.520836 86.395837 109.38542 C 84.781254 110.250003 83.125004 111.036462 81.432295 111.739587 C 79.734379 112.437503 78.01042 113.057295 76.255212 113.588545 C 74.500003 114.119795 72.723962 114.567712 70.927086 114.921878 C 69.125003 115.281253 67.312503 115.552087 65.489586 115.72917 C 63.661461 115.911462 61.833336 116.000003 60.000003 116.000003 C 58.166669 116.000003 56.338544 115.911462 54.510419 115.72917 C 52.687502 115.552087 50.875002 115.281253 49.072919 114.921878 C 47.276043 114.567712 45.500002 114.119795 43.744793 113.588545 C 41.989585 113.057295 40.265626 112.437503 38.56771 111.739587 C 36.875001 111.036462 35.218751 110.250003 33.604168 109.38542 C 31.984376 108.520836 30.411459 107.583336 28.890626 106.562503 C 27.364584 105.54167 25.890626 104.453128 24.473959 103.286461 C 23.057292 102.125003 21.697917 100.895836 20.401042 99.598961 C 19.104167 98.302086 17.875 96.942711 16.713542 95.526044 C 15.546875 94.109377 14.458333 92.635419 13.4375 91.109377 C 12.416667 89.588544 11.479167 88.015627 10.614583 86.395835 C 9.75 84.781252 8.963541 83.125002 8.260416 81.432293 C 7.5625 79.734377 6.942708 78.010418 6.411458 76.25521 C 5.880208 74.500001 5.432291 72.72396 5.078125 70.927084 C 4.71875 69.125001 4.447916 67.312501 4.270833 65.489584 C 4.088541 63.661459 4 61.833334 4 60.000001 C 4 58.166667 4.088541 56.338542 4.270833 54.510417 C 4.447916 52.6875 4.71875 50.875 5.078125 49.072917 C 5.432291 47.276041 5.880208 45.5 6.411458 43.744791 C 6.942708 41.989583 7.5625 40.265624 8.260416 38.567708 C 8.963541 36.874999 9.75 35.218749 10.614583 33.604166 C 11.479167 31.984374 12.416667 30.411457 13.4375 28.890624 C 14.458333 27.364582 15.546875 25.890624 16.713542 24.473957 C 17.875 23.05729 19.104167 21.697915 20.401042 20.40104 C 21.697917 19.104165 23.057292 17.874998 24.473959 16.71354 C 25.890626 15.546873 27.364584 14.458331 28.890626 13.437498 C 30.411459 12.416665 31.984376 11.479165 33.604168 10.614581 C 35.218751 9.749998 36.875001 8.963539 38.56771 8.260414 C 40.265626 7.562498 41.989585 6.942706 43.744793 6.411456 C 45.500002 5.880206 47.276043 5.432289 49.072919 5.078123 C 50.875002 4.718748 52.687502 4.447914 54.510419 4.270831 C 56.338544 4.088539 58.166669 3.999998 60.000003 3.999998 C 61.833336 3.999998 63.661461 4.088539 65.489586 4.270831 C 67.312503 4.447914 69.125003 4.718748 70.927086 5.078123 C 72.723962 5.432289 74.500003 5.880206 76.255212 6.411456 C 78.01042 6.942706 79.734379 7.562498 81.432295 8.260414 C 83.125004 8.963539 84.781254 9.749998 86.395837 10.614581 C 88.015629 11.479165 89.588546 12.416665 91.109379 13.437498 C 92.635421 14.458331 94.109379 15.546873 95.526046 16.71354 C 96.942713 17.874998 98.302088 19.104165 99.598963 20.40104 C 100.895838 21.697915 102.125005 23.05729 103.286463 24.473957 C 104.45313 25.890624 105.541672 27.364582 106.562505 28.890624 C 107.583338 30.411457 108.520838 31.984374 109.385422 33.604166 C 110.250005 35.218749 111.036464 36.874999 111.739589 38.567708 C 112.437505 40.265624 113.057297 41.989583 113.588547 43.744791 C 114.119797 45.5 114.567714 47.276041 114.92188 49.072917 C 115.281255 50.875 115.552089 52.6875 115.729172 54.510417 C 115.911464 56.338542 116.000005 58.166667 116.000005 60.000001 Z M 116.000005 60.000001 " transform="matrix(0.75,0,0,0.75,0.0000005,0.000002)"/><path style="fill-rule:nonzero;fill:#000000;fill-opacity:1;stroke-width:9;stroke-linecap:round;stroke-linejoin:miter;stroke:#e9eef3;stroke-opacity:1;stroke-miterlimit:4;" d="M 40.000001 39.999999 L 80.000004 80.000002 M 80.000004 39.999999 L 40.000001 80.000002 " transform="matrix(0.75,0,0,0.75,0.0000005,0.000002)"/></g></svg>
