<svg xmlns="http://www.w3.org/2000/svg" xmlns:xlink="http://www.w3.org/1999/xlink" width="120" zoomAndPan="magnify" viewBox="0 0 90 89.999999" height="120" preserveAspectRatio="xMidYMid meet" version="1.2"><defs><clipPath id="789f0b4ebe"><path d="M 9 10 L 81 10 L 81 80 L 9 80 Z M 9 10 "/></clipPath><clipPath id="cf6464deb5"><path d="M 19.5 10.5 L 70.5 10.5 C 71.1875 10.5 71.871094 10.566406 72.546875 10.703125 C 73.226562 10.835938 73.882812 11.035156 74.519531 11.300781 C 75.15625 11.5625 75.761719 11.886719 76.332031 12.269531 C 76.90625 12.652344 77.4375 13.085938 77.925781 13.574219 C 78.414062 14.0625 78.847656 14.59375 79.230469 15.167969 C 79.613281 15.738281 79.9375 16.34375 80.199219 16.980469 C 80.464844 17.617188 80.664062 18.273438 80.796875 18.953125 C 80.933594 19.628906 81 20.3125 81 21 L 81 69 C 81 69.6875 80.933594 70.371094 80.796875 71.046875 C 80.664062 71.726562 80.464844 72.382812 80.199219 73.019531 C 79.9375 73.65625 79.613281 74.261719 79.230469 74.832031 C 78.847656 75.40625 78.414062 75.9375 77.925781 76.425781 C 77.4375 76.914062 76.90625 77.347656 76.332031 77.730469 C 75.761719 78.113281 75.15625 78.4375 74.519531 78.699219 C 73.882812 78.964844 73.226562 79.164062 72.546875 79.296875 C 71.871094 79.433594 71.1875 79.5 70.5 79.5 L 19.5 79.5 C 18.8125 79.5 18.128906 79.433594 17.453125 79.296875 C 16.773438 79.164062 16.117188 78.964844 15.480469 78.699219 C 14.84375 78.4375 14.238281 78.113281 13.667969 77.730469 C 13.09375 77.347656 12.5625 76.914062 12.074219 76.425781 C 11.585938 75.9375 11.152344 75.40625 10.769531 74.832031 C 10.386719 74.261719 10.0625 73.65625 9.800781 73.019531 C 9.535156 72.382812 9.335938 71.726562 9.203125 71.046875 C 9.066406 70.371094 9 69.6875 9 69 L 9 21 C 9 20.3125 9.066406 19.628906 9.203125 18.953125 C 9.335938 18.273438 9.535156 17.617188 9.800781 16.980469 C 10.0625 16.34375 10.386719 15.738281 10.769531 15.167969 C 11.152344 14.59375 11.585938 14.0625 12.074219 13.574219 C 12.5625 13.085938 13.09375 12.652344 13.667969 12.269531 C 14.238281 11.886719 14.84375 11.5625 15.480469 11.300781 C 16.117188 11.035156 16.773438 10.835938 17.453125 10.703125 C 18.128906 10.566406 18.8125 10.5 19.5 10.5 Z M 19.5 10.5 "/></clipPath><linearGradient x1="0" gradientTransform="matrix(71.999999,0,0,68.999999,9,10.500002)" y1="-0.00000000634058" x2="0" gradientUnits="userSpaceOnUse" y2="1" id="4bcbc5450b"><stop style="stop-color:#708299;stop-opacity:1;" offset="0"/><stop style="stop-color:#708299;stop-opacity:1;" offset="0.0078125"/><stop style="stop-color:#6f8198;stop-opacity:1;" offset="0.015625"/><stop style="stop-color:#6e8097;stop-opacity:1;" offset="0.0234375"/><stop style="stop-color:#6d7f96;stop-opacity:1;" offset="0.03125"/><stop style="stop-color:#6d7e95;stop-opacity:1;" offset="0.0390625"/><stop style="stop-color:#6c7d94;stop-opacity:1;" offset="0.046875"/><stop style="stop-color:#6b7d93;stop-opacity:1;" offset="0.0546875"/><stop style="stop-color:#6a7c92;stop-opacity:1;" offset="0.0625"/><stop style="stop-color:#697b91;stop-opacity:1;" offset="0.0703125"/><stop style="stop-color:#697a90;stop-opacity:1;" offset="0.078125"/><stop style="stop-color:#68798f;stop-opacity:1;" offset="0.0859375"/><stop style="stop-color:#67788e;stop-opacity:1;" offset="0.09375"/><stop style="stop-color:#66788e;stop-opacity:1;" offset="0.101563"/><stop style="stop-color:#66778d;stop-opacity:1;" offset="0.109375"/><stop style="stop-color:#65768c;stop-opacity:1;" offset="0.117188"/><stop style="stop-color:#64758b;stop-opacity:1;" offset="0.125"/><stop style="stop-color:#63748a;stop-opacity:1;" offset="0.132813"/><stop style="stop-color:#637389;stop-opacity:1;" offset="0.140625"/><stop style="stop-color:#627388;stop-opacity:1;" offset="0.148438"/><stop style="stop-color:#617287;stop-opacity:1;" offset="0.15625"/><stop style="stop-color:#607186;stop-opacity:1;" offset="0.164063"/><stop style="stop-color:#607085;stop-opacity:1;" offset="0.171875"/><stop style="stop-color:#5f6f84;stop-opacity:1;" offset="0.179688"/><stop style="stop-color:#5e6e84;stop-opacity:1;" offset="0.1875"/><stop style="stop-color:#5d6e83;stop-opacity:1;" offset="0.195313"/><stop style="stop-color:#5c6d82;stop-opacity:1;" offset="0.203125"/><stop style="stop-color:#5c6c81;stop-opacity:1;" offset="0.210938"/><stop style="stop-color:#5b6b80;stop-opacity:1;" offset="0.21875"/><stop style="stop-color:#5a6a7f;stop-opacity:1;" offset="0.226563"/><stop style="stop-color:#59697e;stop-opacity:1;" offset="0.234375"/><stop style="stop-color:#59697d;stop-opacity:1;" offset="0.242188"/><stop style="stop-color:#58687c;stop-opacity:1;" offset="0.25"/><stop style="stop-color:#57677b;stop-opacity:1;" offset="0.257812"/><stop style="stop-color:#56667a;stop-opacity:1;" offset="0.265625"/><stop style="stop-color:#566579;stop-opacity:1;" offset="0.273438"/><stop style="stop-color:#556479;stop-opacity:1;" offset="0.28125"/><stop style="stop-color:#546378;stop-opacity:1;" offset="0.289062"/><stop style="stop-color:#536377;stop-opacity:1;" offset="0.296875"/><stop style="stop-color:#536276;stop-opacity:1;" offset="0.304688"/><stop style="stop-color:#526175;stop-opacity:1;" offset="0.3125"/><stop style="stop-color:#516074;stop-opacity:1;" offset="0.320312"/><stop style="stop-color:#505f73;stop-opacity:1;" offset="0.328125"/><stop style="stop-color:#4f5e72;stop-opacity:1;" offset="0.335938"/><stop style="stop-color:#4f5e71;stop-opacity:1;" offset="0.34375"/><stop style="stop-color:#4e5d70;stop-opacity:1;" offset="0.351562"/><stop style="stop-color:#4d5c6f;stop-opacity:1;" offset="0.359375"/><stop style="stop-color:#4c5b6e;stop-opacity:1;" offset="0.367188"/><stop style="stop-color:#4c5a6e;stop-opacity:1;" offset="0.375"/><stop style="stop-color:#4b596d;stop-opacity:1;" offset="0.382812"/><stop style="stop-color:#4a596c;stop-opacity:1;" offset="0.390625"/><stop style="stop-color:#49586b;stop-opacity:1;" offset="0.398438"/><stop style="stop-color:#49576a;stop-opacity:1;" offset="0.40625"/><stop style="stop-color:#485669;stop-opacity:1;" offset="0.414062"/><stop style="stop-color:#475568;stop-opacity:1;" offset="0.421875"/><stop style="stop-color:#465467;stop-opacity:1;" offset="0.429688"/><stop style="stop-color:#465466;stop-opacity:1;" offset="0.4375"/><stop style="stop-color:#455365;stop-opacity:1;" offset="0.445312"/><stop style="stop-color:#445264;stop-opacity:1;" offset="0.453125"/><stop style="stop-color:#435164;stop-opacity:1;" offset="0.460938"/><stop style="stop-color:#425063;stop-opacity:1;" offset="0.46875"/><stop style="stop-color:#424f62;stop-opacity:1;" offset="0.476562"/><stop style="stop-color:#414f61;stop-opacity:1;" offset="0.484375"/><stop style="stop-color:#404e60;stop-opacity:1;" offset="0.492188"/><stop style="stop-color:#3f4d5f;stop-opacity:1;" offset="0.5"/><stop style="stop-color:#3f4c5e;stop-opacity:1;" offset="0.507812"/><stop style="stop-color:#3e4b5d;stop-opacity:1;" offset="0.515625"/><stop style="stop-color:#3d4a5c;stop-opacity:1;" offset="0.523438"/><stop style="stop-color:#3c4a5b;stop-opacity:1;" offset="0.53125"/><stop style="stop-color:#3c495a;stop-opacity:1;" offset="0.539062"/><stop style="stop-color:#3b4859;stop-opacity:1;" offset="0.546875"/><stop style="stop-color:#3a4759;stop-opacity:1;" offset="0.554688"/><stop style="stop-color:#394658;stop-opacity:1;" offset="0.5625"/><stop style="stop-color:#384557;stop-opacity:1;" offset="0.570312"/><stop style="stop-color:#384556;stop-opacity:1;" offset="0.578125"/><stop style="stop-color:#374455;stop-opacity:1;" offset="0.585938"/><stop style="stop-color:#364354;stop-opacity:1;" offset="0.59375"/><stop style="stop-color:#354253;stop-opacity:1;" offset="0.601562"/><stop style="stop-color:#354152;stop-opacity:1;" offset="0.609375"/><stop style="stop-color:#344051;stop-opacity:1;" offset="0.617188"/><stop style="stop-color:#334050;stop-opacity:1;" offset="0.625"/><stop style="stop-color:#323f4f;stop-opacity:1;" offset="0.632812"/><stop style="stop-color:#323e4f;stop-opacity:1;" offset="0.640625"/><stop style="stop-color:#313d4e;stop-opacity:1;" offset="0.648438"/><stop style="stop-color:#303c4d;stop-opacity:1;" offset="0.65625"/><stop style="stop-color:#2f3b4c;stop-opacity:1;" offset="0.664062"/><stop style="stop-color:#2f3b4b;stop-opacity:1;" offset="0.671875"/><stop style="stop-color:#2e3a4a;stop-opacity:1;" offset="0.679688"/><stop style="stop-color:#2d3949;stop-opacity:1;" offset="0.6875"/><stop style="stop-color:#2c3848;stop-opacity:1;" offset="0.695312"/><stop style="stop-color:#2b3747;stop-opacity:1;" offset="0.703125"/><stop style="stop-color:#2b3646;stop-opacity:1;" offset="0.710938"/><stop style="stop-color:#2a3645;stop-opacity:1;" offset="0.71875"/><stop style="stop-color:#293544;stop-opacity:1;" offset="0.726562"/><stop style="stop-color:#283444;stop-opacity:1;" offset="0.734375"/><stop style="stop-color:#283343;stop-opacity:1;" offset="0.742188"/><stop style="stop-color:#273242;stop-opacity:1;" offset="0.75"/><stop style="stop-color:#263141;stop-opacity:1;" offset="0.757812"/><stop style="stop-color:#253040;stop-opacity:1;" offset="0.765625"/><stop style="stop-color:#25303f;stop-opacity:1;" offset="0.773438"/><stop style="stop-color:#242f3e;stop-opacity:1;" offset="0.78125"/><stop style="stop-color:#232e3d;stop-opacity:1;" offset="0.789062"/><stop style="stop-color:#222d3c;stop-opacity:1;" offset="0.796875"/><stop style="stop-color:#222c3b;stop-opacity:1;" offset="0.804688"/><stop style="stop-color:#212b3a;stop-opacity:1;" offset="0.8125"/><stop style="stop-color:#202b39;stop-opacity:1;" offset="0.820312"/><stop style="stop-color:#1f2a39;stop-opacity:1;" offset="0.828125"/><stop style="stop-color:#1e2938;stop-opacity:1;" offset="0.835938"/><stop style="stop-color:#1e2837;stop-opacity:1;" offset="0.84375"/><stop style="stop-color:#1d2736;stop-opacity:1;" offset="0.851562"/><stop style="stop-color:#1c2635;stop-opacity:1;" offset="0.859375"/><stop style="stop-color:#1b2634;stop-opacity:1;" offset="0.867188"/><stop style="stop-color:#1b2533;stop-opacity:1;" offset="0.875"/><stop style="stop-color:#1a2432;stop-opacity:1;" offset="0.882812"/><stop style="stop-color:#192331;stop-opacity:1;" offset="0.890625"/><stop style="stop-color:#182230;stop-opacity:1;" offset="0.898438"/><stop style="stop-color:#18212f;stop-opacity:1;" offset="0.90625"/><stop style="stop-color:#17212f;stop-opacity:1;" offset="0.914062"/><stop style="stop-color:#16202e;stop-opacity:1;" offset="0.921875"/><stop style="stop-color:#151f2d;stop-opacity:1;" offset="0.929688"/><stop style="stop-color:#151e2c;stop-opacity:1;" offset="0.9375"/><stop style="stop-color:#141d2b;stop-opacity:1;" offset="0.945312"/><stop style="stop-color:#131c2a;stop-opacity:1;" offset="0.953125"/><stop style="stop-color:#121c29;stop-opacity:1;" offset="0.960938"/><stop style="stop-color:#111b28;stop-opacity:1;" offset="0.96875"/><stop style="stop-color:#111a27;stop-opacity:1;" offset="0.976562"/><stop style="stop-color:#101926;stop-opacity:1;" offset="0.984375"/><stop style="stop-color:#0f1825;stop-opacity:1;" offset="0.992188"/><stop style="stop-color:#0e1724;stop-opacity:1;" offset="1"/></linearGradient><clipPath id="3cca72f57f"><path d="M 31 37 L 59.324219 37 L 59.324219 63 L 31 63 Z M 31 37 "/></clipPath></defs><g id="8ff0f5f3b5"><path style=" stroke:none;fill-rule:nonzero;fill:#0e1724;fill-opacity:1;" d="M 19.5 7.5 L 70.5 7.5 C 71.289062 7.5 72.066406 7.578125 72.839844 7.730469 C 73.613281 7.882812 74.363281 8.113281 75.09375 8.414062 C 75.820312 8.714844 76.511719 9.085938 77.167969 9.523438 C 77.820312 9.960938 78.429688 10.457031 78.984375 11.015625 C 79.542969 11.570312 80.039062 12.179688 80.476562 12.832031 C 80.914062 13.488281 81.285156 14.179688 81.585938 14.90625 C 81.886719 15.636719 82.117188 16.386719 82.269531 17.160156 C 82.421875 17.933594 82.5 18.710938 82.5 19.5 L 82.5 70.5 C 82.5 71.289062 82.421875 72.066406 82.269531 72.839844 C 82.117188 73.613281 81.886719 74.363281 81.585938 75.09375 C 81.285156 75.820312 80.914062 76.511719 80.476562 77.167969 C 80.039062 77.820312 79.542969 78.429688 78.984375 78.984375 C 78.429688 79.542969 77.820312 80.039062 77.167969 80.476562 C 76.511719 80.914062 75.820312 81.285156 75.09375 81.585938 C 74.363281 81.886719 73.613281 82.117188 72.839844 82.269531 C 72.066406 82.421875 71.289062 82.5 70.5 82.5 L 19.5 82.5 C 18.710938 82.5 17.933594 82.421875 17.160156 82.269531 C 16.386719 82.117188 15.636719 81.886719 14.90625 81.585938 C 14.179688 81.285156 13.488281 80.914062 12.832031 80.476562 C 12.179688 80.039062 11.570312 79.542969 11.015625 78.984375 C 10.457031 78.429688 9.960938 77.820312 9.523438 77.167969 C 9.085938 76.511719 8.714844 75.820312 8.414062 75.09375 C 8.113281 74.363281 7.882812 73.613281 7.730469 72.839844 C 7.578125 72.066406 7.5 71.289062 7.5 70.5 L 7.5 19.5 C 7.5 18.710938 7.578125 17.933594 7.730469 17.160156 C 7.882812 16.386719 8.113281 15.636719 8.414062 14.90625 C 8.714844 14.179688 9.085938 13.488281 9.523438 12.832031 C 9.960938 12.179688 10.457031 11.570312 11.015625 11.015625 C 11.570312 10.457031 12.179688 9.960938 12.832031 9.523438 C 13.488281 9.085938 14.179688 8.714844 14.90625 8.414062 C 15.636719 8.113281 16.386719 7.882812 17.160156 7.730469 C 17.933594 7.578125 18.710938 7.5 19.5 7.5 Z M 19.5 7.5 "/><g clip-rule="nonzero" clip-path="url(#789f0b4ebe)"><g clip-rule="nonzero" clip-path="url(#cf6464deb5)"><path style=" stroke:none;fill-rule:nonzero;fill:url(#4bcbc5450b);" d="M 9 10.5 L 9 79.5 L 81 79.5 L 81 10.5 Z M 9 10.5 "/></g></g><path style=" stroke:none;fill-rule:nonzero;fill:#ffffff;fill-opacity:0.15;" d="M 37.5 22.125 L 40.5 22.125 L 40.5 22.875 L 37.5 22.875 Z M 43.5 22.125 L 46.5 22.125 L 46.5 22.875 L 43.5 22.875 Z M 49.5 22.125 L 52.5 22.125 L 52.5 22.875 L 49.5 22.875 Z M 55.5 22.125 L 58.5 22.125 L 58.5 22.875 L 55.5 22.875 Z M 61.566406 22.640625 C 62.570312 22.988281 63.484375 23.492188 64.316406 24.148438 L 63.851562 24.738281 C 63.085938 24.132812 62.242188 23.667969 61.320312 23.351562 Z M 66.433594 26.503906 C 67.003906 27.40625 67.40625 28.378906 67.640625 29.421875 L 66.910156 29.589844 C 66.691406 28.628906 66.320312 27.734375 65.796875 26.902344 Z M 67.875 32.453125 L 67.875 35.453125 L 67.125 35.453125 L 67.125 32.453125 Z M 67.875 38.453125 L 67.875 41.453125 L 67.125 41.453125 L 67.125 38.453125 Z M 67.875 44.453125 L 67.875 47.453125 L 67.125 47.453125 L 67.125 44.453125 Z M 67.875 50.453125 L 67.875 53.453125 L 67.125 53.453125 L 67.125 50.453125 Z M 67.875 56.453125 L 67.875 58.5 C 67.875 58.820312 67.859375 59.136719 67.828125 59.453125 L 67.082031 59.378906 C 67.109375 59.085938 67.125 58.792969 67.125 58.5 L 67.125 56.453125 Z M 66.980469 62.5 C 66.527344 63.460938 65.925781 64.320312 65.179688 65.078125 L 64.644531 64.550781 C 65.332031 63.855469 65.882812 63.0625 66.300781 62.179688 Z M 62.628906 66.917969 C 61.667969 67.386719 60.65625 67.6875 59.59375 67.8125 L 59.507812 67.066406 C 60.484375 66.949219 61.414062 66.675781 62.296875 66.246094 Z M 56.59375 67.875 L 53.59375 67.875 L 53.59375 67.125 L 56.59375 67.125 Z M 50.59375 67.875 L 47.59375 67.875 L 47.59375 67.125 L 50.59375 67.125 Z M 44.59375 67.875 L 41.59375 67.875 L 41.59375 67.125 L 44.59375 67.125 Z M 38.59375 67.875 L 35.59375 67.875 L 35.59375 67.125 L 38.59375 67.125 Z M 32.59375 67.875 L 31.5 67.875 C 30.847656 67.875 30.203125 67.808594 29.566406 67.671875 L 29.71875 66.9375 C 30.308594 67.0625 30.898438 67.125 31.5 67.125 L 32.59375 67.125 Z M 26.628906 66.507812 C 25.714844 65.953125 24.917969 65.261719 24.242188 64.433594 L 24.820312 63.957031 C 25.445312 64.71875 26.175781 65.355469 27.015625 65.867188 Z M 22.691406 61.710938 C 22.328125 60.71875 22.140625 59.691406 22.125 58.636719 L 22.875 58.625 C 22.890625 59.597656 23.0625 60.539062 23.394531 61.453125 Z M 22.125 55.636719 L 22.125 52.636719 L 22.875 52.636719 L 22.875 55.636719 Z M 22.125 49.636719 L 22.125 46.636719 L 22.875 46.636719 L 22.875 49.636719 Z M 22.125 43.636719 L 22.125 40.636719 L 22.875 40.636719 L 22.875 43.636719 Z M 22.125 37.636719 L 22.125 34.636719 L 22.875 34.636719 L 22.875 37.636719 Z M 22.125 31.636719 L 22.125 31.5 C 22.125 30.5 22.28125 29.527344 22.59375 28.574219 L 23.304688 28.808594 C 23.019531 29.683594 22.875 30.582031 22.875 31.5 L 22.875 31.636719 Z M 24.058594 25.796875 C 24.710938 24.949219 25.484375 24.230469 26.382812 23.644531 L 26.792969 24.273438 C 25.964844 24.8125 25.253906 25.472656 24.652344 26.253906 Z M 29.277344 22.390625 C 30.007812 22.214844 30.75 22.125 31.5 22.125 L 34.5 22.125 L 34.5 22.875 L 31.5 22.875 C 30.808594 22.875 30.128906 22.957031 29.457031 23.121094 Z M 29.277344 22.390625 "/><g clip-rule="nonzero" clip-path="url(#3cca72f57f)"><path style=" stroke:none;fill-rule:evenodd;fill:#ffffff;fill-opacity:1;" d="M 37.402344 37.886719 C 34.769531 38.761719 32.703125 40.929688 31.878906 43.691406 C 31.234375 45.859375 30.824219 49.460938 32.585938 54.289062 C 32.601562 54.339844 34.335938 59.109375 38.585938 61.6875 C 40.675781 62.960938 43.292969 62.902344 45.25 61.550781 L 45.324219 61.5 C 45.402344 61.4375 45.480469 61.386719 45.546875 61.335938 C 45.65625 61.242188 45.785156 61.199219 45.914062 61.199219 C 46.039062 61.199219 46.160156 61.242188 46.269531 61.320312 C 46.371094 61.40625 46.472656 61.480469 46.558594 61.53125 L 46.574219 61.542969 C 48.53125 62.902344 51.148438 62.953125 53.238281 61.675781 C 57.046875 59.363281 58.824219 55.328125 59.171875 54.453125 C 59.097656 54.453125 59.019531 54.453125 58.941406 54.453125 L 58.925781 54.453125 C 56.902344 54.453125 54.992188 53.660156 53.5625 52.234375 C 52.125 50.796875 51.328125 48.894531 51.328125 46.863281 C 51.320312 43.28125 53.824219 40.222656 57.21875 39.441406 C 56.402344 38.742188 55.457031 38.207031 54.4375 37.867188 C 49.925781 36.371094 46.695312 39.535156 46.347656 39.898438 L 46.328125 39.917969 C 46.109375 40.136719 45.742188 40.136719 45.523438 39.917969 L 45.503906 39.898438 C 45.140625 39.550781 41.917969 36.390625 37.402344 37.886719 Z M 37.402344 37.886719 "/></g><path style=" stroke:none;fill-rule:evenodd;fill:#ffffff;fill-opacity:1;" d="M 47.699219 28.859375 C 46.480469 30.074219 45.894531 31.875 46.007812 33.96875 C 48.105469 34.078125 49.90625 33.484375 51.125 32.257812 C 52.339844 31.042969 52.933594 29.242188 52.816406 27.148438 C 50.714844 27.039062 48.914062 27.632812 47.699219 28.859375 Z M 47.699219 28.859375 "/></g></svg>
