<svg xmlns="http://www.w3.org/2000/svg" xmlns:xlink="http://www.w3.org/1999/xlink" width="200" zoomAndPan="magnify" viewBox="0 0 150 149.999998" height="200" preserveAspectRatio="xMidYMid meet" version="1.2"><defs><clipPath id="70ec2ad9a6"><path d="M 6 6 L 144 6 L 144 144 L 6 144 Z M 6 6 "/></clipPath><clipPath id="c67e2511ef"><path d="M 144 75 C 144 76.128906 143.972656 77.257812 143.917969 78.386719 C 143.863281 79.511719 143.777344 80.640625 143.667969 81.761719 C 143.558594 82.886719 143.417969 84.007812 143.253906 85.125 C 143.085938 86.242188 142.894531 87.355469 142.675781 88.460938 C 142.453125 89.570312 142.207031 90.671875 141.933594 91.765625 C 141.65625 92.859375 141.355469 93.949219 141.027344 95.03125 C 140.699219 96.109375 140.347656 97.183594 139.964844 98.246094 C 139.585938 99.308594 139.179688 100.363281 138.746094 101.40625 C 138.316406 102.449219 137.859375 103.480469 137.375 104.5 C 136.890625 105.523438 136.386719 106.53125 135.851562 107.527344 C 135.320312 108.523438 134.765625 109.503906 134.183594 110.472656 C 133.601562 111.441406 133 112.394531 132.371094 113.335938 C 131.742188 114.273438 131.09375 115.195312 130.421875 116.101562 C 129.75 117.011719 129.054688 117.898438 128.335938 118.773438 C 127.621094 119.644531 126.882812 120.5 126.125 121.335938 C 125.367188 122.175781 124.589844 122.992188 123.789062 123.789062 C 122.992188 124.589844 122.175781 125.367188 121.335938 126.125 C 120.5 126.882812 119.644531 127.621094 118.773438 128.335938 C 117.898438 129.054688 117.011719 129.75 116.101562 130.421875 C 115.195312 131.09375 114.273438 131.742188 113.335938 132.371094 C 112.394531 133 111.441406 133.601562 110.472656 134.183594 C 109.503906 134.765625 108.523438 135.320312 107.527344 135.851562 C 106.53125 136.386719 105.523438 136.890625 104.5 137.375 C 103.480469 137.859375 102.449219 138.316406 101.40625 138.746094 C 100.363281 139.179688 99.308594 139.585938 98.246094 139.964844 C 97.183594 140.347656 96.109375 140.699219 95.03125 141.027344 C 93.949219 141.355469 92.859375 141.65625 91.765625 141.933594 C 90.671875 142.207031 89.570312 142.453125 88.460938 142.675781 C 87.355469 142.894531 86.242188 143.085938 85.125 143.253906 C 84.007812 143.417969 82.886719 143.558594 81.761719 143.667969 C 80.640625 143.777344 79.511719 143.863281 78.386719 143.917969 C 77.257812 143.972656 76.128906 144 75 144 C 73.871094 144 72.742188 143.972656 71.613281 143.917969 C 70.488281 143.863281 69.359375 143.777344 68.238281 143.667969 C 67.113281 143.558594 65.992188 143.417969 64.875 143.253906 C 63.757812 143.085938 62.644531 142.894531 61.539062 142.675781 C 60.429688 142.453125 59.328125 142.207031 58.234375 141.933594 C 57.140625 141.65625 56.050781 141.355469 54.96875 141.027344 C 53.890625 140.699219 52.816406 140.347656 51.753906 139.964844 C 50.691406 139.585938 49.636719 139.179688 48.59375 138.746094 C 47.550781 138.316406 46.519531 137.859375 45.5 137.375 C 44.476562 136.890625 43.46875 136.386719 42.472656 135.851562 C 41.476562 135.320312 40.496094 134.765625 39.527344 134.183594 C 38.558594 133.601562 37.605469 133 36.664062 132.371094 C 35.726562 131.742188 34.804688 131.09375 33.898438 130.421875 C 32.988281 129.75 32.101562 129.054688 31.226562 128.335938 C 30.355469 127.621094 29.5 126.882812 28.664062 126.125 C 27.824219 125.367188 27.007812 124.589844 26.210938 123.789062 C 25.410156 122.992188 24.632812 122.175781 23.875 121.335938 C 23.117188 120.5 22.378906 119.644531 21.664062 118.773438 C 20.945312 117.898438 20.25 117.011719 19.578125 116.101562 C 18.90625 115.195312 18.257812 114.273438 17.628906 113.335938 C 17 112.394531 16.398438 111.441406 15.816406 110.472656 C 15.234375 109.503906 14.679688 108.523438 14.148438 107.527344 C 13.613281 106.53125 13.109375 105.523438 12.625 104.5 C 12.140625 103.480469 11.683594 102.449219 11.253906 101.40625 C 10.820312 100.363281 10.414062 99.308594 10.035156 98.246094 C 9.652344 97.183594 9.300781 96.109375 8.972656 95.03125 C 8.644531 93.949219 8.34375 92.859375 8.066406 91.765625 C 7.792969 90.671875 7.546875 89.570312 7.324219 88.460938 C 7.105469 87.355469 6.914062 86.242188 6.746094 85.125 C 6.582031 84.007812 6.441406 82.886719 6.332031 81.761719 C 6.222656 80.640625 6.136719 79.511719 6.082031 78.386719 C 6.027344 77.257812 6 76.128906 6 75 C 6 73.871094 6.027344 72.742188 6.082031 71.613281 C 6.136719 70.488281 6.222656 69.359375 6.332031 68.238281 C 6.441406 67.113281 6.582031 65.992188 6.746094 64.875 C 6.914062 63.757812 7.105469 62.644531 7.324219 61.539062 C 7.546875 60.429688 7.792969 59.328125 8.066406 58.234375 C 8.34375 57.140625 8.644531 56.050781 8.972656 54.96875 C 9.300781 53.890625 9.652344 52.816406 10.035156 51.753906 C 10.414062 50.691406 10.820312 49.636719 11.253906 48.59375 C 11.683594 47.550781 12.140625 46.519531 12.625 45.5 C 13.109375 44.476562 13.613281 43.46875 14.148438 42.472656 C 14.679688 41.476562 15.234375 40.496094 15.816406 39.527344 C 16.398438 38.558594 17 37.605469 17.628906 36.664062 C 18.257812 35.726562 18.90625 34.804688 19.578125 33.898438 C 20.25 32.988281 20.945312 32.101562 21.664062 31.226562 C 22.378906 30.355469 23.117188 29.5 23.875 28.664062 C 24.632812 27.824219 25.410156 27.007812 26.210938 26.210938 C 27.007812 25.410156 27.824219 24.632812 28.664062 23.875 C 29.5 23.117188 30.355469 22.378906 31.226562 21.664062 C 32.101562 20.945312 32.988281 20.25 33.898438 19.578125 C 34.804688 18.90625 35.726562 18.257812 36.664062 17.628906 C 37.605469 17 38.558594 16.398438 39.527344 15.816406 C 40.496094 15.234375 41.476562 14.679688 42.472656 14.148438 C 43.46875 13.613281 44.476562 13.109375 45.5 12.625 C 46.519531 12.140625 47.550781 11.683594 48.59375 11.253906 C 49.636719 10.820312 50.691406 10.414062 51.753906 10.035156 C 52.816406 9.652344 53.890625 9.300781 54.96875 8.972656 C 56.050781 8.644531 57.140625 8.34375 58.234375 8.066406 C 59.328125 7.792969 60.429688 7.546875 61.539062 7.324219 C 62.644531 7.105469 63.757812 6.914062 64.875 6.746094 C 65.992188 6.582031 67.113281 6.441406 68.238281 6.332031 C 69.359375 6.222656 70.488281 6.136719 71.613281 6.082031 C 72.742188 6.027344 73.871094 6 75 6 C 76.128906 6 77.257812 6.027344 78.386719 6.082031 C 79.511719 6.136719 80.640625 6.222656 81.761719 6.332031 C 82.886719 6.441406 84.007812 6.582031 85.125 6.746094 C 86.242188 6.914062 87.355469 7.105469 88.460938 7.324219 C 89.570312 7.546875 90.671875 7.792969 91.765625 8.066406 C 92.859375 8.34375 93.949219 8.644531 95.03125 8.972656 C 96.109375 9.300781 97.183594 9.652344 98.246094 10.035156 C 99.308594 10.414062 100.363281 10.820312 101.40625 11.253906 C 102.449219 11.683594 103.480469 12.140625 104.5 12.625 C 105.523438 13.109375 106.53125 13.613281 107.527344 14.148438 C 108.523438 14.679688 109.503906 15.234375 110.472656 15.816406 C 111.441406 16.398438 112.394531 17 113.335938 17.628906 C 114.273438 18.257812 115.195312 18.90625 116.101562 19.578125 C 117.011719 20.25 117.898438 20.945312 118.773438 21.664062 C 119.644531 22.378906 120.5 23.117188 121.335938 23.875 C 122.175781 24.632812 122.992188 25.410156 123.789062 26.210938 C 124.589844 27.007812 125.367188 27.824219 126.125 28.664062 C 126.882812 29.5 127.621094 30.355469 128.335938 31.226562 C 129.054688 32.101562 129.75 32.988281 130.421875 33.898438 C 131.09375 34.804688 131.742188 35.726562 132.371094 36.664062 C 133 37.605469 133.601562 38.558594 134.183594 39.527344 C 134.765625 40.496094 135.320312 41.476562 135.851562 42.472656 C 136.386719 43.46875 136.890625 44.476562 137.375 45.5 C 137.859375 46.519531 138.316406 47.550781 138.746094 48.59375 C 139.179688 49.636719 139.585938 50.691406 139.964844 51.753906 C 140.347656 52.816406 140.699219 53.890625 141.027344 54.96875 C 141.355469 56.050781 141.65625 57.140625 141.933594 58.234375 C 142.207031 59.328125 142.453125 60.429688 142.675781 61.539062 C 142.894531 62.644531 143.085938 63.757812 143.253906 64.875 C 143.417969 65.992188 143.558594 67.113281 143.667969 68.238281 C 143.777344 69.359375 143.863281 70.488281 143.917969 71.613281 C 143.972656 72.742188 144 73.871094 144 75 Z M 144 75 "/></clipPath><radialGradient gradientTransform="matrix(1,0,0,1,6.000001,6.000002)" id="c8619c78b3" gradientUnits="userSpaceOnUse" r="103.499998" cx="48.299998" fx="48.299998" cy="48.299998" fy="48.299998"><stop style="stop-color:#ffe082;stop-opacity:1;" offset="0"/><stop style="stop-color:#ffe081;stop-opacity:1;" offset="0.00390625"/><stop style="stop-color:#ffe080;stop-opacity:1;" offset="0.0078125"/><stop style="stop-color:#ffdf80;stop-opacity:1;" offset="0.0117188"/><stop style="stop-color:#ffdf7f;stop-opacity:1;" offset="0.015625"/><stop style="stop-color:#ffdf7e;stop-opacity:1;" offset="0.0195312"/><stop style="stop-color:#ffdf7e;stop-opacity:1;" offset="0.0234375"/><stop style="stop-color:#ffdf7d;stop-opacity:1;" offset="0.0273438"/><stop style="stop-color:#ffdf7d;stop-opacity:1;" offset="0.03125"/><stop style="stop-color:#ffdf7c;stop-opacity:1;" offset="0.0351562"/><stop style="stop-color:#ffde7b;stop-opacity:1;" offset="0.0390625"/><stop style="stop-color:#ffde7b;stop-opacity:1;" offset="0.0429688"/><stop style="stop-color:#ffde7a;stop-opacity:1;" offset="0.046875"/><stop style="stop-color:#ffde79;stop-opacity:1;" offset="0.0507812"/><stop style="stop-color:#ffde79;stop-opacity:1;" offset="0.0546875"/><stop style="stop-color:#ffde78;stop-opacity:1;" offset="0.0585938"/><stop style="stop-color:#ffdd77;stop-opacity:1;" offset="0.0625"/><stop style="stop-color:#ffdd77;stop-opacity:1;" offset="0.0664062"/><stop style="stop-color:#ffdd76;stop-opacity:1;" offset="0.0703125"/><stop style="stop-color:#ffdd76;stop-opacity:1;" offset="0.0742188"/><stop style="stop-color:#ffdd75;stop-opacity:1;" offset="0.078125"/><stop style="stop-color:#ffdd74;stop-opacity:1;" offset="0.0820312"/><stop style="stop-color:#ffdc74;stop-opacity:1;" offset="0.0859375"/><stop style="stop-color:#ffdc73;stop-opacity:1;" offset="0.0898438"/><stop style="stop-color:#ffdc72;stop-opacity:1;" offset="0.09375"/><stop style="stop-color:#ffdc72;stop-opacity:1;" offset="0.0976562"/><stop style="stop-color:#ffdc71;stop-opacity:1;" offset="0.101562"/><stop style="stop-color:#ffdc70;stop-opacity:1;" offset="0.105469"/><stop style="stop-color:#ffdc70;stop-opacity:1;" offset="0.109375"/><stop style="stop-color:#ffdb6f;stop-opacity:1;" offset="0.113281"/><stop style="stop-color:#ffdb6f;stop-opacity:1;" offset="0.117188"/><stop style="stop-color:#ffdb6e;stop-opacity:1;" offset="0.121094"/><stop style="stop-color:#ffdb6d;stop-opacity:1;" offset="0.125"/><stop style="stop-color:#ffdb6d;stop-opacity:1;" offset="0.128906"/><stop style="stop-color:#ffdb6c;stop-opacity:1;" offset="0.132812"/><stop style="stop-color:#ffda6b;stop-opacity:1;" offset="0.136719"/><stop style="stop-color:#ffda6b;stop-opacity:1;" offset="0.140625"/><stop style="stop-color:#ffda6a;stop-opacity:1;" offset="0.144531"/><stop style="stop-color:#ffda69;stop-opacity:1;" offset="0.148438"/><stop style="stop-color:#ffda69;stop-opacity:1;" offset="0.152344"/><stop style="stop-color:#ffda68;stop-opacity:1;" offset="0.15625"/><stop style="stop-color:#ffda67;stop-opacity:1;" offset="0.160156"/><stop style="stop-color:#ffd967;stop-opacity:1;" offset="0.164062"/><stop style="stop-color:#ffd966;stop-opacity:1;" offset="0.167969"/><stop style="stop-color:#ffd966;stop-opacity:1;" offset="0.171875"/><stop style="stop-color:#ffd965;stop-opacity:1;" offset="0.175781"/><stop style="stop-color:#ffd964;stop-opacity:1;" offset="0.179688"/><stop style="stop-color:#ffd964;stop-opacity:1;" offset="0.183594"/><stop style="stop-color:#ffd863;stop-opacity:1;" offset="0.1875"/><stop style="stop-color:#ffd862;stop-opacity:1;" offset="0.191406"/><stop style="stop-color:#ffd862;stop-opacity:1;" offset="0.195312"/><stop style="stop-color:#ffd861;stop-opacity:1;" offset="0.199219"/><stop style="stop-color:#ffd860;stop-opacity:1;" offset="0.203125"/><stop style="stop-color:#ffd860;stop-opacity:1;" offset="0.207031"/><stop style="stop-color:#ffd75f;stop-opacity:1;" offset="0.210938"/><stop style="stop-color:#ffd75f;stop-opacity:1;" offset="0.214844"/><stop style="stop-color:#ffd75e;stop-opacity:1;" offset="0.21875"/><stop style="stop-color:#ffd75d;stop-opacity:1;" offset="0.222656"/><stop style="stop-color:#ffd75d;stop-opacity:1;" offset="0.226562"/><stop style="stop-color:#ffd75c;stop-opacity:1;" offset="0.230469"/><stop style="stop-color:#ffd75b;stop-opacity:1;" offset="0.234375"/><stop style="stop-color:#ffd65b;stop-opacity:1;" offset="0.238281"/><stop style="stop-color:#ffd65a;stop-opacity:1;" offset="0.242188"/><stop style="stop-color:#ffd659;stop-opacity:1;" offset="0.246094"/><stop style="stop-color:#ffd659;stop-opacity:1;" offset="0.25"/><stop style="stop-color:#ffd658;stop-opacity:1;" offset="0.253906"/><stop style="stop-color:#ffd657;stop-opacity:1;" offset="0.257812"/><stop style="stop-color:#ffd557;stop-opacity:1;" offset="0.261719"/><stop style="stop-color:#ffd556;stop-opacity:1;" offset="0.265625"/><stop style="stop-color:#ffd556;stop-opacity:1;" offset="0.269531"/><stop style="stop-color:#ffd555;stop-opacity:1;" offset="0.273438"/><stop style="stop-color:#ffd554;stop-opacity:1;" offset="0.277344"/><stop style="stop-color:#ffd554;stop-opacity:1;" offset="0.28125"/><stop style="stop-color:#ffd553;stop-opacity:1;" offset="0.285156"/><stop style="stop-color:#ffd452;stop-opacity:1;" offset="0.289062"/><stop style="stop-color:#ffd452;stop-opacity:1;" offset="0.292969"/><stop style="stop-color:#ffd451;stop-opacity:1;" offset="0.296875"/><stop style="stop-color:#ffd450;stop-opacity:1;" offset="0.300781"/><stop style="stop-color:#ffd450;stop-opacity:1;" offset="0.304688"/><stop style="stop-color:#ffd44f;stop-opacity:1;" offset="0.308594"/><stop style="stop-color:#ffd34f;stop-opacity:1;" offset="0.3125"/><stop style="stop-color:#ffd34e;stop-opacity:1;" offset="0.316406"/><stop style="stop-color:#ffd34d;stop-opacity:1;" offset="0.320312"/><stop style="stop-color:#ffd34d;stop-opacity:1;" offset="0.324219"/><stop style="stop-color:#ffd34c;stop-opacity:1;" offset="0.328125"/><stop style="stop-color:#ffd34b;stop-opacity:1;" offset="0.332031"/><stop style="stop-color:#ffd24b;stop-opacity:1;" offset="0.335938"/><stop style="stop-color:#ffd24a;stop-opacity:1;" offset="0.339844"/><stop style="stop-color:#ffd249;stop-opacity:1;" offset="0.34375"/><stop style="stop-color:#ffd249;stop-opacity:1;" offset="0.347656"/><stop style="stop-color:#ffd248;stop-opacity:1;" offset="0.351562"/><stop style="stop-color:#ffd248;stop-opacity:1;" offset="0.355469"/><stop style="stop-color:#ffd247;stop-opacity:1;" offset="0.359375"/><stop style="stop-color:#ffd146;stop-opacity:1;" offset="0.363281"/><stop style="stop-color:#ffd146;stop-opacity:1;" offset="0.367188"/><stop style="stop-color:#ffd145;stop-opacity:1;" offset="0.371094"/><stop style="stop-color:#ffd144;stop-opacity:1;" offset="0.375"/><stop style="stop-color:#ffd144;stop-opacity:1;" offset="0.378906"/><stop style="stop-color:#ffd143;stop-opacity:1;" offset="0.382812"/><stop style="stop-color:#ffd042;stop-opacity:1;" offset="0.386719"/><stop style="stop-color:#ffd042;stop-opacity:1;" offset="0.390625"/><stop style="stop-color:#ffd041;stop-opacity:1;" offset="0.394531"/><stop style="stop-color:#ffd040;stop-opacity:1;" offset="0.398438"/><stop style="stop-color:#ffd040;stop-opacity:1;" offset="0.402344"/><stop style="stop-color:#ffd03f;stop-opacity:1;" offset="0.40625"/><stop style="stop-color:#ffd03f;stop-opacity:1;" offset="0.410156"/><stop style="stop-color:#ffcf3e;stop-opacity:1;" offset="0.414062"/><stop style="stop-color:#ffcf3d;stop-opacity:1;" offset="0.417969"/><stop style="stop-color:#ffcf3d;stop-opacity:1;" offset="0.421875"/><stop style="stop-color:#ffcf3c;stop-opacity:1;" offset="0.425781"/><stop style="stop-color:#ffcf3b;stop-opacity:1;" offset="0.429688"/><stop style="stop-color:#ffcf3b;stop-opacity:1;" offset="0.433594"/><stop style="stop-color:#ffce3a;stop-opacity:1;" offset="0.4375"/><stop style="stop-color:#ffce39;stop-opacity:1;" offset="0.441406"/><stop style="stop-color:#ffce39;stop-opacity:1;" offset="0.445312"/><stop style="stop-color:#ffce38;stop-opacity:1;" offset="0.449219"/><stop style="stop-color:#ffce38;stop-opacity:1;" offset="0.453125"/><stop style="stop-color:#ffce37;stop-opacity:1;" offset="0.457031"/><stop style="stop-color:#ffcd36;stop-opacity:1;" offset="0.460938"/><stop style="stop-color:#ffcd36;stop-opacity:1;" offset="0.464844"/><stop style="stop-color:#ffcd35;stop-opacity:1;" offset="0.46875"/><stop style="stop-color:#ffcd34;stop-opacity:1;" offset="0.472656"/><stop style="stop-color:#ffcd34;stop-opacity:1;" offset="0.476562"/><stop style="stop-color:#ffcd33;stop-opacity:1;" offset="0.480469"/><stop style="stop-color:#ffcd32;stop-opacity:1;" offset="0.484375"/><stop style="stop-color:#ffcc32;stop-opacity:1;" offset="0.488281"/><stop style="stop-color:#ffcc31;stop-opacity:1;" offset="0.492188"/><stop style="stop-color:#ffcc31;stop-opacity:1;" offset="0.496094"/><stop style="stop-color:#ffcc30;stop-opacity:1;" offset="0.5"/><stop style="stop-color:#ffcc2f;stop-opacity:1;" offset="0.503906"/><stop style="stop-color:#ffcc2f;stop-opacity:1;" offset="0.507812"/><stop style="stop-color:#ffcb2e;stop-opacity:1;" offset="0.511719"/><stop style="stop-color:#ffcb2d;stop-opacity:1;" offset="0.515625"/><stop style="stop-color:#ffcb2d;stop-opacity:1;" offset="0.519531"/><stop style="stop-color:#ffcb2c;stop-opacity:1;" offset="0.523438"/><stop style="stop-color:#ffcb2b;stop-opacity:1;" offset="0.527344"/><stop style="stop-color:#ffcb2b;stop-opacity:1;" offset="0.53125"/><stop style="stop-color:#ffcb2a;stop-opacity:1;" offset="0.535156"/><stop style="stop-color:#ffca29;stop-opacity:1;" offset="0.539062"/><stop style="stop-color:#ffca29;stop-opacity:1;" offset="0.542969"/><stop style="stop-color:#ffca28;stop-opacity:1;" offset="0.546875"/><stop style="stop-color:#ffc928;stop-opacity:1;" offset="0.558594"/><stop style="stop-color:#ffc828;stop-opacity:1;" offset="0.570312"/><stop style="stop-color:#fec728;stop-opacity:1;" offset="0.582031"/><stop style="stop-color:#fec628;stop-opacity:1;" offset="0.59375"/><stop style="stop-color:#fec528;stop-opacity:1;" offset="0.605469"/><stop style="stop-color:#fec428;stop-opacity:1;" offset="0.617188"/><stop style="stop-color:#fec427;stop-opacity:1;" offset="0.628906"/><stop style="stop-color:#fec327;stop-opacity:1;" offset="0.636719"/><stop style="stop-color:#fec327;stop-opacity:1;" offset="0.644531"/><stop style="stop-color:#fec227;stop-opacity:1;" offset="0.652344"/><stop style="stop-color:#fdc127;stop-opacity:1;" offset="0.660156"/><stop style="stop-color:#fdc127;stop-opacity:1;" offset="0.667969"/><stop style="stop-color:#fdc027;stop-opacity:1;" offset="0.675781"/><stop style="stop-color:#fdc027;stop-opacity:1;" offset="0.683594"/><stop style="stop-color:#fdbf27;stop-opacity:1;" offset="0.691406"/><stop style="stop-color:#fdbe27;stop-opacity:1;" offset="0.699219"/><stop style="stop-color:#fdbe27;stop-opacity:1;" offset="0.707031"/><stop style="stop-color:#fdbd27;stop-opacity:1;" offset="0.714844"/><stop style="stop-color:#fdbd27;stop-opacity:1;" offset="0.722656"/><stop style="stop-color:#fdbc27;stop-opacity:1;" offset="0.730469"/><stop style="stop-color:#fcbb27;stop-opacity:1;" offset="0.738281"/><stop style="stop-color:#fcbb27;stop-opacity:1;" offset="0.746094"/><stop style="stop-color:#fcba27;stop-opacity:1;" offset="0.753906"/><stop style="stop-color:#fcb927;stop-opacity:1;" offset="0.765625"/><stop style="stop-color:#fcb826;stop-opacity:1;" offset="0.777344"/><stop style="stop-color:#fcb726;stop-opacity:1;" offset="0.789062"/><stop style="stop-color:#fcb726;stop-opacity:1;" offset="0.800781"/><stop style="stop-color:#fbb626;stop-opacity:1;" offset="0.8125"/><stop style="stop-color:#fbb526;stop-opacity:1;" offset="0.824219"/><stop style="stop-color:#fbb426;stop-opacity:1;" offset="0.832031"/><stop style="stop-color:#fbb426;stop-opacity:1;" offset="0.839844"/><stop style="stop-color:#fbb326;stop-opacity:1;" offset="0.847656"/><stop style="stop-color:#fbb326;stop-opacity:1;" offset="0.855469"/><stop style="stop-color:#fbb226;stop-opacity:1;" offset="0.863281"/><stop style="stop-color:#fbb126;stop-opacity:1;" offset="0.871094"/><stop style="stop-color:#fbb126;stop-opacity:1;" offset="0.878906"/><stop style="stop-color:#fab026;stop-opacity:1;" offset="0.890625"/><stop style="stop-color:#faaf26;stop-opacity:1;" offset="0.902344"/><stop style="stop-color:#faae26;stop-opacity:1;" offset="0.914062"/><stop style="stop-color:#faae25;stop-opacity:1;" offset="0.921875"/><stop style="stop-color:#faad25;stop-opacity:1;" offset="0.929688"/><stop style="stop-color:#faac25;stop-opacity:1;" offset="0.9375"/><stop style="stop-color:#faac25;stop-opacity:1;" offset="0.945312"/><stop style="stop-color:#faab25;stop-opacity:1;" offset="0.957031"/><stop style="stop-color:#f9aa25;stop-opacity:1;" offset="0.964844"/><stop style="stop-color:#f9aa25;stop-opacity:1;" offset="0.972656"/><stop style="stop-color:#f9a925;stop-opacity:1;" offset="0.984375"/><stop style="stop-color:#f9a825;stop-opacity:1;" offset="0.992188"/><stop style="stop-color:#f9a825;stop-opacity:1;" offset="1"/></radialGradient></defs><g id="752689ed82"><g clip-rule="nonzero" clip-path="url(#70ec2ad9a6)"><g clip-rule="nonzero" clip-path="url(#c67e2511ef)"><path style=" stroke:none;fill-rule:nonzero;fill:url(#c8619c78b3);" d="M 6 6 L 6 144 L 144 144 L 144 6 Z M 6 6 "/></g></g><path style="fill:none;stroke-width:6;stroke-linecap:butt;stroke-linejoin:miter;stroke:#f57f17;stroke-opacity:1;stroke-miterlimit:4;" d="M 192.00001 100.000003 C 192.00001 101.505212 191.963551 103.01042 191.890635 104.515628 C 191.817718 106.015629 191.703135 107.520837 191.557301 109.015629 C 191.411468 110.515629 191.223968 112.010421 191.005218 113.500004 C 190.781259 114.989587 190.526051 116.473962 190.234384 117.947921 C 189.937509 119.427088 189.609384 120.895838 189.244801 122.354171 C 188.875009 123.812505 188.473968 125.26563 188.036468 126.708338 C 187.598968 128.145838 187.130218 129.57813 186.619801 130.994797 C 186.114593 132.411463 185.572926 133.817713 184.994801 135.208339 C 184.421884 136.598964 183.812509 137.973964 183.166676 139.333339 C 182.520842 140.697922 181.848967 142.041672 181.135426 143.369797 C 180.427092 144.697922 179.687509 146.005214 178.911467 147.296881 C 178.135425 148.588548 177.333342 149.859381 176.4948 151.114589 C 175.656259 152.36459 174.791675 153.593756 173.895842 154.80209 C 173.000008 156.015631 172.072925 157.197923 171.114592 158.36459 C 170.161467 159.526048 169.177092 160.666673 168.166675 161.781257 C 167.156258 162.901049 166.1198 163.98959 165.052091 165.05209 C 163.989591 166.119799 162.90105 167.156257 161.781258 168.166674 C 160.666674 169.177091 159.526049 170.161466 158.364591 171.114591 C 157.197924 172.072924 156.015632 173.000007 154.802091 173.895841 C 153.593757 174.791674 152.364591 175.656258 151.11459 176.494799 C 149.859382 177.333341 148.588549 178.135424 147.296882 178.911466 C 146.005215 179.687508 144.697923 180.427091 143.369798 181.135425 C 142.041673 181.848966 140.697923 182.520841 139.33334 183.166675 C 137.973965 183.812508 136.598965 184.421883 135.20834 184.9948 C 133.817714 185.572925 132.411464 186.114592 130.994798 186.6198 C 129.578131 187.130217 128.145839 187.598967 126.708339 188.036467 C 125.265631 188.473967 123.812506 188.875008 122.354172 189.2448 C 120.895839 189.609383 119.427089 189.937508 117.947922 190.234383 C 116.473963 190.52605 114.989588 190.781258 113.500005 191.005217 C 112.010422 191.223967 110.51563 191.411467 109.01563 191.5573 C 107.520838 191.703134 106.01563 191.817717 104.515629 191.890634 C 103.010421 191.96355 101.505213 192.000009 100.000004 192.000009 C 98.494796 192.000009 96.989587 191.96355 95.484379 191.890634 C 93.984379 191.817717 92.47917 191.703134 90.984379 191.5573 C 89.484379 191.411467 87.989587 191.223967 86.500003 191.005217 C 85.01042 190.781258 83.526045 190.52605 82.052086 190.234383 C 80.57292 189.937508 79.10417 189.609383 77.645836 189.2448 C 76.187503 188.875008 74.734378 188.473967 73.291669 188.036467 C 71.854169 187.598967 70.421877 187.130217 69.005211 186.6198 C 67.588544 186.114592 66.182294 185.572925 64.791669 184.9948 C 63.401044 184.421883 62.026044 183.812508 60.666669 183.166675 C 59.302085 182.520841 57.958335 181.848966 56.63021 181.135425 C 55.302085 180.427091 53.994793 179.687508 52.703126 178.911466 C 51.41146 178.135424 50.140626 177.333341 48.885418 176.494799 C 47.635418 175.656258 46.406251 174.791674 45.197918 173.895841 C 43.984376 173.000007 42.802084 172.072924 41.635417 171.114591 C 40.473959 170.161466 39.333334 169.177091 38.218751 168.166674 C 37.098959 167.156257 36.010417 166.119799 34.947917 165.05209 C 33.880209 163.98959 32.84375 162.901049 31.833334 161.781257 C 30.822917 160.666673 29.838542 159.526048 28.885417 158.36459 C 27.927083 157.197923 27 156.015631 26.104167 154.80209 C 25.208333 153.593756 24.34375 152.36459 23.505208 151.114589 C 22.666666 149.859381 21.864583 148.588548 21.088541 147.296881 C 20.3125 146.005214 19.572916 144.697922 18.864583 143.369797 C 18.151041 142.041672 17.479166 140.697922 16.833333 139.333339 C 16.187499 137.973964 15.578124 136.598964 15.005208 135.208339 C 14.427083 133.817713 13.885416 132.411463 13.380207 130.994797 C 12.869791 129.57813 12.401041 128.145838 11.963541 126.708338 C 11.526041 125.26563 11.124999 123.812505 10.755207 122.354171 C 10.390624 120.895838 10.062499 119.427088 9.765624 117.947921 C 9.473957 116.473962 9.218749 114.989587 8.994791 113.500004 C 8.776041 112.010421 8.588541 110.515629 8.442707 109.015629 C 8.296874 107.520837 8.18229 106.015629 8.109374 104.515628 C 8.036457 103.01042 7.999999 101.505212 7.999999 100.000003 C 7.999999 98.494795 8.036457 96.989586 8.109374 95.484378 C 8.18229 93.984378 8.296874 92.479169 8.442707 90.984378 C 8.588541 89.484378 8.776041 87.989586 8.994791 86.500002 C 9.218749 85.010419 9.473957 83.526044 9.765624 82.052085 C 10.062499 80.572919 10.390624 79.104169 10.755207 77.645835 C 11.124999 76.187502 11.526041 74.734377 11.963541 73.291668 C 12.401041 71.854168 12.869791 70.421876 13.380207 69.00521 C 13.885416 67.588543 14.427083 66.182293 15.005208 64.791668 C 15.578124 63.401043 16.187499 62.026043 16.833333 60.666668 C 17.479166 59.302084 18.151041 57.958334 18.864583 56.630209 C 19.572916 55.302084 20.3125 53.994792 21.088541 52.703125 C 21.864583 51.411459 22.666666 50.140625 23.505208 48.885417 C 24.34375 47.635417 25.208333 46.40625 26.104167 45.197917 C 27 43.984375 27.927083 42.802083 28.885417 41.635416 C 29.838542 40.473958 30.822917 39.333333 31.833334 38.21875 C 32.84375 37.098958 33.880209 36.010416 34.947917 34.947916 C 36.010417 33.880208 37.098959 32.843749 38.218751 31.833333 C 39.333334 30.822916 40.473959 29.838541 41.635417 28.885416 C 42.802084 27.927082 43.984376 26.999999 45.197918 26.104166 C 46.406251 25.208332 47.635418 24.343749 48.885418 23.505207 C 50.140626 22.666665 51.41146 21.864582 52.703126 21.08854 C 53.994793 20.312499 55.302085 19.572915 56.63021 18.864582 C 57.958335 18.15104 59.302085 17.479165 60.666669 16.833332 C 62.026044 16.187498 63.401044 15.578123 64.791669 15.005207 C 66.182294 14.427082 67.588544 13.885415 69.005211 13.380206 C 70.421877 12.86979 71.854169 12.40104 73.291669 11.96354 C 74.734378 11.52604 76.187503 11.124998 77.645836 10.755206 C 79.10417 10.390623 80.57292 10.062498 82.052086 9.765623 C 83.526045 9.473956 85.01042 9.218748 86.500003 8.99479 C 87.989587 8.77604 89.484379 8.58854 90.984379 8.442706 C 92.47917 8.296873 93.984379 8.182289 95.484379 8.109373 C 96.989587 8.036456 98.494796 7.999998 100.000004 7.999998 C 101.505213 7.999998 103.010421 8.036456 104.515629 8.109373 C 106.01563 8.182289 107.520838 8.296873 109.01563 8.442706 C 110.51563 8.58854 112.010422 8.77604 113.500005 8.99479 C 114.989588 9.218748 116.473963 9.473956 117.947922 9.765623 C 119.427089 10.062498 120.895839 10.390623 122.354172 10.755206 C 123.812506 11.124998 125.265631 11.52604 126.708339 11.96354 C 128.145839 12.40104 129.578131 12.86979 130.994798 13.380206 C 132.411464 13.885415 133.817714 14.427082 135.20834 15.005207 C 136.598965 15.578123 137.973965 16.187498 139.33334 16.833332 C 140.697923 17.479165 142.041673 18.15104 143.369798 18.864582 C 144.697923 19.572915 146.005215 20.312499 147.296882 21.08854 C 148.588549 21.864582 149.859382 22.666665 151.11459 23.505207 C 152.364591 24.343749 153.593757 25.208332 154.802091 26.104166 C 156.015632 26.999999 157.197924 27.927082 158.364591 28.885416 C 159.526049 29.838541 160.666674 30.822916 161.781258 31.833333 C 162.90105 32.843749 163.989591 33.880208 165.052091 34.947916 C 166.1198 36.010416 167.156258 37.098958 168.166675 38.21875 C 169.177092 39.333333 170.161467 40.473958 171.114592 41.635416 C 172.072925 42.802083 173.000008 43.984375 173.895842 45.197917 C 174.791675 46.40625 175.656259 47.635417 176.4948 48.885417 C 177.333342 50.140625 178.135425 51.411459 178.911467 52.703125 C 179.687509 53.994792 180.427092 55.302084 181.135426 56.630209 C 181.848967 57.958334 182.520842 59.302084 183.166676 60.666668 C 183.812509 62.026043 184.421884 63.401043 184.994801 64.791668 C 185.572926 66.182293 186.114593 67.588543 186.619801 69.00521 C 187.130218 70.421876 187.598968 71.854168 188.036468 73.291668 C 188.473968 74.734377 188.875009 76.187502 189.244801 77.645835 C 189.609384 79.104169 189.937509 80.572919 190.234384 82.052085 C 190.526051 83.526044 190.781259 85.010419 191.005218 86.500002 C 191.223968 87.989586 191.411468 89.484378 191.557301 90.984378 C 191.703135 92.479169 191.817718 93.984378 191.890635 95.484378 C 191.963551 96.989586 192.00001 98.494795 192.00001 100.000003 Z M 192.00001 100.000003 " transform="matrix(0.75,0,0,0.75,0.00000125,0.000002)"/><path style="fill:none;stroke-width:6;stroke-linecap:butt;stroke-linejoin:miter;stroke:#ffffff;stroke-opacity:0.349;stroke-miterlimit:4;" d="M 172.000008 100.000003 C 172.000008 102.359378 171.885425 104.708337 171.65105 107.057295 C 171.421883 109.406254 171.078133 111.734379 170.614592 114.046879 C 170.156258 116.359379 169.583342 118.645838 168.90105 120.901046 C 168.21355 123.156255 167.421883 125.375005 166.520841 127.552088 C 165.614591 129.73438 164.609383 131.85938 163.500008 133.942713 C 162.385424 136.020839 161.177091 138.041672 159.864591 140.000006 C 158.557299 141.963547 157.151049 143.854172 155.656257 145.677089 C 154.161466 147.500006 152.578132 149.244798 150.911465 150.911464 C 149.244799 152.578131 147.500007 154.161465 145.67709 155.656256 C 143.854173 157.151048 141.963548 158.557298 140.000007 159.86459 C 138.041673 161.17709 136.02084 162.385423 133.942714 163.500007 C 131.859381 164.609382 129.734381 165.61459 127.552089 166.52084 C 125.375006 167.421882 123.156256 168.213549 120.901047 168.901049 C 118.645839 169.583341 116.35938 170.156257 114.04688 170.614591 C 111.73438 171.078132 109.406255 171.421882 107.057296 171.651049 C 104.708338 171.885424 102.359379 172.000007 100.000004 172.000007 C 97.640629 172.000007 95.291671 171.885424 92.942712 171.651049 C 90.593754 171.421882 88.265628 171.078132 85.953128 170.614591 C 83.640628 170.156257 81.35417 169.583341 79.098961 168.901049 C 76.843753 168.213549 74.625003 167.421882 72.447919 166.52084 C 70.265627 165.61459 68.140627 164.609382 66.057294 163.500007 C 63.979169 162.385423 61.958335 161.17709 60.000002 159.86459 C 58.03646 158.557298 56.145835 157.151048 54.322918 155.656256 C 52.500001 154.161465 50.75521 152.578131 49.088543 150.911464 C 47.421876 149.244798 45.838543 147.500006 44.343751 145.677089 C 42.848959 143.854172 41.442709 141.963547 40.135417 140.000006 C 38.822917 138.041672 37.614584 136.020839 36.5 133.942713 C 35.390625 131.85938 34.385417 129.73438 33.479167 127.552088 C 32.578125 125.375005 31.786459 123.156255 31.098958 120.901046 C 30.416667 118.645838 29.84375 116.359379 29.385417 114.046879 C 28.921875 111.734379 28.578125 109.406254 28.348958 107.057295 C 28.114583 104.708337 28 102.359378 28 100.000003 C 28 97.640628 28.114583 95.29167 28.348958 92.942711 C 28.578125 90.593753 28.921875 88.265627 29.385417 85.953127 C 29.84375 83.640627 30.416667 81.354169 31.098958 79.09896 C 31.786459 76.843752 32.578125 74.625002 33.479167 72.447918 C 34.385417 70.265626 35.390625 68.140626 36.5 66.057293 C 37.614584 63.979168 38.822917 61.958334 40.135417 60.000001 C 41.442709 58.036459 42.848959 56.145834 44.343751 54.322917 C 45.838543 52.5 47.421876 50.755209 49.088543 49.088542 C 50.75521 47.421875 52.500001 45.838542 54.322918 44.34375 C 56.145835 42.848958 58.03646 41.442708 60.000002 40.135416 C 61.958335 38.822916 63.979169 37.614583 66.057294 36.499999 C 68.140627 35.390624 70.265627 34.385416 72.447919 33.479166 C 74.625003 32.578124 76.843753 31.786458 79.098961 31.098957 C 81.35417 30.416666 83.640628 29.843749 85.953128 29.385416 C 88.265628 28.921874 90.593754 28.578124 92.942712 28.348957 C 95.291671 28.114582 97.640629 27.999999 100.000004 27.999999 C 102.359379 27.999999 104.708338 28.114582 107.057296 28.348957 C 109.406255 28.578124 111.73438 28.921874 114.04688 29.385416 C 116.35938 29.843749 118.645839 30.416666 120.901047 31.098957 C 123.156256 31.786458 125.375006 32.578124 127.552089 33.479166 C 129.734381 34.385416 131.859381 35.390624 133.942714 36.499999 C 136.02084 37.614583 138.041673 38.822916 140.000007 40.135416 C 141.963548 41.442708 143.854173 42.848958 145.67709 44.34375 C 147.500007 45.838542 149.244799 47.421875 150.911465 49.088542 C 152.578132 50.755209 154.161466 52.5 155.656257 54.322917 C 157.151049 56.145834 158.557299 58.036459 159.864591 60.000001 C 161.177091 61.958334 162.385424 63.979168 163.500008 66.057293 C 164.609383 68.140626 165.614591 70.265626 166.520841 72.447918 C 167.421883 74.625002 168.21355 76.843752 168.90105 79.09896 C 169.583342 81.354169 170.156258 83.640627 170.614592 85.953127 C 171.078133 88.265627 171.421883 90.593753 171.65105 92.942711 C 171.885425 95.29167 172.000008 97.640628 172.000008 100.000003 Z M 172.000008 100.000003 " transform="matrix(0.75,0,0,0.75,0.00000125,0.000002)"/><g style="fill:#212121;fill-opacity:1;"><g transform="translate(48.749998, 91.499997)"><path style="stroke:none" d="M 33.21875 -24.6875 C 33.21875 -22.363281 32.6875 -20.285156 31.625 -18.453125 C 30.570312 -16.628906 29.054688 -15.21875 27.078125 -14.21875 C 25.109375 -13.21875 22.765625 -12.71875 20.046875 -12.71875 L 11.078125 -12.71875 L 11.078125 0 L 3.515625 0 L 3.515625 -36.125 L 19.734375 -36.125 C 24.054688 -36.125 27.382812 -35.125 29.71875 -33.125 C 32.050781 -31.132812 33.21875 -28.320312 33.21875 -24.6875 Z M 25.609375 -24.5625 C 25.609375 -28.351562 23.367188 -30.25 18.890625 -30.25 L 11.078125 -30.25 L 11.078125 -18.53125 L 19.09375 -18.53125 C 21.175781 -18.53125 22.78125 -19.046875 23.90625 -20.078125 C 25.039062 -21.117188 25.609375 -22.613281 25.609375 -24.5625 Z M 25.609375 -24.5625 "/></g><g transform="translate(83.767086, 91.499997)"><path style="stroke:none" d="M 10.765625 0.46875 C 8.648438 0.46875 7.019531 -0.109375 5.875 -1.265625 C 4.726562 -2.421875 4.15625 -4.171875 4.15625 -6.515625 L 4.15625 -22.859375 L 0.640625 -22.859375 L 0.640625 -27.734375 L 4.515625 -27.734375 L 6.765625 -34.25 L 11.28125 -34.25 L 11.28125 -27.734375 L 16.53125 -27.734375 L 16.53125 -22.859375 L 11.28125 -22.859375 L 11.28125 -8.453125 C 11.28125 -7.109375 11.535156 -6.113281 12.046875 -5.46875 C 12.554688 -4.832031 13.351562 -4.515625 14.4375 -4.515625 C 15 -4.515625 15.800781 -4.632812 16.84375 -4.875 L 16.84375 -0.40625 C 15.0625 0.175781 13.035156 0.46875 10.765625 0.46875 Z M 10.765625 0.46875 "/></g></g></g></svg>