<svg xmlns="http://www.w3.org/2000/svg" xmlns:xlink="http://www.w3.org/1999/xlink" width="200" zoomAndPan="magnify" viewBox="0 0 150 149.999998" height="200" preserveAspectRatio="xMidYMid meet" version="1.2"><g id="e772900f2f"><path style="fill-rule:nonzero;fill:#0e3d56;fill-opacity:1;stroke-width:8;stroke-linecap:butt;stroke-linejoin:miter;stroke:#29b6f6;stroke-opacity:1;stroke-miterlimit:4;" d="M 196.00001 100.000003 C 196.00001 101.57292 195.963551 103.140628 195.885426 104.708337 C 195.807301 106.281254 195.692718 107.843754 195.536468 109.411462 C 195.385426 110.973962 195.192718 112.531254 194.958343 114.088546 C 194.729176 115.640629 194.463551 117.187504 194.15626 118.729171 C 193.848968 120.270838 193.505218 121.802088 193.12501 123.32813 C 192.739593 124.848963 192.322926 126.364588 191.864593 127.869796 C 191.411468 129.369797 190.916676 130.864588 190.390634 132.343755 C 189.859384 133.822922 189.291676 135.286464 188.692718 136.739589 C 188.093759 138.187505 187.453134 139.625005 186.781259 141.046881 C 186.109384 142.463547 185.406259 143.869797 184.666676 145.255214 C 183.921884 146.640631 183.151051 148.005214 182.343759 149.354173 C 181.536467 150.703131 180.692717 152.026048 179.822925 153.33334 C 178.947925 154.640631 178.041675 155.92709 177.109384 157.187507 C 176.171884 158.447923 175.203134 159.687507 174.208342 160.901048 C 173.21355 162.11459 172.187508 163.307299 171.130217 164.468757 C 170.078133 165.635424 168.9948 166.77084 167.880216 167.880215 C 166.770841 168.994799 165.635425 170.078132 164.468758 171.130216 C 163.3073 172.187507 162.114591 173.213549 160.901049 174.208341 C 159.687508 175.203133 158.447924 176.171883 157.187508 177.109383 C 155.927091 178.041674 154.640632 178.947924 153.333341 179.822924 C 152.026049 180.692716 150.703132 181.536466 149.354174 182.343758 C 148.005215 183.15105 146.640632 183.921883 145.255215 184.666675 C 143.869798 185.406258 142.463548 186.109383 141.046882 186.781258 C 139.625006 187.453133 138.187506 188.093758 136.73959 188.692717 C 135.286465 189.291675 133.822923 189.859383 132.343756 190.390633 C 130.864589 190.916675 129.369798 191.411467 127.869797 191.864592 C 126.364589 192.322925 124.848964 192.739592 123.328131 193.125009 C 121.802089 193.505217 120.270839 193.848967 118.729172 194.156259 C 117.187505 194.46355 115.64063 194.729175 114.088547 194.958342 C 112.531255 195.192717 110.973963 195.385425 109.411463 195.536467 C 107.843755 195.692717 106.281255 195.8073 104.708338 195.885425 C 103.140629 195.96355 101.572921 196.000009 100.000004 196.000009 C 98.427087 196.000009 96.859379 195.96355 95.291671 195.885425 C 93.718754 195.8073 92.156254 195.692717 90.588545 195.536467 C 89.026045 195.385425 87.468753 195.192717 85.911462 194.958342 C 84.359378 194.729175 82.812503 194.46355 81.270836 194.156259 C 79.72917 193.848967 78.19792 193.505217 76.671878 193.125009 C 75.151044 192.739592 73.635419 192.322925 72.130211 191.864592 C 70.630211 191.411467 69.135419 190.916675 67.656252 190.390633 C 66.177086 189.859383 64.713544 189.291675 63.260419 188.692717 C 61.812502 188.093758 60.375002 187.453133 58.953127 186.781258 C 57.53646 186.109383 56.13021 185.406258 54.744793 184.666675 C 53.359376 183.921883 51.994793 183.15105 50.645835 182.343758 C 49.296876 181.536466 47.973959 180.692716 46.666668 179.822924 C 45.359376 178.947924 44.072918 178.041674 42.812501 177.109383 C 41.552084 176.171883 40.312501 175.203133 39.098959 174.208341 C 37.885417 173.213549 36.692709 172.187507 35.53125 171.130216 C 34.364584 170.078132 33.229167 168.994799 32.119792 167.880215 C 31.005208 166.77084 29.921875 165.635424 28.869792 164.468757 C 27.8125 163.307299 26.786458 162.11459 25.791667 160.901048 C 24.796875 159.687507 23.828125 158.447923 22.890625 157.187507 C 21.958333 155.92709 21.052083 154.640631 20.177083 153.33334 C 19.307291 152.026048 18.463541 150.703131 17.656249 149.354173 C 16.848958 148.005214 16.078124 146.640631 15.333333 145.255214 C 14.593749 143.869797 13.890624 142.463547 13.218749 141.046881 C 12.546874 139.625005 11.906249 138.187505 11.307291 136.739589 C 10.708332 135.286464 10.140624 133.822922 9.609374 132.343755 C 9.083332 130.864588 8.588541 129.369797 8.135415 127.869796 C 7.677082 126.364588 7.260415 124.848963 6.874999 123.32813 C 6.49479 121.802088 6.15104 120.270838 5.843749 118.729171 C 5.536457 117.187504 5.270832 115.640629 5.036457 114.088546 C 4.80729 112.531254 4.614582 110.973962 4.46354 109.411462 C 4.30729 107.843754 4.192707 106.281254 4.114582 104.708337 C 4.036457 103.140628 3.999999 101.57292 3.999999 100.000003 C 3.999999 98.427086 4.036457 96.859378 4.114582 95.29167 C 4.192707 93.718753 4.30729 92.156253 4.46354 90.588544 C 4.614582 89.026044 4.80729 87.468752 5.036457 85.911461 C 5.270832 84.359377 5.536457 82.812502 5.843749 81.270835 C 6.15104 79.729169 6.49479 78.197919 6.874999 76.671877 C 7.260415 75.151043 7.677082 73.635418 8.135415 72.13021 C 8.588541 70.63021 9.083332 69.135418 9.609374 67.656251 C 10.140624 66.177085 10.708332 64.713543 11.307291 63.260418 C 11.906249 61.812501 12.546874 60.375001 13.218749 58.953126 C 13.890624 57.536459 14.593749 56.130209 15.333333 54.744792 C 16.078124 53.359375 16.848958 51.994792 17.656249 50.645834 C 18.463541 49.296875 19.307291 47.973958 20.177083 46.666667 C 21.052083 45.359375 21.958333 44.072917 22.890625 42.8125 C 23.828125 41.552083 24.796875 40.3125 25.791667 39.098958 C 26.786458 37.885416 27.8125 36.692708 28.869792 35.531249 C 29.921875 34.364583 31.005208 33.229166 32.119792 32.119791 C 33.229167 31.005207 34.364584 29.921874 35.53125 28.869791 C 36.692709 27.812499 37.885417 26.786457 39.098959 25.791666 C 40.312501 24.796874 41.552084 23.828124 42.812501 22.890624 C 44.072918 21.958332 45.359376 21.052082 46.666668 20.177082 C 47.973959 19.30729 49.296876 18.46354 50.645835 17.656248 C 51.994793 16.848957 53.359376 16.078123 54.744793 15.333332 C 56.13021 14.593748 57.53646 13.890623 58.953127 13.218748 C 60.375002 12.546873 61.812502 11.906248 63.260419 11.30729 C 64.713544 10.708331 66.177086 10.140623 67.656252 9.609373 C 69.135419 9.083331 70.630211 8.58854 72.130211 8.135414 C 73.635419 7.677081 75.151044 7.260414 76.671878 6.874998 C 78.19792 6.494789 79.72917 6.151039 81.270836 5.843748 C 82.812503 5.536456 84.359378 5.270831 85.911462 5.036456 C 87.468753 4.807289 89.026045 4.614581 90.588545 4.463539 C 92.156254 4.307289 93.718754 4.192706 95.291671 4.114581 C 96.859379 4.036456 98.427087 3.999998 100.000004 3.999998 C 101.572921 3.999998 103.140629 4.036456 104.708338 4.114581 C 106.281255 4.192706 107.843755 4.307289 109.411463 4.463539 C 110.973963 4.614581 112.531255 4.807289 114.088547 5.036456 C 115.64063 5.270831 117.187505 5.536456 118.729172 5.843748 C 120.270839 6.151039 121.802089 6.494789 123.328131 6.874998 C 124.848964 7.260414 126.364589 7.677081 127.869797 8.135414 C 129.369798 8.58854 130.864589 9.083331 132.343756 9.609373 C 133.822923 10.140623 135.286465 10.708331 136.73959 11.30729 C 138.187506 11.906248 139.625006 12.546873 141.046882 13.218748 C 142.463548 13.890623 143.869798 14.593748 145.255215 15.333332 C 146.640632 16.078123 148.005215 16.848957 149.354174 17.656248 C 150.703132 18.46354 152.026049 19.30729 153.333341 20.177082 C 154.640632 21.052082 155.927091 21.958332 157.187508 22.890624 C 158.447924 23.828124 159.687508 24.796874 160.901049 25.791666 C 162.114591 26.786457 163.3073 27.812499 164.468758 28.869791 C 165.635425 29.921874 166.770841 31.005207 167.880216 32.119791 C 168.9948 33.229166 170.078133 34.364583 171.130217 35.531249 C 172.187508 36.692708 173.21355 37.885416 174.208342 39.098958 C 175.203134 40.3125 176.171884 41.552083 177.109384 42.8125 C 178.041675 44.072917 178.947925 45.359375 179.822925 46.666667 C 180.692717 47.973958 181.536467 49.296875 182.343759 50.645834 C 183.151051 51.994792 183.921884 53.359375 184.666676 54.744792 C 185.406259 56.130209 186.109384 57.536459 186.781259 58.953126 C 187.453134 60.375001 188.093759 61.812501 188.692718 63.260418 C 189.291676 64.713543 189.859384 66.177085 190.390634 67.656251 C 190.916676 69.135418 191.411468 70.63021 191.864593 72.13021 C 192.322926 73.635418 192.739593 75.151043 193.12501 76.671877 C 193.505218 78.197919 193.848968 79.729169 194.15626 81.270835 C 194.463551 82.812502 194.729176 84.359377 194.958343 85.911461 C 195.192718 87.468752 195.385426 89.026044 195.536468 90.588544 C 195.692718 92.156253 195.807301 93.718753 195.885426 95.29167 C 195.963551 96.859378 196.00001 98.427086 196.00001 100.000003 Z M 196.00001 100.000003 " transform="matrix(0.75,0,0,0.75,0.00000125,0.000002)"/><path style=" stroke:none;fill-rule:nonzero;fill:#e0e0e0;fill-opacity:1;" d="M 51 52.5 L 80.25 52.5 C 80.644531 52.5 81.035156 52.539062 81.421875 52.617188 C 81.808594 52.691406 82.183594 52.804688 82.546875 52.957031 C 82.910156 53.109375 83.253906 53.292969 83.582031 53.511719 C 83.910156 53.730469 84.214844 53.980469 84.492188 54.257812 C 84.769531 54.535156 85.019531 54.839844 85.238281 55.167969 C 85.457031 55.492188 85.640625 55.839844 85.792969 56.203125 C 85.945312 56.566406 86.058594 56.941406 86.132812 57.328125 C 86.210938 57.714844 86.25 58.105469 86.25 58.5 L 86.25 91.5 C 86.25 91.894531 86.210938 92.285156 86.132812 92.671875 C 86.058594 93.058594 85.945312 93.433594 85.792969 93.796875 C 85.640625 94.160156 85.457031 94.503906 85.238281 94.832031 C 85.019531 95.160156 84.769531 95.464844 84.492188 95.742188 C 84.214844 96.019531 83.910156 96.269531 83.582031 96.488281 C 83.253906 96.707031 82.910156 96.890625 82.546875 97.042969 C 82.183594 97.195312 81.808594 97.308594 81.421875 97.382812 C 81.035156 97.460938 80.644531 97.5 80.25 97.5 L 51 97.5 C 50.605469 97.5 50.214844 97.460938 49.828125 97.382812 C 49.441406 97.308594 49.066406 97.195312 48.703125 97.042969 C 48.339844 96.890625 47.996094 96.707031 47.667969 96.488281 C 47.339844 96.269531 47.035156 96.019531 46.757812 95.742188 C 46.480469 95.464844 46.230469 95.160156 46.011719 94.832031 C 45.792969 94.503906 45.609375 94.160156 45.457031 93.796875 C 45.304688 93.433594 45.191406 93.058594 45.117188 92.671875 C 45.039062 92.285156 45 91.894531 45 91.5 L 45 58.5 C 45 58.105469 45.039062 57.714844 45.117188 57.328125 C 45.191406 56.941406 45.304688 56.566406 45.457031 56.203125 C 45.609375 55.839844 45.792969 55.492188 46.011719 55.167969 C 46.230469 54.839844 46.480469 54.535156 46.757812 54.257812 C 47.035156 53.980469 47.339844 53.730469 47.667969 53.511719 C 47.996094 53.292969 48.339844 53.109375 48.703125 52.957031 C 49.066406 52.804688 49.441406 52.691406 49.828125 52.617188 C 50.214844 52.539062 50.605469 52.5 51 52.5 Z M 51 52.5 "/><path style=" stroke:none;fill-rule:nonzero;fill:#e0e0e0;fill-opacity:1;" d="M 86.25 63.75 L 108.75 52.5 L 108.75 97.5 L 86.25 86.25 Z M 86.25 63.75 "/></g></svg>