<svg xmlns="http://www.w3.org/2000/svg" xmlns:xlink="http://www.w3.org/1999/xlink" width="40" zoomAndPan="magnify" viewBox="0 0 30 30.000001" height="40" preserveAspectRatio="xMidYMid meet" version="1.2"><defs><clipPath id="d8325db045"><path d="M 6.289062 5.804688 L 23.710938 5.804688 L 23.710938 23.226562 L 6.289062 23.226562 Z M 6.289062 5.804688 "/></clipPath><linearGradient x1="-0.0416667" gradientTransform="matrix(36.000001,0,0,36.000001,2.000001,1.999998)" y1="-0.0416667" x2="1.041667" gradientUnits="userSpaceOnUse" y2="1.041667" id="0a0d100a3a"><stop style="stop-color:#ffd700;stop-opacity:1;" offset="0"/><stop style="stop-color:#ffd700;stop-opacity:1;" offset="0.03125"/><stop style="stop-color:#ffd700;stop-opacity:1;" offset="0.046875"/><stop style="stop-color:#ffd600;stop-opacity:1;" offset="0.0625"/><stop style="stop-color:#ffd500;stop-opacity:1;" offset="0.078125"/><stop style="stop-color:#ffd501;stop-opacity:1;" offset="0.09375"/><stop style="stop-color:#ffd401;stop-opacity:1;" offset="0.109375"/><stop style="stop-color:#ffd301;stop-opacity:1;" offset="0.125"/><stop style="stop-color:#ffd201;stop-opacity:1;" offset="0.140625"/><stop style="stop-color:#ffd202;stop-opacity:1;" offset="0.15625"/><stop style="stop-color:#ffd102;stop-opacity:1;" offset="0.171875"/><stop style="stop-color:#ffd002;stop-opacity:1;" offset="0.1875"/><stop style="stop-color:#ffd002;stop-opacity:1;" offset="0.203125"/><stop style="stop-color:#ffcf03;stop-opacity:1;" offset="0.21875"/><stop style="stop-color:#ffce03;stop-opacity:1;" offset="0.234375"/><stop style="stop-color:#ffcd03;stop-opacity:1;" offset="0.25"/><stop style="stop-color:#ffcd03;stop-opacity:1;" offset="0.265625"/><stop style="stop-color:#ffcc04;stop-opacity:1;" offset="0.28125"/><stop style="stop-color:#ffcb04;stop-opacity:1;" offset="0.296875"/><stop style="stop-color:#ffca04;stop-opacity:1;" offset="0.3125"/><stop style="stop-color:#ffca04;stop-opacity:1;" offset="0.328125"/><stop style="stop-color:#ffc905;stop-opacity:1;" offset="0.34375"/><stop style="stop-color:#ffc805;stop-opacity:1;" offset="0.359375"/><stop style="stop-color:#ffc705;stop-opacity:1;" offset="0.375"/><stop style="stop-color:#ffc705;stop-opacity:1;" offset="0.390625"/><stop style="stop-color:#ffc605;stop-opacity:1;" offset="0.40625"/><stop style="stop-color:#ffc506;stop-opacity:1;" offset="0.421875"/><stop style="stop-color:#ffc406;stop-opacity:1;" offset="0.4375"/><stop style="stop-color:#ffc406;stop-opacity:1;" offset="0.453125"/><stop style="stop-color:#ffc306;stop-opacity:1;" offset="0.46875"/><stop style="stop-color:#ffc207;stop-opacity:1;" offset="0.484375"/><stop style="stop-color:#ffc107;stop-opacity:1;" offset="0.5"/><stop style="stop-color:#ffc107;stop-opacity:1;" offset="0.5"/><stop style="stop-color:#ffc107;stop-opacity:1;" offset="0.5"/><stop style="stop-color:#ffc007;stop-opacity:1;" offset="0.507812"/><stop style="stop-color:#ffc007;stop-opacity:1;" offset="0.515625"/><stop style="stop-color:#ffbf07;stop-opacity:1;" offset="0.523437"/><stop style="stop-color:#ffbe07;stop-opacity:1;" offset="0.53125"/><stop style="stop-color:#ffbd06;stop-opacity:1;" offset="0.539062"/><stop style="stop-color:#ffbc06;stop-opacity:1;" offset="0.546875"/><stop style="stop-color:#ffbb06;stop-opacity:1;" offset="0.554687"/><stop style="stop-color:#ffba06;stop-opacity:1;" offset="0.5625"/><stop style="stop-color:#ffb906;stop-opacity:1;" offset="0.570312"/><stop style="stop-color:#ffb806;stop-opacity:1;" offset="0.578125"/><stop style="stop-color:#ffb806;stop-opacity:1;" offset="0.585937"/><stop style="stop-color:#ffb706;stop-opacity:1;" offset="0.59375"/><stop style="stop-color:#ffb606;stop-opacity:1;" offset="0.601562"/><stop style="stop-color:#ffb505;stop-opacity:1;" offset="0.609375"/><stop style="stop-color:#ffb405;stop-opacity:1;" offset="0.617187"/><stop style="stop-color:#ffb305;stop-opacity:1;" offset="0.625"/><stop style="stop-color:#ffb205;stop-opacity:1;" offset="0.632812"/><stop style="stop-color:#ffb105;stop-opacity:1;" offset="0.640625"/><stop style="stop-color:#ffb005;stop-opacity:1;" offset="0.648437"/><stop style="stop-color:#ffb005;stop-opacity:1;" offset="0.65625"/><stop style="stop-color:#ffaf05;stop-opacity:1;" offset="0.664062"/><stop style="stop-color:#ffae04;stop-opacity:1;" offset="0.671875"/><stop style="stop-color:#ffad04;stop-opacity:1;" offset="0.679687"/><stop style="stop-color:#ffac04;stop-opacity:1;" offset="0.6875"/><stop style="stop-color:#ffab04;stop-opacity:1;" offset="0.695312"/><stop style="stop-color:#ffaa04;stop-opacity:1;" offset="0.703125"/><stop style="stop-color:#ffa904;stop-opacity:1;" offset="0.710937"/><stop style="stop-color:#ffa804;stop-opacity:1;" offset="0.71875"/><stop style="stop-color:#ffa704;stop-opacity:1;" offset="0.726562"/><stop style="stop-color:#ffa704;stop-opacity:1;" offset="0.734375"/><stop style="stop-color:#ffa603;stop-opacity:1;" offset="0.742187"/><stop style="stop-color:#ffa503;stop-opacity:1;" offset="0.75"/><stop style="stop-color:#ffa403;stop-opacity:1;" offset="0.757812"/><stop style="stop-color:#ffa303;stop-opacity:1;" offset="0.765625"/><stop style="stop-color:#ffa203;stop-opacity:1;" offset="0.773437"/><stop style="stop-color:#ffa103;stop-opacity:1;" offset="0.78125"/><stop style="stop-color:#ffa003;stop-opacity:1;" offset="0.789062"/><stop style="stop-color:#ff9f03;stop-opacity:1;" offset="0.796875"/><stop style="stop-color:#ff9e02;stop-opacity:1;" offset="0.804687"/><stop style="stop-color:#ff9e02;stop-opacity:1;" offset="0.8125"/><stop style="stop-color:#ff9d02;stop-opacity:1;" offset="0.820312"/><stop style="stop-color:#ff9c02;stop-opacity:1;" offset="0.828125"/><stop style="stop-color:#ff9b02;stop-opacity:1;" offset="0.835937"/><stop style="stop-color:#ff9a02;stop-opacity:1;" offset="0.84375"/><stop style="stop-color:#ff9902;stop-opacity:1;" offset="0.851562"/><stop style="stop-color:#ff9802;stop-opacity:1;" offset="0.859375"/><stop style="stop-color:#ff9701;stop-opacity:1;" offset="0.867187"/><stop style="stop-color:#ff9601;stop-opacity:1;" offset="0.875"/><stop style="stop-color:#ff9501;stop-opacity:1;" offset="0.882812"/><stop style="stop-color:#ff9501;stop-opacity:1;" offset="0.890625"/><stop style="stop-color:#ff9401;stop-opacity:1;" offset="0.898437"/><stop style="stop-color:#ff9301;stop-opacity:1;" offset="0.90625"/><stop style="stop-color:#ff9201;stop-opacity:1;" offset="0.914062"/><stop style="stop-color:#ff9101;stop-opacity:1;" offset="0.921875"/><stop style="stop-color:#ff9001;stop-opacity:1;" offset="0.929687"/><stop style="stop-color:#ff8f00;stop-opacity:1;" offset="0.9375"/><stop style="stop-color:#ff8e00;stop-opacity:1;" offset="0.945312"/><stop style="stop-color:#ff8d00;stop-opacity:1;" offset="0.953125"/><stop style="stop-color:#ff8c00;stop-opacity:1;" offset="0.96875"/><stop style="stop-color:#ff8c00;stop-opacity:1;" offset="1"/></linearGradient><clipPath id="7859e50a01"><path d="M 6.289062 5.804688 L 23.710938 5.804688 L 23.710938 23.226562 L 6.289062 23.226562 Z M 6.289062 5.804688 "/></clipPath><clipPath id="5405c0153b"><path d="M 6.289062 5.804688 L 23.710938 5.804688 L 23.710938 23.226562 L 6.289062 23.226562 Z M 6.289062 5.804688 "/></clipPath></defs><g id="d2e82ec081"><g clip-rule="nonzero" clip-path="url(#d8325db045)"><path style="fill:none;stroke-width:3;stroke-linecap:butt;stroke-linejoin:miter;stroke:url(#0a0d100a3a);stroke-miterlimit:4;" d="M 38.002604 19.998837 C 38.002604 21.182865 37.885995 22.348953 37.652777 23.515041 C 37.41956 24.672159 37.078703 25.793397 36.630208 26.887726 C 36.181713 27.982055 35.625578 29.013594 34.970775 30.000284 C 34.307002 30.986973 33.5625 31.892934 32.728298 32.727135 C 31.894097 33.561337 30.979166 34.305839 30.001447 34.969612 C 29.014757 35.624415 27.983218 36.18055 26.888889 36.629045 C 25.79456 37.08651 24.673322 37.427367 23.507234 37.651614 C 22.350116 37.884832 21.184028 38.001441 20 38.001441 C 18.815973 38.001441 17.649885 37.884832 16.492767 37.651614 C 15.326679 37.427367 14.20544 37.08651 13.111112 36.629045 C 12.016783 36.18055 10.985244 35.624415 9.998554 34.969612 C 9.020834 34.305839 8.105904 33.561337 7.271702 32.727135 C 6.437501 31.892934 5.692999 30.986973 5.029226 30.000284 C 4.374422 29.013594 3.818288 27.982055 3.369793 26.887726 C 2.921297 25.793397 2.580441 24.672159 2.347223 23.515041 C 2.114006 22.348953 1.997397 21.182865 1.997397 19.998837 C 1.997397 18.81481 2.114006 17.648722 2.347223 16.491604 C 2.580441 15.325516 2.921297 14.204277 3.369793 13.109949 C 3.818288 12.01562 4.374422 10.984081 5.029226 9.997391 C 5.692999 9.019671 6.437501 8.104741 7.271702 7.270539 C 8.105904 6.436338 9.020834 5.691836 9.998554 5.037032 C 10.985244 4.373259 12.016783 3.826095 13.111112 3.36863 C 14.20544 2.920134 15.326679 2.579278 16.492767 2.34606 C 17.649885 2.112843 18.815973 1.996234 20 1.996234 C 21.184028 1.996234 22.350116 2.112843 23.507234 2.34606 C 24.673322 2.579278 25.79456 2.920134 26.888889 3.36863 C 27.983218 3.826095 29.014757 4.373259 30.001447 5.037032 C 30.979166 5.691836 31.894097 6.436338 32.728298 7.270539 C 33.5625 8.104741 34.307002 9.019671 34.970775 9.997391 C 35.625578 10.984081 36.181713 12.01562 36.630208 13.109949 C 37.078703 14.204277 37.41956 15.325516 37.652777 16.491604 C 37.885995 17.648722 38.002604 18.81481 38.002604 19.998837 Z M 38.002604 19.998837 " transform="matrix(0.435484,0,0,0.435484,6.290322,5.806454)"/></g><path style=" stroke:none;fill-rule:nonzero;fill:#000000;fill-opacity:1;" d="M 11.515625 11.03125 L 18.484375 18 "/><g clip-rule="nonzero" clip-path="url(#7859e50a01)"><path style="fill:none;stroke-width:3;stroke-linecap:round;stroke-linejoin:miter;stroke:#ffd700;stroke-opacity:1;stroke-miterlimit:4;" d="M 11.998843 11.99768 L 28.001157 27.999994 " transform="matrix(0.435484,0,0,0.435484,6.290322,5.806454)"/></g><path style=" stroke:none;fill-rule:nonzero;fill:#000000;fill-opacity:1;" d="M 18.484375 11.03125 L 11.515625 18 "/><g clip-rule="nonzero" clip-path="url(#5405c0153b)"><path style="fill:none;stroke-width:3;stroke-linecap:round;stroke-linejoin:miter;stroke:#ffd700;stroke-opacity:1;stroke-miterlimit:4;" d="M 28.001157 11.99768 L 11.998843 27.999994 " transform="matrix(0.435484,0,0,0.435484,6.290322,5.806454)"/></g></g></svg>