<svg xmlns="http://www.w3.org/2000/svg" xmlns:xlink="http://www.w3.org/1999/xlink" width="220" zoomAndPan="magnify" viewBox="0 0 165 52.499999" height="70" preserveAspectRatio="xMidYMid meet" version="1.2"><defs><clipPath id="ae8098a057"><path d="M 3 2 L 162 2 L 162 50 L 3 50 Z M 3 2 "/></clipPath><clipPath id="2b72926e35"><path d="M 14.894531 2.230469 L 150.105469 2.230469 C 150.886719 2.230469 151.660156 2.304688 152.425781 2.457031 C 153.191406 2.609375 153.933594 2.835938 154.65625 3.132812 C 155.375 3.433594 156.0625 3.796875 156.710938 4.230469 C 157.359375 4.664062 157.960938 5.160156 158.511719 5.710938 C 159.0625 6.261719 159.554688 6.863281 159.988281 7.511719 C 160.421875 8.160156 160.789062 8.84375 161.089844 9.566406 C 161.386719 10.289062 161.613281 11.03125 161.765625 11.796875 C 161.917969 12.5625 161.992188 13.335938 161.992188 14.117188 L 161.992188 37.890625 C 161.992188 38.667969 161.917969 39.441406 161.765625 40.207031 C 161.613281 40.972656 161.386719 41.71875 161.089844 42.4375 C 160.789062 43.160156 160.421875 43.84375 159.988281 44.492188 C 159.554688 45.140625 159.0625 45.742188 158.511719 46.292969 C 157.960938 46.847656 157.359375 47.339844 156.710938 47.773438 C 156.0625 48.207031 155.375 48.574219 154.65625 48.871094 C 153.933594 49.167969 153.191406 49.394531 152.425781 49.546875 C 151.660156 49.699219 150.886719 49.777344 150.105469 49.777344 L 14.894531 49.777344 C 14.113281 49.777344 13.339844 49.699219 12.574219 49.546875 C 11.808594 49.394531 11.066406 49.167969 10.34375 48.871094 C 9.625 48.574219 8.9375 48.207031 8.289062 47.773438 C 7.640625 47.339844 7.039062 46.847656 6.488281 46.292969 C 5.9375 45.742188 5.445312 45.140625 5.011719 44.492188 C 4.578125 43.84375 4.210938 43.160156 3.910156 42.4375 C 3.613281 41.71875 3.386719 40.972656 3.234375 40.207031 C 3.082031 39.441406 3.007812 38.667969 3.007812 37.890625 L 3.007812 14.117188 C 3.007812 13.335938 3.082031 12.5625 3.234375 11.796875 C 3.386719 11.03125 3.613281 10.289062 3.910156 9.566406 C 4.210938 8.84375 4.578125 8.160156 5.011719 7.511719 C 5.445312 6.863281 5.9375 6.261719 6.488281 5.710938 C 7.039062 5.160156 7.640625 4.664062 8.289062 4.230469 C 8.9375 3.796875 9.625 3.433594 10.34375 3.132812 C 11.066406 2.835938 11.808594 2.609375 12.574219 2.457031 C 13.339844 2.304688 14.113281 2.230469 14.894531 2.230469 Z M 14.894531 2.230469 "/></clipPath><linearGradient x1="0" gradientTransform="matrix(158.985845,0,0,47.547169,3.007078,2.228774)" y1="-0.00000000195313" x2="0" gradientUnits="userSpaceOnUse" y2="1" id="081a74a771"><stop style="stop-color:#2fb46e;stop-opacity:1;" offset="0"/><stop style="stop-color:#2fb46e;stop-opacity:1;" offset="0.0078125"/><stop style="stop-color:#2fb36e;stop-opacity:1;" offset="0.015625"/><stop style="stop-color:#2fb36d;stop-opacity:1;" offset="0.0234375"/><stop style="stop-color:#2fb26d;stop-opacity:1;" offset="0.03125"/><stop style="stop-color:#2eb26d;stop-opacity:1;" offset="0.0390625"/><stop style="stop-color:#2eb16c;stop-opacity:1;" offset="0.046875"/><stop style="stop-color:#2eb16c;stop-opacity:1;" offset="0.0546875"/><stop style="stop-color:#2eb06c;stop-opacity:1;" offset="0.0625"/><stop style="stop-color:#2eb06b;stop-opacity:1;" offset="0.0703125"/><stop style="stop-color:#2eaf6b;stop-opacity:1;" offset="0.078125"/><stop style="stop-color:#2eaf6b;stop-opacity:1;" offset="0.0859375"/><stop style="stop-color:#2eae6b;stop-opacity:1;" offset="0.09375"/><stop style="stop-color:#2dae6a;stop-opacity:1;" offset="0.101562"/><stop style="stop-color:#2dad6a;stop-opacity:1;" offset="0.109375"/><stop style="stop-color:#2dad6a;stop-opacity:1;" offset="0.117188"/><stop style="stop-color:#2dac69;stop-opacity:1;" offset="0.125"/><stop style="stop-color:#2dac69;stop-opacity:1;" offset="0.132813"/><stop style="stop-color:#2dab69;stop-opacity:1;" offset="0.140625"/><stop style="stop-color:#2dab68;stop-opacity:1;" offset="0.148438"/><stop style="stop-color:#2daa68;stop-opacity:1;" offset="0.15625"/><stop style="stop-color:#2caa68;stop-opacity:1;" offset="0.164063"/><stop style="stop-color:#2ca967;stop-opacity:1;" offset="0.171875"/><stop style="stop-color:#2ca967;stop-opacity:1;" offset="0.179688"/><stop style="stop-color:#2ca867;stop-opacity:1;" offset="0.1875"/><stop style="stop-color:#2ca867;stop-opacity:1;" offset="0.195313"/><stop style="stop-color:#2ca766;stop-opacity:1;" offset="0.203125"/><stop style="stop-color:#2ca766;stop-opacity:1;" offset="0.210938"/><stop style="stop-color:#2ca666;stop-opacity:1;" offset="0.21875"/><stop style="stop-color:#2ba665;stop-opacity:1;" offset="0.226563"/><stop style="stop-color:#2ba565;stop-opacity:1;" offset="0.234375"/><stop style="stop-color:#2ba565;stop-opacity:1;" offset="0.242188"/><stop style="stop-color:#2ba464;stop-opacity:1;" offset="0.25"/><stop style="stop-color:#2ba364;stop-opacity:1;" offset="0.257812"/><stop style="stop-color:#2ba364;stop-opacity:1;" offset="0.265625"/><stop style="stop-color:#2ba263;stop-opacity:1;" offset="0.273438"/><stop style="stop-color:#2ba263;stop-opacity:1;" offset="0.28125"/><stop style="stop-color:#2aa163;stop-opacity:1;" offset="0.289062"/><stop style="stop-color:#2aa163;stop-opacity:1;" offset="0.296875"/><stop style="stop-color:#2aa062;stop-opacity:1;" offset="0.304688"/><stop style="stop-color:#2aa062;stop-opacity:1;" offset="0.3125"/><stop style="stop-color:#2a9f62;stop-opacity:1;" offset="0.320312"/><stop style="stop-color:#2a9f61;stop-opacity:1;" offset="0.328125"/><stop style="stop-color:#2a9e61;stop-opacity:1;" offset="0.335938"/><stop style="stop-color:#2a9e61;stop-opacity:1;" offset="0.34375"/><stop style="stop-color:#299d60;stop-opacity:1;" offset="0.351562"/><stop style="stop-color:#299d60;stop-opacity:1;" offset="0.359375"/><stop style="stop-color:#299c60;stop-opacity:1;" offset="0.367188"/><stop style="stop-color:#299c60;stop-opacity:1;" offset="0.375"/><stop style="stop-color:#299b5f;stop-opacity:1;" offset="0.382812"/><stop style="stop-color:#299b5f;stop-opacity:1;" offset="0.390625"/><stop style="stop-color:#299a5f;stop-opacity:1;" offset="0.398438"/><stop style="stop-color:#299a5e;stop-opacity:1;" offset="0.40625"/><stop style="stop-color:#28995e;stop-opacity:1;" offset="0.414062"/><stop style="stop-color:#28995e;stop-opacity:1;" offset="0.421875"/><stop style="stop-color:#28985d;stop-opacity:1;" offset="0.429688"/><stop style="stop-color:#28985d;stop-opacity:1;" offset="0.4375"/><stop style="stop-color:#28975d;stop-opacity:1;" offset="0.445312"/><stop style="stop-color:#28975c;stop-opacity:1;" offset="0.453125"/><stop style="stop-color:#28965c;stop-opacity:1;" offset="0.460938"/><stop style="stop-color:#28965c;stop-opacity:1;" offset="0.46875"/><stop style="stop-color:#27955c;stop-opacity:1;" offset="0.476562"/><stop style="stop-color:#27955b;stop-opacity:1;" offset="0.484375"/><stop style="stop-color:#27945b;stop-opacity:1;" offset="0.492188"/><stop style="stop-color:#27945b;stop-opacity:1;" offset="0.5"/><stop style="stop-color:#27935a;stop-opacity:1;" offset="0.507812"/><stop style="stop-color:#27935a;stop-opacity:1;" offset="0.515625"/><stop style="stop-color:#27925a;stop-opacity:1;" offset="0.523438"/><stop style="stop-color:#279259;stop-opacity:1;" offset="0.53125"/><stop style="stop-color:#269159;stop-opacity:1;" offset="0.539062"/><stop style="stop-color:#269159;stop-opacity:1;" offset="0.546875"/><stop style="stop-color:#269059;stop-opacity:1;" offset="0.554688"/><stop style="stop-color:#269058;stop-opacity:1;" offset="0.5625"/><stop style="stop-color:#268f58;stop-opacity:1;" offset="0.570312"/><stop style="stop-color:#268f58;stop-opacity:1;" offset="0.578125"/><stop style="stop-color:#268e57;stop-opacity:1;" offset="0.585938"/><stop style="stop-color:#268e57;stop-opacity:1;" offset="0.59375"/><stop style="stop-color:#258d57;stop-opacity:1;" offset="0.601562"/><stop style="stop-color:#258d56;stop-opacity:1;" offset="0.609375"/><stop style="stop-color:#258c56;stop-opacity:1;" offset="0.617188"/><stop style="stop-color:#258c56;stop-opacity:1;" offset="0.625"/><stop style="stop-color:#258b55;stop-opacity:1;" offset="0.632812"/><stop style="stop-color:#258b55;stop-opacity:1;" offset="0.640625"/><stop style="stop-color:#258a55;stop-opacity:1;" offset="0.648438"/><stop style="stop-color:#258a55;stop-opacity:1;" offset="0.65625"/><stop style="stop-color:#248954;stop-opacity:1;" offset="0.664062"/><stop style="stop-color:#248954;stop-opacity:1;" offset="0.671875"/><stop style="stop-color:#248854;stop-opacity:1;" offset="0.679688"/><stop style="stop-color:#248853;stop-opacity:1;" offset="0.6875"/><stop style="stop-color:#248753;stop-opacity:1;" offset="0.695312"/><stop style="stop-color:#248753;stop-opacity:1;" offset="0.703125"/><stop style="stop-color:#248652;stop-opacity:1;" offset="0.710938"/><stop style="stop-color:#248652;stop-opacity:1;" offset="0.71875"/><stop style="stop-color:#238552;stop-opacity:1;" offset="0.726562"/><stop style="stop-color:#238552;stop-opacity:1;" offset="0.734375"/><stop style="stop-color:#238451;stop-opacity:1;" offset="0.742188"/><stop style="stop-color:#238451;stop-opacity:1;" offset="0.75"/><stop style="stop-color:#238351;stop-opacity:1;" offset="0.757812"/><stop style="stop-color:#238250;stop-opacity:1;" offset="0.765625"/><stop style="stop-color:#238250;stop-opacity:1;" offset="0.773438"/><stop style="stop-color:#238150;stop-opacity:1;" offset="0.78125"/><stop style="stop-color:#22814f;stop-opacity:1;" offset="0.789062"/><stop style="stop-color:#22804f;stop-opacity:1;" offset="0.796875"/><stop style="stop-color:#22804f;stop-opacity:1;" offset="0.804688"/><stop style="stop-color:#227f4e;stop-opacity:1;" offset="0.8125"/><stop style="stop-color:#227f4e;stop-opacity:1;" offset="0.820312"/><stop style="stop-color:#227e4e;stop-opacity:1;" offset="0.828125"/><stop style="stop-color:#227e4e;stop-opacity:1;" offset="0.835938"/><stop style="stop-color:#227d4d;stop-opacity:1;" offset="0.84375"/><stop style="stop-color:#217d4d;stop-opacity:1;" offset="0.851562"/><stop style="stop-color:#217c4d;stop-opacity:1;" offset="0.859375"/><stop style="stop-color:#217c4c;stop-opacity:1;" offset="0.867188"/><stop style="stop-color:#217b4c;stop-opacity:1;" offset="0.875"/><stop style="stop-color:#217b4c;stop-opacity:1;" offset="0.882812"/><stop style="stop-color:#217a4b;stop-opacity:1;" offset="0.890625"/><stop style="stop-color:#217a4b;stop-opacity:1;" offset="0.898438"/><stop style="stop-color:#21794b;stop-opacity:1;" offset="0.90625"/><stop style="stop-color:#20794a;stop-opacity:1;" offset="0.914062"/><stop style="stop-color:#20784a;stop-opacity:1;" offset="0.921875"/><stop style="stop-color:#20784a;stop-opacity:1;" offset="0.929688"/><stop style="stop-color:#20774a;stop-opacity:1;" offset="0.9375"/><stop style="stop-color:#207749;stop-opacity:1;" offset="0.945312"/><stop style="stop-color:#207649;stop-opacity:1;" offset="0.953125"/><stop style="stop-color:#207649;stop-opacity:1;" offset="0.960938"/><stop style="stop-color:#207548;stop-opacity:1;" offset="0.96875"/><stop style="stop-color:#1f7548;stop-opacity:1;" offset="0.976562"/><stop style="stop-color:#1f7448;stop-opacity:1;" offset="0.984375"/><stop style="stop-color:#1f7447;stop-opacity:1;" offset="0.992188"/><stop style="stop-color:#1f7347;stop-opacity:1;" offset="1"/></linearGradient><clipPath id="6cce9b535a"><path d="M 0.777344 0 L 164.222656 0 L 164.222656 52.003906 L 0.777344 52.003906 Z M 0.777344 0 "/></clipPath></defs><g id="f8fe756344"><g clip-rule="nonzero" clip-path="url(#ae8098a057)"><g clip-rule="nonzero" clip-path="url(#2b72926e35)"><path style=" stroke:none;fill-rule:nonzero;fill:url(#081a74a771);" d="M 3.007812 2.230469 L 3.007812 49.777344 L 161.992188 49.777344 L 161.992188 2.230469 Z M 3.007812 2.230469 "/></g></g><g clip-rule="nonzero" clip-path="url(#6cce9b535a)"><path style="fill:none;stroke-width:4;stroke-linecap:butt;stroke-linejoin:miter;stroke:#9be3c1;stroke-opacity:1;stroke-miterlimit:4;" d="M 19.000891 3.002282 L 200.999118 3.002282 C 202.050705 3.002282 203.091777 3.102183 204.122332 3.307242 C 205.152888 3.512302 206.151896 3.817262 207.124614 4.216865 C 208.092075 4.621727 209.017472 5.110715 209.890289 5.694346 C 210.763107 6.277977 211.572829 6.945735 212.314198 7.687104 C 213.055567 8.428473 213.718067 9.238195 214.301698 10.111013 C 214.885329 10.98383 215.379575 11.903969 215.784436 12.876687 C 216.18404 13.849406 216.489 14.848414 216.694059 15.878969 C 216.899119 16.909525 216.99902 17.950596 216.99902 19.002184 L 216.99902 51.001988 C 216.99902 52.048317 216.899119 53.089389 216.694059 54.119944 C 216.489 55.1505 216.18404 56.154766 215.784436 57.122226 C 215.379575 58.094944 214.885329 59.015083 214.301698 59.887901 C 213.718067 60.760718 213.055567 61.570441 212.314198 62.31181 C 211.572829 63.058437 210.763107 63.720937 209.890289 64.304568 C 209.017472 64.888199 208.092075 65.382445 207.124614 65.782048 C 206.151896 66.181651 205.152888 66.486612 204.122332 66.691671 C 203.091777 66.896731 202.050705 67.001889 200.999118 67.001889 L 19.000891 67.001889 C 17.949304 67.001889 16.908232 66.896731 15.877677 66.691671 C 14.847121 66.486612 13.848113 66.181651 12.875395 65.782048 C 11.907934 65.382445 10.982537 64.888199 10.10972 64.304568 C 9.236902 63.720937 8.42718 63.058437 7.685811 62.31181 C 6.944442 61.570441 6.281942 60.760718 5.698311 59.887901 C 5.11468 59.015083 4.620434 58.094944 4.215573 57.122226 C 3.81597 56.154766 3.511009 55.1505 3.30595 54.119944 C 3.10089 53.089389 3.000989 52.048317 3.000989 51.001988 L 3.000989 19.002184 C 3.000989 17.950596 3.10089 16.909525 3.30595 15.878969 C 3.511009 14.848414 3.81597 13.849406 4.215573 12.876687 C 4.620434 11.903969 5.11468 10.98383 5.698311 10.111013 C 6.281942 9.238195 6.944442 8.428473 7.685811 7.687104 C 8.42718 6.945735 9.236902 6.277977 10.10972 5.694346 C 10.982537 5.110715 11.907934 4.621727 12.875395 4.216865 C 13.848113 3.817262 14.847121 3.512302 15.877677 3.307242 C 16.908232 3.102183 17.949304 3.002282 19.000891 3.002282 Z M 19.000891 3.002282 " transform="matrix(0.742924,0,0,0.742924,0.778304,-0.000000000000005279)"/></g></g></svg>