<svg xmlns="http://www.w3.org/2000/svg" xmlns:xlink="http://www.w3.org/1999/xlink" width="200" zoomAndPan="magnify" viewBox="0 0 150 149.999998" height="200" preserveAspectRatio="xMidYMid meet" version="1.2"><g id="aac4304dfd"><path style=" stroke:none;fill-rule:nonzero;fill:#eceff1;fill-opacity:1;" d="M 143.75 75 C 143.75 76.125 143.722656 77.25 143.667969 78.375 C 143.613281 79.496094 143.527344 80.617188 143.417969 81.738281 C 143.308594 82.859375 143.171875 83.976562 143.007812 85.085938 C 142.839844 86.199219 142.648438 87.308594 142.429688 88.414062 C 142.210938 89.515625 141.964844 90.613281 141.691406 91.703125 C 141.417969 92.796875 141.117188 93.878906 140.789062 94.957031 C 140.464844 96.035156 140.109375 97.101562 139.730469 98.160156 C 139.351562 99.21875 138.949219 100.269531 138.515625 101.308594 C 138.085938 102.347656 137.628906 103.378906 137.148438 104.394531 C 136.667969 105.410156 136.164062 106.417969 135.632812 107.410156 C 135.101562 108.402344 134.546875 109.378906 133.96875 110.34375 C 133.390625 111.308594 132.789062 112.261719 132.164062 113.195312 C 131.539062 114.132812 130.890625 115.050781 130.21875 115.953125 C 129.550781 116.859375 128.859375 117.746094 128.144531 118.613281 C 127.429688 119.484375 126.695312 120.335938 125.941406 121.167969 C 125.183594 122.003906 124.410156 122.816406 123.613281 123.613281 C 122.816406 124.410156 122.003906 125.183594 121.167969 125.941406 C 120.335938 126.695312 119.484375 127.429688 118.613281 128.144531 C 117.746094 128.859375 116.859375 129.550781 115.953125 130.21875 C 115.050781 130.890625 114.132812 131.539062 113.195312 132.164062 C 112.261719 132.789062 111.308594 133.390625 110.34375 133.96875 C 109.378906 134.546875 108.402344 135.101562 107.410156 135.632812 C 106.417969 136.164062 105.410156 136.667969 104.394531 137.148438 C 103.378906 137.628906 102.347656 138.085938 101.308594 138.515625 C 100.269531 138.949219 99.21875 139.351562 98.160156 139.730469 C 97.101562 140.109375 96.035156 140.464844 94.957031 140.789062 C 93.878906 141.117188 92.796875 141.417969 91.703125 141.691406 C 90.613281 141.964844 89.515625 142.210938 88.414062 142.429688 C 87.308594 142.648438 86.199219 142.839844 85.085938 143.007812 C 83.976562 143.171875 82.859375 143.308594 81.738281 143.417969 C 80.617188 143.527344 79.496094 143.613281 78.375 143.667969 C 77.25 143.722656 76.125 143.75 75 143.75 C 73.875 143.75 72.75 143.722656 71.625 143.667969 C 70.503906 143.613281 69.382812 143.527344 68.261719 143.417969 C 67.140625 143.308594 66.023438 143.171875 64.914062 143.007812 C 63.800781 142.839844 62.691406 142.648438 61.585938 142.429688 C 60.484375 142.210938 59.386719 141.964844 58.296875 141.691406 C 57.203125 141.417969 56.121094 141.117188 55.042969 140.789062 C 53.964844 140.464844 52.898438 140.109375 51.839844 139.730469 C 50.78125 139.351562 49.730469 138.949219 48.691406 138.515625 C 47.652344 138.085938 46.621094 137.628906 45.605469 137.148438 C 44.589844 136.667969 43.582031 136.164062 42.589844 135.632812 C 41.597656 135.101562 40.621094 134.546875 39.65625 133.96875 C 38.691406 133.390625 37.738281 132.789062 36.804688 132.164062 C 35.867188 131.539062 34.949219 130.890625 34.046875 130.21875 C 33.140625 129.550781 32.253906 128.859375 31.386719 128.144531 C 30.515625 127.429688 29.664062 126.695312 28.832031 125.941406 C 27.996094 125.183594 27.183594 124.410156 26.386719 123.613281 C 25.589844 122.816406 24.816406 122.003906 24.058594 121.167969 C 23.304688 120.335938 22.570312 119.484375 21.855469 118.613281 C 21.140625 117.746094 20.449219 116.859375 19.78125 115.953125 C 19.109375 115.050781 18.460938 114.132812 17.835938 113.195312 C 17.210938 112.261719 16.609375 111.308594 16.03125 110.34375 C 15.453125 109.378906 14.898438 108.402344 14.367188 107.410156 C 13.835938 106.417969 13.332031 105.410156 12.851562 104.394531 C 12.371094 103.378906 11.914062 102.347656 11.484375 101.308594 C 11.050781 100.269531 10.648438 99.21875 10.269531 98.160156 C 9.890625 97.101562 9.535156 96.035156 9.210938 94.957031 C 8.882812 93.878906 8.582031 92.796875 8.308594 91.703125 C 8.035156 90.613281 7.789062 89.515625 7.570312 88.414062 C 7.351562 87.308594 7.160156 86.199219 6.992188 85.085938 C 6.828125 83.976562 6.691406 82.859375 6.582031 81.738281 C 6.472656 80.617188 6.386719 79.496094 6.332031 78.375 C 6.277344 77.25 6.25 76.125 6.25 75 C 6.25 73.875 6.277344 72.75 6.332031 71.625 C 6.386719 70.503906 6.472656 69.382812 6.582031 68.261719 C 6.691406 67.140625 6.828125 66.023438 6.992188 64.914062 C 7.160156 63.800781 7.351562 62.691406 7.570312 61.585938 C 7.789062 60.484375 8.035156 59.386719 8.308594 58.296875 C 8.582031 57.203125 8.882812 56.121094 9.210938 55.042969 C 9.535156 53.964844 9.890625 52.898438 10.269531 51.839844 C 10.648438 50.78125 11.050781 49.730469 11.484375 48.691406 C 11.914062 47.652344 12.371094 46.621094 12.851562 45.605469 C 13.332031 44.589844 13.835938 43.582031 14.367188 42.589844 C 14.898438 41.597656 15.453125 40.621094 16.03125 39.65625 C 16.609375 38.691406 17.210938 37.738281 17.835938 36.804688 C 18.460938 35.867188 19.109375 34.949219 19.78125 34.046875 C 20.449219 33.140625 21.140625 32.253906 21.855469 31.386719 C 22.570312 30.515625 23.304688 29.664062 24.058594 28.832031 C 24.816406 27.996094 25.589844 27.183594 26.386719 26.386719 C 27.183594 25.589844 27.996094 24.816406 28.832031 24.058594 C 29.664062 23.304688 30.515625 22.570312 31.386719 21.855469 C 32.253906 21.140625 33.140625 20.449219 34.046875 19.78125 C 34.949219 19.109375 35.867188 18.460938 36.804688 17.835938 C 37.738281 17.210938 38.691406 16.609375 39.65625 16.03125 C 40.621094 15.453125 41.597656 14.898438 42.589844 14.367188 C 43.582031 13.835938 44.589844 13.332031 45.605469 12.851562 C 46.621094 12.371094 47.652344 11.914062 48.691406 11.484375 C 49.730469 11.050781 50.78125 10.648438 51.839844 10.269531 C 52.898438 9.890625 53.964844 9.535156 55.042969 9.210938 C 56.121094 8.882812 57.203125 8.582031 58.296875 8.308594 C 59.386719 8.035156 60.484375 7.789062 61.585938 7.570312 C 62.691406 7.351562 63.800781 7.160156 64.914062 6.992188 C 66.023438 6.828125 67.140625 6.691406 68.261719 6.582031 C 69.382812 6.472656 70.503906 6.386719 71.625 6.332031 C 72.75 6.277344 73.875 6.25 75 6.25 C 76.125 6.25 77.25 6.277344 78.375 6.332031 C 79.496094 6.386719 80.617188 6.472656 81.738281 6.582031 C 82.859375 6.691406 83.976562 6.828125 85.085938 6.992188 C 86.199219 7.160156 87.308594 7.351562 88.414062 7.570312 C 89.515625 7.789062 90.613281 8.035156 91.703125 8.308594 C 92.796875 8.582031 93.878906 8.882812 94.957031 9.210938 C 96.035156 9.535156 97.101562 9.890625 98.160156 10.269531 C 99.21875 10.648438 100.269531 11.050781 101.308594 11.484375 C 102.347656 11.914062 103.378906 12.371094 104.394531 12.851562 C 105.410156 13.332031 106.417969 13.835938 107.410156 14.367188 C 108.402344 14.898438 109.378906 15.453125 110.34375 16.03125 C 111.308594 16.609375 112.261719 17.210938 113.195312 17.835938 C 114.132812 18.460938 115.050781 19.109375 115.953125 19.78125 C 116.859375 20.449219 117.746094 21.140625 118.613281 21.855469 C 119.484375 22.570312 120.335938 23.304688 121.167969 24.058594 C 122.003906 24.816406 122.816406 25.589844 123.613281 26.386719 C 124.410156 27.183594 125.183594 27.996094 125.941406 28.832031 C 126.695312 29.664062 127.429688 30.515625 128.144531 31.386719 C 128.859375 32.253906 129.550781 33.140625 130.21875 34.046875 C 130.890625 34.949219 131.539062 35.867188 132.164062 36.804688 C 132.789062 37.738281 133.390625 38.691406 133.96875 39.65625 C 134.546875 40.621094 135.101562 41.597656 135.632812 42.589844 C 136.164062 43.582031 136.667969 44.589844 137.148438 45.605469 C 137.628906 46.621094 138.085938 47.652344 138.515625 48.691406 C 138.949219 49.730469 139.351562 50.78125 139.730469 51.839844 C 140.109375 52.898438 140.464844 53.964844 140.789062 55.042969 C 141.117188 56.121094 141.417969 57.203125 141.691406 58.296875 C 141.964844 59.386719 142.210938 60.484375 142.429688 61.585938 C 142.648438 62.691406 142.839844 63.800781 143.007812 64.914062 C 143.171875 66.023438 143.308594 67.140625 143.417969 68.261719 C 143.527344 69.382812 143.613281 70.503906 143.667969 71.625 C 143.722656 72.75 143.75 73.875 143.75 75 Z M 143.75 75 "/><path style=" stroke:none;fill-rule:nonzero;fill:#455a64;fill-opacity:1;" d="M 121.4375 81.125 C 121.6875 79.125 121.875 77.0625 121.875 75 C 121.875 72.9375 121.6875 70.875 121.4375 68.875 L 134.625 58.5625 C 134.925781 58.320312 135.175781 58.035156 135.375 57.707031 C 135.570312 57.375 135.703125 57.019531 135.773438 56.640625 C 135.84375 56.261719 135.84375 55.882812 135.773438 55.503906 C 135.707031 55.125 135.574219 54.769531 135.375 54.4375 L 122.875 32.8125 C 122.691406 32.488281 122.457031 32.210938 122.171875 31.96875 C 121.886719 31.730469 121.570312 31.550781 121.222656 31.421875 C 120.871094 31.296875 120.511719 31.234375 120.140625 31.238281 C 119.769531 31.242188 119.410156 31.308594 119.0625 31.4375 L 103.5 37.6875 C 100.265625 35.152344 96.742188 33.113281 92.9375 31.5625 L 90.5625 15 C 90.496094 14.644531 90.371094 14.308594 90.1875 13.996094 C 90.003906 13.6875 89.773438 13.414062 89.492188 13.1875 C 89.210938 12.957031 88.898438 12.785156 88.558594 12.664062 C 88.214844 12.546875 87.863281 12.492188 87.5 12.5 L 62.5 12.5 C 60.9375 12.5 59.625 13.625 59.4375 15.125 L 57.0625 31.6875 C 53.125 33.25 49.5625 35.25 46.5 37.8125 L 30.9375 31.5625 C 30.589844 31.433594 30.230469 31.367188 29.859375 31.363281 C 29.488281 31.359375 29.128906 31.421875 28.777344 31.546875 C 28.429688 31.675781 28.113281 31.855469 27.828125 32.09375 C 27.542969 32.335938 27.308594 32.613281 27.125 32.9375 L 14.625 54.5625 C 13.75 55.9375 14.0625 57.8125 15.375 58.6875 L 28.5625 69 C 28.3125 71 28.125 73.0625 28.125 75.125 C 28.125 77.1875 28.3125 79.25 28.5625 81.25 L 15.375 91.5625 C 15.074219 91.804688 14.824219 92.089844 14.625 92.417969 C 14.429688 92.75 14.296875 93.105469 14.226562 93.484375 C 14.15625 93.863281 14.15625 94.242188 14.226562 94.621094 C 14.292969 95 14.425781 95.355469 14.625 95.6875 L 27.125 117.3125 C 28 118.6875 29.625 119.1875 30.9375 118.6875 L 46.5 112.4375 C 49.5625 115 53.125 117.0625 57.0625 118.5625 L 59.4375 135.125 C 59.625 136.625 60.9375 137.75 62.5 137.75 L 87.5 137.75 C 89.0625 137.75 90.375 136.625 90.5625 135.125 L 92.9375 118.5625 C 96.875 117 100.4375 115 103.5 112.4375 L 119.0625 118.6875 C 120.4375 119.25 122 118.6875 122.875 117.3125 L 135.375 95.6875 C 135.578125 95.359375 135.71875 95.003906 135.789062 94.621094 C 135.863281 94.242188 135.863281 93.863281 135.792969 93.480469 C 135.726562 93.097656 135.589844 92.742188 135.386719 92.414062 C 135.1875 92.082031 134.933594 91.796875 134.625 91.5625 L 121.4375 81.25 Z M 75 97.5 C 62.5625 97.5 52.5 87.4375 52.5 75 C 52.5 62.5625 62.5625 52.5 75 52.5 C 87.4375 52.5 97.5 62.5625 97.5 75 C 97.5 87.4375 87.4375 97.5 75 97.5 Z M 75 97.5 "/></g></svg>
