<svg xmlns="http://www.w3.org/2000/svg" xmlns:xlink="http://www.w3.org/1999/xlink" width="780" zoomAndPan="magnify" viewBox="0 0 585 82.499998" height="110" preserveAspectRatio="xMidYMid meet" version="1.2"><defs><clipPath id="93ff3eb838"><path d="M 1.761719 0 L 583.238281 0 L 583.238281 82.003906 L 1.761719 82.003906 Z M 1.761719 0 "/></clipPath></defs><g id="9bfee2d9c3"><path style=" stroke:none;fill-rule:nonzero;fill:#16385f;fill-opacity:1;" d="M 16.671875 1.25 L 568.328125 1.25 C 569.210938 1.25 570.082031 1.335938 570.945312 1.507812 C 571.808594 1.683594 572.648438 1.9375 573.464844 2.277344 C 574.277344 2.613281 575.050781 3.027344 575.785156 3.519531 C 576.515625 4.011719 577.195312 4.566406 577.816406 5.191406 C 578.441406 5.816406 578.996094 6.5 579.484375 7.234375 C 579.976562 7.96875 580.386719 8.742188 580.726562 9.558594 C 581.0625 10.375 581.316406 11.21875 581.488281 12.085938 C 581.660156 12.953125 581.746094 13.828125 581.746094 14.710938 L 581.746094 67.058594 C 581.746094 67.941406 581.660156 68.816406 581.488281 69.683594 C 581.316406 70.550781 581.0625 71.390625 580.726562 72.207031 C 580.386719 73.023438 579.976562 73.800781 579.484375 74.535156 C 578.996094 75.269531 578.441406 75.949219 577.816406 76.574219 C 577.195312 77.199219 576.515625 77.757812 575.785156 78.25 C 575.050781 78.738281 574.277344 79.15625 573.464844 79.492188 C 572.648438 79.832031 571.808594 80.085938 570.945312 80.257812 C 570.082031 80.429688 569.210938 80.515625 568.328125 80.515625 L 16.671875 80.515625 C 15.789062 80.515625 14.917969 80.429688 14.054688 80.257812 C 13.191406 80.085938 12.351562 79.832031 11.535156 79.492188 C 10.722656 79.15625 9.949219 78.738281 9.214844 78.25 C 8.484375 77.757812 7.804688 77.199219 7.183594 76.574219 C 6.558594 75.949219 6.003906 75.269531 5.515625 74.535156 C 5.023438 73.800781 4.613281 73.023438 4.273438 72.207031 C 3.9375 71.390625 3.683594 70.550781 3.511719 69.683594 C 3.339844 68.816406 3.253906 67.941406 3.253906 67.058594 L 3.253906 14.710938 C 3.253906 13.828125 3.339844 12.953125 3.511719 12.085938 C 3.683594 11.21875 3.9375 10.375 4.273438 9.558594 C 4.613281 8.742188 5.023438 7.96875 5.515625 7.234375 C 6.003906 6.5 6.558594 5.816406 7.183594 5.191406 C 7.804688 4.566406 8.484375 4.011719 9.214844 3.519531 C 9.949219 3.027344 10.722656 2.613281 11.535156 2.277344 C 12.351562 1.9375 13.191406 1.683594 14.054688 1.507812 C 14.917969 1.335938 15.789062 1.25 16.671875 1.25 Z M 16.671875 1.25 "/><g clip-rule="nonzero" clip-path="url(#93ff3eb838)"><path style="fill:none;stroke-width:2;stroke-linecap:butt;stroke-linejoin:miter;stroke:#29557f;stroke-opacity:1;stroke-miterlimit:4;" d="M 20.000243 1.998854 L 759.99979 1.998854 C 761.184007 1.998854 762.352505 2.113774 763.510522 2.343616 C 764.66854 2.578681 765.795119 2.91822 766.890258 3.372679 C 767.980157 3.821915 769.017657 4.375624 770.002758 5.033807 C 770.982619 5.69199 771.894361 6.433751 772.727505 7.269539 C 773.565889 8.105326 774.309955 9.019469 774.964942 10.001519 C 775.62517 10.98357 776.175359 12.017857 776.63123 13.109604 C 777.081862 14.201352 777.422455 15.329665 777.653011 16.48932 C 777.883566 17.648976 777.998844 18.819078 777.998844 19.999628 L 777.998844 90.002059 C 777.998844 91.182609 777.883566 92.352712 777.653011 93.512367 C 777.422455 94.672022 777.081862 95.795112 776.63123 96.886859 C 776.175359 97.978607 775.62517 99.018118 774.964942 100.000168 C 774.309955 100.982218 773.565889 101.891137 772.727505 102.726925 C 771.894361 103.562712 770.982619 104.309698 770.002758 104.96788 C 769.017657 105.620839 767.980157 106.179772 766.890258 106.629008 C 765.795119 107.083468 764.66854 107.423006 763.510522 107.652848 C 762.352505 107.882689 761.184007 107.99761 759.99979 107.99761 L 20.000243 107.99761 C 18.816025 107.99761 17.647528 107.882689 16.48951 107.652848 C 15.331492 107.423006 14.204914 107.083468 13.109775 106.629008 C 12.019876 106.179772 10.982376 105.620839 9.997275 104.96788 C 9.017414 104.309698 8.105671 103.562712 7.272527 102.726925 C 6.434143 101.891137 5.690077 100.982218 5.03509 100.000168 C 4.374863 99.018118 3.824673 97.978607 3.368802 96.886859 C 2.918171 95.795112 2.577577 94.672022 2.347022 93.512367 C 2.116466 92.352712 2.001188 91.182609 2.001188 90.002059 L 2.001188 19.999628 C 2.001188 18.819078 2.116466 17.648976 2.347022 16.48932 C 2.577577 15.329665 2.918171 14.201352 3.368802 13.109604 C 3.824673 12.017857 4.374863 10.98357 5.03509 10.001519 C 5.690077 9.019469 6.434143 8.105326 7.272527 7.269539 C 8.105671 6.433751 9.017414 5.69199 9.997275 5.033807 C 10.982376 4.375624 12.019876 3.821915 13.109775 3.372679 C 14.204914 2.91822 15.331492 2.578681 16.48951 2.343616 C 17.647528 2.113774 18.816025 1.998854 20.000243 1.998854 Z M 20.000243 1.998854 " transform="matrix(0.745482,0,0,0.747798,1.762057,-0.244738)"/></g></g></svg>
