<svg xmlns="http://www.w3.org/2000/svg" xmlns:xlink="http://www.w3.org/1999/xlink" width="130" zoomAndPan="magnify" viewBox="0 0 97.5 48" height="64" preserveAspectRatio="xMidYMid meet" version="1.2"><defs><clipPath id="68b215ad29"><path d="M 0.75 0 L 96.261719 0 L 96.261719 47.019531 L 0.75 47.019531 Z M 0.75 0 "/></clipPath></defs><g id="79cec10395"><path style=" stroke:none;fill-rule:nonzero;fill:#2a4259;fill-opacity:1;" d="M 24.261719 2.203125 L 72.75 2.203125 C 73.449219 2.203125 74.144531 2.238281 74.839844 2.308594 C 75.53125 2.375 76.222656 2.476562 76.90625 2.613281 C 77.589844 2.75 78.265625 2.917969 78.933594 3.121094 C 79.601562 3.324219 80.257812 3.558594 80.902344 3.824219 C 81.546875 4.09375 82.179688 4.390625 82.792969 4.71875 C 83.410156 5.046875 84.007812 5.40625 84.585938 5.792969 C 85.167969 6.183594 85.726562 6.597656 86.265625 7.039062 C 86.804688 7.484375 87.324219 7.949219 87.816406 8.445312 C 88.308594 8.9375 88.777344 9.453125 89.21875 9.992188 C 89.664062 10.53125 90.078125 11.09375 90.464844 11.671875 C 90.851562 12.253906 91.210938 12.851562 91.539062 13.464844 C 91.871094 14.082031 92.167969 14.710938 92.433594 15.355469 C 92.703125 16 92.9375 16.65625 93.140625 17.324219 C 93.339844 17.992188 93.511719 18.667969 93.648438 19.355469 C 93.78125 20.039062 93.886719 20.726562 93.953125 21.421875 C 94.023438 22.117188 94.054688 22.8125 94.054688 23.511719 C 94.054688 24.207031 94.023438 24.902344 93.953125 25.597656 C 93.886719 26.292969 93.78125 26.984375 93.648438 27.667969 C 93.511719 28.351562 93.339844 29.027344 93.140625 29.695312 C 92.9375 30.363281 92.703125 31.019531 92.433594 31.664062 C 92.167969 32.308594 91.871094 32.9375 91.539062 33.554688 C 91.210938 34.167969 90.851562 34.765625 90.464844 35.347656 C 90.078125 35.925781 89.664062 36.488281 89.21875 37.027344 C 88.777344 37.566406 88.308594 38.082031 87.816406 38.574219 C 87.324219 39.070312 86.804688 39.539062 86.265625 39.980469 C 85.726562 40.421875 85.167969 40.839844 84.585938 41.226562 C 84.007812 41.613281 83.410156 41.972656 82.792969 42.300781 C 82.179688 42.628906 81.546875 42.925781 80.902344 43.195312 C 80.257812 43.460938 79.601562 43.695312 78.933594 43.898438 C 78.265625 44.101562 77.589844 44.269531 76.90625 44.40625 C 76.222656 44.542969 75.53125 44.644531 74.839844 44.714844 C 74.144531 44.78125 73.449219 44.816406 72.75 44.816406 L 24.261719 44.816406 C 23.5625 44.816406 22.867188 44.78125 22.171875 44.714844 C 21.476562 44.644531 20.789062 44.542969 20.105469 44.40625 C 19.417969 44.269531 18.742188 44.101562 18.074219 43.898438 C 17.40625 43.695312 16.75 43.460938 16.105469 43.195312 C 15.460938 42.925781 14.832031 42.628906 14.214844 42.300781 C 13.601562 41.972656 13.003906 41.613281 12.421875 41.226562 C 11.84375 40.839844 11.28125 40.421875 10.742188 39.980469 C 10.203125 39.539062 9.6875 39.070312 9.195312 38.574219 C 8.699219 38.082031 8.234375 37.566406 7.789062 37.027344 C 7.347656 36.488281 6.933594 35.925781 6.542969 35.347656 C 6.15625 34.765625 5.796875 34.167969 5.46875 33.554688 C 5.140625 32.9375 4.84375 32.308594 4.574219 31.664062 C 4.308594 31.019531 4.074219 30.363281 3.871094 29.695312 C 3.667969 29.027344 3.5 28.351562 3.363281 27.667969 C 3.226562 26.984375 3.125 26.292969 3.058594 25.597656 C 2.988281 24.902344 2.953125 24.207031 2.953125 23.511719 C 2.953125 22.8125 2.988281 22.117188 3.058594 21.421875 C 3.125 20.726562 3.226562 20.039062 3.363281 19.355469 C 3.5 18.667969 3.667969 17.992188 3.871094 17.324219 C 4.074219 16.65625 4.308594 16 4.574219 15.355469 C 4.84375 14.710938 5.140625 14.082031 5.46875 13.464844 C 5.796875 12.851562 6.15625 12.253906 6.542969 11.671875 C 6.933594 11.09375 7.347656 10.53125 7.789062 9.992188 C 8.234375 9.453125 8.699219 8.9375 9.195312 8.445312 C 9.6875 7.949219 10.203125 7.484375 10.742188 7.039062 C 11.28125 6.597656 11.84375 6.183594 12.421875 5.792969 C 13.003906 5.40625 13.601562 5.046875 14.214844 4.71875 C 14.832031 4.390625 15.460938 4.09375 16.105469 3.824219 C 16.75 3.558594 17.40625 3.324219 18.074219 3.121094 C 18.742188 2.917969 19.417969 2.75 20.105469 2.613281 C 20.789062 2.476562 21.476562 2.375 22.171875 2.308594 C 22.867188 2.238281 23.5625 2.203125 24.261719 2.203125 Z M 24.261719 2.203125 "/><g clip-rule="nonzero" clip-path="url(#68b215ad29)"><path style="fill:none;stroke-width:6;stroke-linecap:butt;stroke-linejoin:miter;stroke:#183244;stroke-opacity:1;stroke-miterlimit:4;" d="M 32.002063 2.998695 L 98.000004 2.998695 C 98.951718 2.998695 99.898116 3.046547 100.844513 3.14225 C 101.785594 3.232636 102.726675 3.370874 103.657122 3.556964 C 104.587569 3.743053 105.507383 3.971677 106.416562 4.248153 C 107.325742 4.524629 108.218971 4.843639 109.09625 5.205184 C 109.973529 5.572046 110.834857 5.976126 111.669601 6.422741 C 112.509661 6.869355 113.323138 7.358505 114.11003 7.884872 C 114.90224 8.416556 115.662548 8.980141 116.396272 9.580944 C 117.129996 10.187064 117.837136 10.819768 118.507057 11.495006 C 119.176979 12.164928 119.815 12.866751 120.415803 13.600475 C 121.021923 14.334199 121.585508 15.099824 122.111875 15.886717 C 122.638242 16.678926 123.127392 17.492402 123.574006 18.327146 C 124.025938 19.167207 124.430018 20.023218 124.791563 20.900497 C 125.158425 21.777776 125.477435 22.671005 125.753911 23.580185 C 126.02507 24.489364 126.259011 25.409178 126.4451 26.344942 C 126.625873 27.275389 126.769428 28.211153 126.859814 29.15755 C 126.955517 30.103948 126.998052 31.050346 126.998052 32.00206 C 126.998052 32.948458 126.955517 33.894855 126.859814 34.841253 C 126.769428 35.78765 126.625873 36.728731 126.4451 37.659178 C 126.259011 38.589625 126.02507 39.509439 125.753911 40.418618 C 125.477435 41.327798 125.158425 42.221027 124.791563 43.098306 C 124.430018 43.975585 124.025938 44.831596 123.574006 45.671657 C 123.127392 46.506401 122.638242 47.319877 122.111875 48.112087 C 121.585508 48.898979 121.021923 49.664604 120.415803 50.398328 C 119.815 51.132052 119.176979 51.833875 118.507057 52.503797 C 117.837136 53.179036 117.129996 53.817056 116.396272 54.417859 C 115.662548 55.018662 114.90224 55.587564 114.11003 56.113931 C 113.323138 56.640299 112.509661 57.129448 111.669601 57.576063 C 110.834857 58.022677 109.973529 58.426757 109.09625 58.793619 C 108.218971 59.155164 107.325742 59.474175 106.416562 59.75065 C 105.507383 60.027126 104.587569 60.25575 103.657122 60.44184 C 102.726675 60.627929 101.785594 60.766167 100.844513 60.86187 C 99.898116 60.952256 98.951718 61.000108 98.000004 61.000108 L 32.002063 61.000108 C 31.050349 61.000108 30.103951 60.952256 29.157554 60.86187 C 28.211156 60.766167 27.275392 60.627929 26.344945 60.44184 C 25.409181 60.25575 24.489368 60.027126 23.580188 59.75065 C 22.671008 59.474175 21.777779 59.155164 20.9005 58.793619 C 20.023222 58.426757 19.16721 58.022677 18.32715 57.576063 C 17.492406 57.129448 16.678929 56.640299 15.88672 56.113931 C 15.099827 55.587564 14.334202 55.018662 13.600478 54.417859 C 12.866754 53.817056 12.164932 53.179036 11.49501 52.503797 C 10.819771 51.833875 10.187067 51.132052 9.580947 50.398328 C 8.980144 49.664604 8.416559 48.898979 7.884875 48.112087 C 7.358508 47.319877 6.869358 46.506401 6.422744 45.671657 C 5.976129 44.831596 5.572049 43.975585 5.205187 43.098306 C 4.843642 42.221027 4.524632 41.327798 4.248156 40.418618 C 3.97168 39.509439 3.743056 38.589625 3.556967 37.659178 C 3.370877 36.728731 3.23264 35.78765 3.142253 34.841253 C 3.04655 33.894855 2.998699 32.948458 2.998699 32.00206 C 2.998699 31.050346 3.04655 30.103948 3.142253 29.15755 C 3.23264 28.211153 3.370877 27.275389 3.556967 26.344942 C 3.743056 25.409178 3.97168 24.489364 4.248156 23.580185 C 4.524632 22.671005 4.843642 21.777776 5.205187 20.900497 C 5.572049 20.023218 5.976129 19.167207 6.422744 18.327146 C 6.869358 17.492402 7.358508 16.678926 7.884875 15.886717 C 8.416559 15.099824 8.980144 14.334199 9.580947 13.600475 C 10.187067 12.866751 10.819771 12.164928 11.49501 11.495006 C 12.164932 10.819768 12.866754 10.187064 13.600478 9.580944 C 14.334202 8.980141 15.099827 8.416556 15.88672 7.884872 C 16.678929 7.358505 17.492406 6.869355 18.32715 6.422741 C 19.16721 5.976126 20.023222 5.572046 20.9005 5.205184 C 21.777779 4.843639 22.671008 4.524629 23.580188 4.248153 C 24.489368 3.971677 25.409181 3.743053 26.344945 3.556964 C 27.275392 3.370874 28.211156 3.232636 29.157554 3.14225 C 30.103951 3.046547 31.050349 2.998695 32.002063 2.998695 Z M 32.002063 2.998695 " transform="matrix(0.734694,0,0,0.734694,0.75,0.00000195918)"/></g><path style=" stroke:none;fill-rule:nonzero;fill:#ffffff;fill-opacity:1;" d="M 41.894531 23.511719 C 41.894531 24.476562 41.796875 25.429688 41.609375 26.375 C 41.421875 27.324219 41.144531 28.242188 40.773438 29.132812 C 40.40625 30.023438 39.953125 30.871094 39.417969 31.671875 C 38.878906 32.476562 38.269531 33.21875 37.589844 33.898438 C 36.90625 34.582031 36.164062 35.191406 35.363281 35.726562 C 34.558594 36.265625 33.714844 36.714844 32.820312 37.085938 C 31.929688 37.453125 31.011719 37.734375 30.066406 37.921875 C 29.121094 38.109375 28.164062 38.203125 27.199219 38.203125 C 26.234375 38.203125 25.277344 38.109375 24.332031 37.921875 C 23.386719 37.734375 22.46875 37.453125 21.574219 37.085938 C 20.683594 36.714844 19.835938 36.265625 19.035156 35.726562 C 18.234375 35.191406 17.492188 34.582031 16.808594 33.898438 C 16.125 33.21875 15.515625 32.476562 14.980469 31.671875 C 14.445312 30.871094 13.992188 30.023438 13.625 29.132812 C 13.253906 28.242188 12.976562 27.324219 12.789062 26.375 C 12.597656 25.429688 12.503906 24.476562 12.503906 23.511719 C 12.503906 22.546875 12.597656 21.589844 12.789062 20.644531 C 12.976562 19.699219 13.253906 18.777344 13.625 17.886719 C 13.992188 16.996094 14.445312 16.148438 14.980469 15.347656 C 15.515625 14.542969 16.125 13.800781 16.808594 13.121094 C 17.492188 12.4375 18.234375 11.828125 19.035156 11.292969 C 19.835938 10.757812 20.683594 10.304688 21.574219 9.933594 C 22.46875 9.566406 23.386719 9.285156 24.332031 9.097656 C 25.277344 8.910156 26.234375 8.816406 27.199219 8.816406 C 28.164062 8.816406 29.121094 8.910156 30.066406 9.097656 C 31.011719 9.285156 31.929688 9.566406 32.820312 9.933594 C 33.714844 10.304688 34.558594 10.757812 35.363281 11.292969 C 36.164062 11.828125 36.90625 12.4375 37.589844 13.121094 C 38.269531 13.800781 38.878906 14.542969 39.417969 15.347656 C 39.953125 16.148438 40.40625 16.996094 40.773438 17.886719 C 41.144531 18.777344 41.421875 19.699219 41.609375 20.644531 C 41.796875 21.589844 41.894531 22.546875 41.894531 23.511719 Z M 41.894531 23.511719 "/></g></svg>
