<svg xmlns="http://www.w3.org/2000/svg" xmlns:xlink="http://www.w3.org/1999/xlink" width="120" zoomAndPan="magnify" viewBox="0 0 90 89.999999" height="120" preserveAspectRatio="xMidYMid meet" version="1.2"><defs><clipPath id="4b5ae9eb3b"><path d="M 7 7 L 83 7 L 83 83 L 7 83 Z M 7 7 "/></clipPath><clipPath id="420270bb42"><path d="M 19.5 7.5 L 70.5 7.5 C 71.289062 7.5 72.066406 7.578125 72.839844 7.730469 C 73.613281 7.882812 74.363281 8.113281 75.09375 8.414062 C 75.820312 8.714844 76.511719 9.085938 77.167969 9.523438 C 77.820312 9.960938 78.429688 10.457031 78.984375 11.015625 C 79.542969 11.570312 80.039062 12.179688 80.476562 12.832031 C 80.914062 13.488281 81.285156 14.179688 81.585938 14.90625 C 81.886719 15.636719 82.117188 16.386719 82.269531 17.160156 C 82.421875 17.933594 82.5 18.710938 82.5 19.5 L 82.5 70.5 C 82.5 71.289062 82.421875 72.066406 82.269531 72.839844 C 82.117188 73.613281 81.886719 74.363281 81.585938 75.09375 C 81.285156 75.820312 80.914062 76.511719 80.476562 77.167969 C 80.039062 77.820312 79.542969 78.429688 78.984375 78.984375 C 78.429688 79.542969 77.820312 80.039062 77.167969 80.476562 C 76.511719 80.914062 75.820312 81.285156 75.09375 81.585938 C 74.363281 81.886719 73.613281 82.117188 72.839844 82.269531 C 72.066406 82.421875 71.289062 82.5 70.5 82.5 L 19.5 82.5 C 18.710938 82.5 17.933594 82.421875 17.160156 82.269531 C 16.386719 82.117188 15.636719 81.886719 14.90625 81.585938 C 14.179688 81.285156 13.488281 80.914062 12.832031 80.476562 C 12.179688 80.039062 11.570312 79.542969 11.015625 78.984375 C 10.457031 78.429688 9.960938 77.820312 9.523438 77.167969 C 9.085938 76.511719 8.714844 75.820312 8.414062 75.09375 C 8.113281 74.363281 7.882812 73.613281 7.730469 72.839844 C 7.578125 72.066406 7.5 71.289062 7.5 70.5 L 7.5 19.5 C 7.5 18.710938 7.578125 17.933594 7.730469 17.160156 C 7.882812 16.386719 8.113281 15.636719 8.414062 14.90625 C 8.714844 14.179688 9.085938 13.488281 9.523438 12.832031 C 9.960938 12.179688 10.457031 11.570312 11.015625 11.015625 C 11.570312 10.457031 12.179688 9.960938 12.832031 9.523438 C 13.488281 9.085938 14.179688 8.714844 14.90625 8.414062 C 15.636719 8.113281 16.386719 7.882812 17.160156 7.730469 C 17.933594 7.578125 18.710938 7.5 19.5 7.5 Z M 19.5 7.5 "/></clipPath><linearGradient x1="0" gradientTransform="matrix(74.999999,0,0,74.999999,7.5,7.500002)" y1="-0.00000000416667" x2="0" gradientUnits="userSpaceOnUse" y2="1" id="f5c68e8e86"><stop style="stop-color:#2b4c7e;stop-opacity:1;" offset="0"/><stop style="stop-color:#2b4c7e;stop-opacity:1;" offset="0.03125"/><stop style="stop-color:#2a4b7d;stop-opacity:1;" offset="0.0625"/><stop style="stop-color:#2a4b7c;stop-opacity:1;" offset="0.09375"/><stop style="stop-color:#2a4a7b;stop-opacity:1;" offset="0.125"/><stop style="stop-color:#294a7a;stop-opacity:1;" offset="0.15625"/><stop style="stop-color:#294979;stop-opacity:1;" offset="0.1875"/><stop style="stop-color:#284979;stop-opacity:1;" offset="0.21875"/><stop style="stop-color:#284878;stop-opacity:1;" offset="0.25"/><stop style="stop-color:#284777;stop-opacity:1;" offset="0.28125"/><stop style="stop-color:#274776;stop-opacity:1;" offset="0.3125"/><stop style="stop-color:#274675;stop-opacity:1;" offset="0.34375"/><stop style="stop-color:#264674;stop-opacity:1;" offset="0.375"/><stop style="stop-color:#264573;stop-opacity:1;" offset="0.40625"/><stop style="stop-color:#264573;stop-opacity:1;" offset="0.4375"/><stop style="stop-color:#254472;stop-opacity:1;" offset="0.46875"/><stop style="stop-color:#254471;stop-opacity:1;" offset="0.5"/><stop style="stop-color:#244370;stop-opacity:1;" offset="0.53125"/><stop style="stop-color:#24436f;stop-opacity:1;" offset="0.5625"/><stop style="stop-color:#23426e;stop-opacity:1;" offset="0.59375"/><stop style="stop-color:#23426e;stop-opacity:1;" offset="0.625"/><stop style="stop-color:#23416d;stop-opacity:1;" offset="0.65625"/><stop style="stop-color:#22416c;stop-opacity:1;" offset="0.6875"/><stop style="stop-color:#22406b;stop-opacity:1;" offset="0.71875"/><stop style="stop-color:#21406a;stop-opacity:1;" offset="0.75"/><stop style="stop-color:#213f69;stop-opacity:1;" offset="0.78125"/><stop style="stop-color:#213e68;stop-opacity:1;" offset="0.8125"/><stop style="stop-color:#203e68;stop-opacity:1;" offset="0.84375"/><stop style="stop-color:#203d67;stop-opacity:1;" offset="0.875"/><stop style="stop-color:#1f3d66;stop-opacity:1;" offset="0.90625"/><stop style="stop-color:#1f3c65;stop-opacity:1;" offset="0.9375"/><stop style="stop-color:#1f3c64;stop-opacity:1;" offset="0.96875"/><stop style="stop-color:#1e3b63;stop-opacity:1;" offset="1"/></linearGradient><linearGradient x1="0" gradientTransform="matrix(99.000004,0,0,99.000004,10.5,10.5)" y1="-0.00505051" x2="0" gradientUnits="userSpaceOnUse" y2="1.00505" id="220bfc51f0"><stop style="stop-color:#3c6aa6;stop-opacity:1;" offset="0"/><stop style="stop-color:#3c6aa6;stop-opacity:1;" offset="0.015625"/><stop style="stop-color:#3c69a5;stop-opacity:1;" offset="0.0234375"/><stop style="stop-color:#3b69a4;stop-opacity:1;" offset="0.03125"/><stop style="stop-color:#3b69a4;stop-opacity:1;" offset="0.0390625"/><stop style="stop-color:#3b68a3;stop-opacity:1;" offset="0.046875"/><stop style="stop-color:#3b68a3;stop-opacity:1;" offset="0.0546875"/><stop style="stop-color:#3b67a2;stop-opacity:1;" offset="0.0625"/><stop style="stop-color:#3a67a2;stop-opacity:1;" offset="0.0703125"/><stop style="stop-color:#3a67a1;stop-opacity:1;" offset="0.078125"/><stop style="stop-color:#3a66a1;stop-opacity:1;" offset="0.0859375"/><stop style="stop-color:#3a66a0;stop-opacity:1;" offset="0.09375"/><stop style="stop-color:#3966a0;stop-opacity:1;" offset="0.101563"/><stop style="stop-color:#39659f;stop-opacity:1;" offset="0.109375"/><stop style="stop-color:#39659f;stop-opacity:1;" offset="0.117188"/><stop style="stop-color:#39649e;stop-opacity:1;" offset="0.125"/><stop style="stop-color:#39649d;stop-opacity:1;" offset="0.132813"/><stop style="stop-color:#38649d;stop-opacity:1;" offset="0.140625"/><stop style="stop-color:#38639c;stop-opacity:1;" offset="0.148438"/><stop style="stop-color:#38639c;stop-opacity:1;" offset="0.15625"/><stop style="stop-color:#38639b;stop-opacity:1;" offset="0.164063"/><stop style="stop-color:#38629b;stop-opacity:1;" offset="0.171875"/><stop style="stop-color:#37629a;stop-opacity:1;" offset="0.179688"/><stop style="stop-color:#37629a;stop-opacity:1;" offset="0.1875"/><stop style="stop-color:#376199;stop-opacity:1;" offset="0.195313"/><stop style="stop-color:#376199;stop-opacity:1;" offset="0.203125"/><stop style="stop-color:#366098;stop-opacity:1;" offset="0.210938"/><stop style="stop-color:#366098;stop-opacity:1;" offset="0.21875"/><stop style="stop-color:#366097;stop-opacity:1;" offset="0.226563"/><stop style="stop-color:#365f97;stop-opacity:1;" offset="0.234375"/><stop style="stop-color:#365f96;stop-opacity:1;" offset="0.242188"/><stop style="stop-color:#355f95;stop-opacity:1;" offset="0.25"/><stop style="stop-color:#355e95;stop-opacity:1;" offset="0.257813"/><stop style="stop-color:#355e94;stop-opacity:1;" offset="0.265625"/><stop style="stop-color:#355d94;stop-opacity:1;" offset="0.273438"/><stop style="stop-color:#355d93;stop-opacity:1;" offset="0.28125"/><stop style="stop-color:#345d93;stop-opacity:1;" offset="0.289063"/><stop style="stop-color:#345c92;stop-opacity:1;" offset="0.296875"/><stop style="stop-color:#345c92;stop-opacity:1;" offset="0.304688"/><stop style="stop-color:#345c91;stop-opacity:1;" offset="0.3125"/><stop style="stop-color:#345b91;stop-opacity:1;" offset="0.320313"/><stop style="stop-color:#335b90;stop-opacity:1;" offset="0.328125"/><stop style="stop-color:#335a90;stop-opacity:1;" offset="0.335938"/><stop style="stop-color:#335a8f;stop-opacity:1;" offset="0.34375"/><stop style="stop-color:#335a8e;stop-opacity:1;" offset="0.351563"/><stop style="stop-color:#32598e;stop-opacity:1;" offset="0.359375"/><stop style="stop-color:#32598d;stop-opacity:1;" offset="0.367188"/><stop style="stop-color:#32598d;stop-opacity:1;" offset="0.375"/><stop style="stop-color:#32588c;stop-opacity:1;" offset="0.382813"/><stop style="stop-color:#32588c;stop-opacity:1;" offset="0.390625"/><stop style="stop-color:#31588b;stop-opacity:1;" offset="0.398438"/><stop style="stop-color:#31578b;stop-opacity:1;" offset="0.40625"/><stop style="stop-color:#31578a;stop-opacity:1;" offset="0.414063"/><stop style="stop-color:#31568a;stop-opacity:1;" offset="0.421875"/><stop style="stop-color:#315689;stop-opacity:1;" offset="0.429688"/><stop style="stop-color:#305689;stop-opacity:1;" offset="0.4375"/><stop style="stop-color:#305588;stop-opacity:1;" offset="0.445313"/><stop style="stop-color:#305587;stop-opacity:1;" offset="0.453125"/><stop style="stop-color:#305587;stop-opacity:1;" offset="0.460938"/><stop style="stop-color:#2f5486;stop-opacity:1;" offset="0.46875"/><stop style="stop-color:#2f5486;stop-opacity:1;" offset="0.476563"/><stop style="stop-color:#2f5385;stop-opacity:1;" offset="0.484375"/><stop style="stop-color:#2f5385;stop-opacity:1;" offset="0.492188"/><stop style="stop-color:#2f5384;stop-opacity:1;" offset="0.5"/><stop style="stop-color:#2e5284;stop-opacity:1;" offset="0.507812"/><stop style="stop-color:#2e5283;stop-opacity:1;" offset="0.515625"/><stop style="stop-color:#2e5283;stop-opacity:1;" offset="0.523438"/><stop style="stop-color:#2e5182;stop-opacity:1;" offset="0.53125"/><stop style="stop-color:#2e5182;stop-opacity:1;" offset="0.539062"/><stop style="stop-color:#2d5081;stop-opacity:1;" offset="0.546875"/><stop style="stop-color:#2d5081;stop-opacity:1;" offset="0.554688"/><stop style="stop-color:#2d5080;stop-opacity:1;" offset="0.5625"/><stop style="stop-color:#2d4f7f;stop-opacity:1;" offset="0.570312"/><stop style="stop-color:#2c4f7f;stop-opacity:1;" offset="0.578125"/><stop style="stop-color:#2c4f7e;stop-opacity:1;" offset="0.585938"/><stop style="stop-color:#2c4e7e;stop-opacity:1;" offset="0.59375"/><stop style="stop-color:#2c4e7d;stop-opacity:1;" offset="0.601562"/><stop style="stop-color:#2c4d7d;stop-opacity:1;" offset="0.609375"/><stop style="stop-color:#2b4d7c;stop-opacity:1;" offset="0.617188"/><stop style="stop-color:#2b4d7c;stop-opacity:1;" offset="0.625"/><stop style="stop-color:#2b4c7b;stop-opacity:1;" offset="0.632812"/><stop style="stop-color:#2b4c7b;stop-opacity:1;" offset="0.640625"/><stop style="stop-color:#2b4c7a;stop-opacity:1;" offset="0.648438"/><stop style="stop-color:#2a4b7a;stop-opacity:1;" offset="0.65625"/><stop style="stop-color:#2a4b79;stop-opacity:1;" offset="0.664062"/><stop style="stop-color:#2a4b78;stop-opacity:1;" offset="0.671875"/><stop style="stop-color:#2a4a78;stop-opacity:1;" offset="0.679688"/><stop style="stop-color:#294a77;stop-opacity:1;" offset="0.6875"/><stop style="stop-color:#294977;stop-opacity:1;" offset="0.695312"/><stop style="stop-color:#294976;stop-opacity:1;" offset="0.703125"/><stop style="stop-color:#294976;stop-opacity:1;" offset="0.710938"/><stop style="stop-color:#294875;stop-opacity:1;" offset="0.71875"/><stop style="stop-color:#284875;stop-opacity:1;" offset="0.726562"/><stop style="stop-color:#284874;stop-opacity:1;" offset="0.734375"/><stop style="stop-color:#284774;stop-opacity:1;" offset="0.742188"/><stop style="stop-color:#284773;stop-opacity:1;" offset="0.75"/><stop style="stop-color:#284673;stop-opacity:1;" offset="0.757812"/><stop style="stop-color:#274672;stop-opacity:1;" offset="0.765625"/><stop style="stop-color:#274671;stop-opacity:1;" offset="0.773438"/><stop style="stop-color:#274571;stop-opacity:1;" offset="0.78125"/><stop style="stop-color:#274570;stop-opacity:1;" offset="0.789062"/><stop style="stop-color:#274570;stop-opacity:1;" offset="0.796875"/><stop style="stop-color:#26446f;stop-opacity:1;" offset="0.804688"/><stop style="stop-color:#26446f;stop-opacity:1;" offset="0.8125"/><stop style="stop-color:#26436e;stop-opacity:1;" offset="0.820312"/><stop style="stop-color:#26436e;stop-opacity:1;" offset="0.828125"/><stop style="stop-color:#25436d;stop-opacity:1;" offset="0.835938"/><stop style="stop-color:#25426d;stop-opacity:1;" offset="0.84375"/><stop style="stop-color:#25426c;stop-opacity:1;" offset="0.851562"/><stop style="stop-color:#25426c;stop-opacity:1;" offset="0.859375"/><stop style="stop-color:#25416b;stop-opacity:1;" offset="0.867188"/><stop style="stop-color:#24416b;stop-opacity:1;" offset="0.875"/><stop style="stop-color:#24416a;stop-opacity:1;" offset="0.882812"/><stop style="stop-color:#244069;stop-opacity:1;" offset="0.890625"/><stop style="stop-color:#244069;stop-opacity:1;" offset="0.898438"/><stop style="stop-color:#243f68;stop-opacity:1;" offset="0.90625"/><stop style="stop-color:#233f68;stop-opacity:1;" offset="0.914062"/><stop style="stop-color:#233f67;stop-opacity:1;" offset="0.921875"/><stop style="stop-color:#233e67;stop-opacity:1;" offset="0.929688"/><stop style="stop-color:#233e66;stop-opacity:1;" offset="0.9375"/><stop style="stop-color:#223e66;stop-opacity:1;" offset="0.945312"/><stop style="stop-color:#223d65;stop-opacity:1;" offset="0.953125"/><stop style="stop-color:#223d65;stop-opacity:1;" offset="0.960938"/><stop style="stop-color:#223c64;stop-opacity:1;" offset="0.96875"/><stop style="stop-color:#223c64;stop-opacity:1;" offset="0.976562"/><stop style="stop-color:#213c63;stop-opacity:1;" offset="0.984375"/><stop style="stop-color:#213b62;stop-opacity:1;" offset="1"/></linearGradient></defs><g id="b05742cac8"><path style=" stroke:none;fill-rule:nonzero;fill:#0c1c30;fill-opacity:0.45;" d="M 19.5 10.5 L 70.5 10.5 C 71.289062 10.5 72.066406 10.578125 72.839844 10.730469 C 73.613281 10.882812 74.363281 11.113281 75.09375 11.414062 C 75.820312 11.714844 76.511719 12.085938 77.167969 12.523438 C 77.820312 12.960938 78.429688 13.457031 78.984375 14.015625 C 79.542969 14.570312 80.039062 15.179688 80.476562 15.832031 C 80.914062 16.488281 81.285156 17.179688 81.585938 17.90625 C 81.886719 18.636719 82.117188 19.386719 82.269531 20.160156 C 82.421875 20.933594 82.5 21.710938 82.5 22.5 L 82.5 73.5 C 82.5 74.289062 82.421875 75.066406 82.269531 75.839844 C 82.117188 76.613281 81.886719 77.363281 81.585938 78.09375 C 81.285156 78.820312 80.914062 79.511719 80.476562 80.167969 C 80.039062 80.820312 79.542969 81.429688 78.984375 81.984375 C 78.429688 82.542969 77.820312 83.039062 77.167969 83.476562 C 76.511719 83.914062 75.820312 84.285156 75.09375 84.585938 C 74.363281 84.886719 73.613281 85.117188 72.839844 85.269531 C 72.066406 85.421875 71.289062 85.5 70.5 85.5 L 19.5 85.5 C 18.710938 85.5 17.933594 85.421875 17.160156 85.269531 C 16.386719 85.117188 15.636719 84.886719 14.90625 84.585938 C 14.179688 84.285156 13.488281 83.914062 12.832031 83.476562 C 12.179688 83.039062 11.570312 82.542969 11.015625 81.984375 C 10.457031 81.429688 9.960938 80.820312 9.523438 80.167969 C 9.085938 79.511719 8.714844 78.820312 8.414062 78.09375 C 8.113281 77.363281 7.882812 76.613281 7.730469 75.839844 C 7.578125 75.066406 7.5 74.289062 7.5 73.5 L 7.5 22.5 C 7.5 21.710938 7.578125 20.933594 7.730469 20.160156 C 7.882812 19.386719 8.113281 18.636719 8.414062 17.90625 C 8.714844 17.179688 9.085938 16.488281 9.523438 15.832031 C 9.960938 15.179688 10.457031 14.570312 11.015625 14.015625 C 11.570312 13.457031 12.179688 12.960938 12.832031 12.523438 C 13.488281 12.085938 14.179688 11.714844 14.90625 11.414062 C 15.636719 11.113281 16.386719 10.882812 17.160156 10.730469 C 17.933594 10.578125 18.710938 10.5 19.5 10.5 Z M 19.5 10.5 "/><g clip-rule="nonzero" clip-path="url(#4b5ae9eb3b)"><g clip-rule="nonzero" clip-path="url(#420270bb42)"><path style=" stroke:none;fill-rule:nonzero;fill:url(#f5c68e8e86);" d="M 7.5 7.5 L 7.5 82.5 L 82.5 82.5 L 82.5 7.5 Z M 7.5 7.5 "/></g></g><path style="fill:none;stroke-width:1;stroke-linecap:butt;stroke-linejoin:miter;stroke:url(#220bfc51f0);stroke-miterlimit:4;" d="M 26.000001 10.499998 L 94.000004 10.499998 C 95.015629 10.499998 96.026046 10.598956 97.026046 10.796873 C 98.020838 10.99479 98.989588 11.291665 99.932296 11.68229 C 100.869796 12.067706 101.76563 12.546873 102.60938 13.114581 C 103.458338 13.677081 104.239588 14.317706 104.958338 15.041665 C 105.682297 15.760415 106.322922 16.541665 106.885422 17.390623 C 107.45313 18.234373 107.932297 19.130207 108.317713 20.067707 C 108.708338 21.010415 109.005213 21.979165 109.20313 22.973957 C 109.401047 23.973957 109.500005 24.984374 109.500005 25.999999 L 109.500005 94.000002 C 109.500005 95.015627 109.401047 96.026044 109.20313 97.026044 C 109.005213 98.020836 108.708338 98.989586 108.317713 99.932294 C 107.932297 100.869794 107.45313 101.765628 106.885422 102.609378 C 106.322922 103.458336 105.682297 104.239586 104.958338 104.958336 C 104.239588 105.682295 103.458338 106.32292 102.60938 106.88542 C 101.76563 107.453128 100.869796 107.932295 99.932296 108.317711 C 98.989588 108.708336 98.020838 109.005211 97.026046 109.203128 C 96.026046 109.401045 95.015629 109.500003 94.000004 109.500003 L 26.000001 109.500003 C 24.984376 109.500003 23.973959 109.401045 22.973959 109.203128 C 21.979167 109.005211 21.010417 108.708336 20.067709 108.317711 C 19.130209 107.932295 18.234375 107.453128 17.390625 106.88542 C 16.541667 106.32292 15.760417 105.682295 15.041667 104.958336 C 14.317708 104.239586 13.677083 103.458336 13.114583 102.609378 C 12.546875 101.765628 12.067708 100.869794 11.682292 99.932294 C 11.291667 98.989586 10.994792 98.020836 10.796875 97.026044 C 10.598958 96.026044 10.5 95.015627 10.5 94.000002 L 10.5 25.999999 C 10.5 24.984374 10.598958 23.973957 10.796875 22.973957 C 10.994792 21.979165 11.291667 21.010415 11.682292 20.067707 C 12.067708 19.130207 12.546875 18.234373 13.114583 17.390623 C 13.677083 16.541665 14.317708 15.760415 15.041667 15.041665 C 15.760417 14.317706 16.541667 13.677081 17.390625 13.114581 C 18.234375 12.546873 19.130209 12.067706 20.067709 11.68229 C 21.010417 11.291665 21.979167 10.99479 22.973959 10.796873 C 23.973959 10.598956 24.984376 10.499998 26.000001 10.499998 Z M 26.000001 10.499998 " transform="matrix(0.75,0,0,0.75,0.0000005,0.000002)"/><path style=" stroke:none;fill-rule:nonzero;fill:#e8eff7;fill-opacity:1;" d="M 48 30 L 42 30 C 37.875 30 34.875 33 34.875 37.5 L 34.875 42 L 30.375 42 L 30.375 49.5 L 34.875 49.5 L 34.875 67.5 L 43.875 67.5 L 43.875 49.5 L 49.273438 49.5 L 50.625 42 L 43.5 42 L 43.5 39 C 43.5 37.351562 44.25 36.375 46.199219 36.375 L 48 36.375 Z M 48 30 "/></g></svg>