<svg xmlns="http://www.w3.org/2000/svg" xmlns:xlink="http://www.w3.org/1999/xlink" width="380" zoomAndPan="magnify" viewBox="0 0 285 67.499998" height="90" preserveAspectRatio="xMidYMid meet" version="1.2"><defs><clipPath id="84c0ade250"><path d="M 5 3 L 280 3 L 280 63 L 5 63 Z M 5 3 "/></clipPath><clipPath id="4a4c66bb60"><path d="M 18.992188 3.679688 L 266.007812 3.679688 C 266.882812 3.679688 267.75 3.765625 268.605469 3.9375 C 269.464844 4.105469 270.296875 4.355469 271.101562 4.691406 C 271.910156 5.023438 272.679688 5.429688 273.40625 5.914062 C 274.132812 6.398438 274.804688 6.945312 275.421875 7.5625 C 276.039062 8.175781 276.59375 8.847656 277.078125 9.570312 C 277.5625 10.292969 277.972656 11.058594 278.308594 11.863281 C 278.640625 12.664062 278.894531 13.496094 279.066406 14.347656 C 279.234375 15.199219 279.320312 16.0625 279.320312 16.933594 L 279.320312 49.328125 C 279.320312 50.195312 279.234375 51.058594 279.066406 51.910156 C 278.894531 52.765625 278.640625 53.59375 278.308594 54.398438 C 277.972656 55.203125 277.5625 55.964844 277.078125 56.6875 C 276.59375 57.410156 276.039062 58.082031 275.421875 58.695312 C 274.804688 59.3125 274.132812 59.863281 273.40625 60.34375 C 272.679688 60.828125 271.910156 61.238281 271.101562 61.570312 C 270.296875 61.902344 269.464844 62.152344 268.605469 62.324219 C 267.75 62.492188 266.882812 62.578125 266.007812 62.578125 L 18.992188 62.578125 C 18.117188 62.578125 17.25 62.492188 16.394531 62.324219 C 15.535156 62.152344 14.703125 61.902344 13.898438 61.570312 C 13.089844 61.238281 12.320312 60.828125 11.59375 60.34375 C 10.867188 59.863281 10.195312 59.3125 9.578125 58.695312 C 8.960938 58.082031 8.40625 57.410156 7.921875 56.6875 C 7.4375 55.964844 7.027344 55.203125 6.691406 54.398438 C 6.359375 53.59375 6.105469 52.765625 5.933594 51.910156 C 5.765625 51.058594 5.679688 50.195312 5.679688 49.328125 L 5.679688 16.933594 C 5.679688 16.0625 5.765625 15.199219 5.933594 14.347656 C 6.105469 13.496094 6.359375 12.664062 6.691406 11.863281 C 7.027344 11.058594 7.4375 10.292969 7.921875 9.570312 C 8.40625 8.847656 8.960938 8.175781 9.578125 7.5625 C 10.195312 6.945312 10.867188 6.398438 11.59375 5.914062 C 12.320312 5.429688 13.089844 5.023438 13.898438 4.691406 C 14.703125 4.355469 15.535156 4.105469 16.394531 3.9375 C 17.25 3.765625 18.117188 3.679688 18.992188 3.679688 Z M 18.992188 3.679688 "/></clipPath><linearGradient x1="0" gradientTransform="matrix(273.642292,0,0,58.89706,5.678859,3.681069)" y1="-0.0000000450761" x2="0" gradientUnits="userSpaceOnUse" y2="1" id="ffe827df29"><stop style="stop-color:#2a4c77;stop-opacity:1;" offset="0"/><stop style="stop-color:#2a4c77;stop-opacity:1;" offset="0.015625"/><stop style="stop-color:#2a4b76;stop-opacity:1;" offset="0.03125"/><stop style="stop-color:#294b75;stop-opacity:1;" offset="0.046875"/><stop style="stop-color:#294a75;stop-opacity:1;" offset="0.0625"/><stop style="stop-color:#294a74;stop-opacity:1;" offset="0.078125"/><stop style="stop-color:#294973;stop-opacity:1;" offset="0.09375"/><stop style="stop-color:#284973;stop-opacity:1;" offset="0.109375"/><stop style="stop-color:#284972;stop-opacity:1;" offset="0.125"/><stop style="stop-color:#284871;stop-opacity:1;" offset="0.140625"/><stop style="stop-color:#284871;stop-opacity:1;" offset="0.15625"/><stop style="stop-color:#274770;stop-opacity:1;" offset="0.171875"/><stop style="stop-color:#27476f;stop-opacity:1;" offset="0.1875"/><stop style="stop-color:#27466f;stop-opacity:1;" offset="0.203125"/><stop style="stop-color:#27466e;stop-opacity:1;" offset="0.21875"/><stop style="stop-color:#26456d;stop-opacity:1;" offset="0.234375"/><stop style="stop-color:#26456d;stop-opacity:1;" offset="0.25"/><stop style="stop-color:#26456c;stop-opacity:1;" offset="0.265625"/><stop style="stop-color:#26446b;stop-opacity:1;" offset="0.28125"/><stop style="stop-color:#25446b;stop-opacity:1;" offset="0.296875"/><stop style="stop-color:#25436a;stop-opacity:1;" offset="0.3125"/><stop style="stop-color:#254369;stop-opacity:1;" offset="0.328125"/><stop style="stop-color:#254269;stop-opacity:1;" offset="0.34375"/><stop style="stop-color:#244268;stop-opacity:1;" offset="0.359375"/><stop style="stop-color:#244167;stop-opacity:1;" offset="0.375"/><stop style="stop-color:#244167;stop-opacity:1;" offset="0.390625"/><stop style="stop-color:#244066;stop-opacity:1;" offset="0.40625"/><stop style="stop-color:#234065;stop-opacity:1;" offset="0.421875"/><stop style="stop-color:#234065;stop-opacity:1;" offset="0.4375"/><stop style="stop-color:#233f64;stop-opacity:1;" offset="0.453125"/><stop style="stop-color:#233f63;stop-opacity:1;" offset="0.46875"/><stop style="stop-color:#223e63;stop-opacity:1;" offset="0.484375"/><stop style="stop-color:#223e62;stop-opacity:1;" offset="0.5"/><stop style="stop-color:#223d61;stop-opacity:1;" offset="0.515625"/><stop style="stop-color:#223d60;stop-opacity:1;" offset="0.53125"/><stop style="stop-color:#213c60;stop-opacity:1;" offset="0.546875"/><stop style="stop-color:#213c5f;stop-opacity:1;" offset="0.5625"/><stop style="stop-color:#213b5e;stop-opacity:1;" offset="0.578125"/><stop style="stop-color:#213b5e;stop-opacity:1;" offset="0.59375"/><stop style="stop-color:#203b5d;stop-opacity:1;" offset="0.609375"/><stop style="stop-color:#203a5c;stop-opacity:1;" offset="0.625"/><stop style="stop-color:#203a5c;stop-opacity:1;" offset="0.640625"/><stop style="stop-color:#20395b;stop-opacity:1;" offset="0.65625"/><stop style="stop-color:#1f395a;stop-opacity:1;" offset="0.671875"/><stop style="stop-color:#1f385a;stop-opacity:1;" offset="0.6875"/><stop style="stop-color:#1f3859;stop-opacity:1;" offset="0.703125"/><stop style="stop-color:#1f3758;stop-opacity:1;" offset="0.71875"/><stop style="stop-color:#1e3758;stop-opacity:1;" offset="0.734375"/><stop style="stop-color:#1e3657;stop-opacity:1;" offset="0.75"/><stop style="stop-color:#1e3656;stop-opacity:1;" offset="0.765625"/><stop style="stop-color:#1e3656;stop-opacity:1;" offset="0.78125"/><stop style="stop-color:#1d3555;stop-opacity:1;" offset="0.796875"/><stop style="stop-color:#1d3554;stop-opacity:1;" offset="0.8125"/><stop style="stop-color:#1d3454;stop-opacity:1;" offset="0.828125"/><stop style="stop-color:#1d3453;stop-opacity:1;" offset="0.84375"/><stop style="stop-color:#1c3352;stop-opacity:1;" offset="0.859375"/><stop style="stop-color:#1c3352;stop-opacity:1;" offset="0.875"/><stop style="stop-color:#1c3251;stop-opacity:1;" offset="0.890625"/><stop style="stop-color:#1c3250;stop-opacity:1;" offset="0.90625"/><stop style="stop-color:#1b3150;stop-opacity:1;" offset="0.921875"/><stop style="stop-color:#1b314f;stop-opacity:1;" offset="0.9375"/><stop style="stop-color:#1b314e;stop-opacity:1;" offset="0.953125"/><stop style="stop-color:#1b304e;stop-opacity:1;" offset="0.96875"/><stop style="stop-color:#1a304d;stop-opacity:1;" offset="0.984375"/><stop style="stop-color:#1a2f4c;stop-opacity:1;" offset="1"/></linearGradient><clipPath id="deb08f341b"><path d="M 1.046875 0 L 283.953125 0 L 283.953125 66.257812 L 1.046875 66.257812 Z M 1.046875 0 "/></clipPath></defs><g id="bcc6fec611"><g clip-rule="nonzero" clip-path="url(#84c0ade250)"><g clip-rule="nonzero" clip-path="url(#4a4c66bb60)"><path style=" stroke:none;fill-rule:nonzero;fill:url(#ffe827df29);" d="M 5.679688 3.679688 L 5.679688 62.578125 L 279.320312 62.578125 L 279.320312 3.679688 Z M 5.679688 3.679688 "/></g></g><g clip-rule="nonzero" clip-path="url(#deb08f341b)"><path style="fill:none;stroke-width:3;stroke-linecap:butt;stroke-linejoin:miter;stroke:#6aa4e0;stroke-opacity:1;stroke-miterlimit:4;" d="M 23.001355 4.998127 L 356.998658 4.998127 C 358.181772 4.998127 359.354323 5.114857 360.511028 5.348315 C 361.673015 5.576467 362.79803 5.916043 363.886072 6.372347 C 364.979396 6.823346 366.019902 7.375156 367.00231 8.033084 C 367.984717 8.691012 368.893179 9.433833 369.727697 10.27216 C 370.562215 11.105181 371.312225 12.017791 371.967163 12.999376 C 372.622101 13.980962 373.176686 15.020912 373.630917 16.113921 C 374.079867 17.201624 374.423181 18.331773 374.655578 19.488453 C 374.882694 20.645132 374.998893 21.817729 374.998893 23.000937 L 374.998893 67.002499 C 374.998893 68.180402 374.882694 69.352998 374.655578 70.509678 C 374.423181 71.671663 374.079867 72.796507 373.630917 73.889515 C 373.176686 74.982524 372.622101 76.017168 371.967163 76.998754 C 371.312225 77.98034 370.562215 78.892949 369.727697 79.72597 C 368.893179 80.564297 367.984717 81.312425 367.00231 81.965046 C 366.019902 82.622974 364.979396 83.18009 363.886072 83.631089 C 362.79803 84.082088 361.673015 84.421663 360.511028 84.655121 C 359.354323 84.883274 358.181772 85.000003 356.998658 85.000003 L 23.001355 85.000003 C 21.818241 85.000003 20.645691 84.883274 19.488986 84.655121 C 18.326999 84.421663 17.201984 84.082088 16.113942 83.631089 C 15.020618 83.18009 13.980111 82.622974 12.997704 81.965046 C 12.015297 81.312425 11.106834 80.564297 10.272316 79.72597 C 9.437798 78.892949 8.687789 77.98034 8.032851 76.998754 C 7.377912 76.017168 6.823328 74.982524 6.369097 73.889515 C 5.920147 72.796507 5.576833 71.671663 5.344435 70.509678 C 5.11732 69.352998 5.001121 68.180402 5.001121 67.002499 L 5.001121 23.000937 C 5.001121 21.817729 5.11732 20.645132 5.344435 19.488453 C 5.576833 18.331773 5.920147 17.201624 6.369097 16.113921 C 6.823328 15.020912 7.377912 13.980962 8.032851 12.999376 C 8.687789 12.017791 9.437798 11.105181 10.272316 10.27216 C 11.106834 9.433833 12.015297 8.691012 12.997704 8.033084 C 13.980111 7.375156 15.020618 6.823346 16.113942 6.372347 C 17.201984 5.916043 18.326999 5.576467 19.488986 5.348315 C 20.645691 5.114857 21.818241 4.998127 23.001355 4.998127 Z M 23.001355 4.998127 " transform="matrix(0.739574,0,0,0.736213,1.98099,0)"/></g></g></svg>