<svg xmlns="http://www.w3.org/2000/svg" xmlns:xlink="http://www.w3.org/1999/xlink" width="900" zoomAndPan="magnify" viewBox="0 0 675 899.99999" height="1200" preserveAspectRatio="xMidYMid meet" version="1.2"><defs><clipPath id="a2cc425e43"><path d="M 0 0 L 675 0 L 675 899.25 L 0 899.25 Z M 0 0 "/></clipPath><linearGradient x1="-0.00493954" gradientTransform="matrix(884.000036,0,0,1184.000075,8,7.999987)" y1="-0.00493954" x2="1.004939" gradientUnits="userSpaceOnUse" y2="1.004939" id="1fbe75e537"><stop style="stop-color:#ffd772;stop-opacity:1;" offset="0"/><stop style="stop-color:#ffd772;stop-opacity:1;" offset="0.0078125"/><stop style="stop-color:#ffd771;stop-opacity:1;" offset="0.015625"/><stop style="stop-color:#ffd670;stop-opacity:1;" offset="0.0234375"/><stop style="stop-color:#ffd670;stop-opacity:1;" offset="0.03125"/><stop style="stop-color:#ffd56f;stop-opacity:1;" offset="0.0390625"/><stop style="stop-color:#ffd56e;stop-opacity:1;" offset="0.046875"/><stop style="stop-color:#ffd56d;stop-opacity:1;" offset="0.0546875"/><stop style="stop-color:#ffd46c;stop-opacity:1;" offset="0.0625"/><stop style="stop-color:#ffd46b;stop-opacity:1;" offset="0.0703125"/><stop style="stop-color:#ffd36a;stop-opacity:1;" offset="0.078125"/><stop style="stop-color:#ffd369;stop-opacity:1;" offset="0.0859375"/><stop style="stop-color:#ffd369;stop-opacity:1;" offset="0.09375"/><stop style="stop-color:#ffd268;stop-opacity:1;" offset="0.101563"/><stop style="stop-color:#ffd267;stop-opacity:1;" offset="0.109375"/><stop style="stop-color:#ffd166;stop-opacity:1;" offset="0.117188"/><stop style="stop-color:#ffd165;stop-opacity:1;" offset="0.125"/><stop style="stop-color:#ffd064;stop-opacity:1;" offset="0.132812"/><stop style="stop-color:#ffd063;stop-opacity:1;" offset="0.140625"/><stop style="stop-color:#ffd062;stop-opacity:1;" offset="0.148438"/><stop style="stop-color:#ffcf62;stop-opacity:1;" offset="0.15625"/><stop style="stop-color:#ffcf61;stop-opacity:1;" offset="0.164062"/><stop style="stop-color:#ffce60;stop-opacity:1;" offset="0.171875"/><stop style="stop-color:#ffce5f;stop-opacity:1;" offset="0.179687"/><stop style="stop-color:#ffce5e;stop-opacity:1;" offset="0.1875"/><stop style="stop-color:#ffcd5d;stop-opacity:1;" offset="0.195313"/><stop style="stop-color:#ffcd5c;stop-opacity:1;" offset="0.203125"/><stop style="stop-color:#ffcc5c;stop-opacity:1;" offset="0.210938"/><stop style="stop-color:#ffcc5b;stop-opacity:1;" offset="0.21875"/><stop style="stop-color:#ffcc5a;stop-opacity:1;" offset="0.226562"/><stop style="stop-color:#ffcb59;stop-opacity:1;" offset="0.234375"/><stop style="stop-color:#ffcb58;stop-opacity:1;" offset="0.242188"/><stop style="stop-color:#ffca57;stop-opacity:1;" offset="0.25"/><stop style="stop-color:#ffca56;stop-opacity:1;" offset="0.257812"/><stop style="stop-color:#ffca55;stop-opacity:1;" offset="0.265625"/><stop style="stop-color:#ffc955;stop-opacity:1;" offset="0.273437"/><stop style="stop-color:#ffc954;stop-opacity:1;" offset="0.28125"/><stop style="stop-color:#ffc853;stop-opacity:1;" offset="0.289063"/><stop style="stop-color:#ffc852;stop-opacity:1;" offset="0.296875"/><stop style="stop-color:#ffc751;stop-opacity:1;" offset="0.304688"/><stop style="stop-color:#ffc750;stop-opacity:1;" offset="0.3125"/><stop style="stop-color:#ffc74f;stop-opacity:1;" offset="0.320312"/><stop style="stop-color:#ffc64f;stop-opacity:1;" offset="0.328125"/><stop style="stop-color:#ffc64e;stop-opacity:1;" offset="0.335938"/><stop style="stop-color:#ffc54d;stop-opacity:1;" offset="0.34375"/><stop style="stop-color:#ffc54c;stop-opacity:1;" offset="0.351562"/><stop style="stop-color:#ffc54b;stop-opacity:1;" offset="0.359375"/><stop style="stop-color:#ffc44a;stop-opacity:1;" offset="0.367187"/><stop style="stop-color:#ffc449;stop-opacity:1;" offset="0.375"/><stop style="stop-color:#ffc348;stop-opacity:1;" offset="0.382813"/><stop style="stop-color:#ffc348;stop-opacity:1;" offset="0.390625"/><stop style="stop-color:#ffc347;stop-opacity:1;" offset="0.398438"/><stop style="stop-color:#ffc246;stop-opacity:1;" offset="0.40625"/><stop style="stop-color:#ffc245;stop-opacity:1;" offset="0.414062"/><stop style="stop-color:#ffc144;stop-opacity:1;" offset="0.421875"/><stop style="stop-color:#ffc143;stop-opacity:1;" offset="0.429688"/><stop style="stop-color:#ffc042;stop-opacity:1;" offset="0.4375"/><stop style="stop-color:#ffc042;stop-opacity:1;" offset="0.445312"/><stop style="stop-color:#ffc041;stop-opacity:1;" offset="0.453125"/><stop style="stop-color:#ffbf40;stop-opacity:1;" offset="0.460937"/><stop style="stop-color:#ffbf3f;stop-opacity:1;" offset="0.46875"/><stop style="stop-color:#ffbe3e;stop-opacity:1;" offset="0.476563"/><stop style="stop-color:#ffbe3d;stop-opacity:1;" offset="0.484375"/><stop style="stop-color:#ffbe3c;stop-opacity:1;" offset="0.492188"/><stop style="stop-color:#ffbd3b;stop-opacity:1;" offset="0.49929"/><stop style="stop-color:#ffbd3b;stop-opacity:1;" offset="0.5"/><stop style="stop-color:#ffbd3b;stop-opacity:1;" offset="0.50071"/><stop style="stop-color:#febc3b;stop-opacity:1;" offset="0.507812"/><stop style="stop-color:#febc3a;stop-opacity:1;" offset="0.515625"/><stop style="stop-color:#fdbb3a;stop-opacity:1;" offset="0.523438"/><stop style="stop-color:#fcba39;stop-opacity:1;" offset="0.53125"/><stop style="stop-color:#fbb939;stop-opacity:1;" offset="0.539062"/><stop style="stop-color:#fab838;stop-opacity:1;" offset="0.546875"/><stop style="stop-color:#f9b738;stop-opacity:1;" offset="0.554687"/><stop style="stop-color:#f9b737;stop-opacity:1;" offset="0.5625"/><stop style="stop-color:#f8b637;stop-opacity:1;" offset="0.570313"/><stop style="stop-color:#f7b537;stop-opacity:1;" offset="0.578125"/><stop style="stop-color:#f6b436;stop-opacity:1;" offset="0.585938"/><stop style="stop-color:#f5b336;stop-opacity:1;" offset="0.59375"/><stop style="stop-color:#f4b235;stop-opacity:1;" offset="0.601563"/><stop style="stop-color:#f3b135;stop-opacity:1;" offset="0.609375"/><stop style="stop-color:#f3b134;stop-opacity:1;" offset="0.617188"/><stop style="stop-color:#f2b034;stop-opacity:1;" offset="0.625"/><stop style="stop-color:#f1af33;stop-opacity:1;" offset="0.632812"/><stop style="stop-color:#f0ae33;stop-opacity:1;" offset="0.640625"/><stop style="stop-color:#efad32;stop-opacity:1;" offset="0.648438"/><stop style="stop-color:#eeac32;stop-opacity:1;" offset="0.65625"/><stop style="stop-color:#eeac31;stop-opacity:1;" offset="0.664062"/><stop style="stop-color:#edab31;stop-opacity:1;" offset="0.671875"/><stop style="stop-color:#ecaa30;stop-opacity:1;" offset="0.679688"/><stop style="stop-color:#eba930;stop-opacity:1;" offset="0.6875"/><stop style="stop-color:#eaa82f;stop-opacity:1;" offset="0.695312"/><stop style="stop-color:#e9a72f;stop-opacity:1;" offset="0.703125"/><stop style="stop-color:#e8a62e;stop-opacity:1;" offset="0.710937"/><stop style="stop-color:#e8a62e;stop-opacity:1;" offset="0.71875"/><stop style="stop-color:#e7a52e;stop-opacity:1;" offset="0.726562"/><stop style="stop-color:#e6a42d;stop-opacity:1;" offset="0.734375"/><stop style="stop-color:#e5a32d;stop-opacity:1;" offset="0.742187"/><stop style="stop-color:#e4a22c;stop-opacity:1;" offset="0.75"/><stop style="stop-color:#e3a12c;stop-opacity:1;" offset="0.757813"/><stop style="stop-color:#e2a02b;stop-opacity:1;" offset="0.765625"/><stop style="stop-color:#e2a02b;stop-opacity:1;" offset="0.773438"/><stop style="stop-color:#e19f2a;stop-opacity:1;" offset="0.78125"/><stop style="stop-color:#e09e2a;stop-opacity:1;" offset="0.789063"/><stop style="stop-color:#df9d29;stop-opacity:1;" offset="0.796875"/><stop style="stop-color:#de9c29;stop-opacity:1;" offset="0.804688"/><stop style="stop-color:#dd9b28;stop-opacity:1;" offset="0.8125"/><stop style="stop-color:#dc9a28;stop-opacity:1;" offset="0.820312"/><stop style="stop-color:#dc9a27;stop-opacity:1;" offset="0.828125"/><stop style="stop-color:#db9927;stop-opacity:1;" offset="0.835938"/><stop style="stop-color:#da9826;stop-opacity:1;" offset="0.84375"/><stop style="stop-color:#d99726;stop-opacity:1;" offset="0.851562"/><stop style="stop-color:#d89625;stop-opacity:1;" offset="0.859375"/><stop style="stop-color:#d79525;stop-opacity:1;" offset="0.867188"/><stop style="stop-color:#d79525;stop-opacity:1;" offset="0.875"/><stop style="stop-color:#d69424;stop-opacity:1;" offset="0.882812"/><stop style="stop-color:#d59324;stop-opacity:1;" offset="0.890625"/><stop style="stop-color:#d49223;stop-opacity:1;" offset="0.898437"/><stop style="stop-color:#d39123;stop-opacity:1;" offset="0.90625"/><stop style="stop-color:#d29022;stop-opacity:1;" offset="0.914062"/><stop style="stop-color:#d18f22;stop-opacity:1;" offset="0.921875"/><stop style="stop-color:#d18f21;stop-opacity:1;" offset="0.929687"/><stop style="stop-color:#d08e21;stop-opacity:1;" offset="0.9375"/><stop style="stop-color:#cf8d20;stop-opacity:1;" offset="0.945313"/><stop style="stop-color:#ce8c20;stop-opacity:1;" offset="0.953125"/><stop style="stop-color:#cd8b1f;stop-opacity:1;" offset="0.960938"/><stop style="stop-color:#cc8a1f;stop-opacity:1;" offset="0.96875"/><stop style="stop-color:#cb891e;stop-opacity:1;" offset="0.976562"/><stop style="stop-color:#cb891e;stop-opacity:1;" offset="0.984375"/><stop style="stop-color:#ca881d;stop-opacity:1;" offset="0.992188"/><stop style="stop-color:#c9871d;stop-opacity:1;" offset="1"/></linearGradient><filter x="0%" y="0%" width="100%" filterUnits="objectBoundingBox" id="38456e44ec" height="100%"><feColorMatrix values="0 0 0 0 1 0 0 0 0 1 0 0 0 0 1 0 0 0 1 0" type="matrix" in="SourceGraphic"/></filter><clipPath id="b78d456b1c"><path d="M 0.398438 0.480469 L 586.71875 0.480469 L 586.71875 706.558594 L 0.398438 706.558594 Z M 0.398438 0.480469 "/></clipPath><clipPath id="c7ba250b60"><rect x="0" width="587" y="0" height="707"/></clipPath></defs><g id="fd0ccdda1b"><g clip-rule="nonzero" clip-path="url(#a2cc425e43)"><path style="fill:none;stroke-width:10;stroke-linecap:butt;stroke-linejoin:miter;stroke:url(#1fbe75e537);stroke-miterlimit:4;" d="M 49.999996 8.001433 L 850.000002 8.001433 C 851.376203 8.001433 852.747191 8.069198 854.118178 8.204728 C 855.483953 8.335045 856.844515 8.538339 858.194651 8.809398 C 859.544788 9.075245 860.874072 9.408856 862.192931 9.810232 C 863.506577 10.206396 864.799372 10.670324 866.071315 11.196805 C 867.343258 11.723285 868.583923 12.312318 869.798525 12.95869 C 871.013126 13.610274 872.191237 14.313986 873.332858 15.080249 C 874.479692 15.8413 875.57961 16.659691 876.643038 17.535421 C 877.706465 18.405938 878.72819 19.328582 879.697786 20.303352 C 880.672595 21.27291 881.595275 22.294595 882.465826 23.357981 C 883.34159 24.421368 884.160012 25.521243 884.921093 26.668032 C 885.687386 27.809608 886.391125 28.987673 887.042735 30.202227 C 887.689133 31.416781 888.278188 32.657398 888.804689 33.929292 C 889.33119 35.195972 889.789924 36.493929 890.191315 37.807524 C 890.592707 39.126331 890.926332 40.455564 891.192189 41.805647 C 891.463258 43.155731 891.661348 44.51624 891.796883 45.881961 C 891.932418 47.252895 892.000185 48.62383 892.000185 49.999976 L 892.000185 1150.000046 C 892.000185 1151.376193 891.932418 1152.747127 891.796883 1154.118061 C 891.661348 1155.483783 891.463258 1156.844291 891.192189 1158.194375 C 890.926332 1159.544458 890.592707 1160.873691 890.191315 1162.192499 C 889.789924 1163.506093 889.33119 1164.80405 888.804689 1166.070731 C 888.278188 1167.342624 887.689133 1168.583241 887.042735 1169.797795 C 886.391125 1171.012349 885.687386 1172.190414 884.921093 1173.331991 C 884.160012 1174.47878 883.34159 1175.583867 882.465826 1176.642041 C 881.595275 1177.705427 880.672595 1178.727112 879.697786 1179.69667 C 878.72819 1180.671441 877.706465 1181.594084 876.643038 1182.464602 C 875.57961 1183.340331 874.479692 1184.158722 873.332858 1184.919773 C 872.191237 1185.686036 871.013126 1186.389748 869.798525 1187.041333 C 868.583923 1187.687705 867.343258 1188.276737 866.071315 1188.803218 C 864.799372 1189.329698 863.506577 1189.793626 862.192931 1190.18979 C 860.874072 1190.591166 859.544788 1190.924777 858.194651 1191.190624 C 856.844515 1191.461683 855.483953 1191.664978 854.118178 1191.795294 C 852.747191 1191.930824 851.376203 1191.998589 850.000002 1191.998589 L 49.999996 1191.998589 C 48.623795 1191.998589 47.252807 1191.930824 45.88182 1191.795294 C 44.516045 1191.664978 43.155483 1191.461683 41.805347 1191.190624 C 40.45521 1190.924777 39.125926 1190.591166 37.807067 1190.18979 C 36.493421 1189.793626 35.200626 1189.329698 33.928683 1188.803218 C 32.65674 1188.276737 31.416075 1187.687705 30.201473 1187.041333 C 28.986872 1186.389748 27.808761 1185.686036 26.66714 1184.919773 C 25.520306 1184.158722 24.420388 1183.340331 23.35696 1182.464602 C 22.293533 1181.594084 21.271808 1180.671441 20.302212 1179.69667 C 19.327403 1178.727112 18.404723 1177.705427 17.534172 1176.642041 C 16.658408 1175.583867 15.839986 1174.47878 15.078905 1173.331991 C 14.312612 1172.190414 13.608873 1171.012349 12.957263 1169.797795 C 12.310865 1168.583241 11.72181 1167.342624 11.195309 1166.070731 C 10.668808 1164.80405 10.210074 1163.506093 9.808683 1162.192499 C 9.407291 1160.873691 9.073666 1159.544458 8.807809 1158.194375 C 8.53674 1156.844291 8.33865 1155.483783 8.203115 1154.118061 C 8.06758 1152.747127 7.999813 1151.376193 7.999813 1150.000046 L 7.999813 49.999976 C 7.999813 48.62383 8.06758 47.252895 8.203115 45.881961 C 8.33865 44.51624 8.53674 43.155731 8.807809 41.805647 C 9.073666 40.455564 9.407291 39.126331 9.808683 37.807524 C 10.210074 36.493929 10.668808 35.195972 11.195309 33.929292 C 11.72181 32.657398 12.310865 31.416781 12.957263 30.202227 C 13.608873 28.987673 14.312612 27.809608 15.078905 26.668032 C 15.839986 25.521243 16.658408 24.421368 17.534172 23.357981 C 18.404723 22.294595 19.327403 21.27291 20.302212 20.303352 C 21.271808 19.328582 22.293533 18.405938 23.35696 17.535421 C 24.420388 16.659691 25.520306 15.8413 26.66714 15.080249 C 27.808761 14.313986 28.986872 13.610274 30.201473 12.95869 C 31.416075 12.312318 32.65674 11.723285 33.928683 11.196805 C 35.200626 10.670324 36.493421 10.206396 37.807067 9.810232 C 39.125926 9.408856 40.45521 9.075245 41.805347 8.809398 C 43.155483 8.538339 44.516045 8.335045 45.88182 8.204728 C 47.252807 8.069198 48.623795 8.001433 49.999996 8.001433 Z M 49.999996 8.001433 " transform="matrix(0.749346,0,0,0.749375,0.294437,0.00002)"/></g><path style=" stroke:none;fill-rule:nonzero;fill:#0f2b49;fill-opacity:1;" d="M 46.753906 20.984375 L 628.246094 20.984375 C 629.082031 20.984375 629.914062 21.023438 630.742188 21.105469 C 631.574219 21.1875 632.398438 21.308594 633.214844 21.472656 C 634.035156 21.636719 634.84375 21.835938 635.640625 22.078125 C 636.441406 22.320312 637.226562 22.601562 637.996094 22.921875 C 638.765625 23.242188 639.519531 23.597656 640.257812 23.992188 C 640.992188 24.382812 641.707031 24.8125 642.402344 25.277344 C 643.09375 25.738281 643.765625 26.238281 644.410156 26.765625 C 645.054688 27.296875 645.671875 27.855469 646.261719 28.445312 C 646.851562 29.035156 647.410156 29.652344 647.941406 30.296875 C 648.46875 30.941406 648.964844 31.613281 649.429688 32.304688 C 649.894531 33 650.320312 33.714844 650.714844 34.449219 C 651.109375 35.1875 651.464844 35.941406 651.785156 36.710938 C 652.105469 37.480469 652.382812 38.265625 652.625 39.066406 C 652.867188 39.863281 653.070312 40.671875 653.234375 41.492188 C 653.398438 42.308594 653.519531 43.132812 653.601562 43.964844 C 653.683594 44.792969 653.722656 45.625 653.722656 46.460938 L 653.722656 852.789062 C 653.722656 853.625 653.683594 854.457031 653.601562 855.285156 C 653.519531 856.117188 653.398438 856.941406 653.234375 857.757812 C 653.070312 858.578125 652.867188 859.386719 652.625 860.183594 C 652.382812 860.984375 652.105469 861.769531 651.785156 862.539062 C 651.464844 863.308594 651.109375 864.0625 650.714844 864.800781 C 650.320312 865.535156 649.894531 866.25 649.429688 866.945312 C 648.964844 867.636719 648.46875 868.308594 647.941406 868.953125 C 647.410156 869.597656 646.851562 870.214844 646.261719 870.804688 C 645.671875 871.394531 645.054688 871.953125 644.410156 872.484375 C 643.765625 873.011719 643.09375 873.511719 642.402344 873.972656 C 641.707031 874.4375 640.992188 874.867188 640.257812 875.257812 C 639.519531 875.652344 638.765625 876.007812 637.996094 876.328125 C 637.226562 876.648438 636.441406 876.929688 635.640625 877.171875 C 634.84375 877.414062 634.035156 877.613281 633.214844 877.777344 C 632.398438 877.941406 631.574219 878.0625 630.742188 878.144531 C 629.914062 878.226562 629.082031 878.265625 628.246094 878.265625 L 46.753906 878.265625 C 45.917969 878.265625 45.085938 878.226562 44.257812 878.144531 C 43.425781 878.0625 42.601562 877.941406 41.785156 877.777344 C 40.964844 877.613281 40.15625 877.414062 39.359375 877.171875 C 38.558594 876.929688 37.773438 876.648438 37.003906 876.328125 C 36.234375 876.007812 35.480469 875.652344 34.742188 875.257812 C 34.007812 874.867188 33.292969 874.4375 32.597656 873.972656 C 31.90625 873.511719 31.234375 873.011719 30.589844 872.484375 C 29.945312 871.953125 29.328125 871.394531 28.738281 870.804688 C 28.148438 870.214844 27.589844 869.597656 27.058594 868.953125 C 26.53125 868.308594 26.035156 867.636719 25.570312 866.945312 C 25.105469 866.25 24.679688 865.535156 24.285156 864.800781 C 23.890625 864.0625 23.535156 863.308594 23.214844 862.539062 C 22.894531 861.769531 22.617188 860.984375 22.375 860.183594 C 22.132812 859.386719 21.929688 858.578125 21.765625 857.757812 C 21.601562 856.941406 21.480469 856.117188 21.398438 855.285156 C 21.316406 854.457031 21.277344 853.625 21.277344 852.789062 L 21.277344 46.460938 C 21.277344 45.625 21.316406 44.792969 21.398438 43.964844 C 21.480469 43.132812 21.601562 42.308594 21.765625 41.492188 C 21.929688 40.671875 22.132812 39.863281 22.375 39.066406 C 22.617188 38.265625 22.894531 37.480469 23.214844 36.710938 C 23.535156 35.941406 23.890625 35.1875 24.285156 34.449219 C 24.679688 33.714844 25.105469 33 25.570312 32.304688 C 26.035156 31.613281 26.53125 30.941406 27.058594 30.296875 C 27.589844 29.652344 28.148438 29.035156 28.738281 28.445312 C 29.328125 27.855469 29.945312 27.296875 30.589844 26.765625 C 31.234375 26.238281 31.90625 25.738281 32.597656 25.277344 C 33.292969 24.8125 34.007812 24.382812 34.742188 23.992188 C 35.480469 23.597656 36.234375 23.242188 37.003906 22.921875 C 37.773438 22.601562 38.558594 22.320312 39.359375 22.078125 C 40.15625 21.835938 40.964844 21.636719 41.785156 21.472656 C 42.601562 21.308594 43.425781 21.1875 44.257812 21.105469 C 45.085938 21.023438 45.917969 20.984375 46.753906 20.984375 Z M 46.753906 20.984375 "/><g mask="url(#a1ce6c3bdd)" transform="matrix(1,0,0,1,44,126)"><g clip-path="url(#c7ba250b60)"><path style=" stroke:none;fill-rule:nonzero;fill:#132f52;fill-opacity:1;" d="M 19.238281 1.394531 L 567.761719 1.394531 C 568.347656 1.394531 568.9375 1.421875 569.523438 1.480469 C 570.109375 1.539062 570.691406 1.625 571.269531 1.738281 C 571.847656 1.855469 572.417969 1.996094 572.980469 2.167969 C 573.542969 2.339844 574.097656 2.539062 574.644531 2.761719 C 575.1875 2.988281 575.71875 3.238281 576.238281 3.515625 C 576.757812 3.796875 577.261719 4.097656 577.753906 4.425781 C 578.242188 4.753906 578.714844 5.101562 579.167969 5.476562 C 579.625 5.851562 580.0625 6.246094 580.476562 6.660156 C 580.894531 7.078125 581.289062 7.515625 581.664062 7.96875 C 582.035156 8.425781 582.386719 8.898438 582.714844 9.386719 C 583.042969 9.875 583.34375 10.382812 583.621094 10.902344 C 583.898438 11.421875 584.152344 11.953125 584.375 12.496094 C 584.601562 13.039062 584.800781 13.59375 584.96875 14.15625 C 585.140625 14.722656 585.285156 15.292969 585.398438 15.871094 C 585.515625 16.449219 585.601562 17.03125 585.660156 17.617188 C 585.714844 18.203125 585.746094 18.789062 585.746094 19.378906 L 585.746094 687.820312 C 585.746094 688.410156 585.714844 688.996094 585.660156 689.585938 C 585.601562 690.171875 585.515625 690.753906 585.398438 691.328125 C 585.285156 691.90625 585.140625 692.476562 584.96875 693.042969 C 584.800781 693.605469 584.601562 694.160156 584.375 694.703125 C 584.152344 695.246094 583.898438 695.78125 583.621094 696.300781 C 583.34375 696.820312 583.042969 697.324219 582.714844 697.8125 C 582.386719 698.304688 582.035156 698.773438 581.664062 699.230469 C 581.289062 699.6875 580.894531 700.121094 580.476562 700.539062 C 580.0625 700.953125 579.625 701.351562 579.167969 701.722656 C 578.714844 702.097656 578.242188 702.449219 577.753906 702.773438 C 577.261719 703.101562 576.757812 703.40625 576.238281 703.683594 C 575.71875 703.960938 575.1875 704.210938 574.644531 704.4375 C 574.097656 704.664062 573.542969 704.859375 572.980469 705.03125 C 572.417969 705.203125 571.847656 705.347656 571.269531 705.460938 C 570.691406 705.574219 570.109375 705.660156 569.523438 705.71875 C 568.9375 705.777344 568.347656 705.804688 567.761719 705.804688 L 19.238281 705.804688 C 18.652344 705.804688 18.0625 705.777344 17.476562 705.71875 C 16.890625 705.660156 16.308594 705.574219 15.730469 705.460938 C 15.152344 705.347656 14.582031 705.203125 14.019531 705.03125 C 13.457031 704.859375 12.902344 704.664062 12.355469 704.4375 C 11.8125 704.210938 11.28125 703.960938 10.761719 703.683594 C 10.242188 703.40625 9.738281 703.101562 9.246094 702.773438 C 8.757812 702.449219 8.285156 702.097656 7.832031 701.722656 C 7.375 701.351562 6.9375 700.953125 6.523438 700.539062 C 6.105469 700.121094 5.710938 699.6875 5.335938 699.230469 C 4.964844 698.773438 4.613281 698.304688 4.285156 697.8125 C 3.957031 697.324219 3.65625 696.820312 3.378906 696.300781 C 3.101562 695.78125 2.847656 695.246094 2.625 694.703125 C 2.398438 694.160156 2.199219 693.605469 2.03125 693.042969 C 1.859375 692.476562 1.714844 691.90625 1.601562 691.328125 C 1.484375 690.753906 1.398438 690.171875 1.339844 689.585938 C 1.285156 688.996094 1.253906 688.410156 1.253906 687.820312 L 1.253906 19.378906 C 1.253906 18.789062 1.285156 18.203125 1.339844 17.617188 C 1.398438 17.03125 1.484375 16.449219 1.601562 15.871094 C 1.714844 15.292969 1.859375 14.722656 2.03125 14.15625 C 2.199219 13.59375 2.398438 13.039062 2.625 12.496094 C 2.847656 11.953125 3.101562 11.421875 3.378906 10.902344 C 3.65625 10.382812 3.957031 9.875 4.285156 9.386719 C 4.613281 8.898438 4.964844 8.425781 5.335938 7.96875 C 5.710938 7.515625 6.105469 7.078125 6.523438 6.660156 C 6.9375 6.246094 7.375 5.851562 7.832031 5.476562 C 8.285156 5.101562 8.757812 4.753906 9.246094 4.425781 C 9.738281 4.097656 10.242188 3.796875 10.761719 3.515625 C 11.28125 3.238281 11.8125 2.988281 12.355469 2.761719 C 12.902344 2.539062 13.457031 2.339844 14.019531 2.167969 C 14.582031 1.996094 15.152344 1.855469 15.730469 1.738281 C 16.308594 1.625 16.890625 1.539062 17.476562 1.480469 C 18.0625 1.421875 18.652344 1.394531 19.238281 1.394531 Z M 19.238281 1.394531 "/><g clip-rule="nonzero" clip-path="url(#b78d456b1c)"><path style="fill:none;stroke-width:2;stroke-linecap:butt;stroke-linejoin:miter;stroke:#2c5a86;stroke-opacity:1;stroke-miterlimit:4;" d="M 83.998405 170.001027 L 816.001591 170.001027 C 816.783523 170.001027 817.570668 170.037515 818.3526 170.115705 C 819.134532 170.193896 819.911252 170.308575 820.682758 170.459742 C 821.454265 170.616123 822.215345 170.803779 822.966 171.033137 C 823.716655 171.262495 824.456884 171.528341 825.186687 171.825464 C 825.911278 172.127799 826.62023 172.46141 827.313543 172.83151 C 828.006856 173.206823 828.679318 173.608199 829.336141 174.046064 C 829.987751 174.483929 830.61851 174.947858 831.223204 175.448275 C 831.833111 175.948692 832.416953 176.475172 832.969519 177.027716 C 833.527297 177.585472 834.053798 178.169292 834.554235 178.773963 C 835.049458 179.383846 835.518618 180.01458 835.9565 180.666165 C 836.394382 181.31775 836.795774 181.995398 837.165888 182.688684 C 837.536003 183.38197 837.87484 184.090894 838.171974 184.815456 C 838.474321 185.540018 838.740178 186.280219 838.964332 187.030844 C 839.193699 187.786682 839.386575 188.547733 839.537749 189.31921 C 839.694135 190.090686 839.808819 190.867375 839.887012 191.649276 C 839.959992 192.431178 840.001695 193.21308 840.001695 194.000194 L 840.001695 1085.998791 C 840.001695 1086.785905 839.959992 1087.567807 839.887012 1088.354921 C 839.808819 1089.136823 839.694135 1089.913512 839.537749 1090.679775 C 839.386575 1091.451251 839.193699 1092.212302 838.964332 1092.968141 C 838.740178 1093.718766 838.474321 1094.458966 838.171974 1095.183529 C 837.87484 1095.908091 837.536003 1096.622228 837.165888 1097.315514 C 836.795774 1098.0088 836.394382 1098.681235 835.9565 1099.33282 C 835.518618 1099.989617 835.049458 1100.615139 834.554235 1101.225022 C 834.053798 1101.834905 833.527297 1102.413512 832.969519 1102.971269 C 832.416953 1103.523813 831.833111 1104.055506 831.223204 1104.55071 C 830.61851 1105.051127 829.987751 1105.520268 829.336141 1105.95292 C 828.679318 1106.390785 828.006856 1106.797374 827.313543 1107.167474 C 826.62023 1107.537574 825.911278 1107.871186 825.186687 1108.173521 C 824.456884 1108.475856 823.716655 1108.73649 822.966 1108.965848 C 822.215345 1109.195206 821.454265 1109.388075 820.682758 1109.539243 C 819.911252 1109.69041 819.134532 1109.805089 818.3526 1109.883279 C 817.570668 1109.961469 816.783523 1109.997958 816.001591 1109.997958 L 83.998405 1109.997958 C 83.216473 1109.997958 82.429328 1109.961469 81.647396 1109.883279 C 80.865463 1109.805089 80.088744 1109.69041 79.317238 1109.539243 C 78.545731 1109.388075 77.784651 1109.195206 77.033996 1108.965848 C 76.283341 1108.73649 75.543112 1108.475856 74.813308 1108.173521 C 74.088718 1107.871186 73.379766 1107.537574 72.686453 1107.167474 C 71.99314 1106.797374 71.320678 1106.390785 70.663855 1105.95292 C 70.012245 1105.520268 69.381486 1105.051127 68.776792 1104.55071 C 68.166885 1104.055506 67.583042 1103.523813 67.030477 1102.971269 C 66.472699 1102.413512 65.946198 1101.834905 65.445761 1101.225022 C 64.950537 1100.615139 64.481378 1099.989617 64.043496 1099.33282 C 63.605614 1098.681235 63.204222 1098.0088 62.834108 1097.315514 C 62.463993 1096.622228 62.125156 1095.908091 61.828022 1095.183529 C 61.525675 1094.458966 61.259818 1093.718766 61.035664 1092.968141 C 60.806297 1092.212302 60.61342 1091.451251 60.462247 1090.679775 C 60.30586 1089.913512 60.191177 1089.136823 60.112984 1088.354921 C 60.040004 1087.567807 59.9983 1086.785905 59.9983 1085.998791 L 59.9983 194.000194 C 59.9983 193.21308 60.040004 192.431178 60.112984 191.649276 C 60.191177 190.867375 60.30586 190.090686 60.462247 189.31921 C 60.61342 188.547733 60.806297 187.786682 61.035664 187.030844 C 61.259818 186.280219 61.525675 185.540018 61.828022 184.815456 C 62.125156 184.090894 62.463993 183.38197 62.834108 182.688684 C 63.204222 181.995398 63.605614 181.31775 64.043496 180.666165 C 64.481378 180.01458 64.950537 179.383846 65.445761 178.773963 C 65.946198 178.169292 66.472699 177.585472 67.030477 177.027716 C 67.583042 176.475172 68.166885 175.948692 68.776792 175.448275 C 69.381486 174.947858 70.012245 174.483929 70.663855 174.046064 C 71.320678 173.608199 71.99314 173.206823 72.686453 172.83151 C 73.379766 172.46141 74.088718 172.127799 74.813308 171.825464 C 75.543112 171.528341 76.283341 171.262495 77.033996 171.033137 C 77.784651 170.803779 78.545731 170.616123 79.317238 170.459742 C 80.088744 170.308575 80.865463 170.193896 81.647396 170.115705 C 82.429328 170.037515 83.216473 170.001027 83.998405 170.001027 Z M 83.998405 170.001027 " transform="matrix(0.749346,0,0,0.749375,-43.705562,-125.99998)"/></g></g><mask id="a1ce6c3bdd"><g filter="url(#38456e44ec)"><rect x="0" width="675" y="0" height="899.99999" style="fill:#000000;fill-opacity:0.9;stroke:none;"/></g></mask></g></g></svg>