<svg xmlns="http://www.w3.org/2000/svg" xmlns:xlink="http://www.w3.org/1999/xlink" width="180" zoomAndPan="magnify" viewBox="0 0 135 135.000003" height="180" preserveAspectRatio="xMidYMid meet" version="1.2"><defs><clipPath id="927174086b"><path d="M 4 4 L 131 4 L 131 130 L 4 130 Z M 4 4 "/></clipPath><clipPath id="bdd9de5766"><path d="M 21.34375 4.46875 L 113.65625 4.46875 C 114.195312 4.46875 114.730469 4.492188 115.261719 4.546875 C 115.796875 4.597656 116.328125 4.675781 116.851562 4.78125 C 117.378906 4.886719 117.898438 5.015625 118.414062 5.171875 C 118.925781 5.328125 119.429688 5.507812 119.925781 5.714844 C 120.421875 5.917969 120.90625 6.148438 121.378906 6.402344 C 121.851562 6.652344 122.3125 6.929688 122.757812 7.226562 C 123.203125 7.523438 123.632812 7.84375 124.046875 8.183594 C 124.464844 8.523438 124.859375 8.886719 125.238281 9.265625 C 125.617188 9.644531 125.980469 10.039062 126.320312 10.453125 C 126.660156 10.871094 126.976562 11.300781 127.277344 11.746094 C 127.574219 12.191406 127.851562 12.652344 128.101562 13.125 C 128.355469 13.597656 128.585938 14.082031 128.789062 14.578125 C 128.996094 15.074219 129.175781 15.578125 129.332031 16.089844 C 129.488281 16.605469 129.617188 17.125 129.722656 17.648438 C 129.828125 18.175781 129.90625 18.707031 129.957031 19.238281 C 130.011719 19.773438 130.035156 20.308594 130.035156 20.84375 L 130.035156 113.160156 C 130.035156 113.699219 130.011719 114.234375 129.957031 114.765625 C 129.90625 115.300781 129.828125 115.832031 129.722656 116.355469 C 129.617188 116.882812 129.488281 117.402344 129.332031 117.917969 C 129.175781 118.429688 128.996094 118.933594 128.789062 119.429688 C 128.585938 119.925781 128.355469 120.410156 128.101562 120.882812 C 127.851562 121.355469 127.574219 121.816406 127.277344 122.261719 C 126.976562 122.707031 126.660156 123.136719 126.320312 123.550781 C 125.980469 123.96875 125.617188 124.363281 125.238281 124.742188 C 124.859375 125.121094 124.464844 125.480469 124.046875 125.824219 C 123.632812 126.164062 123.203125 126.480469 122.757812 126.78125 C 122.3125 127.078125 121.851562 127.355469 121.378906 127.605469 C 120.90625 127.859375 120.421875 128.089844 119.925781 128.292969 C 119.429688 128.5 118.925781 128.679688 118.414062 128.835938 C 117.898438 128.992188 117.378906 129.121094 116.851562 129.226562 C 116.328125 129.332031 115.796875 129.410156 115.261719 129.460938 C 114.730469 129.515625 114.195312 129.539062 113.65625 129.539062 L 21.34375 129.539062 C 20.804688 129.539062 20.269531 129.515625 19.738281 129.460938 C 19.203125 129.410156 18.671875 129.332031 18.148438 129.226562 C 17.621094 129.121094 17.101562 128.992188 16.585938 128.835938 C 16.074219 128.679688 15.570312 128.5 15.074219 128.292969 C 14.578125 128.089844 14.09375 127.859375 13.621094 127.605469 C 13.148438 127.355469 12.6875 127.078125 12.242188 126.78125 C 11.796875 126.480469 11.367188 126.164062 10.953125 125.824219 C 10.535156 125.480469 10.140625 125.121094 9.761719 124.742188 C 9.382812 124.363281 9.019531 123.96875 8.679688 123.550781 C 8.339844 123.136719 8.023438 122.707031 7.722656 122.261719 C 7.425781 121.816406 7.148438 121.355469 6.898438 120.882812 C 6.644531 120.410156 6.414062 119.925781 6.210938 119.429688 C 6.003906 118.933594 5.824219 118.429688 5.667969 117.917969 C 5.511719 117.402344 5.382812 116.882812 5.277344 116.355469 C 5.171875 115.832031 5.09375 115.300781 5.042969 114.765625 C 4.988281 114.234375 4.964844 113.699219 4.964844 113.160156 L 4.964844 20.84375 C 4.964844 20.308594 4.988281 19.773438 5.042969 19.238281 C 5.09375 18.707031 5.171875 18.175781 5.277344 17.648438 C 5.382812 17.125 5.511719 16.605469 5.667969 16.089844 C 5.824219 15.578125 6.003906 15.074219 6.210938 14.578125 C 6.414062 14.082031 6.644531 13.597656 6.898438 13.125 C 7.148438 12.652344 7.425781 12.191406 7.722656 11.746094 C 8.023438 11.300781 8.339844 10.871094 8.679688 10.453125 C 9.019531 10.039062 9.382812 9.644531 9.761719 9.265625 C 10.140625 8.886719 10.535156 8.523438 10.953125 8.183594 C 11.367188 7.84375 11.796875 7.523438 12.242188 7.226562 C 12.6875 6.929688 13.148438 6.652344 13.621094 6.402344 C 14.09375 6.148438 14.578125 5.917969 15.074219 5.714844 C 15.570312 5.507812 16.074219 5.328125 16.585938 5.171875 C 17.101562 5.015625 17.621094 4.886719 18.148438 4.78125 C 18.671875 4.675781 19.203125 4.597656 19.738281 4.546875 C 20.269531 4.492188 20.804688 4.46875 21.34375 4.46875 Z M 21.34375 4.46875 "/></clipPath><radialGradient gradientTransform="matrix(1,0,0,1,4.963234,4.466919)" id="51cc905a6b" gradientUnits="userSpaceOnUse" r="93.805149" cx="62.536766" fx="62.536766" cy="43.775735" fy="43.775735"><stop style="stop-color:#234f84;stop-opacity:1;" offset="0"/><stop style="stop-color:#234e83;stop-opacity:1;" offset="0.015625"/><stop style="stop-color:#234e82;stop-opacity:1;" offset="0.0273438"/><stop style="stop-color:#224d81;stop-opacity:1;" offset="0.0390625"/><stop style="stop-color:#224d81;stop-opacity:1;" offset="0.0507812"/><stop style="stop-color:#224d80;stop-opacity:1;" offset="0.0625"/><stop style="stop-color:#224c7f;stop-opacity:1;" offset="0.0742188"/><stop style="stop-color:#224c7f;stop-opacity:1;" offset="0.0859375"/><stop style="stop-color:#224b7e;stop-opacity:1;" offset="0.0976562"/><stop style="stop-color:#224b7d;stop-opacity:1;" offset="0.109375"/><stop style="stop-color:#214b7d;stop-opacity:1;" offset="0.121094"/><stop style="stop-color:#214a7c;stop-opacity:1;" offset="0.132812"/><stop style="stop-color:#214a7b;stop-opacity:1;" offset="0.144531"/><stop style="stop-color:#21497b;stop-opacity:1;" offset="0.15625"/><stop style="stop-color:#21497a;stop-opacity:1;" offset="0.167969"/><stop style="stop-color:#214979;stop-opacity:1;" offset="0.179688"/><stop style="stop-color:#214879;stop-opacity:1;" offset="0.191406"/><stop style="stop-color:#204878;stop-opacity:1;" offset="0.203125"/><stop style="stop-color:#204777;stop-opacity:1;" offset="0.214844"/><stop style="stop-color:#204777;stop-opacity:1;" offset="0.226562"/><stop style="stop-color:#204776;stop-opacity:1;" offset="0.238281"/><stop style="stop-color:#204675;stop-opacity:1;" offset="0.25"/><stop style="stop-color:#204675;stop-opacity:1;" offset="0.261719"/><stop style="stop-color:#204674;stop-opacity:1;" offset="0.269531"/><stop style="stop-color:#204574;stop-opacity:1;" offset="0.277344"/><stop style="stop-color:#204573;stop-opacity:1;" offset="0.285156"/><stop style="stop-color:#1f4573;stop-opacity:1;" offset="0.292969"/><stop style="stop-color:#1f4572;stop-opacity:1;" offset="0.300781"/><stop style="stop-color:#1f4472;stop-opacity:1;" offset="0.308594"/><stop style="stop-color:#1f4471;stop-opacity:1;" offset="0.316406"/><stop style="stop-color:#1f4471;stop-opacity:1;" offset="0.324219"/><stop style="stop-color:#1f4471;stop-opacity:1;" offset="0.332031"/><stop style="stop-color:#1f4370;stop-opacity:1;" offset="0.339844"/><stop style="stop-color:#1f4370;stop-opacity:1;" offset="0.347656"/><stop style="stop-color:#1f436f;stop-opacity:1;" offset="0.355469"/><stop style="stop-color:#1f436f;stop-opacity:1;" offset="0.363281"/><stop style="stop-color:#1f426e;stop-opacity:1;" offset="0.371094"/><stop style="stop-color:#1e426e;stop-opacity:1;" offset="0.378906"/><stop style="stop-color:#1e416d;stop-opacity:1;" offset="0.394531"/><stop style="stop-color:#1e416c;stop-opacity:1;" offset="0.410156"/><stop style="stop-color:#1e406b;stop-opacity:1;" offset="0.425781"/><stop style="stop-color:#1e406a;stop-opacity:1;" offset="0.441406"/><stop style="stop-color:#1d3f69;stop-opacity:1;" offset="0.457031"/><stop style="stop-color:#1d3f68;stop-opacity:1;" offset="0.472656"/><stop style="stop-color:#1d3e67;stop-opacity:1;" offset="0.488281"/><stop style="stop-color:#1d3e66;stop-opacity:1;" offset="0.503906"/><stop style="stop-color:#1d3d66;stop-opacity:1;" offset="0.515625"/><stop style="stop-color:#1d3d65;stop-opacity:1;" offset="0.527344"/><stop style="stop-color:#1c3c64;stop-opacity:1;" offset="0.539062"/><stop style="stop-color:#1c3c64;stop-opacity:1;" offset="0.550781"/><stop style="stop-color:#1c3c63;stop-opacity:1;" offset="0.5625"/><stop style="stop-color:#1c3b62;stop-opacity:1;" offset="0.574219"/><stop style="stop-color:#1c3b62;stop-opacity:1;" offset="0.585938"/><stop style="stop-color:#1c3a61;stop-opacity:1;" offset="0.597656"/><stop style="stop-color:#1c3a60;stop-opacity:1;" offset="0.609375"/><stop style="stop-color:#1b3a60;stop-opacity:1;" offset="0.621094"/><stop style="stop-color:#1b395f;stop-opacity:1;" offset="0.632812"/><stop style="stop-color:#1b395f;stop-opacity:1;" offset="0.640625"/><stop style="stop-color:#1b395e;stop-opacity:1;" offset="0.648438"/><stop style="stop-color:#1b395e;stop-opacity:1;" offset="0.65625"/><stop style="stop-color:#1b385d;stop-opacity:1;" offset="0.664062"/><stop style="stop-color:#1b385d;stop-opacity:1;" offset="0.671875"/><stop style="stop-color:#1b385c;stop-opacity:1;" offset="0.679688"/><stop style="stop-color:#1b375c;stop-opacity:1;" offset="0.6875"/><stop style="stop-color:#1b375b;stop-opacity:1;" offset="0.695312"/><stop style="stop-color:#1a375a;stop-opacity:1;" offset="0.710938"/><stop style="stop-color:#1a3659;stop-opacity:1;" offset="0.726562"/><stop style="stop-color:#1a3658;stop-opacity:1;" offset="0.742188"/><stop style="stop-color:#1a3558;stop-opacity:1;" offset="0.757812"/><stop style="stop-color:#1a3557;stop-opacity:1;" offset="0.769531"/><stop style="stop-color:#1a3456;stop-opacity:1;" offset="0.78125"/><stop style="stop-color:#193456;stop-opacity:1;" offset="0.792969"/><stop style="stop-color:#193355;stop-opacity:1;" offset="0.804688"/><stop style="stop-color:#193354;stop-opacity:1;" offset="0.816406"/><stop style="stop-color:#193354;stop-opacity:1;" offset="0.824219"/><stop style="stop-color:#193354;stop-opacity:1;" offset="0.832031"/><stop style="stop-color:#193253;stop-opacity:1;" offset="0.839844"/><stop style="stop-color:#193252;stop-opacity:1;" offset="0.847656"/><stop style="stop-color:#193151;stop-opacity:1;" offset="0.863281"/><stop style="stop-color:#183151;stop-opacity:1;" offset="0.878906"/><stop style="stop-color:#183150;stop-opacity:1;" offset="0.890625"/><stop style="stop-color:#18304f;stop-opacity:1;" offset="0.902344"/><stop style="stop-color:#18304f;stop-opacity:1;" offset="0.914062"/><stop style="stop-color:#18304e;stop-opacity:1;" offset="0.921875"/><stop style="stop-color:#182f4e;stop-opacity:1;" offset="0.929688"/><stop style="stop-color:#182f4d;stop-opacity:1;" offset="0.945312"/><stop style="stop-color:#172e4c;stop-opacity:1;" offset="0.957031"/><stop style="stop-color:#172e4c;stop-opacity:1;" offset="0.964844"/><stop style="stop-color:#172e4b;stop-opacity:1;" offset="0.980469"/><stop style="stop-color:#172d4a;stop-opacity:1;" offset="0.988281"/><stop style="stop-color:#172d4a;stop-opacity:1;" offset="1"/></radialGradient><clipPath id="c975266929"><path d="M 0.496094 0 L 134.503906 0 L 134.503906 134.007812 L 0.496094 134.007812 Z M 0.496094 0 "/></clipPath></defs><g id="d584e01481"><g clip-rule="nonzero" clip-path="url(#927174086b)"><g clip-rule="nonzero" clip-path="url(#bdd9de5766)"><path style=" stroke:none;fill-rule:nonzero;fill:url(#51cc905a6b);" d="M 4.964844 4.46875 L 4.964844 129.539062 L 130.035156 129.539062 L 130.035156 4.46875 Z M 4.964844 4.46875 "/></g></g><g clip-rule="nonzero" clip-path="url(#c975266929)"><path style="fill:none;stroke-width:4;stroke-linecap:butt;stroke-linejoin:miter;stroke:#3b6aa2;stroke-opacity:1;stroke-miterlimit:4;" d="M 28.002472 6.00246 L 151.997536 6.00246 C 152.72161 6.00246 153.440437 6.033941 154.154017 6.107398 C 154.872845 6.175608 155.586425 6.280546 156.289511 6.422213 C 156.997845 6.56388 157.695684 6.737028 158.388277 6.946904 C 159.075622 7.156781 159.752474 7.398139 160.418832 7.676225 C 161.08519 7.949065 161.735808 8.258633 162.370684 8.599682 C 163.005561 8.935485 163.624697 9.308016 164.222845 9.706781 C 164.820993 10.105546 165.398153 10.535793 165.954326 10.992275 C 166.515746 11.448756 167.045684 11.936719 167.554635 12.44567 C 168.063586 12.954621 168.551548 13.484559 169.00803 14.040732 C 169.464511 14.602151 169.889511 15.179312 170.293524 15.77746 C 170.692289 16.375608 171.06482 16.994744 171.400623 17.629621 C 171.741672 18.264497 172.05124 18.915114 172.324079 19.581473 C 172.602166 20.247831 172.843524 20.924682 173.0534 21.612028 C 173.263277 22.304621 173.436425 23.00246 173.578092 23.705547 C 173.719758 24.41388 173.824697 25.12746 173.892907 25.841041 C 173.966363 26.559868 173.997845 27.278695 173.997845 27.997522 L 173.997845 151.997833 C 173.997845 152.721907 173.966363 153.440734 173.892907 154.154315 C 173.824697 154.873142 173.719758 155.586722 173.578092 156.289809 C 173.436425 156.998142 173.263277 157.695981 173.0534 158.388574 C 172.843524 159.07592 172.602166 159.752772 172.324079 160.41913 C 172.05124 161.085488 171.741672 161.736105 171.400623 162.370981 C 171.06482 163.005858 170.692289 163.624994 170.293524 164.223142 C 169.889511 164.82129 169.464511 165.398451 169.00803 165.954624 C 168.551548 166.516043 168.063586 167.045982 167.554635 167.554932 C 167.045684 168.063883 166.515746 168.546599 165.954326 169.008327 C 165.398153 169.464809 164.820993 169.889809 164.222845 170.293821 C 163.624697 170.692587 163.005561 171.065117 162.370684 171.40092 C 161.735808 171.741969 161.08519 172.051537 160.418832 172.324377 C 159.752474 172.602463 159.075622 172.843821 158.388277 173.053698 C 157.695684 173.263574 156.997845 173.436722 156.289511 173.578389 C 155.586425 173.720056 154.872845 173.824994 154.154017 173.893204 C 153.440437 173.966661 152.72161 173.998142 151.997536 173.998142 L 28.002472 173.998142 C 27.278398 173.998142 26.55957 173.966661 25.84599 173.893204 C 25.127163 173.824994 24.413583 173.720056 23.710496 173.578389 C 23.002163 173.436722 22.304323 173.263574 21.611731 173.053698 C 20.924385 172.843821 20.247533 172.602463 19.581175 172.324377 C 18.914817 172.051537 18.2642 171.741969 17.629323 171.40092 C 16.994447 171.065117 16.375311 170.692587 15.777163 170.293821 C 15.179015 169.889809 14.601854 169.464809 14.045681 169.008327 C 13.484262 168.546599 12.954323 168.063883 12.445373 167.554932 C 11.936422 167.045982 11.448459 166.516043 10.991978 165.954624 C 10.535496 165.398451 10.110496 164.82129 9.706484 164.223142 C 9.307718 163.624994 8.935187 163.005858 8.599385 162.370981 C 8.258335 161.736105 7.948768 161.085488 7.675928 160.41913 C 7.397842 159.752772 7.156484 159.07592 6.946607 158.388574 C 6.736731 157.695981 6.563582 156.998142 6.421916 156.289809 C 6.280249 155.586722 6.175311 154.873142 6.107101 154.154315 C 6.033644 153.440734 6.002163 152.721907 6.002163 151.997833 L 6.002163 27.997522 C 6.002163 27.278695 6.033644 26.559868 6.107101 25.841041 C 6.175311 25.12746 6.280249 24.41388 6.421916 23.705547 C 6.563582 23.00246 6.736731 22.304621 6.946607 21.612028 C 7.156484 20.924682 7.397842 20.247831 7.675928 19.581473 C 7.948768 18.915114 8.258335 18.264497 8.599385 17.629621 C 8.935187 16.994744 9.307718 16.375608 9.706484 15.77746 C 10.110496 15.179312 10.535496 14.602151 10.991978 14.040732 C 11.448459 13.484559 11.936422 12.954621 12.445373 12.44567 C 12.954323 11.936719 13.484262 11.448756 14.045681 10.992275 C 14.601854 10.535793 15.179015 10.105546 15.777163 9.706781 C 16.375311 9.308016 16.994447 8.935485 17.629323 8.599682 C 18.2642 8.258633 18.914817 7.949065 19.581175 7.676225 C 20.247533 7.398139 20.924385 7.156781 21.611731 6.946904 C 22.304323 6.737028 23.002163 6.56388 23.710496 6.422213 C 24.413583 6.280546 25.127163 6.175608 25.84599 6.107398 C 26.55957 6.033941 27.278398 6.00246 28.002472 6.00246 Z M 28.002472 6.00246 " transform="matrix(0.744485,0,0,0.744485,0.496322,0.00000694853)"/></g></g></svg>