<svg xmlns="http://www.w3.org/2000/svg" xmlns:xlink="http://www.w3.org/1999/xlink" width="880" zoomAndPan="magnify" viewBox="0 0 660 419.999985" height="560" preserveAspectRatio="xMidYMid meet" version="1.0"><defs><clipPath id="652be16f6a"><path d="M 7 7 L 653 7 L 653 413 L 7 413 Z M 7 7 " clip-rule="nonzero"/></clipPath><clipPath id="c8344b7c45"><path d="M 165 7.601562 L 495 7.601562 C 497.578125 7.601562 500.152344 7.664062 502.726562 7.789062 C 505.300781 7.917969 507.871094 8.105469 510.4375 8.359375 C 513.003906 8.609375 515.558594 8.925781 518.109375 9.304688 C 520.660156 9.683594 523.199219 10.121094 525.726562 10.625 C 528.253906 11.128906 530.769531 11.691406 533.269531 12.320312 C 535.769531 12.945312 538.253906 13.632812 540.71875 14.378906 C 543.1875 15.128906 545.632812 15.933594 548.058594 16.804688 C 550.488281 17.671875 552.890625 18.597656 555.273438 19.582031 C 557.652344 20.570312 560.007812 21.613281 562.339844 22.714844 C 564.671875 23.816406 566.972656 24.972656 569.246094 26.1875 C 571.519531 27.402344 573.761719 28.671875 575.972656 29.996094 C 578.183594 31.320312 580.359375 32.699219 582.503906 34.132812 C 584.644531 35.5625 586.753906 37.046875 588.824219 38.578125 C 590.894531 40.113281 592.925781 41.699219 594.917969 43.332031 C 596.910156 44.96875 598.859375 46.652344 600.769531 48.378906 C 602.679688 50.109375 604.546875 51.886719 606.371094 53.707031 C 608.191406 55.53125 609.96875 57.394531 611.699219 59.304688 C 613.429688 61.214844 615.113281 63.164062 616.75 65.15625 C 618.382812 67.148438 619.96875 69.175781 621.503906 71.246094 C 623.039062 73.316406 624.523438 75.421875 625.957031 77.5625 C 627.386719 79.707031 628.765625 81.882812 630.09375 84.089844 C 631.417969 86.300781 632.6875 88.542969 633.902344 90.8125 C 635.117188 93.085938 636.277344 95.386719 637.378906 97.714844 C 638.480469 100.042969 639.523438 102.398438 640.511719 104.78125 C 641.496094 107.160156 642.425781 109.5625 643.292969 111.988281 C 644.160156 114.414062 644.96875 116.859375 645.71875 119.324219 C 646.464844 121.789062 647.152344 124.273438 647.78125 126.773438 C 648.40625 129.269531 648.96875 131.785156 649.472656 134.3125 C 649.976562 136.835938 650.417969 139.375 650.796875 141.921875 C 651.171875 144.472656 651.488281 147.027344 651.742188 149.59375 C 651.996094 152.15625 652.183594 154.726562 652.308594 157.296875 C 652.4375 159.871094 652.5 162.445312 652.5 165.023438 L 652.5 254.976562 C 652.5 257.554688 652.4375 260.128906 652.308594 262.703125 C 652.183594 265.273438 651.996094 267.84375 651.742188 270.40625 C 651.488281 272.972656 651.171875 275.527344 650.796875 278.074219 C 650.417969 280.625 649.976562 283.164062 649.472656 285.6875 C 648.96875 288.214844 648.40625 290.730469 647.78125 293.226562 C 647.152344 295.726562 646.464844 298.210938 645.71875 300.675781 C 644.96875 303.140625 644.160156 305.585938 643.292969 308.011719 C 642.425781 310.4375 641.496094 312.839844 640.511719 315.21875 C 639.523438 317.601562 638.480469 319.953125 637.378906 322.285156 C 636.277344 324.613281 635.117188 326.914062 633.902344 329.1875 C 632.6875 331.457031 631.417969 333.699219 630.09375 335.910156 C 628.765625 338.117188 627.386719 340.292969 625.957031 342.4375 C 624.523438 344.578125 623.039062 346.683594 621.503906 348.753906 C 619.96875 350.824219 618.382812 352.851562 616.75 354.84375 C 615.113281 356.835938 613.429688 358.785156 611.699219 360.695312 C 609.96875 362.605469 608.191406 364.46875 606.371094 366.292969 C 604.546875 368.113281 602.679688 369.890625 600.769531 371.621094 C 598.859375 373.347656 596.910156 375.03125 594.917969 376.667969 C 592.925781 378.300781 590.894531 379.886719 588.824219 381.417969 C 586.753906 382.953125 584.644531 384.4375 582.503906 385.867188 C 580.359375 387.300781 578.183594 388.679688 575.972656 390.003906 C 573.761719 391.328125 571.519531 392.597656 569.246094 393.8125 C 566.972656 395.027344 564.671875 396.183594 562.339844 397.285156 C 560.007812 398.386719 557.652344 399.429688 555.273438 400.417969 C 552.890625 401.402344 550.488281 402.328125 548.058594 403.195312 C 545.632812 404.066406 543.1875 404.871094 540.71875 405.621094 C 538.253906 406.367188 535.769531 407.054688 533.269531 407.679688 C 530.769531 408.308594 528.253906 408.871094 525.726562 409.375 C 523.199219 409.878906 520.660156 410.316406 518.109375 410.695312 C 515.558594 411.074219 513.003906 411.390625 510.4375 411.640625 C 507.871094 411.894531 505.300781 412.082031 502.726562 412.210938 C 500.152344 412.335938 497.578125 412.398438 495 412.398438 L 165 412.398438 C 162.421875 412.398438 159.847656 412.335938 157.273438 412.210938 C 154.699219 412.082031 152.128906 411.894531 149.5625 411.640625 C 146.996094 411.390625 144.441406 411.074219 141.890625 410.695312 C 139.339844 410.316406 136.800781 409.878906 134.273438 409.375 C 131.746094 408.871094 129.230469 408.308594 126.730469 407.679688 C 124.230469 407.054688 121.746094 406.367188 119.28125 405.621094 C 116.8125 404.871094 114.367188 404.066406 111.941406 403.195312 C 109.511719 402.328125 107.109375 401.402344 104.726562 400.417969 C 102.347656 399.429688 99.988281 398.386719 97.660156 397.285156 C 95.328125 396.183594 93.027344 395.027344 90.753906 393.8125 C 88.480469 392.597656 86.238281 391.328125 84.027344 390.003906 C 81.816406 388.679688 79.640625 387.300781 77.496094 385.867188 C 75.355469 384.4375 73.246094 382.953125 71.175781 381.417969 C 69.105469 379.886719 67.074219 378.300781 65.082031 376.667969 C 63.089844 375.03125 61.140625 373.347656 59.230469 371.621094 C 57.320312 369.890625 55.453125 368.113281 53.628906 366.292969 C 51.808594 364.46875 50.03125 362.605469 48.300781 360.695312 C 46.570312 358.785156 44.886719 356.835938 43.25 354.84375 C 41.617188 352.851562 40.03125 350.824219 38.496094 348.753906 C 36.960938 346.683594 35.476562 344.578125 34.042969 342.4375 C 32.613281 340.292969 31.234375 338.117188 29.90625 335.910156 C 28.582031 333.699219 27.3125 331.457031 26.097656 329.1875 C 24.882812 326.914062 23.722656 324.613281 22.621094 322.285156 C 21.519531 319.953125 20.476562 317.601562 19.488281 315.21875 C 18.503906 312.839844 17.574219 310.4375 16.707031 308.011719 C 15.839844 305.585938 15.03125 303.140625 14.28125 300.675781 C 13.535156 298.210938 12.847656 295.726562 12.21875 293.226562 C 11.59375 290.730469 11.027344 288.214844 10.527344 285.6875 C 10.023438 283.164062 9.582031 280.625 9.203125 278.074219 C 8.828125 275.527344 8.511719 272.972656 8.257812 270.40625 C 8.003906 267.84375 7.816406 265.273438 7.691406 262.703125 C 7.5625 260.128906 7.5 257.554688 7.5 254.976562 L 7.5 165.023438 C 7.5 162.445312 7.5625 159.871094 7.691406 157.296875 C 7.816406 154.726562 8.003906 152.15625 8.257812 149.59375 C 8.511719 147.027344 8.828125 144.472656 9.203125 141.921875 C 9.582031 139.375 10.023438 136.835938 10.527344 134.3125 C 11.027344 131.785156 11.59375 129.269531 12.21875 126.773438 C 12.847656 124.273438 13.535156 121.789062 14.28125 119.324219 C 15.03125 116.859375 15.839844 114.414062 16.707031 111.988281 C 17.574219 109.5625 18.503906 107.160156 19.488281 104.78125 C 20.476562 102.398438 21.519531 100.042969 22.621094 97.714844 C 23.722656 95.386719 24.882812 93.085938 26.097656 90.8125 C 27.3125 88.542969 28.582031 86.300781 29.90625 84.089844 C 31.234375 81.882812 32.613281 79.707031 34.042969 77.5625 C 35.476562 75.421875 36.960938 73.316406 38.496094 71.246094 C 40.03125 69.175781 41.617188 67.148438 43.25 65.15625 C 44.886719 63.164062 46.570312 61.214844 48.300781 59.304688 C 50.03125 57.394531 51.808594 55.53125 53.628906 53.707031 C 55.453125 51.886719 57.320312 50.109375 59.230469 48.378906 C 61.140625 46.652344 63.089844 44.96875 65.082031 43.332031 C 67.074219 41.699219 69.105469 40.113281 71.175781 38.578125 C 73.246094 37.046875 75.355469 35.5625 77.496094 34.132812 C 79.640625 32.699219 81.816406 31.320312 84.027344 29.996094 C 86.238281 28.671875 88.480469 27.402344 90.753906 26.1875 C 93.027344 24.972656 95.328125 23.816406 97.660156 22.714844 C 99.988281 21.613281 102.347656 20.570312 104.726562 19.582031 C 107.109375 18.597656 109.511719 17.671875 111.941406 16.804688 C 114.367188 15.933594 116.8125 15.128906 119.28125 14.378906 C 121.746094 13.632812 124.230469 12.945312 126.730469 12.320312 C 129.230469 11.691406 131.746094 11.128906 134.273438 10.625 C 136.800781 10.121094 139.339844 9.683594 141.890625 9.304688 C 144.441406 8.925781 146.996094 8.609375 149.5625 8.359375 C 152.128906 8.105469 154.699219 7.917969 157.273438 7.789062 C 159.847656 7.664062 162.421875 7.601562 165 7.601562 Z M 165 7.601562 " clip-rule="nonzero"/></clipPath><linearGradient x1="0.0000000055738" gradientTransform="matrix(644.999917, 0, 0, 404.798635, 7.500011, 7.60067)" y1="0.0000000055738" x2="1" gradientUnits="userSpaceOnUse" y2="1" id="ac7f137bf1"><stop stop-opacity="1" stop-color="rgb(5.488586%, 16.859436%, 27.449036%)" offset="0"/><stop stop-opacity="1" stop-color="rgb(5.451965%, 16.760254%, 27.301025%)" offset="0.03125"/><stop stop-opacity="1" stop-color="rgb(5.378723%, 16.564941%, 27.008057%)" offset="0.0625"/><stop stop-opacity="1" stop-color="rgb(5.305481%, 16.369629%, 26.713562%)" offset="0.09375"/><stop stop-opacity="1" stop-color="rgb(5.232239%, 16.172791%, 26.419067%)" offset="0.125"/><stop stop-opacity="1" stop-color="rgb(5.158997%, 15.977478%, 26.126099%)" offset="0.15625"/><stop stop-opacity="1" stop-color="rgb(5.085754%, 15.78064%, 25.831604%)" offset="0.1875"/><stop stop-opacity="1" stop-color="rgb(5.012512%, 15.585327%, 25.537109%)" offset="0.21875"/><stop stop-opacity="1" stop-color="rgb(4.937744%, 15.390015%, 25.242615%)" offset="0.25"/><stop stop-opacity="1" stop-color="rgb(4.864502%, 15.193176%, 24.949646%)" offset="0.28125"/><stop stop-opacity="1" stop-color="rgb(4.79126%, 14.997864%, 24.655151%)" offset="0.3125"/><stop stop-opacity="1" stop-color="rgb(4.718018%, 14.801025%, 24.360657%)" offset="0.34375"/><stop stop-opacity="1" stop-color="rgb(4.644775%, 14.605713%, 24.067688%)" offset="0.375"/><stop stop-opacity="1" stop-color="rgb(4.571533%, 14.4104%, 23.773193%)" offset="0.40625"/><stop stop-opacity="1" stop-color="rgb(4.498291%, 14.213562%, 23.478699%)" offset="0.4375"/><stop stop-opacity="1" stop-color="rgb(4.425049%, 14.01825%, 23.184204%)" offset="0.46875"/><stop stop-opacity="1" stop-color="rgb(4.350281%, 13.821411%, 22.891235%)" offset="0.5"/><stop stop-opacity="1" stop-color="rgb(4.31366%, 13.723755%, 22.744751%)" offset="0.5"/><stop stop-opacity="1" stop-color="rgb(4.277039%, 13.626099%, 22.596741%)" offset="0.5"/><stop stop-opacity="1" stop-color="rgb(4.240417%, 13.528442%, 22.450256%)" offset="0.53125"/><stop stop-opacity="1" stop-color="rgb(4.203796%, 13.42926%, 22.302246%)" offset="0.5625"/><stop stop-opacity="1" stop-color="rgb(4.130554%, 13.233948%, 22.009277%)" offset="0.59375"/><stop stop-opacity="1" stop-color="rgb(4.057312%, 13.038635%, 21.714783%)" offset="0.625"/><stop stop-opacity="1" stop-color="rgb(3.98407%, 12.841797%, 21.420288%)" offset="0.65625"/><stop stop-opacity="1" stop-color="rgb(3.910828%, 12.646484%, 21.125793%)" offset="0.6875"/><stop stop-opacity="1" stop-color="rgb(3.83606%, 12.449646%, 20.832825%)" offset="0.71875"/><stop stop-opacity="1" stop-color="rgb(3.762817%, 12.254333%, 20.53833%)" offset="0.75"/><stop stop-opacity="1" stop-color="rgb(3.689575%, 12.059021%, 20.243835%)" offset="0.78125"/><stop stop-opacity="1" stop-color="rgb(3.616333%, 11.862183%, 19.949341%)" offset="0.8125"/><stop stop-opacity="1" stop-color="rgb(3.543091%, 11.66687%, 19.656372%)" offset="0.84375"/><stop stop-opacity="1" stop-color="rgb(3.469849%, 11.470032%, 19.361877%)" offset="0.875"/><stop stop-opacity="1" stop-color="rgb(3.396606%, 11.274719%, 19.067383%)" offset="0.90625"/><stop stop-opacity="1" stop-color="rgb(3.323364%, 11.079407%, 18.774414%)" offset="0.9375"/><stop stop-opacity="1" stop-color="rgb(3.248596%, 10.882568%, 18.479919%)" offset="0.96875"/><stop stop-opacity="1" stop-color="rgb(3.175354%, 10.687256%, 18.185425%)" offset="1"/></linearGradient><clipPath id="dacde04e36"><path d="M 30 30 L 630 30 L 630 390 L 30 390 Z M 30 30 " clip-rule="nonzero"/></clipPath><clipPath id="54e3cd1db6"><path d="M 165 30.089844 L 495 30.089844 C 497.210938 30.089844 499.417969 30.144531 501.625 30.253906 C 503.832031 30.359375 506.035156 30.523438 508.230469 30.738281 C 510.429688 30.957031 512.625 31.226562 514.808594 31.550781 C 516.992188 31.875 519.171875 32.25 521.335938 32.683594 C 523.503906 33.113281 525.660156 33.597656 527.800781 34.132812 C 529.945312 34.667969 532.074219 35.257812 534.1875 35.898438 C 536.300781 36.539062 538.398438 37.234375 540.480469 37.976562 C 542.558594 38.722656 544.621094 39.515625 546.664062 40.359375 C 548.703125 41.207031 550.722656 42.101562 552.71875 43.042969 C 554.71875 43.988281 556.691406 44.980469 558.636719 46.023438 C 560.585938 47.0625 562.507812 48.152344 564.402344 49.285156 C 566.296875 50.421875 568.164062 51.601562 570 52.828125 C 571.839844 54.054688 573.644531 55.328125 575.417969 56.644531 C 577.195312 57.957031 578.933594 59.316406 580.644531 60.71875 C 582.351562 62.117188 584.023438 63.5625 585.660156 65.042969 C 587.296875 66.527344 588.898438 68.050781 590.460938 69.609375 C 592.023438 71.171875 593.542969 72.769531 595.027344 74.40625 C 596.511719 76.042969 597.953125 77.714844 599.355469 79.421875 C 600.757812 81.128906 602.117188 82.871094 603.433594 84.644531 C 604.75 86.417969 606.019531 88.222656 607.25 90.058594 C 608.476562 91.894531 609.65625 93.757812 610.792969 95.652344 C 611.929688 97.546875 613.019531 99.46875 614.058594 101.414062 C 615.101562 103.363281 616.09375 105.335938 617.039062 107.332031 C 617.984375 109.328125 618.878906 111.34375 619.722656 113.386719 C 620.570312 115.425781 621.363281 117.484375 622.109375 119.566406 C 622.851562 121.644531 623.546875 123.738281 624.1875 125.851562 C 624.828125 127.964844 625.417969 130.09375 625.953125 132.238281 C 626.492188 134.378906 626.976562 136.53125 627.40625 138.699219 C 627.835938 140.863281 628.214844 143.039062 628.539062 145.222656 C 628.863281 147.40625 629.132812 149.597656 629.351562 151.796875 C 629.566406 153.996094 629.730469 156.195312 629.835938 158.402344 C 629.945312 160.605469 630 162.8125 630 165.023438 L 630 254.976562 C 630 257.1875 629.945312 259.394531 629.835938 261.597656 C 629.730469 263.804688 629.566406 266.003906 629.351562 268.203125 C 629.132812 270.402344 628.863281 272.59375 628.539062 274.777344 C 628.214844 276.960938 627.835938 279.136719 627.40625 281.300781 C 626.976562 283.46875 626.492188 285.621094 625.953125 287.761719 C 625.417969 289.90625 624.828125 292.035156 624.1875 294.148438 C 623.546875 296.257812 622.851562 298.355469 622.109375 300.433594 C 621.363281 302.515625 620.570312 304.574219 619.722656 306.613281 C 618.878906 308.65625 617.984375 310.671875 617.039062 312.667969 C 616.09375 314.664062 615.101562 316.636719 614.058594 318.585938 C 613.019531 320.53125 611.929688 322.453125 610.792969 324.347656 C 609.65625 326.242188 608.476562 328.105469 607.25 329.941406 C 606.019531 331.777344 604.75 333.582031 603.433594 335.355469 C 602.117188 337.128906 600.757812 338.871094 599.355469 340.578125 C 597.953125 342.285156 596.511719 343.957031 595.027344 345.59375 C 593.542969 347.230469 592.023438 348.828125 590.460938 350.390625 C 588.898438 351.949219 587.296875 353.472656 585.660156 354.957031 C 584.023438 356.4375 582.351562 357.882812 580.644531 359.28125 C 578.933594 360.683594 577.195312 362.042969 575.417969 363.355469 C 573.644531 364.671875 571.839844 365.941406 570 367.171875 C 568.164062 368.398438 566.296875 369.578125 564.402344 370.714844 C 562.507812 371.847656 560.585938 372.9375 558.636719 373.976562 C 556.691406 375.019531 554.71875 376.011719 552.71875 376.957031 C 550.722656 377.898438 548.703125 378.792969 546.664062 379.640625 C 544.621094 380.484375 542.558594 381.277344 540.480469 382.023438 C 538.398438 382.765625 536.300781 383.460938 534.1875 384.101562 C 532.074219 384.742188 529.945312 385.332031 527.800781 385.867188 C 525.660156 386.402344 523.503906 386.886719 521.335938 387.316406 C 519.171875 387.75 516.992188 388.125 514.808594 388.449219 C 512.625 388.773438 510.429688 389.042969 508.230469 389.261719 C 506.035156 389.476562 503.832031 389.640625 501.625 389.746094 C 499.417969 389.855469 497.210938 389.910156 495 389.910156 L 165 389.910156 C 162.789062 389.910156 160.582031 389.855469 158.375 389.746094 C 156.167969 389.640625 153.964844 389.476562 151.769531 389.261719 C 149.570312 389.042969 147.375 388.773438 145.191406 388.449219 C 143.007812 388.125 140.828125 387.75 138.664062 387.316406 C 136.496094 386.886719 134.339844 386.402344 132.199219 385.867188 C 130.054688 385.332031 127.925781 384.742188 125.8125 384.101562 C 123.699219 383.460938 121.601562 382.765625 119.519531 382.023438 C 117.441406 381.277344 115.378906 380.484375 113.335938 379.640625 C 111.296875 378.792969 109.277344 377.898438 107.28125 376.957031 C 105.28125 376.011719 103.308594 375.019531 101.363281 373.976562 C 99.414062 372.9375 97.492188 371.847656 95.597656 370.714844 C 93.699219 369.578125 91.835938 368.398438 89.996094 367.171875 C 88.160156 365.941406 86.355469 364.671875 84.582031 363.355469 C 82.804688 362.042969 81.066406 360.683594 79.355469 359.28125 C 77.648438 357.882812 75.976562 356.4375 74.339844 354.957031 C 72.703125 353.472656 71.101562 351.949219 69.539062 350.390625 C 67.976562 348.828125 66.457031 347.230469 64.972656 345.59375 C 63.488281 343.957031 62.046875 342.285156 60.644531 340.578125 C 59.242188 338.871094 57.882812 337.128906 56.566406 335.355469 C 55.25 333.582031 53.980469 331.777344 52.75 329.941406 C 51.523438 328.105469 50.34375 326.242188 49.207031 324.347656 C 48.070312 322.453125 46.980469 320.53125 45.941406 318.585938 C 44.898438 316.636719 43.90625 314.664062 42.960938 312.667969 C 42.015625 310.671875 41.121094 308.65625 40.277344 306.613281 C 39.429688 304.574219 38.636719 302.515625 37.890625 300.433594 C 37.148438 298.355469 36.453125 296.257812 35.8125 294.148438 C 35.171875 292.035156 34.582031 289.90625 34.046875 287.761719 C 33.507812 285.621094 33.023438 283.46875 32.59375 281.300781 C 32.164062 279.136719 31.785156 276.960938 31.460938 274.777344 C 31.136719 272.59375 30.867188 270.402344 30.648438 268.203125 C 30.433594 266.003906 30.269531 263.804688 30.164062 261.597656 C 30.054688 259.394531 30 257.1875 30 254.976562 L 30 165.023438 C 30 162.8125 30.054688 160.605469 30.164062 158.402344 C 30.269531 156.195312 30.433594 153.996094 30.648438 151.796875 C 30.867188 149.597656 31.136719 147.40625 31.460938 145.222656 C 31.785156 143.039062 32.164062 140.863281 32.59375 138.699219 C 33.023438 136.53125 33.507812 134.378906 34.046875 132.238281 C 34.582031 130.09375 35.171875 127.964844 35.8125 125.851562 C 36.453125 123.742188 37.148438 121.644531 37.890625 119.566406 C 38.636719 117.484375 39.429688 115.425781 40.277344 113.386719 C 41.121094 111.34375 42.015625 109.328125 42.960938 107.332031 C 43.90625 105.335938 44.898438 103.363281 45.941406 101.414062 C 46.980469 99.46875 48.070312 97.546875 49.207031 95.652344 C 50.34375 93.757812 51.523438 91.894531 52.75 90.058594 C 53.980469 88.222656 55.25 86.417969 56.566406 84.644531 C 57.882812 82.871094 59.242188 81.128906 60.644531 79.421875 C 62.046875 77.714844 63.488281 76.042969 64.972656 74.40625 C 66.457031 72.769531 67.976562 71.171875 69.539062 69.609375 C 71.101562 68.050781 72.703125 66.527344 74.339844 65.042969 C 75.976562 63.5625 77.648438 62.117188 79.355469 60.71875 C 81.066406 59.316406 82.804688 57.957031 84.582031 56.644531 C 86.355469 55.328125 88.160156 54.054688 89.996094 52.828125 C 91.835938 51.601562 93.699219 50.421875 95.597656 49.285156 C 97.492188 48.152344 99.414062 47.0625 101.363281 46.023438 C 103.308594 44.980469 105.28125 43.988281 107.28125 43.042969 C 109.277344 42.101562 111.296875 41.207031 113.335938 40.359375 C 115.378906 39.515625 117.441406 38.722656 119.519531 37.976562 C 121.601562 37.234375 123.699219 36.539062 125.8125 35.898438 C 127.925781 35.257812 130.054688 34.667969 132.199219 34.132812 C 134.339844 33.597656 136.496094 33.113281 138.664062 32.683594 C 140.828125 32.25 143.007812 31.875 145.191406 31.550781 C 147.375 31.226562 149.570312 30.957031 151.769531 30.738281 C 153.964844 30.523438 156.167969 30.359375 158.375 30.253906 C 160.582031 30.144531 162.789062 30.089844 165 30.089844 Z M 165 30.089844 " clip-rule="nonzero"/></clipPath><linearGradient x1="0" gradientTransform="matrix(599.999918, 0, 0, 359.820997, 30.000009, 30.089469)" y1="0.0000000515786" x2="0" gradientUnits="userSpaceOnUse" y2="1" id="0048b23161"><stop stop-opacity="0.25" stop-color="rgb(12.159729%, 48.239136%, 30.979919%)" offset="0"/><stop stop-opacity="0.25" stop-color="rgb(12.072754%, 48.127747%, 30.880737%)" offset="0.03125"/><stop stop-opacity="0.25" stop-color="rgb(11.901855%, 47.90802%, 30.685425%)" offset="0.0625"/><stop stop-opacity="0.25" stop-color="rgb(11.729431%, 47.686768%, 30.488586%)" offset="0.09375"/><stop stop-opacity="0.25" stop-color="rgb(11.558533%, 47.467041%, 30.293274%)" offset="0.125"/><stop stop-opacity="0.25" stop-color="rgb(11.387634%, 47.245789%, 30.097961%)" offset="0.15625"/><stop stop-opacity="0.25" stop-color="rgb(11.21521%, 47.026062%, 29.901123%)" offset="0.1875"/><stop stop-opacity="0.25" stop-color="rgb(11.044312%, 46.80481%, 29.705811%)" offset="0.21875"/><stop stop-opacity="0.25" stop-color="rgb(10.871887%, 46.583557%, 29.508972%)" offset="0.25"/><stop stop-opacity="0.25" stop-color="rgb(10.700989%, 46.363831%, 29.31366%)" offset="0.28125"/><stop stop-opacity="0.25" stop-color="rgb(10.528564%, 46.142578%, 29.116821%)" offset="0.3125"/><stop stop-opacity="0.25" stop-color="rgb(10.357666%, 45.922852%, 28.921509%)" offset="0.34375"/><stop stop-opacity="0.25" stop-color="rgb(10.185242%, 45.701599%, 28.726196%)" offset="0.375"/><stop stop-opacity="0.25" stop-color="rgb(10.014343%, 45.480347%, 28.529358%)" offset="0.40625"/><stop stop-opacity="0.25" stop-color="rgb(9.843445%, 45.26062%, 28.334045%)" offset="0.4375"/><stop stop-opacity="0.25" stop-color="rgb(9.671021%, 45.039368%, 28.137207%)" offset="0.46875"/><stop stop-opacity="0.25" stop-color="rgb(9.500122%, 44.819641%, 27.941895%)" offset="0.5"/><stop stop-opacity="0.25" stop-color="rgb(9.327698%, 44.598389%, 27.746582%)" offset="0.53125"/><stop stop-opacity="0.25" stop-color="rgb(9.156799%, 44.377136%, 27.549744%)" offset="0.5625"/><stop stop-opacity="0.25" stop-color="rgb(8.984375%, 44.15741%, 27.354431%)" offset="0.59375"/><stop stop-opacity="0.25" stop-color="rgb(8.813477%, 43.936157%, 27.157593%)" offset="0.625"/><stop stop-opacity="0.25" stop-color="rgb(8.642578%, 43.716431%, 26.96228%)" offset="0.65625"/><stop stop-opacity="0.25" stop-color="rgb(8.470154%, 43.495178%, 26.766968%)" offset="0.6875"/><stop stop-opacity="0.25" stop-color="rgb(8.299255%, 43.275452%, 26.570129%)" offset="0.71875"/><stop stop-opacity="0.25" stop-color="rgb(8.126831%, 43.054199%, 26.374817%)" offset="0.75"/><stop stop-opacity="0.25" stop-color="rgb(7.955933%, 42.832947%, 26.177979%)" offset="0.78125"/><stop stop-opacity="0.25" stop-color="rgb(7.783508%, 42.61322%, 25.982666%)" offset="0.8125"/><stop stop-opacity="0.25" stop-color="rgb(7.61261%, 42.391968%, 25.785828%)" offset="0.84375"/><stop stop-opacity="0.25" stop-color="rgb(7.440186%, 42.172241%, 25.590515%)" offset="0.875"/><stop stop-opacity="0.25" stop-color="rgb(7.269287%, 41.950989%, 25.395203%)" offset="0.90625"/><stop stop-opacity="0.25" stop-color="rgb(7.098389%, 41.729736%, 25.198364%)" offset="0.9375"/><stop stop-opacity="0.25" stop-color="rgb(6.925964%, 41.51001%, 25.003052%)" offset="0.96875"/><stop stop-opacity="0.25" stop-color="rgb(6.755066%, 41.288757%, 24.806213%)" offset="1"/></linearGradient></defs><path fill="#000000" d="M 165 21.09375 L 495 21.09375 C 497.453125 21.09375 499.90625 21.152344 502.359375 21.273438 C 504.8125 21.394531 507.257812 21.574219 509.703125 21.816406 C 512.144531 22.054688 514.582031 22.355469 517.007812 22.714844 C 519.4375 23.078125 521.855469 23.496094 524.261719 23.976562 C 526.671875 24.453125 529.066406 24.992188 531.445312 25.585938 C 533.828125 26.183594 536.195312 26.835938 538.542969 27.550781 C 540.890625 28.261719 543.222656 29.03125 545.535156 29.859375 C 547.84375 30.683594 550.132812 31.566406 552.402344 32.507812 C 554.671875 33.445312 556.914062 34.4375 559.132812 35.488281 C 561.351562 36.539062 563.542969 37.640625 565.710938 38.796875 C 567.875 39.953125 570.007812 41.164062 572.117188 42.425781 C 574.222656 43.683594 576.292969 44.996094 578.335938 46.359375 C 580.375 47.722656 582.382812 49.136719 584.355469 50.597656 C 586.328125 52.058594 588.261719 53.570312 590.160156 55.125 C 592.054688 56.683594 593.914062 58.285156 595.734375 59.933594 C 597.550781 61.578125 599.328125 63.269531 601.066406 65.007812 C 602.800781 66.742188 604.492188 68.519531 606.140625 70.335938 C 607.792969 72.152344 609.394531 74.011719 610.953125 75.90625 C 612.507812 77.804688 614.019531 79.738281 615.480469 81.707031 C 616.945312 83.679688 618.355469 85.683594 619.71875 87.726562 C 621.085938 89.765625 622.398438 91.835938 623.660156 93.941406 C 624.921875 96.046875 626.132812 98.179688 627.289062 100.34375 C 628.445312 102.507812 629.546875 104.699219 630.597656 106.917969 C 631.648438 109.136719 632.640625 111.378906 633.582031 113.644531 C 634.519531 115.914062 635.40625 118.199219 636.230469 120.511719 C 637.058594 122.820312 637.828125 125.148438 638.539062 127.5 C 639.253906 129.847656 639.90625 132.210938 640.503906 134.589844 C 641.101562 136.96875 641.640625 139.363281 642.117188 141.769531 C 642.597656 144.175781 643.015625 146.59375 643.375 149.019531 C 643.738281 151.449219 644.035156 153.882812 644.277344 156.324219 C 644.519531 158.765625 644.699219 161.210938 644.820312 163.664062 C 644.941406 166.113281 645 168.566406 645 171.019531 L 645 248.980469 C 645 251.433594 644.941406 253.886719 644.820312 256.335938 C 644.699219 258.789062 644.519531 261.234375 644.277344 263.675781 C 644.035156 266.117188 643.738281 268.550781 643.375 270.980469 C 643.015625 273.40625 642.597656 275.824219 642.117188 278.230469 C 641.640625 280.636719 641.101562 283.03125 640.503906 285.410156 C 639.90625 287.789062 639.253906 290.152344 638.539062 292.5 C 637.828125 294.851562 637.058594 297.179688 636.230469 299.488281 C 635.40625 301.800781 634.519531 304.085938 633.582031 306.355469 C 632.640625 308.621094 631.648438 310.863281 630.597656 313.082031 C 629.546875 315.300781 628.445312 317.492188 627.289062 319.65625 C 626.132812 321.820312 624.921875 323.953125 623.660156 326.058594 C 622.398438 328.164062 621.085938 330.234375 619.71875 332.273438 C 618.355469 334.316406 616.945312 336.320312 615.480469 338.292969 C 614.019531 340.261719 612.507812 342.195312 610.953125 344.09375 C 609.394531 345.988281 607.792969 347.847656 606.140625 349.664062 C 604.492188 351.480469 602.800781 353.257812 601.066406 354.992188 C 599.328125 356.730469 597.550781 358.421875 595.734375 360.066406 C 593.914062 361.714844 592.054688 363.316406 590.160156 364.875 C 588.261719 366.429688 586.328125 367.941406 584.355469 369.402344 C 582.382812 370.863281 580.375 372.277344 578.335938 373.640625 C 576.292969 375.003906 574.222656 376.316406 572.117188 377.574219 C 570.007812 378.835938 567.875 380.046875 565.710938 381.203125 C 563.542969 382.359375 561.351562 383.460938 559.132812 384.511719 C 556.914062 385.5625 554.671875 386.554688 552.402344 387.492188 C 550.132812 388.433594 547.84375 389.316406 545.535156 390.140625 C 543.222656 390.96875 540.890625 391.738281 538.542969 392.449219 C 536.195312 393.164062 533.828125 393.816406 531.445312 394.414062 C 529.066406 395.007812 526.671875 395.546875 524.261719 396.023438 C 521.855469 396.503906 519.4375 396.921875 517.007812 397.285156 C 514.582031 397.644531 512.144531 397.945312 509.703125 398.183594 C 507.257812 398.425781 504.8125 398.605469 502.359375 398.726562 C 499.90625 398.847656 497.453125 398.90625 495 398.90625 L 165 398.90625 C 162.546875 398.90625 160.089844 398.847656 157.640625 398.726562 C 155.1875 398.605469 152.742188 398.425781 150.296875 398.183594 C 147.855469 397.945312 145.417969 397.644531 142.992188 397.285156 C 140.5625 396.921875 138.144531 396.503906 135.738281 396.023438 C 133.328125 395.546875 130.933594 395.007812 128.554688 394.414062 C 126.171875 393.816406 123.804688 393.164062 121.457031 392.449219 C 119.109375 391.738281 116.777344 390.96875 114.464844 390.140625 C 112.15625 389.316406 109.867188 388.433594 107.597656 387.492188 C 105.328125 386.554688 103.085938 385.5625 100.867188 384.511719 C 98.648438 383.460938 96.457031 382.359375 94.289062 381.203125 C 92.125 380.046875 89.988281 378.835938 87.882812 377.574219 C 85.777344 376.316406 83.707031 375.003906 81.664062 373.640625 C 79.625 372.277344 77.617188 370.863281 75.644531 369.402344 C 73.671875 367.941406 71.738281 366.429688 69.839844 364.875 C 67.945312 363.316406 66.085938 361.714844 64.265625 360.066406 C 62.445312 358.421875 60.667969 356.730469 58.933594 354.992188 C 57.199219 353.257812 55.507812 351.480469 53.855469 349.664062 C 52.207031 347.847656 50.605469 345.988281 49.046875 344.09375 C 47.492188 342.195312 45.980469 340.261719 44.519531 338.292969 C 43.054688 336.320312 41.644531 334.316406 40.28125 332.273438 C 38.914062 330.234375 37.601562 328.164062 36.339844 326.058594 C 35.078125 323.953125 33.867188 321.820312 32.710938 319.65625 C 31.554688 317.492188 30.453125 315.300781 29.402344 313.082031 C 28.351562 310.863281 27.359375 308.621094 26.417969 306.355469 C 25.480469 304.085938 24.59375 301.800781 23.769531 299.488281 C 22.941406 297.179688 22.171875 294.851562 21.457031 292.5 C 20.746094 290.152344 20.09375 287.789062 19.496094 285.410156 C 18.898438 283.03125 18.359375 280.636719 17.882812 278.230469 C 17.402344 275.824219 16.984375 273.40625 16.625 270.980469 C 16.261719 268.550781 15.964844 266.117188 15.722656 263.675781 C 15.480469 261.234375 15.300781 258.789062 15.179688 256.335938 C 15.058594 253.886719 15 251.433594 15 248.980469 L 15 171.019531 C 15 168.566406 15.058594 166.113281 15.179688 163.664062 C 15.300781 161.210938 15.480469 158.765625 15.722656 156.324219 C 15.964844 153.882812 16.261719 151.449219 16.625 149.019531 C 16.984375 146.59375 17.402344 144.175781 17.882812 141.769531 C 18.359375 139.363281 18.898438 136.96875 19.496094 134.589844 C 20.09375 132.210938 20.746094 129.847656 21.457031 127.5 C 22.171875 125.148438 22.941406 122.820312 23.769531 120.511719 C 24.59375 118.199219 25.480469 115.914062 26.417969 113.644531 C 27.359375 111.378906 28.351562 109.136719 29.402344 106.917969 C 30.453125 104.699219 31.554688 102.507812 32.710938 100.34375 C 33.867188 98.179688 35.078125 96.046875 36.339844 93.941406 C 37.601562 91.835938 38.914062 89.765625 40.28125 87.726562 C 41.644531 85.683594 43.054688 83.679688 44.519531 81.707031 C 45.980469 79.738281 47.492188 77.804688 49.046875 75.90625 C 50.605469 74.011719 52.207031 72.152344 53.855469 70.335938 C 55.507812 68.519531 57.199219 66.742188 58.933594 65.007812 C 60.667969 63.269531 62.445312 61.578125 64.265625 59.933594 C 66.085938 58.285156 67.945312 56.683594 69.839844 55.125 C 71.738281 53.570312 73.671875 52.058594 75.644531 50.597656 C 77.617188 49.136719 79.625 47.722656 81.664062 46.359375 C 83.707031 44.996094 85.777344 43.683594 87.882812 42.425781 C 89.988281 41.164062 92.125 39.953125 94.289062 38.796875 C 96.457031 37.640625 98.648438 36.539062 100.867188 35.488281 C 103.085938 34.4375 105.328125 33.445312 107.597656 32.507812 C 109.867188 31.566406 112.15625 30.683594 114.464844 29.859375 C 116.777344 29.03125 119.109375 28.261719 121.457031 27.550781 C 123.804688 26.835938 126.171875 26.183594 128.554688 25.585938 C 130.933594 24.992188 133.328125 24.453125 135.738281 23.976562 C 138.144531 23.496094 140.5625 23.078125 142.992188 22.714844 C 145.417969 22.355469 147.855469 22.054688 150.296875 21.816406 C 152.742188 21.574219 155.1875 21.394531 157.640625 21.273438 C 160.089844 21.152344 162.546875 21.09375 165 21.09375 Z M 165 21.09375 " fill-opacity="0.35" fill-rule="nonzero"/><g clip-path="url(#652be16f6a)"><g clip-path="url(#c8344b7c45)"><path fill="url(#ac7f137bf1)" d="M 7.5 7.601562 L 7.5 412.398438 L 652.5 412.398438 L 652.5 7.601562 Z M 7.5 7.601562 " fill-rule="nonzero"/></g></g><path stroke-linecap="butt" transform="matrix(0.75, 0, 0, 0.749627, 0.0000120214, 0.104403)" fill="none" stroke-linejoin="miter" d="M 222.000016 22.001943 L 658.000077 22.001943 C 661.270911 22.001943 664.541745 22.080107 667.812579 22.241646 C 671.083413 22.403184 674.34383 22.642887 677.604247 22.960753 C 680.859456 23.28383 684.109456 23.685072 687.343832 24.164477 C 690.583415 24.643882 693.807374 25.206661 697.015708 25.842394 C 700.22925 26.483338 703.421959 27.197235 706.593834 27.994506 C 709.770918 28.786566 712.927169 29.662002 716.057377 30.61039 C 719.187586 31.563989 722.296962 32.590541 725.380295 33.690046 C 728.458421 34.794762 731.510505 35.972431 734.536547 37.223053 C 737.562589 38.478885 740.552173 39.80246 743.510506 41.204199 C 746.46884 42.600726 749.390715 44.070207 752.281341 45.617852 C 755.166758 47.160285 758.010508 48.770461 760.823009 50.453589 C 763.630301 52.136718 766.390718 53.887588 769.114677 55.706201 C 771.833427 57.524813 774.510511 59.411168 777.140719 61.360054 C 779.770928 63.308939 782.349053 65.320356 784.880304 67.399515 C 787.406346 69.473463 789.885513 71.609941 792.312597 73.808951 C 794.734472 76.007961 797.109472 78.264292 799.421973 80.577942 C 801.734473 82.891592 803.989682 85.262563 806.187599 87.685643 C 808.390724 90.113933 810.526141 92.589122 812.604266 95.121631 C 814.677183 97.64893 816.692808 100.233548 818.640725 102.859854 C 820.593851 105.491371 822.474059 108.164575 824.291768 110.884677 C 826.114685 113.60999 827.864685 116.37178 829.546977 119.180468 C 831.229269 121.989157 832.843852 124.834321 834.385519 127.721173 C 835.927186 130.608025 837.395936 133.531354 838.796978 136.491159 C 840.19802 139.445753 841.520937 142.436823 842.776145 145.46437 C 844.026146 148.486706 845.208437 151.540308 846.307396 154.619964 C 847.411563 157.704831 848.437605 160.810542 849.385521 163.942307 C 850.338646 167.074073 851.208438 170.226682 852.005313 173.405346 C 852.802188 176.578798 853.520939 179.773095 854.156355 182.983024 C 854.79698 186.192954 855.354272 189.418516 855.833439 192.6545 C 856.317814 195.890483 856.713647 199.136889 857.036564 202.398928 C 857.359481 205.655755 857.599064 208.917794 857.760523 212.185043 C 857.921981 215.457504 858.000106 218.724753 858.000106 222.002425 L 858.000106 337.997597 C 858.000106 341.275269 857.921981 344.542518 857.760523 347.814978 C 857.599064 351.082228 857.359481 354.344266 857.036564 357.601094 C 856.713647 360.863133 856.317814 364.109538 855.833439 367.345522 C 855.354272 370.581506 854.79698 373.807068 854.156355 377.016998 C 853.520939 380.226927 852.802188 383.421223 852.005313 386.594676 C 851.208438 389.77334 850.338646 392.925949 849.385521 396.057715 C 848.437605 399.18948 847.411563 402.295191 846.307396 405.380058 C 845.208437 408.459714 844.026146 411.513316 842.776145 414.535652 C 841.520937 417.563199 840.19802 420.554269 838.796978 423.508863 C 837.395936 426.468668 835.927186 429.391997 834.385519 432.278849 C 832.843852 435.165701 831.229269 438.010865 829.546977 440.819553 C 827.864685 443.628242 826.114685 446.390031 824.291768 449.115345 C 822.474059 451.835447 820.593851 454.508651 818.640725 457.140168 C 816.692808 459.766474 814.677183 462.345881 812.604266 464.87839 C 810.526141 467.4109 808.390724 469.886089 806.192807 472.309168 C 803.989682 474.737459 801.734473 477.10843 799.421973 479.42208 C 797.109472 481.73573 794.734472 483.99206 792.312597 486.19107 C 789.885513 488.39008 787.406346 490.526559 784.880304 492.600507 C 782.349053 494.679666 779.770928 496.691083 777.140719 498.639968 C 774.510511 500.588854 771.833427 502.475208 769.114677 504.293821 C 766.390718 506.112434 763.630301 507.863304 760.823009 509.546433 C 758.010508 511.229561 755.166758 512.839737 752.281341 514.38217 C 749.390715 515.924604 746.46884 517.399295 743.510506 518.795823 C 740.552173 520.197562 737.562589 521.521136 734.536547 522.776969 C 731.510505 524.027591 728.458421 525.20526 725.380295 526.309976 C 722.296962 527.409481 719.187586 528.436033 716.057377 529.389632 C 712.927169 530.33802 709.770918 531.213455 706.593834 532.005516 C 703.421959 532.802787 700.22925 533.516684 697.015708 534.157628 C 693.807374 534.79336 690.583415 535.35614 687.343832 535.835545 C 684.109456 536.31495 680.859456 536.716191 677.604247 537.039269 C 674.34383 537.357135 671.083413 537.596838 667.812579 537.758376 C 664.541745 537.919915 661.270911 537.998079 658.000077 537.998079 L 222.000016 537.998079 C 218.729182 537.998079 215.45314 537.919915 212.187514 537.758376 C 208.91668 537.596838 205.656263 537.357135 202.395846 537.039269 C 199.140637 536.716191 195.890637 536.31495 192.656261 535.835545 C 189.416678 535.35614 186.192719 534.79336 182.984385 534.157628 C 179.770843 533.516684 176.578134 532.802787 173.406259 532.005516 C 170.229175 531.213455 167.072924 530.33802 163.942716 529.389632 C 160.812507 528.436033 157.703131 527.409481 154.619798 526.309976 C 151.541672 525.20526 148.489588 524.027591 145.463546 522.776969 C 142.437504 521.521136 139.44792 520.197562 136.489587 518.795823 C 133.531253 517.399295 130.609378 515.924604 127.718752 514.38217 C 124.833335 512.839737 121.984376 511.229561 119.177084 509.546433 C 116.369792 507.863304 113.609375 506.112434 110.885416 504.293821 C 108.166666 502.475208 105.489582 500.588854 102.859374 498.639968 C 100.229165 496.691083 97.65104 494.679666 95.119789 492.600507 C 92.593747 490.526559 90.11458 488.39008 87.687496 486.19107 C 85.260413 483.99206 82.890621 481.73573 80.57812 479.42208 C 78.26562 477.10843 76.010411 474.737459 73.807286 472.309168 C 71.609369 469.886089 69.473952 467.4109 67.395827 464.87839 C 65.32291 462.345881 63.307285 459.766474 61.359368 457.140168 C 59.406242 454.508651 57.526034 451.835447 55.708325 449.115345 C 53.885408 446.390031 52.135408 443.628242 50.453116 440.819553 C 48.770824 438.010865 47.156241 435.165701 45.614574 432.278849 C 44.072907 429.391997 42.604157 426.468668 41.203115 423.508863 C 39.802073 420.554269 38.479156 417.563199 37.223948 414.535652 C 35.973947 411.513316 34.791656 408.459714 33.692697 405.380058 C 32.58853 402.295191 31.562488 399.18948 30.609363 396.057715 C 29.661447 392.925949 28.791655 389.77334 27.99478 386.594676 C 27.197905 383.421223 26.479154 380.226927 25.843738 377.016998 C 25.203113 373.807068 24.645821 370.581506 24.166654 367.345522 C 23.682279 364.109538 23.286446 360.863133 22.963529 357.601094 C 22.640612 354.344266 22.401029 351.082228 22.23957 347.814978 C 22.078112 344.542518 21.999987 341.275269 21.999987 337.997597 L 21.999987 222.002425 C 21.999987 218.724753 22.078112 215.457504 22.23957 212.185043 C 22.401029 208.917794 22.640612 205.655755 22.963529 202.398928 C 23.286446 199.136889 23.682279 195.890483 24.166654 192.6545 C 24.645821 189.418516 25.203113 186.192954 25.843738 182.983024 C 26.479154 179.773095 27.197905 176.578798 27.99478 173.405346 C 28.791655 170.226682 29.661447 167.074073 30.609363 163.942307 C 31.562488 160.810542 32.58853 157.704831 33.692697 154.619964 C 34.791656 151.540308 35.973947 148.486706 37.223948 145.46437 C 38.479156 142.436823 39.802073 139.445753 41.203115 136.491159 C 42.604157 133.531354 44.072907 130.608025 45.614574 127.721173 C 47.156241 124.834321 48.770824 121.989157 50.453116 119.180468 C 52.135408 116.37178 53.885408 113.60999 55.708325 110.884677 C 57.526034 108.164575 59.406242 105.491371 61.359368 102.859854 C 63.307285 100.233548 65.32291 97.64893 67.395827 95.121631 C 69.473952 92.589122 71.609369 90.113933 73.807286 87.685643 C 76.010411 85.262563 78.26562 82.891592 80.57812 80.577942 C 82.890621 78.264292 85.260413 76.007961 87.687496 73.808951 C 90.11458 71.609941 92.593747 69.473463 95.119789 67.399515 C 97.65104 65.320356 100.229165 63.308939 102.859374 61.360054 C 105.489582 59.411168 108.166666 57.524813 110.885416 55.706201 C 113.609375 53.887588 116.369792 52.136718 119.177084 50.453589 C 121.984376 48.770461 124.833335 47.160285 127.718752 45.617852 C 130.609378 44.070207 133.531253 42.600726 136.489587 41.204199 C 139.44792 39.80246 142.437504 38.478885 145.463546 37.223053 C 148.489588 35.972431 151.541672 34.794762 154.619798 33.690046 C 157.703131 32.590541 160.812507 31.563989 163.942716 30.61039 C 167.072924 29.662002 170.229175 28.786566 173.406259 27.994506 C 176.578134 27.197235 179.770843 26.483338 182.984385 25.842394 C 186.192719 25.206661 189.416678 24.643882 192.656261 24.164477 C 195.890637 23.685072 199.140637 23.28383 202.395846 22.960753 C 205.656263 22.642887 208.91668 22.403184 212.187514 22.241646 C 215.45314 22.080107 218.729182 22.001943 222.000016 22.001943 Z M 222.000016 22.001943 " stroke="#7bc0df" stroke-width="6" stroke-opacity="0.25" stroke-miterlimit="4"/><g clip-path="url(#dacde04e36)"><g clip-path="url(#54e3cd1db6)"><path fill="url(#0048b23161)" d="M 30 30.089844 L 30 389.910156 L 630 389.910156 L 630 30.089844 Z M 30 30.089844 " fill-rule="nonzero"/></g></g><path fill="#ffffff" d="M 63 45.082031 L 597 45.082031 C 597.6875 45.082031 598.371094 45.148438 599.046875 45.285156 C 599.722656 45.417969 600.382812 45.617188 601.019531 45.882812 C 601.65625 46.144531 602.261719 46.46875 602.832031 46.851562 C 603.40625 47.234375 603.9375 47.667969 604.425781 48.15625 C 604.910156 48.644531 605.347656 49.171875 605.730469 49.746094 C 606.113281 50.320312 606.4375 50.925781 606.699219 51.5625 C 606.964844 52.199219 607.164062 52.855469 607.296875 53.53125 C 607.433594 54.207031 607.5 54.886719 607.5 55.578125 C 607.5 56.265625 607.433594 56.949219 607.296875 57.625 C 607.164062 58.300781 606.964844 58.957031 606.699219 59.59375 C 606.4375 60.230469 606.113281 60.835938 605.730469 61.40625 C 605.347656 61.980469 604.910156 62.511719 604.425781 62.996094 C 603.9375 63.484375 603.40625 63.921875 602.832031 64.304688 C 602.261719 64.6875 601.65625 65.007812 601.019531 65.273438 C 600.382812 65.535156 599.722656 65.734375 599.046875 65.871094 C 598.371094 66.003906 597.6875 66.070312 597 66.070312 L 63 66.070312 C 62.3125 66.070312 61.628906 66.003906 60.953125 65.871094 C 60.273438 65.734375 59.617188 65.535156 58.980469 65.273438 C 58.34375 65.007812 57.738281 64.6875 57.167969 64.304688 C 56.59375 63.921875 56.0625 63.484375 55.574219 62.996094 C 55.085938 62.511719 54.652344 61.980469 54.269531 61.40625 C 53.886719 60.835938 53.5625 60.230469 53.300781 59.59375 C 53.035156 58.957031 52.835938 58.300781 52.703125 57.625 C 52.566406 56.949219 52.5 56.265625 52.5 55.578125 C 52.5 54.886719 52.566406 54.207031 52.703125 53.53125 C 52.835938 52.855469 53.035156 52.199219 53.300781 51.5625 C 53.5625 50.925781 53.886719 50.320312 54.269531 49.746094 C 54.652344 49.171875 55.085938 48.644531 55.574219 48.15625 C 56.0625 47.667969 56.59375 47.234375 57.167969 46.851562 C 57.738281 46.46875 58.34375 46.144531 58.980469 45.882812 C 59.617188 45.617188 60.273438 45.417969 60.953125 45.285156 C 61.628906 45.148438 62.3125 45.082031 63 45.082031 Z M 63 45.082031 " fill-opacity="0.08" fill-rule="nonzero"/></svg>