<svg xmlns="http://www.w3.org/2000/svg" xmlns:xlink="http://www.w3.org/1999/xlink" width="1050" zoomAndPan="magnify" viewBox="0 0 787.5 179.999997" height="240" preserveAspectRatio="xMidYMid meet" version="1.0"><defs><clipPath id="c5d6fcbbb7"><path d="M 0 0.0585938 L 776 0.0585938 L 776 161 L 0 161 Z M 0 0.0585938 " clip-rule="nonzero"/></clipPath><clipPath id="eb316badce"><path d="M 19.828125 0.0585938 L 755.925781 0.0585938 C 756.566406 0.0585938 757.203125 0.0898438 757.835938 0.152344 C 758.472656 0.214844 759.105469 0.308594 759.730469 0.429688 C 760.355469 0.554688 760.972656 0.710938 761.585938 0.894531 C 762.195312 1.082031 762.796875 1.296875 763.386719 1.539062 C 763.976562 1.785156 764.550781 2.058594 765.113281 2.359375 C 765.675781 2.660156 766.222656 2.988281 766.753906 3.339844 C 767.285156 3.695312 767.796875 4.074219 768.292969 4.480469 C 768.785156 4.886719 769.257812 5.3125 769.707031 5.765625 C 770.160156 6.214844 770.589844 6.6875 770.992188 7.183594 C 771.398438 7.675781 771.777344 8.1875 772.132812 8.71875 C 772.488281 9.25 772.816406 9.796875 773.117188 10.359375 C 773.417969 10.921875 773.6875 11.496094 773.933594 12.085938 C 774.175781 12.675781 774.390625 13.277344 774.578125 13.886719 C 774.761719 14.5 774.917969 15.117188 775.042969 15.742188 C 775.167969 16.367188 775.261719 17 775.324219 17.632812 C 775.386719 18.269531 775.417969 18.90625 775.417969 19.542969 L 775.417969 140.96875 C 775.417969 141.605469 775.386719 142.242188 775.324219 142.878906 C 775.261719 143.511719 775.167969 144.144531 775.042969 144.769531 C 774.917969 145.394531 774.761719 146.015625 774.578125 146.625 C 774.390625 147.234375 774.175781 147.835938 773.933594 148.425781 C 773.6875 149.015625 773.417969 149.589844 773.117188 150.152344 C 772.816406 150.71875 772.488281 151.265625 772.132812 151.792969 C 771.777344 152.324219 771.398438 152.835938 770.992188 153.332031 C 770.589844 153.824219 770.160156 154.296875 769.707031 154.746094 C 769.257812 155.199219 768.785156 155.625 768.292969 156.03125 C 767.796875 156.4375 767.285156 156.816406 766.753906 157.171875 C 766.222656 157.527344 765.675781 157.851562 765.113281 158.152344 C 764.550781 158.453125 763.976562 158.726562 763.386719 158.972656 C 762.796875 159.214844 762.195312 159.429688 761.585938 159.617188 C 760.972656 159.800781 760.355469 159.957031 759.730469 160.082031 C 759.105469 160.207031 758.472656 160.300781 757.835938 160.363281 C 757.203125 160.425781 756.566406 160.457031 755.925781 160.457031 L 19.828125 160.457031 C 19.191406 160.457031 18.554688 160.425781 17.917969 160.363281 C 17.285156 160.300781 16.652344 160.207031 16.027344 160.082031 C 15.402344 159.957031 14.78125 159.800781 14.171875 159.617188 C 13.5625 159.429688 12.960938 159.214844 12.371094 158.972656 C 11.78125 158.726562 11.203125 158.453125 10.640625 158.152344 C 10.078125 157.851562 9.53125 157.527344 9 157.171875 C 8.46875 156.816406 7.957031 156.4375 7.464844 156.03125 C 6.972656 155.625 6.5 155.199219 6.046875 154.746094 C 5.597656 154.296875 5.167969 153.824219 4.761719 153.332031 C 4.359375 152.835938 3.980469 152.324219 3.625 151.792969 C 3.269531 151.265625 2.941406 150.71875 2.640625 150.152344 C 2.339844 149.589844 2.066406 149.015625 1.824219 148.425781 C 1.578125 147.835938 1.363281 147.234375 1.179688 146.625 C 0.992188 146.015625 0.839844 145.394531 0.714844 144.769531 C 0.589844 144.144531 0.496094 143.511719 0.433594 142.878906 C 0.371094 142.242188 0.339844 141.605469 0.339844 140.96875 L 0.339844 19.542969 C 0.339844 18.90625 0.371094 18.269531 0.433594 17.632812 C 0.496094 17 0.589844 16.367188 0.714844 15.742188 C 0.839844 15.117188 0.992188 14.5 1.179688 13.886719 C 1.363281 13.277344 1.578125 12.675781 1.824219 12.085938 C 2.066406 11.496094 2.339844 10.921875 2.640625 10.359375 C 2.941406 9.796875 3.269531 9.25 3.625 8.71875 C 3.980469 8.1875 4.359375 7.675781 4.761719 7.183594 C 5.167969 6.6875 5.597656 6.214844 6.046875 5.765625 C 6.5 5.3125 6.972656 4.886719 7.464844 4.480469 C 7.957031 4.074219 8.46875 3.695312 9 3.339844 C 9.53125 2.988281 10.078125 2.660156 10.640625 2.359375 C 11.203125 2.058594 11.78125 1.785156 12.371094 1.539062 C 12.960938 1.296875 13.5625 1.082031 14.171875 0.894531 C 14.78125 0.710938 15.402344 0.554688 16.027344 0.429688 C 16.652344 0.308594 17.285156 0.214844 17.917969 0.152344 C 18.554688 0.0898438 19.191406 0.0585938 19.828125 0.0585938 Z M 19.828125 0.0585938 " clip-rule="nonzero"/></clipPath><linearGradient x1="0" gradientTransform="matrix(775.077158, 0, 0, 160.39816, 0.339658, 0.0571049)" y1="0" x2="0" gradientUnits="userSpaceOnUse" y2="1" id="55eb9f778b"><stop stop-opacity="1" stop-color="rgb(7.839966%, 18.03894%, 29.019165%)" offset="0"/><stop stop-opacity="1" stop-color="rgb(7.803345%, 17.941284%, 28.884888%)" offset="0.0625"/><stop stop-opacity="1" stop-color="rgb(7.730103%, 17.744446%, 28.614807%)" offset="0.125"/><stop stop-opacity="1" stop-color="rgb(7.65686%, 17.547607%, 28.344727%)" offset="0.1875"/><stop stop-opacity="1" stop-color="rgb(7.583618%, 17.352295%, 28.076172%)" offset="0.25"/><stop stop-opacity="1" stop-color="rgb(7.510376%, 17.155457%, 27.806091%)" offset="0.3125"/><stop stop-opacity="1" stop-color="rgb(7.437134%, 16.960144%, 27.537537%)" offset="0.375"/><stop stop-opacity="1" stop-color="rgb(7.363892%, 16.763306%, 27.267456%)" offset="0.4375"/><stop stop-opacity="1" stop-color="rgb(7.290649%, 16.566467%, 26.998901%)" offset="0.5"/><stop stop-opacity="1" stop-color="rgb(7.217407%, 16.371155%, 26.728821%)" offset="0.5625"/><stop stop-opacity="1" stop-color="rgb(7.144165%, 16.174316%, 26.460266%)" offset="0.625"/><stop stop-opacity="1" stop-color="rgb(7.070923%, 15.977478%, 26.190186%)" offset="0.6875"/><stop stop-opacity="1" stop-color="rgb(6.997681%, 15.782166%, 25.921631%)" offset="0.75"/><stop stop-opacity="1" stop-color="rgb(6.924438%, 15.585327%, 25.65155%)" offset="0.8125"/><stop stop-opacity="1" stop-color="rgb(6.852722%, 15.390015%, 25.382996%)" offset="0.875"/><stop stop-opacity="1" stop-color="rgb(6.77948%, 15.193176%, 25.112915%)" offset="0.9375"/><stop stop-opacity="1" stop-color="rgb(6.706238%, 14.996338%, 24.842834%)" offset="1"/></linearGradient><clipPath id="a3d1e872bf"><path d="M 0 0.0585938 L 787 0.0585938 L 787 179.941406 L 0 179.941406 Z M 0 0.0585938 " clip-rule="nonzero"/></clipPath><linearGradient x1="0" gradientTransform="matrix(1034.000021, 0, 0, 214.000009, -0.00000000298451, -0.00000000000001138)" y1="0" x2="0" gradientUnits="userSpaceOnUse" y2="1.018693" id="f7da55a310"><stop stop-opacity="1" stop-color="rgb(100%, 82.749939%, 41.569519%)" offset="0"/><stop stop-opacity="1" stop-color="rgb(99.943542%, 82.661438%, 41.470337%)" offset="0.0078125"/><stop stop-opacity="1" stop-color="rgb(99.830627%, 82.485962%, 41.273499%)" offset="0.015625"/><stop stop-opacity="1" stop-color="rgb(99.717712%, 82.312012%, 41.07666%)" offset="0.0234375"/><stop stop-opacity="1" stop-color="rgb(99.606323%, 82.136536%, 40.879822%)" offset="0.03125"/><stop stop-opacity="1" stop-color="rgb(99.493408%, 81.962585%, 40.682983%)" offset="0.0390625"/><stop stop-opacity="1" stop-color="rgb(99.380493%, 81.787109%, 40.487671%)" offset="0.046875"/><stop stop-opacity="1" stop-color="rgb(99.269104%, 81.611633%, 40.290833%)" offset="0.0546875"/><stop stop-opacity="1" stop-color="rgb(99.156189%, 81.437683%, 40.093994%)" offset="0.0625"/><stop stop-opacity="1" stop-color="rgb(99.043274%, 81.262207%, 39.897156%)" offset="0.0703125"/><stop stop-opacity="1" stop-color="rgb(98.931885%, 81.088257%, 39.700317%)" offset="0.078125"/><stop stop-opacity="1" stop-color="rgb(98.81897%, 80.912781%, 39.503479%)" offset="0.0859375"/><stop stop-opacity="1" stop-color="rgb(98.706055%, 80.737305%, 39.306641%)" offset="0.09375"/><stop stop-opacity="1" stop-color="rgb(98.594666%, 80.563354%, 39.109802%)" offset="0.101562"/><stop stop-opacity="1" stop-color="rgb(98.48175%, 80.387878%, 38.912964%)" offset="0.109375"/><stop stop-opacity="1" stop-color="rgb(98.368835%, 80.213928%, 38.717651%)" offset="0.117188"/><stop stop-opacity="1" stop-color="rgb(98.257446%, 80.038452%, 38.520813%)" offset="0.125"/><stop stop-opacity="1" stop-color="rgb(98.144531%, 79.864502%, 38.323975%)" offset="0.132812"/><stop stop-opacity="1" stop-color="rgb(98.033142%, 79.689026%, 38.127136%)" offset="0.140625"/><stop stop-opacity="1" stop-color="rgb(97.920227%, 79.51355%, 37.930298%)" offset="0.148438"/><stop stop-opacity="1" stop-color="rgb(97.807312%, 79.3396%, 37.733459%)" offset="0.15625"/><stop stop-opacity="1" stop-color="rgb(97.695923%, 79.164124%, 37.536621%)" offset="0.164062"/><stop stop-opacity="1" stop-color="rgb(97.583008%, 78.990173%, 37.339783%)" offset="0.171875"/><stop stop-opacity="1" stop-color="rgb(97.470093%, 78.814697%, 37.14447%)" offset="0.179688"/><stop stop-opacity="1" stop-color="rgb(97.358704%, 78.639221%, 36.947632%)" offset="0.1875"/><stop stop-opacity="1" stop-color="rgb(97.245789%, 78.465271%, 36.750793%)" offset="0.195312"/><stop stop-opacity="1" stop-color="rgb(97.132874%, 78.289795%, 36.553955%)" offset="0.203125"/><stop stop-opacity="1" stop-color="rgb(97.021484%, 78.115845%, 36.357117%)" offset="0.210938"/><stop stop-opacity="1" stop-color="rgb(96.908569%, 77.940369%, 36.160278%)" offset="0.21875"/><stop stop-opacity="1" stop-color="rgb(96.795654%, 77.764893%, 35.96344%)" offset="0.226562"/><stop stop-opacity="1" stop-color="rgb(96.684265%, 77.590942%, 35.766602%)" offset="0.234375"/><stop stop-opacity="1" stop-color="rgb(96.57135%, 77.415466%, 35.571289%)" offset="0.242188"/><stop stop-opacity="1" stop-color="rgb(96.458435%, 77.241516%, 35.374451%)" offset="0.25"/><stop stop-opacity="1" stop-color="rgb(96.347046%, 77.06604%, 35.177612%)" offset="0.257812"/><stop stop-opacity="1" stop-color="rgb(96.234131%, 76.89209%, 34.980774%)" offset="0.265625"/><stop stop-opacity="1" stop-color="rgb(96.122742%, 76.716614%, 34.783936%)" offset="0.273438"/><stop stop-opacity="1" stop-color="rgb(96.009827%, 76.541138%, 34.587097%)" offset="0.28125"/><stop stop-opacity="1" stop-color="rgb(95.896912%, 76.367188%, 34.390259%)" offset="0.289062"/><stop stop-opacity="1" stop-color="rgb(95.785522%, 76.191711%, 34.19342%)" offset="0.296875"/><stop stop-opacity="1" stop-color="rgb(95.672607%, 76.017761%, 33.996582%)" offset="0.304688"/><stop stop-opacity="1" stop-color="rgb(95.559692%, 75.842285%, 33.80127%)" offset="0.3125"/><stop stop-opacity="1" stop-color="rgb(95.448303%, 75.666809%, 33.604431%)" offset="0.320312"/><stop stop-opacity="1" stop-color="rgb(95.335388%, 75.492859%, 33.407593%)" offset="0.328125"/><stop stop-opacity="1" stop-color="rgb(95.222473%, 75.317383%, 33.210754%)" offset="0.335938"/><stop stop-opacity="1" stop-color="rgb(95.111084%, 75.143433%, 33.013916%)" offset="0.34375"/><stop stop-opacity="1" stop-color="rgb(94.998169%, 74.967957%, 32.817078%)" offset="0.351562"/><stop stop-opacity="1" stop-color="rgb(94.885254%, 74.79248%, 32.620239%)" offset="0.359375"/><stop stop-opacity="1" stop-color="rgb(94.773865%, 74.61853%, 32.423401%)" offset="0.367188"/><stop stop-opacity="1" stop-color="rgb(94.66095%, 74.443054%, 32.228088%)" offset="0.375"/><stop stop-opacity="1" stop-color="rgb(94.549561%, 74.269104%, 32.03125%)" offset="0.382812"/><stop stop-opacity="1" stop-color="rgb(94.436646%, 74.093628%, 31.834412%)" offset="0.390625"/><stop stop-opacity="1" stop-color="rgb(94.32373%, 73.918152%, 31.637573%)" offset="0.398438"/><stop stop-opacity="1" stop-color="rgb(94.212341%, 73.744202%, 31.440735%)" offset="0.40625"/><stop stop-opacity="1" stop-color="rgb(94.099426%, 73.568726%, 31.243896%)" offset="0.414062"/><stop stop-opacity="1" stop-color="rgb(93.986511%, 73.394775%, 31.047058%)" offset="0.421875"/><stop stop-opacity="1" stop-color="rgb(93.875122%, 73.219299%, 30.85022%)" offset="0.429687"/><stop stop-opacity="1" stop-color="rgb(93.762207%, 73.045349%, 30.654907%)" offset="0.4375"/><stop stop-opacity="1" stop-color="rgb(93.649292%, 72.869873%, 30.458069%)" offset="0.445312"/><stop stop-opacity="1" stop-color="rgb(93.537903%, 72.694397%, 30.26123%)" offset="0.453125"/><stop stop-opacity="1" stop-color="rgb(93.424988%, 72.520447%, 30.064392%)" offset="0.460938"/><stop stop-opacity="1" stop-color="rgb(93.312073%, 72.344971%, 29.867554%)" offset="0.46875"/><stop stop-opacity="1" stop-color="rgb(93.200684%, 72.171021%, 29.670715%)" offset="0.476562"/><stop stop-opacity="1" stop-color="rgb(93.087769%, 71.995544%, 29.473877%)" offset="0.484375"/><stop stop-opacity="1" stop-color="rgb(92.974854%, 71.820068%, 29.277039%)" offset="0.492188"/><stop stop-opacity="1" stop-color="rgb(92.863464%, 71.646118%, 29.0802%)" offset="0.5"/><stop stop-opacity="1" stop-color="rgb(92.750549%, 71.470642%, 28.884888%)" offset="0.507813"/><stop stop-opacity="1" stop-color="rgb(92.63916%, 71.296692%, 28.688049%)" offset="0.515625"/><stop stop-opacity="1" stop-color="rgb(92.526245%, 71.121216%, 28.491211%)" offset="0.523438"/><stop stop-opacity="1" stop-color="rgb(92.41333%, 70.94574%, 28.294373%)" offset="0.53125"/><stop stop-opacity="1" stop-color="rgb(92.301941%, 70.77179%, 28.097534%)" offset="0.539062"/><stop stop-opacity="1" stop-color="rgb(92.189026%, 70.596313%, 27.900696%)" offset="0.546875"/><stop stop-opacity="1" stop-color="rgb(92.076111%, 70.422363%, 27.703857%)" offset="0.554688"/><stop stop-opacity="1" stop-color="rgb(91.964722%, 70.246887%, 27.507019%)" offset="0.5625"/><stop stop-opacity="1" stop-color="rgb(91.851807%, 70.072937%, 27.311707%)" offset="0.570312"/><stop stop-opacity="1" stop-color="rgb(91.738892%, 69.897461%, 27.114868%)" offset="0.578125"/><stop stop-opacity="1" stop-color="rgb(91.627502%, 69.721985%, 26.91803%)" offset="0.585938"/><stop stop-opacity="1" stop-color="rgb(91.514587%, 69.548035%, 26.721191%)" offset="0.59375"/><stop stop-opacity="1" stop-color="rgb(91.401672%, 69.372559%, 26.524353%)" offset="0.601563"/><stop stop-opacity="1" stop-color="rgb(91.290283%, 69.198608%, 26.327515%)" offset="0.609375"/><stop stop-opacity="1" stop-color="rgb(91.177368%, 69.023132%, 26.130676%)" offset="0.617188"/><stop stop-opacity="1" stop-color="rgb(91.064453%, 68.847656%, 25.933838%)" offset="0.625"/><stop stop-opacity="1" stop-color="rgb(90.953064%, 68.673706%, 25.738525%)" offset="0.632812"/><stop stop-opacity="1" stop-color="rgb(90.840149%, 68.49823%, 25.541687%)" offset="0.640625"/><stop stop-opacity="1" stop-color="rgb(90.72876%, 68.32428%, 25.344849%)" offset="0.648437"/><stop stop-opacity="1" stop-color="rgb(90.615845%, 68.148804%, 25.14801%)" offset="0.65625"/><stop stop-opacity="1" stop-color="rgb(90.50293%, 67.973328%, 24.951172%)" offset="0.664063"/><stop stop-opacity="1" stop-color="rgb(90.391541%, 67.799377%, 24.754333%)" offset="0.671875"/><stop stop-opacity="1" stop-color="rgb(90.278625%, 67.623901%, 24.557495%)" offset="0.679688"/><stop stop-opacity="1" stop-color="rgb(90.16571%, 67.449951%, 24.360657%)" offset="0.6875"/><stop stop-opacity="1" stop-color="rgb(90.054321%, 67.274475%, 24.163818%)" offset="0.695312"/><stop stop-opacity="1" stop-color="rgb(89.941406%, 67.100525%, 23.968506%)" offset="0.703125"/><stop stop-opacity="1" stop-color="rgb(89.828491%, 66.925049%, 23.771667%)" offset="0.710937"/><stop stop-opacity="1" stop-color="rgb(89.717102%, 66.749573%, 23.574829%)" offset="0.71875"/><stop stop-opacity="1" stop-color="rgb(89.604187%, 66.575623%, 23.377991%)" offset="0.726562"/><stop stop-opacity="1" stop-color="rgb(89.491272%, 66.400146%, 23.181152%)" offset="0.734375"/><stop stop-opacity="1" stop-color="rgb(89.379883%, 66.226196%, 22.984314%)" offset="0.742188"/><stop stop-opacity="1" stop-color="rgb(89.266968%, 66.05072%, 22.787476%)" offset="0.75"/><stop stop-opacity="1" stop-color="rgb(89.155579%, 65.875244%, 22.590637%)" offset="0.757812"/><stop stop-opacity="1" stop-color="rgb(89.042664%, 65.701294%, 22.395325%)" offset="0.765625"/><stop stop-opacity="1" stop-color="rgb(88.929749%, 65.525818%, 22.198486%)" offset="0.773437"/><stop stop-opacity="1" stop-color="rgb(88.818359%, 65.351868%, 22.001648%)" offset="0.78125"/><stop stop-opacity="1" stop-color="rgb(88.705444%, 65.176392%, 21.80481%)" offset="0.789062"/><stop stop-opacity="1" stop-color="rgb(88.592529%, 65.000916%, 21.607971%)" offset="0.796875"/><stop stop-opacity="1" stop-color="rgb(88.48114%, 64.826965%, 21.411133%)" offset="0.804687"/><stop stop-opacity="1" stop-color="rgb(88.368225%, 64.651489%, 21.214294%)" offset="0.8125"/><stop stop-opacity="1" stop-color="rgb(88.25531%, 64.477539%, 21.017456%)" offset="0.820312"/><stop stop-opacity="1" stop-color="rgb(88.143921%, 64.302063%, 20.822144%)" offset="0.828125"/><stop stop-opacity="1" stop-color="rgb(88.031006%, 64.128113%, 20.625305%)" offset="0.835938"/><stop stop-opacity="1" stop-color="rgb(87.918091%, 63.952637%, 20.428467%)" offset="0.84375"/><stop stop-opacity="1" stop-color="rgb(87.806702%, 63.777161%, 20.231628%)" offset="0.851562"/><stop stop-opacity="1" stop-color="rgb(87.693787%, 63.60321%, 20.03479%)" offset="0.859375"/><stop stop-opacity="1" stop-color="rgb(87.580872%, 63.427734%, 19.837952%)" offset="0.867187"/><stop stop-opacity="1" stop-color="rgb(87.469482%, 63.253784%, 19.641113%)" offset="0.875"/><stop stop-opacity="1" stop-color="rgb(87.356567%, 63.078308%, 19.444275%)" offset="0.882812"/><stop stop-opacity="1" stop-color="rgb(87.245178%, 62.902832%, 19.247437%)" offset="0.890625"/><stop stop-opacity="1" stop-color="rgb(87.132263%, 62.728882%, 19.052124%)" offset="0.898438"/><stop stop-opacity="1" stop-color="rgb(87.019348%, 62.553406%, 18.855286%)" offset="0.90625"/><stop stop-opacity="1" stop-color="rgb(86.907959%, 62.379456%, 18.658447%)" offset="0.914062"/><stop stop-opacity="1" stop-color="rgb(86.795044%, 62.203979%, 18.461609%)" offset="0.921875"/><stop stop-opacity="1" stop-color="rgb(86.682129%, 62.028503%, 18.264771%)" offset="0.929688"/><stop stop-opacity="1" stop-color="rgb(86.57074%, 61.854553%, 18.067932%)" offset="0.9375"/><stop stop-opacity="1" stop-color="rgb(86.457825%, 61.679077%, 17.871094%)" offset="0.945312"/><stop stop-opacity="1" stop-color="rgb(86.34491%, 61.505127%, 17.674255%)" offset="0.953125"/><stop stop-opacity="1" stop-color="rgb(86.233521%, 61.329651%, 17.478943%)" offset="0.960937"/><stop stop-opacity="1" stop-color="rgb(86.120605%, 61.154175%, 17.282104%)" offset="0.96875"/><stop stop-opacity="1" stop-color="rgb(85.971069%, 60.922241%, 17.021179%)" offset="1"/></linearGradient></defs><path fill="#000000" d="M 25.824219 10.550781 L 761.925781 10.550781 C 762.5625 10.550781 763.199219 10.582031 763.835938 10.644531 C 764.46875 10.707031 765.101562 10.800781 765.726562 10.925781 C 766.351562 11.050781 766.972656 11.203125 767.582031 11.390625 C 768.191406 11.574219 768.792969 11.789062 769.382812 12.035156 C 769.972656 12.277344 770.546875 12.550781 771.109375 12.851562 C 771.675781 13.152344 772.222656 13.480469 772.75 13.835938 C 773.28125 14.1875 773.792969 14.570312 774.289062 14.972656 C 774.78125 15.378906 775.253906 15.808594 775.707031 16.257812 C 776.15625 16.710938 776.585938 17.183594 776.988281 17.675781 C 777.394531 18.167969 777.773438 18.679688 778.128906 19.210938 C 778.484375 19.742188 778.8125 20.289062 779.113281 20.851562 C 779.414062 21.414062 779.6875 21.992188 779.929688 22.582031 C 780.175781 23.171875 780.390625 23.769531 780.574219 24.382812 C 780.757812 24.992188 780.914062 25.609375 781.039062 26.234375 C 781.164062 26.863281 781.257812 27.492188 781.320312 28.128906 C 781.382812 28.761719 781.414062 29.398438 781.414062 30.039062 L 781.414062 151.460938 C 781.414062 152.097656 781.382812 152.734375 781.320312 153.371094 C 781.257812 154.007812 781.164062 154.636719 781.039062 155.261719 C 780.914062 155.890625 780.757812 156.507812 780.574219 157.117188 C 780.390625 157.730469 780.175781 158.328125 779.929688 158.917969 C 779.6875 159.507812 779.414062 160.085938 779.113281 160.648438 C 778.8125 161.210938 778.484375 161.757812 778.128906 162.289062 C 777.773438 162.820312 777.394531 163.332031 776.988281 163.824219 C 776.585938 164.316406 776.15625 164.789062 775.707031 165.242188 C 775.253906 165.691406 774.78125 166.121094 774.289062 166.523438 C 773.792969 166.929688 773.28125 167.308594 772.75 167.664062 C 772.222656 168.019531 771.675781 168.347656 771.109375 168.648438 C 770.546875 168.949219 769.972656 169.222656 769.382812 169.464844 C 768.792969 169.710938 768.191406 169.925781 767.582031 170.109375 C 766.972656 170.292969 766.351562 170.449219 765.726562 170.574219 C 765.101562 170.699219 764.46875 170.792969 763.835938 170.855469 C 763.199219 170.917969 762.5625 170.949219 761.925781 170.949219 L 25.824219 170.949219 C 25.1875 170.949219 24.550781 170.917969 23.914062 170.855469 C 23.28125 170.792969 22.648438 170.699219 22.023438 170.574219 C 21.398438 170.449219 20.777344 170.292969 20.167969 170.109375 C 19.558594 169.925781 18.957031 169.710938 18.367188 169.464844 C 17.777344 169.222656 17.203125 168.949219 16.636719 168.648438 C 16.074219 168.347656 15.527344 168.019531 14.996094 167.664062 C 14.46875 167.308594 13.957031 166.929688 13.460938 166.523438 C 12.96875 166.121094 12.496094 165.691406 12.042969 165.242188 C 11.59375 164.789062 11.164062 164.316406 10.761719 163.824219 C 10.355469 163.332031 9.976562 162.820312 9.621094 162.289062 C 9.265625 161.757812 8.9375 161.210938 8.636719 160.648438 C 8.335938 160.085938 8.0625 159.507812 7.820312 158.917969 C 7.574219 158.328125 7.359375 157.730469 7.175781 157.117188 C 6.992188 156.507812 6.835938 155.890625 6.710938 155.261719 C 6.585938 154.636719 6.492188 154.007812 6.429688 153.371094 C 6.367188 152.734375 6.335938 152.097656 6.335938 151.460938 L 6.335938 30.039062 C 6.335938 29.398438 6.367188 28.761719 6.429688 28.128906 C 6.492188 27.492188 6.585938 26.863281 6.710938 26.234375 C 6.835938 25.609375 6.992188 24.992188 7.175781 24.382812 C 7.359375 23.769531 7.574219 23.171875 7.820312 22.582031 C 8.0625 21.992188 8.335938 21.414062 8.636719 20.851562 C 8.9375 20.289062 9.265625 19.742188 9.621094 19.210938 C 9.976562 18.679688 10.355469 18.167969 10.761719 17.675781 C 11.164062 17.183594 11.59375 16.710938 12.042969 16.257812 C 12.496094 15.808594 12.96875 15.378906 13.460938 14.972656 C 13.957031 14.570312 14.46875 14.1875 14.996094 13.835938 C 15.527344 13.480469 16.074219 13.152344 16.636719 12.851562 C 17.203125 12.550781 17.777344 12.277344 18.367188 12.035156 C 18.957031 11.789062 19.558594 11.574219 20.167969 11.390625 C 20.777344 11.203125 21.398438 11.050781 22.023438 10.925781 C 22.648438 10.800781 23.28125 10.707031 23.914062 10.644531 C 24.550781 10.582031 25.1875 10.550781 25.824219 10.550781 Z M 25.824219 10.550781 " fill-opacity="0.25" fill-rule="nonzero"/><g clip-path="url(#c5d6fcbbb7)"><g clip-path="url(#eb316badce)"><path fill="url(#55eb9f778b)" d="M 0.339844 0.0585938 L 0.339844 160.457031 L 775.417969 160.457031 L 775.417969 0.0585938 Z M 0.339844 0.0585938 " fill-rule="nonzero"/></g></g><g clip-path="url(#a3d1e872bf)"><path stroke-linecap="butt" transform="matrix(0.749591, 0, 0, 0.749524, 0.339658, 0.0571049)" fill="none" stroke-linejoin="miter" d="M 25.998799 0.0019864 L 1007.997797 0.0019864 C 1008.85243 0.0019864 1009.701851 0.0436795 1010.546061 0.127066 C 1011.395483 0.210452 1012.239693 0.335531 1013.073481 0.497092 C 1013.907269 0.663865 1014.730635 0.87233 1015.548789 1.117277 C 1016.361732 1.367436 1017.164253 1.654076 1017.951141 1.977198 C 1018.738028 2.305531 1019.504071 2.670346 1020.25448 3.071643 C 1021.004889 3.472939 1021.734454 3.910717 1022.443173 4.379764 C 1023.151893 4.854024 1023.834557 5.359553 1024.496376 5.901563 C 1025.152984 6.443574 1025.783537 7.011643 1026.382822 7.616193 C 1026.987318 8.215532 1027.560547 8.84614 1028.097298 9.508019 C 1028.63926 10.164685 1029.144744 10.84741 1029.618961 11.556193 C 1030.093178 12.264976 1030.530917 12.994606 1030.932177 13.745082 C 1031.333438 14.495558 1031.693009 15.26167 1032.021313 16.048627 C 1032.344406 16.835585 1032.63102 17.638178 1032.881157 18.451194 C 1033.126082 19.269421 1033.334529 20.09286 1033.501287 20.926723 C 1033.668044 21.760585 1033.793112 22.604871 1033.876491 23.449157 C 1033.95987 24.298654 1034.001559 25.148151 1034.001559 25.997649 L 1034.001559 188.001492 C 1034.001559 188.850989 1033.95987 189.700486 1033.876491 190.549984 C 1033.793112 191.39427 1033.668044 192.238555 1033.501287 193.072418 C 1033.334529 193.90628 1033.126082 194.734931 1032.881157 195.547947 C 1032.63102 196.360963 1032.344406 197.163555 1032.021313 197.950513 C 1031.693009 198.737471 1031.333438 199.503582 1030.932177 200.254058 C 1030.530917 201.009746 1030.093178 201.739376 1029.618961 202.442947 C 1029.144744 203.15173 1028.63926 203.834455 1028.097298 204.496334 C 1027.560547 205.153 1026.987318 205.783609 1026.382822 206.382947 C 1025.783537 206.987498 1025.152984 207.555566 1024.496376 208.097577 C 1023.834557 208.639588 1023.151893 209.145117 1022.443173 209.619376 C 1021.734454 210.093635 1021.004889 210.526202 1020.25448 210.927498 C 1019.504071 211.328794 1018.738028 211.693609 1017.951141 212.021942 C 1017.164253 212.345064 1016.361732 212.631704 1015.548789 212.881863 C 1014.730635 213.12681 1013.907269 213.335276 1013.073481 213.502048 C 1012.239693 213.668821 1011.395483 213.7939 1010.546061 213.877286 C 1009.701851 213.960673 1008.85243 214.002366 1007.997797 214.002366 L 25.998799 214.002366 C 25.149377 214.002366 24.299956 213.960673 23.450534 213.877286 C 22.606324 213.7939 21.762113 213.668821 20.928325 213.502048 C 20.094537 213.335276 19.265961 213.12681 18.453017 212.881863 C 17.640074 212.631704 16.837553 212.345064 16.050666 212.021942 C 15.263778 211.693609 14.492524 211.328794 13.742115 210.927498 C 12.991706 210.526202 12.262142 210.093635 11.553422 209.619376 C 10.844702 209.145117 10.162038 208.639588 9.50543 208.097577 C 8.848822 207.555566 8.21827 206.987498 7.613774 206.382947 C 7.014489 205.783609 6.441259 205.153 5.899297 204.496334 C 5.362546 203.834455 4.857062 203.15173 4.382845 202.442947 C 3.908628 201.739376 3.47089 201.009746 3.069629 200.254058 C 2.668369 199.503582 2.303586 198.737471 1.980494 197.950513 C 1.65219 197.163555 1.365575 196.360963 1.12065 195.547947 C 0.870513 194.734931 0.667278 193.90628 0.50052 193.072418 C 0.333762 192.238555 0.208694 191.39427 0.125315 190.549984 C 0.0419366 189.700486 0.00024722 188.850989 0.00024722 188.001492 L 0.00024722 25.997649 C 0.00024722 25.148151 0.0419366 24.298654 0.125315 23.449157 C 0.208694 22.604871 0.333762 21.760585 0.50052 20.926723 C 0.667278 20.09286 0.870513 19.269421 1.12065 18.451194 C 1.365575 17.638178 1.65219 16.835585 1.980494 16.048627 C 2.303586 15.26167 2.668369 14.495558 3.069629 13.745082 C 3.47089 12.994606 3.908628 12.264976 4.382845 11.556193 C 4.857062 10.84741 5.362546 10.164685 5.899297 9.508019 C 6.441259 8.84614 7.014489 8.215532 7.613774 7.616193 C 8.21827 7.011643 8.848822 6.443574 9.50543 5.901563 C 10.162038 5.359553 10.844702 4.854024 11.553422 4.379764 C 12.262142 3.910717 12.991706 3.472939 13.742115 3.071643 C 14.492524 2.670346 15.263778 2.305531 16.050666 1.977198 C 16.837553 1.654076 17.640074 1.367436 18.453017 1.117277 C 19.265961 0.87233 20.094537 0.663865 20.928325 0.497092 C 21.762113 0.335531 22.606324 0.210452 23.450534 0.127066 C 24.299956 0.0436795 25.149377 0.0019864 25.998799 0.0019864 Z M 25.998799 0.0019864 " stroke="url(#f7da55a310)" stroke-width="8" stroke-miterlimit="4"/></g></svg>