<svg xmlns="http://www.w3.org/2000/svg" xmlns:xlink="http://www.w3.org/1999/xlink" width="600" zoomAndPan="magnify" viewBox="0 0 450 89.999999" height="120" preserveAspectRatio="xMidYMid meet" version="1.0"><path stroke-linecap="butt" transform="matrix(0.75, 0, 0, 0.747469, 0.0000025, 0.151832)" fill-opacity="1" fill="#ffffff" fill-rule="nonzero" stroke-linejoin="miter" d="M 62 2.00223 L 538.000025 2.00223 C 539.963567 2.00223 541.927109 2.091071 543.880234 2.279206 C 545.838567 2.467341 547.776067 2.744317 549.703151 3.115361 C 551.630234 3.486404 553.536484 3.946289 555.416693 4.495016 C 557.296901 5.048968 559.14586 5.686536 560.963568 6.412945 C 562.776068 7.139354 564.55211 7.954605 566.281277 8.848245 C 568.015652 9.741885 569.697943 10.719141 571.33336 11.774786 C 572.968777 12.830431 574.546902 13.95924 576.062527 15.166438 C 577.58336 16.36841 579.036486 17.643545 580.427111 18.986619 C 581.817736 20.329692 583.135444 21.735477 584.380236 23.203973 C 585.625028 24.672469 586.796903 26.198451 587.890653 27.776693 C 588.979194 29.354935 589.989611 30.985436 590.916695 32.657745 C 591.843778 34.33528 592.68232 36.049397 593.43232 37.805321 C 594.18232 39.561246 594.843778 41.3433 595.416695 43.161936 C 595.984403 44.980572 596.46357 46.820112 596.848987 48.685782 C 597.229195 50.546226 597.520862 52.422348 597.71357 54.314147 C 597.906278 56.205947 598.000028 58.102972 598.000028 59.999998 C 598.000028 61.897024 597.906278 63.794049 597.71357 65.685849 C 597.520862 67.577648 597.229195 69.45377 596.848987 71.314214 C 596.46357 73.179884 595.984403 75.019424 595.416695 76.83806 C 594.843778 78.656696 594.18232 80.43875 593.43232 82.194675 C 592.68232 83.950599 591.843778 85.664716 590.916695 87.342251 C 589.989611 89.01456 588.979194 90.645061 587.885444 92.223303 C 586.796903 93.801545 585.625028 95.327527 584.380236 96.796023 C 583.135444 98.264519 581.817736 99.670304 580.427111 101.013377 C 579.036486 102.35645 577.58336 103.631586 576.062527 104.833558 C 574.546902 106.040756 572.968777 107.169565 571.33336 108.22521 C 569.697943 109.280855 568.015652 110.258111 566.281277 111.151751 C 564.55211 112.045391 562.776068 112.860642 560.963568 113.587051 C 559.14586 114.31346 557.296901 114.951028 555.416693 115.50498 C 553.536484 116.053707 551.630234 116.513592 549.703151 116.884635 C 547.776067 117.255679 545.838567 117.532655 543.880234 117.72079 C 541.927109 117.908925 539.963567 117.997766 538.000025 117.997766 L 62 117.997766 C 60.036458 117.997766 58.072916 117.908925 56.119791 117.72079 C 54.161458 117.532655 52.223958 117.255679 50.296874 116.884635 C 48.369791 116.513592 46.463541 116.053707 44.583332 115.50498 C 42.703124 114.951028 40.854165 114.31346 39.036457 113.587051 C 37.223957 112.860642 35.447915 112.045391 33.718748 111.151751 C 31.984373 110.258111 30.302082 109.280855 28.666665 108.22521 C 27.031248 107.169565 25.453123 106.040756 23.937498 104.833558 C 22.416665 103.631586 20.963539 102.35645 19.572914 101.013377 C 18.182289 99.670304 16.864581 98.264519 15.619789 96.796023 C 14.374997 95.327527 13.203122 93.801545 12.109372 92.223303 C 11.020831 90.645061 10.010414 89.01456 9.08333 87.342251 C 8.156247 85.664716 7.317705 83.950599 6.567705 82.194675 C 5.817705 80.43875 5.156247 78.656696 4.58333 76.83806 C 4.015622 75.019424 3.536455 73.179884 3.151038 71.314214 C 2.77083 69.45377 2.479163 67.577648 2.286455 65.685849 C 2.093747 63.794049 1.999997 61.897024 1.999997 59.999998 C 1.999997 58.102972 2.093747 56.205947 2.286455 54.314147 C 2.479163 52.422348 2.77083 50.546226 3.151038 48.685782 C 3.536455 46.820112 4.015622 44.980572 4.58333 43.161936 C 5.156247 41.3433 5.817705 39.561246 6.567705 37.805321 C 7.317705 36.049397 8.156247 34.33528 9.08333 32.657745 C 10.010414 30.985436 11.020831 29.354935 12.109372 27.776693 C 13.203122 26.198451 14.374997 24.672469 15.619789 23.203973 C 16.864581 21.735477 18.182289 20.329692 19.572914 18.986619 C 20.963539 17.643545 22.416665 16.36841 23.937498 15.166438 C 25.453123 13.95924 27.031248 12.830431 28.666665 11.774786 C 30.302082 10.719141 31.984373 9.741885 33.718748 8.848245 C 35.447915 7.954605 37.223957 7.139354 39.036457 6.412945 C 40.854165 5.686536 42.703124 5.048968 44.583332 4.495016 C 46.463541 3.946289 48.369791 3.486404 50.296874 3.115361 C 52.223958 2.744317 54.161458 2.467341 56.119791 2.279206 C 58.072916 2.091071 60.036458 2.00223 62 2.00223 Z M 62 2.00223 " stroke="#e0e0e0" stroke-width="4" stroke-opacity="1" stroke-miterlimit="4"/><path stroke-linecap="butt" transform="matrix(0.75, 0, 0, 0.747469, 0.0000025, 0.151832)" fill-opacity="1" fill="#ffffff" fill-rule="nonzero" stroke-linejoin="miter" d="M 116.000003 59.999998 C 116.000003 61.181066 115.942711 62.356909 115.828128 63.527525 C 115.713544 64.703367 115.536461 65.868757 115.307294 67.023696 C 115.078128 68.178634 114.791669 69.323121 114.447919 70.451929 C 114.109378 71.580738 113.708336 72.688643 113.260419 73.775644 C 112.807294 74.867871 112.307294 75.928742 111.750003 76.968709 C 111.192711 78.008676 110.588544 79.022513 109.932294 79.999769 C 109.276044 80.98225 108.578127 81.92815 107.828127 82.837468 C 107.078127 83.752012 106.291669 84.619523 105.458336 85.455677 C 104.619794 86.291832 103.750002 87.080953 102.838544 87.828266 C 101.927085 88.575579 100.979169 89.275858 100.000002 89.93433 C 99.020835 90.587576 98.010419 91.193788 96.968752 91.74774 C 95.932293 92.306918 94.864585 92.808611 93.776043 93.258044 C 92.687502 93.712703 91.578126 94.109876 90.447918 94.449564 C 89.322918 94.794478 88.177085 95.07668 87.020835 95.306623 C 85.864585 95.536565 84.703126 95.709022 83.526043 95.829219 C 82.354168 95.94419 81.177084 96.001676 80.000001 96.001676 C 78.822917 96.001676 77.645834 95.94419 76.473959 95.829219 C 75.296876 95.709022 74.135417 95.536565 72.979167 95.306623 C 71.822917 95.07668 70.677084 94.794478 69.552084 94.449564 C 68.421875 94.109876 67.3125 93.712703 66.223958 93.258044 C 65.135417 92.808611 64.067708 92.306918 63.03125 91.74774 C 61.989583 91.193788 60.979167 90.587576 60 89.93433 C 59.020833 89.275858 58.072916 88.575579 57.161458 87.828266 C 56.25 87.080953 55.380208 86.291832 54.541666 85.455677 C 53.708333 84.619523 52.921874 83.752012 52.171874 82.837468 C 51.421874 81.92815 50.723958 80.98225 50.067708 79.999769 C 49.411458 79.022513 48.807291 78.008676 48.249999 76.968709 C 47.692708 75.928742 47.192707 74.867871 46.739582 73.775644 C 46.291666 72.688643 45.890624 71.580738 45.552082 70.451929 C 45.208332 69.323121 44.921874 68.178634 44.692707 67.023696 C 44.463541 65.868757 44.286457 64.703367 44.171874 63.527525 C 44.057291 62.356909 43.999999 61.181066 43.999999 59.999998 C 43.999999 58.81893 44.057291 57.643087 44.171874 56.472471 C 44.286457 55.296629 44.463541 54.131238 44.692707 52.9763 C 44.921874 51.821362 45.208332 50.676875 45.552082 49.548066 C 45.890624 48.419258 46.291666 47.311353 46.739582 46.224352 C 47.192707 45.132125 47.692708 44.071254 48.249999 43.031287 C 48.807291 41.99132 49.411458 40.977483 50.067708 40.000227 C 50.723958 39.017745 51.421874 38.071846 52.171874 37.162528 C 52.921874 36.247984 53.708333 35.380473 54.541666 34.544319 C 55.380208 33.708164 56.25 32.919043 57.161458 32.17173 C 58.072916 31.424417 59.020833 30.724138 60 30.065666 C 60.979167 29.41242 61.989583 28.806208 63.03125 28.252256 C 64.067708 27.693078 65.135417 27.191385 66.223958 26.741952 C 67.3125 26.287293 68.421875 25.890119 69.552084 25.550432 C 70.677084 25.205518 71.822917 24.923316 72.979167 24.693373 C 74.135417 24.463431 75.296876 24.290974 76.473959 24.170777 C 77.645834 24.055805 78.822917 23.99832 80.000001 23.99832 C 81.177084 23.99832 82.354168 24.055805 83.526043 24.170777 C 84.703126 24.290974 85.864585 24.463431 87.020835 24.693373 C 88.177085 24.923316 89.322918 25.205518 90.447918 25.550432 C 91.578126 25.890119 92.687502 26.287293 93.776043 26.741952 C 94.864585 27.191385 95.932293 27.693078 96.968752 28.252256 C 98.010419 28.806208 99.020835 29.41242 100.000002 30.065666 C 100.979169 30.724138 101.927085 31.424417 102.838544 32.17173 C 103.750002 32.919043 104.619794 33.708164 105.458336 34.544319 C 106.291669 35.380473 107.078127 36.247984 107.828127 37.162528 C 108.578127 38.071846 109.276044 39.017745 109.932294 40.000227 C 110.588544 40.977483 111.192711 41.99132 111.750003 43.031287 C 112.307294 44.071254 112.807294 45.132125 113.260419 46.224352 C 113.708336 47.311353 114.109378 48.419258 114.447919 49.548066 C 114.791669 50.676875 115.078128 51.821362 115.307294 52.9763 C 115.536461 54.131238 115.713544 55.296629 115.828128 56.472471 C 115.942711 57.643087 116.000003 58.81893 116.000003 59.999998 Z M 116.000003 59.999998 " stroke="#e0e0e0" stroke-width="2" stroke-opacity="1" stroke-miterlimit="4"/><path fill="#ea4335" d="M 60 36.589844 C 61.742188 36.589844 63.261719 37.207031 64.445312 38.273438 L 67.761719 34.964844 C 64.78125 33.226562 62.082031 32.105469 60 32.105469 C 54.542969 32.105469 50.773438 34.683594 49.085938 38.328125 L 52.292969 41.636719 C 53.195312 38.664062 55.78125 36.589844 60 36.589844 Z M 60 36.589844 " fill-opacity="1" fill-rule="nonzero"/><path fill="#fbbc05" d="M 52.292969 46.792969 C 52.070312 46.066406 51.898438 45.335938 51.898438 44.550781 C 51.898438 43.765625 52.011719 43.039062 52.292969 42.308594 L 52.292969 39.226562 L 48.355469 39.226562 C 47.710938 40.945312 47.46875 42.722656 47.625 44.550781 C 47.625 46.570312 48.132812 48.476562 49.085938 50.101562 Z M 52.292969 46.792969 " fill-opacity="1" fill-rule="nonzero"/><path fill="#34a853" d="M 58.875 56.210938 C 62.082031 56.210938 64.78125 55.148438 66.75 53.351562 L 62.925781 50.550781 C 61.855469 51.277344 60.449219 51.671875 58.875 51.671875 C 55.78125 51.671875 53.195312 49.597656 52.292969 46.792969 L 48.355469 46.792969 L 48.355469 49.878906 C 50.773438 53.632812 54.542969 56.210938 58.875 56.210938 Z M 58.875 56.210938 " fill-opacity="1" fill-rule="nonzero"/><path fill="#4285f4" d="M 71.023438 43.039062 C 71.023438 42.140625 70.96875 41.242188 70.800781 40.402344 L 58.875 40.402344 L 58.875 45.449219 L 65.792969 45.449219 C 65.511719 46.851562 64.667969 48.027344 63.429688 48.8125 L 63.429688 51.613281 L 67.257812 51.613281 C 69.507812 49.539062 70.800781 46.511719 70.800781 43.039062 Z M 71.023438 43.039062 " fill-opacity="1" fill-rule="nonzero"/></svg>