<svg xmlns="http://www.w3.org/2000/svg" xmlns:xlink="http://www.w3.org/1999/xlink" width="240" zoomAndPan="magnify" viewBox="0 0 180 74.999997" height="100" preserveAspectRatio="xMidYMid meet" version="1.0"><defs><clipPath id="318d4f2aeb"><path d="M 7 7 L 170 7 L 170 59 L 7 59 Z M 7 7 " clip-rule="nonzero"/></clipPath><clipPath id="44aa1103ad"><path d="M 33.382812 7.351562 L 143.617188 7.351562 C 144.457031 7.351562 145.296875 7.390625 146.136719 7.472656 C 146.976562 7.554688 147.808594 7.679688 148.632812 7.84375 C 149.460938 8.007812 150.277344 8.214844 151.082031 8.457031 C 151.886719 8.703125 152.679688 8.984375 153.457031 9.308594 C 154.238281 9.628906 154.996094 9.992188 155.742188 10.386719 C 156.484375 10.785156 157.207031 11.21875 157.90625 11.683594 C 158.605469 12.152344 159.28125 12.65625 159.933594 13.1875 C 160.585938 13.722656 161.207031 14.289062 161.804688 14.882812 C 162.398438 15.480469 162.964844 16.105469 163.5 16.753906 C 164.03125 17.40625 164.535156 18.082031 165.003906 18.78125 C 165.46875 19.484375 165.902344 20.207031 166.300781 20.949219 C 166.695312 21.691406 167.054688 22.453125 167.378906 23.230469 C 167.703125 24.007812 167.984375 24.800781 168.230469 25.609375 C 168.472656 26.414062 168.679688 27.230469 168.84375 28.054688 C 169.007812 28.882812 169.128906 29.714844 169.214844 30.554688 C 169.296875 31.390625 169.335938 32.234375 169.335938 33.074219 C 169.335938 33.917969 169.296875 34.757812 169.214844 35.597656 C 169.128906 36.433594 169.007812 37.265625 168.84375 38.09375 C 168.679688 38.921875 168.472656 39.734375 168.230469 40.542969 C 167.984375 41.347656 167.703125 42.140625 167.378906 42.917969 C 167.054688 43.699219 166.695312 44.457031 166.300781 45.203125 C 165.902344 45.945312 165.46875 46.667969 165.003906 47.367188 C 164.535156 48.066406 164.03125 48.742188 163.5 49.394531 C 162.964844 50.046875 162.398438 50.667969 161.804688 51.265625 C 161.207031 51.859375 160.585938 52.425781 159.933594 52.960938 C 159.28125 53.496094 158.605469 53.996094 157.90625 54.464844 C 157.207031 54.933594 156.484375 55.367188 155.742188 55.761719 C 154.996094 56.160156 154.238281 56.519531 153.457031 56.839844 C 152.679688 57.164062 151.886719 57.449219 151.082031 57.691406 C 150.277344 57.9375 149.460938 58.140625 148.632812 58.304688 C 147.808594 58.46875 146.976562 58.59375 146.136719 58.675781 C 145.296875 58.757812 144.457031 58.800781 143.617188 58.800781 L 33.382812 58.800781 C 32.542969 58.800781 31.703125 58.757812 30.863281 58.675781 C 30.023438 58.59375 29.191406 58.46875 28.367188 58.304688 C 27.539062 58.140625 26.722656 57.9375 25.917969 57.691406 C 25.113281 57.449219 24.320312 57.164062 23.539062 56.839844 C 22.761719 56.519531 22.003906 56.160156 21.257812 55.761719 C 20.515625 55.367188 19.792969 54.933594 19.09375 54.464844 C 18.394531 53.996094 17.71875 53.496094 17.066406 52.960938 C 16.414062 52.425781 15.792969 51.859375 15.195312 51.265625 C 14.601562 50.667969 14.035156 50.046875 13.5 49.394531 C 12.96875 48.742188 12.464844 48.066406 11.996094 47.367188 C 11.53125 46.667969 11.097656 45.945312 10.699219 45.203125 C 10.304688 44.457031 9.945312 43.699219 9.621094 42.917969 C 9.296875 42.140625 9.015625 41.347656 8.769531 40.542969 C 8.527344 39.734375 8.320312 38.921875 8.15625 38.09375 C 7.992188 37.265625 7.871094 36.433594 7.785156 35.597656 C 7.703125 34.757812 7.664062 33.917969 7.664062 33.074219 C 7.664062 32.234375 7.703125 31.390625 7.785156 30.554688 C 7.871094 29.714844 7.992188 28.882812 8.15625 28.054688 C 8.320312 27.230469 8.527344 26.414062 8.769531 25.609375 C 9.015625 24.800781 9.296875 24.007812 9.621094 23.230469 C 9.945312 22.453125 10.304688 21.691406 10.699219 20.949219 C 11.097656 20.207031 11.53125 19.484375 11.996094 18.78125 C 12.464844 18.082031 12.96875 17.40625 13.5 16.753906 C 14.035156 16.105469 14.601562 15.480469 15.195312 14.882812 C 15.792969 14.289062 16.414062 13.722656 17.066406 13.1875 C 17.71875 12.65625 18.394531 12.152344 19.09375 11.683594 C 19.792969 11.21875 20.515625 10.785156 21.257812 10.386719 C 22.003906 9.992188 22.761719 9.628906 23.539062 9.308594 C 24.320312 8.984375 25.113281 8.703125 25.917969 8.457031 C 26.722656 8.214844 27.539062 8.007812 28.367188 7.84375 C 29.191406 7.679688 30.023438 7.554688 30.863281 7.472656 C 31.703125 7.390625 32.542969 7.351562 33.382812 7.351562 Z M 33.382812 7.351562 " clip-rule="nonzero"/></clipPath><linearGradient x1="0" gradientTransform="matrix(161.673761, 0, 0, 51.449995, 7.663123, 7.349998)" y1="0.000000013484" x2="0" gradientUnits="userSpaceOnUse" y2="1" id="81fabdf828"><stop stop-opacity="1" stop-color="rgb(83.139038%, 27.839661%, 24.308777%)" offset="0"/><stop stop-opacity="1" stop-color="rgb(83.026123%, 27.696228%, 24.195862%)" offset="0.015625"/><stop stop-opacity="1" stop-color="rgb(82.801819%, 27.409363%, 23.971558%)" offset="0.03125"/><stop stop-opacity="1" stop-color="rgb(82.577515%, 27.124023%, 23.747253%)" offset="0.046875"/><stop stop-opacity="1" stop-color="rgb(82.351685%, 26.838684%, 23.522949%)" offset="0.0625"/><stop stop-opacity="1" stop-color="rgb(82.12738%, 26.551819%, 23.298645%)" offset="0.078125"/><stop stop-opacity="1" stop-color="rgb(81.903076%, 26.266479%, 23.074341%)" offset="0.09375"/><stop stop-opacity="1" stop-color="rgb(81.677246%, 25.979614%, 22.850037%)" offset="0.109375"/><stop stop-opacity="1" stop-color="rgb(81.452942%, 25.694275%, 22.624207%)" offset="0.125"/><stop stop-opacity="1" stop-color="rgb(81.228638%, 25.408936%, 22.399902%)" offset="0.140625"/><stop stop-opacity="1" stop-color="rgb(81.004333%, 25.12207%, 22.175598%)" offset="0.15625"/><stop stop-opacity="1" stop-color="rgb(80.778503%, 24.836731%, 21.951294%)" offset="0.171875"/><stop stop-opacity="1" stop-color="rgb(80.554199%, 24.549866%, 21.72699%)" offset="0.1875"/><stop stop-opacity="1" stop-color="rgb(80.329895%, 24.264526%, 21.502686%)" offset="0.203125"/><stop stop-opacity="1" stop-color="rgb(80.104065%, 23.979187%, 21.278381%)" offset="0.21875"/><stop stop-opacity="1" stop-color="rgb(79.879761%, 23.692322%, 21.054077%)" offset="0.234375"/><stop stop-opacity="1" stop-color="rgb(79.655457%, 23.406982%, 20.829773%)" offset="0.25"/><stop stop-opacity="1" stop-color="rgb(79.431152%, 23.120117%, 20.603943%)" offset="0.265625"/><stop stop-opacity="1" stop-color="rgb(79.205322%, 22.834778%, 20.379639%)" offset="0.28125"/><stop stop-opacity="1" stop-color="rgb(78.981018%, 22.549438%, 20.155334%)" offset="0.296875"/><stop stop-opacity="1" stop-color="rgb(78.756714%, 22.262573%, 19.93103%)" offset="0.3125"/><stop stop-opacity="1" stop-color="rgb(78.530884%, 21.977234%, 19.706726%)" offset="0.328125"/><stop stop-opacity="1" stop-color="rgb(78.30658%, 21.690369%, 19.482422%)" offset="0.34375"/><stop stop-opacity="1" stop-color="rgb(78.082275%, 21.405029%, 19.258118%)" offset="0.359375"/><stop stop-opacity="1" stop-color="rgb(77.857971%, 21.11969%, 19.033813%)" offset="0.375"/><stop stop-opacity="1" stop-color="rgb(77.632141%, 20.832825%, 18.809509%)" offset="0.390625"/><stop stop-opacity="1" stop-color="rgb(77.407837%, 20.547485%, 18.583679%)" offset="0.40625"/><stop stop-opacity="1" stop-color="rgb(77.183533%, 20.262146%, 18.359375%)" offset="0.421875"/><stop stop-opacity="1" stop-color="rgb(76.957703%, 19.975281%, 18.135071%)" offset="0.4375"/><stop stop-opacity="1" stop-color="rgb(76.733398%, 19.689941%, 17.910767%)" offset="0.453125"/><stop stop-opacity="1" stop-color="rgb(76.509094%, 19.403076%, 17.686462%)" offset="0.46875"/><stop stop-opacity="1" stop-color="rgb(76.28479%, 19.117737%, 17.462158%)" offset="0.484375"/><stop stop-opacity="1" stop-color="rgb(76.05896%, 18.832397%, 17.237854%)" offset="0.5"/><stop stop-opacity="1" stop-color="rgb(75.834656%, 18.545532%, 17.01355%)" offset="0.515625"/><stop stop-opacity="1" stop-color="rgb(75.610352%, 18.260193%, 16.789246%)" offset="0.53125"/><stop stop-opacity="1" stop-color="rgb(75.384521%, 17.973328%, 16.563416%)" offset="0.546875"/><stop stop-opacity="1" stop-color="rgb(75.160217%, 17.687988%, 16.339111%)" offset="0.5625"/><stop stop-opacity="1" stop-color="rgb(74.935913%, 17.402649%, 16.114807%)" offset="0.578125"/><stop stop-opacity="1" stop-color="rgb(74.711609%, 17.115784%, 15.890503%)" offset="0.59375"/><stop stop-opacity="1" stop-color="rgb(74.523926%, 16.906738%, 15.724182%)" offset="0.601562"/><stop stop-opacity="1" stop-color="rgb(74.305725%, 16.795349%, 15.625%)" offset="0.609375"/><stop stop-opacity="1" stop-color="rgb(74.014282%, 16.703796%, 15.531921%)" offset="0.617187"/><stop stop-opacity="1" stop-color="rgb(73.722839%, 16.610718%, 15.440369%)" offset="0.625"/><stop stop-opacity="1" stop-color="rgb(73.431396%, 16.519165%, 15.348816%)" offset="0.632812"/><stop stop-opacity="1" stop-color="rgb(73.141479%, 16.427612%, 15.257263%)" offset="0.640625"/><stop stop-opacity="1" stop-color="rgb(72.850037%, 16.33606%, 15.164185%)" offset="0.648437"/><stop stop-opacity="1" stop-color="rgb(72.558594%, 16.244507%, 15.072632%)" offset="0.65625"/><stop stop-opacity="1" stop-color="rgb(72.267151%, 16.152954%, 14.981079%)" offset="0.664062"/><stop stop-opacity="1" stop-color="rgb(71.977234%, 16.059875%, 14.888%)" offset="0.671875"/><stop stop-opacity="1" stop-color="rgb(71.685791%, 15.968323%, 14.796448%)" offset="0.679687"/><stop stop-opacity="1" stop-color="rgb(71.394348%, 15.87677%, 14.704895%)" offset="0.6875"/><stop stop-opacity="1" stop-color="rgb(71.104431%, 15.785217%, 14.613342%)" offset="0.695312"/><stop stop-opacity="1" stop-color="rgb(70.812988%, 15.693665%, 14.520264%)" offset="0.703125"/><stop stop-opacity="1" stop-color="rgb(70.521545%, 15.602112%, 14.428711%)" offset="0.710937"/><stop stop-opacity="1" stop-color="rgb(70.230103%, 15.509033%, 14.337158%)" offset="0.71875"/><stop stop-opacity="1" stop-color="rgb(69.940186%, 15.41748%, 14.24408%)" offset="0.726562"/><stop stop-opacity="1" stop-color="rgb(69.648743%, 15.325928%, 14.152527%)" offset="0.734375"/><stop stop-opacity="1" stop-color="rgb(69.3573%, 15.234375%, 14.060974%)" offset="0.742187"/><stop stop-opacity="1" stop-color="rgb(69.067383%, 15.142822%, 13.969421%)" offset="0.75"/><stop stop-opacity="1" stop-color="rgb(68.77594%, 15.05127%, 13.876343%)" offset="0.757812"/><stop stop-opacity="1" stop-color="rgb(68.484497%, 14.958191%, 13.78479%)" offset="0.765625"/><stop stop-opacity="1" stop-color="rgb(68.193054%, 14.866638%, 13.693237%)" offset="0.773437"/><stop stop-opacity="1" stop-color="rgb(67.903137%, 14.775085%, 13.600159%)" offset="0.78125"/><stop stop-opacity="1" stop-color="rgb(67.611694%, 14.683533%, 13.508606%)" offset="0.789062"/><stop stop-opacity="1" stop-color="rgb(67.320251%, 14.59198%, 13.417053%)" offset="0.796875"/><stop stop-opacity="1" stop-color="rgb(67.030334%, 14.500427%, 13.3255%)" offset="0.804687"/><stop stop-opacity="1" stop-color="rgb(66.738892%, 14.408875%, 13.232422%)" offset="0.8125"/><stop stop-opacity="1" stop-color="rgb(66.447449%, 14.315796%, 13.140869%)" offset="0.820312"/><stop stop-opacity="1" stop-color="rgb(66.156006%, 14.224243%, 13.049316%)" offset="0.828125"/><stop stop-opacity="1" stop-color="rgb(65.866089%, 14.13269%, 12.956238%)" offset="0.835937"/><stop stop-opacity="1" stop-color="rgb(65.574646%, 14.041138%, 12.864685%)" offset="0.84375"/><stop stop-opacity="1" stop-color="rgb(65.283203%, 13.949585%, 12.773132%)" offset="0.851562"/><stop stop-opacity="1" stop-color="rgb(64.99176%, 13.858032%, 12.68158%)" offset="0.859375"/><stop stop-opacity="1" stop-color="rgb(64.701843%, 13.764954%, 12.588501%)" offset="0.867187"/><stop stop-opacity="1" stop-color="rgb(64.4104%, 13.673401%, 12.496948%)" offset="0.875"/><stop stop-opacity="1" stop-color="rgb(64.118958%, 13.581848%, 12.405396%)" offset="0.882812"/><stop stop-opacity="1" stop-color="rgb(63.829041%, 13.490295%, 12.312317%)" offset="0.890625"/><stop stop-opacity="1" stop-color="rgb(63.537598%, 13.398743%, 12.220764%)" offset="0.898437"/><stop stop-opacity="1" stop-color="rgb(63.246155%, 13.30719%, 12.129211%)" offset="0.90625"/><stop stop-opacity="1" stop-color="rgb(62.954712%, 13.214111%, 12.037659%)" offset="0.914062"/><stop stop-opacity="1" stop-color="rgb(62.664795%, 13.122559%, 11.94458%)" offset="0.921875"/><stop stop-opacity="1" stop-color="rgb(62.373352%, 13.031006%, 11.853027%)" offset="0.929687"/><stop stop-opacity="1" stop-color="rgb(62.081909%, 12.939453%, 11.761475%)" offset="0.9375"/><stop stop-opacity="1" stop-color="rgb(61.791992%, 12.8479%, 11.668396%)" offset="0.945312"/><stop stop-opacity="1" stop-color="rgb(61.500549%, 12.756348%, 11.576843%)" offset="0.953125"/><stop stop-opacity="1" stop-color="rgb(61.209106%, 12.663269%, 11.485291%)" offset="0.960937"/><stop stop-opacity="1" stop-color="rgb(60.917664%, 12.571716%, 11.393738%)" offset="0.96875"/><stop stop-opacity="1" stop-color="rgb(60.627747%, 12.480164%, 11.300659%)" offset="0.976562"/><stop stop-opacity="1" stop-color="rgb(60.336304%, 12.388611%, 11.209106%)" offset="0.984375"/><stop stop-opacity="1" stop-color="rgb(60.044861%, 12.297058%, 11.117554%)" offset="0.992187"/><stop stop-opacity="1" stop-color="rgb(59.754944%, 12.205505%, 11.024475%)" offset="1"/></linearGradient><clipPath id="86152b2971"><path d="M 0 0 L 177 0 L 177 72 L 0 72 Z M 0 0 " clip-rule="nonzero"/></clipPath></defs><rect x="-18" width="216" fill="#ffffff" y="-7.5" height="89.999996" fill-opacity="1"/><rect x="-18" width="216" fill="#ffffff" y="-7.5" height="89.999996" fill-opacity="1"/><path fill="#000000" d="M 147.289062 60.269531 C 147.289062 60.511719 147.195312 60.75 147.007812 60.992188 C 146.820312 61.230469 146.535156 61.46875 146.160156 61.703125 C 145.785156 61.941406 145.316406 62.171875 144.757812 62.402344 C 144.199219 62.632812 143.550781 62.859375 142.816406 63.082031 C 142.078125 63.304688 141.257812 63.523438 140.347656 63.734375 C 139.441406 63.945312 138.453125 64.152344 137.382812 64.351562 C 136.3125 64.554688 135.167969 64.746094 133.945312 64.933594 C 132.722656 65.117188 131.433594 65.296875 130.070312 65.46875 C 128.710938 65.636719 127.285156 65.800781 125.796875 65.953125 C 124.308594 66.105469 122.761719 66.246094 121.164062 66.382812 C 119.5625 66.515625 117.910156 66.636719 116.214844 66.753906 C 114.515625 66.867188 112.777344 66.96875 111 67.058594 C 109.21875 67.152344 107.410156 67.234375 105.566406 67.304688 C 103.722656 67.375 101.859375 67.433594 99.96875 67.480469 C 98.082031 67.527344 96.179688 67.5625 94.261719 67.585938 C 92.347656 67.609375 90.425781 67.621094 88.5 67.621094 C 86.574219 67.621094 84.652344 67.609375 82.738281 67.585938 C 80.820312 67.5625 78.917969 67.527344 77.03125 67.480469 C 75.140625 67.433594 73.277344 67.375 71.433594 67.304688 C 69.589844 67.234375 67.78125 67.152344 66 67.058594 C 64.222656 66.96875 62.484375 66.867188 60.785156 66.753906 C 59.089844 66.636719 57.4375 66.515625 55.835938 66.382812 C 54.238281 66.246094 52.691406 66.105469 51.203125 65.953125 C 49.714844 65.800781 48.289062 65.636719 46.929688 65.46875 C 45.566406 65.296875 44.277344 65.117188 43.054688 64.933594 C 41.832031 64.746094 40.6875 64.554688 39.617188 64.351562 C 38.546875 64.152344 37.558594 63.945312 36.652344 63.734375 C 35.742188 63.523438 34.921875 63.304688 34.183594 63.082031 C 33.449219 62.859375 32.800781 62.632812 32.242188 62.402344 C 31.683594 62.171875 31.214844 61.941406 30.839844 61.703125 C 30.464844 61.46875 30.179688 61.230469 29.992188 60.992188 C 29.804688 60.75 29.710938 60.511719 29.710938 60.269531 C 29.710938 60.027344 29.804688 59.789062 29.992188 59.550781 C 30.179688 59.308594 30.464844 59.070312 30.839844 58.835938 C 31.214844 58.601562 31.683594 58.367188 32.242188 58.136719 C 32.800781 57.90625 33.449219 57.679688 34.183594 57.457031 C 34.921875 57.234375 35.742188 57.015625 36.652344 56.804688 C 37.558594 56.59375 38.546875 56.386719 39.617188 56.1875 C 40.6875 55.988281 41.832031 55.792969 43.054688 55.605469 C 44.277344 55.421875 45.566406 55.242188 46.929688 55.074219 C 48.289062 54.902344 49.714844 54.742188 51.203125 54.589844 C 52.691406 54.4375 54.238281 54.292969 55.835938 54.160156 C 57.4375 54.023438 59.089844 53.902344 60.785156 53.789062 C 62.484375 53.675781 64.222656 53.570312 66 53.480469 C 67.78125 53.386719 69.589844 53.304688 71.433594 53.238281 C 73.277344 53.167969 75.140625 53.109375 77.03125 53.0625 C 78.917969 53.015625 80.820312 52.980469 82.738281 52.957031 C 84.652344 52.933594 86.574219 52.921875 88.5 52.921875 C 90.425781 52.921875 92.347656 52.933594 94.261719 52.957031 C 96.179688 52.980469 98.082031 53.015625 99.96875 53.0625 C 101.859375 53.109375 103.722656 53.167969 105.566406 53.238281 C 107.410156 53.304688 109.21875 53.386719 111 53.480469 C 112.777344 53.570312 114.515625 53.675781 116.214844 53.789062 C 117.910156 53.902344 119.5625 54.023438 121.164062 54.160156 C 122.761719 54.292969 124.308594 54.4375 125.796875 54.589844 C 127.285156 54.742188 128.710938 54.902344 130.070312 55.074219 C 131.433594 55.242188 132.722656 55.421875 133.945312 55.605469 C 135.167969 55.792969 136.3125 55.988281 137.382812 56.1875 C 138.453125 56.386719 139.441406 56.59375 140.347656 56.804688 C 141.257812 57.015625 142.078125 57.234375 142.816406 57.457031 C 143.550781 57.679688 144.199219 57.90625 144.757812 58.136719 C 145.316406 58.367188 145.785156 58.601562 146.160156 58.835938 C 146.535156 59.070312 146.820312 59.308594 147.007812 59.550781 C 147.195312 59.789062 147.289062 60.027344 147.289062 60.269531 Z M 147.289062 60.269531 " fill-opacity="0.25" fill-rule="nonzero"/><g clip-path="url(#318d4f2aeb)"><g clip-path="url(#44aa1103ad)"><path fill="url(#81fabdf828)" d="M 7.664062 7.351562 L 7.664062 58.800781 L 169.335938 58.800781 L 169.335938 7.351562 Z M 7.664062 7.351562 " fill-rule="nonzero"/></g></g><path fill="#ffffff" d="M 20.890625 11.761719 L 156.109375 11.761719 C 156.496094 11.761719 156.878906 11.796875 157.257812 11.871094 C 157.632812 11.949219 158.003906 12.058594 158.359375 12.207031 C 158.714844 12.355469 159.054688 12.535156 159.375 12.75 C 159.695312 12.964844 159.992188 13.210938 160.265625 13.480469 C 160.539062 13.753906 160.78125 14.050781 160.996094 14.375 C 161.210938 14.695312 161.394531 15.03125 161.539062 15.390625 C 161.6875 15.746094 161.800781 16.113281 161.875 16.492188 C 161.949219 16.871094 161.988281 17.253906 161.988281 17.640625 C 161.988281 18.027344 161.949219 18.410156 161.875 18.789062 C 161.800781 19.164062 161.6875 19.535156 161.539062 19.890625 C 161.394531 20.246094 161.210938 20.585938 160.996094 20.90625 C 160.78125 21.226562 160.539062 21.523438 160.265625 21.796875 C 159.992188 22.070312 159.695312 22.316406 159.375 22.527344 C 159.054688 22.742188 158.714844 22.925781 158.359375 23.074219 C 158.003906 23.21875 157.632812 23.332031 157.257812 23.40625 C 156.878906 23.480469 156.496094 23.519531 156.109375 23.519531 L 20.890625 23.519531 C 20.503906 23.519531 20.121094 23.480469 19.742188 23.40625 C 19.367188 23.332031 18.996094 23.21875 18.640625 23.074219 C 18.285156 22.925781 17.945312 22.742188 17.625 22.527344 C 17.304688 22.316406 17.007812 22.070312 16.734375 21.796875 C 16.460938 21.523438 16.21875 21.226562 16.003906 20.90625 C 15.789062 20.585938 15.605469 20.246094 15.460938 19.890625 C 15.3125 19.535156 15.199219 19.164062 15.125 18.789062 C 15.050781 18.410156 15.011719 18.027344 15.011719 17.640625 C 15.011719 17.253906 15.050781 16.871094 15.125 16.492188 C 15.199219 16.113281 15.3125 15.746094 15.460938 15.390625 C 15.605469 15.03125 15.789062 14.695312 16.003906 14.375 C 16.21875 14.050781 16.460938 13.753906 16.734375 13.480469 C 17.007812 13.210938 17.304688 12.964844 17.625 12.75 C 17.945312 12.535156 18.285156 12.355469 18.640625 12.207031 C 18.996094 12.058594 19.367188 11.949219 19.742188 11.871094 C 20.121094 11.796875 20.503906 11.761719 20.890625 11.761719 Z M 20.890625 11.761719 " fill-opacity="0.15" fill-rule="nonzero"/><g clip-path="url(#86152b2971)"><path stroke-linecap="butt" transform="matrix(0.734881, 0, 0, 0.735, 0.314316, -0.000001)" fill="none" stroke-linejoin="miter" d="M 44.998457 10.002128 L 195.001549 10.002128 C 196.144379 10.002128 197.287209 10.055274 198.430039 10.166881 C 199.572869 10.278489 200.705068 10.448557 201.826637 10.671771 C 202.95352 10.894985 204.064457 11.17666 205.159448 11.506167 C 206.254439 11.840989 207.333483 12.223642 208.391265 12.664756 C 209.454363 13.100555 210.485568 13.594815 211.500826 14.131593 C 212.510769 14.673685 213.494134 15.263608 214.445607 15.896049 C 215.397079 16.533804 216.316659 17.219391 217.204345 17.94218 C 218.092032 18.670283 218.937195 19.440904 219.750465 20.248728 C 220.558419 21.061865 221.329165 21.912206 222.057387 22.794433 C 222.780293 23.681976 223.465991 24.601406 224.10385 25.552725 C 224.736393 26.509357 225.326412 27.492563 225.868592 28.502342 C 226.405456 29.512121 226.894481 30.548473 227.335667 31.606084 C 227.776853 32.663695 228.159568 33.742564 228.494444 34.842691 C 228.824004 35.937504 229.105725 37.048261 229.328975 38.169647 C 229.552226 39.296348 229.717006 40.428364 229.833947 41.571008 C 229.945572 42.708338 229.998727 43.856297 229.998727 44.998942 C 229.998727 46.146901 229.945572 47.289546 229.833947 48.432191 C 229.717006 49.569521 229.552226 50.701536 229.328975 51.828237 C 229.105725 52.954938 228.824004 54.06038 228.494444 55.160508 C 228.159568 56.255321 227.776853 57.33419 227.335667 58.3918 C 226.894481 59.454726 226.405456 60.485763 225.868592 61.500857 C 225.326412 62.510636 224.736393 63.493842 224.10385 64.44516 C 223.465991 65.396478 222.780293 66.315908 222.057387 67.203451 C 221.329165 68.090993 220.558419 68.936019 219.750465 69.749157 C 218.937195 70.55698 218.092032 71.327601 217.204345 72.055705 C 216.316659 72.783808 215.397079 73.46408 214.445607 74.101836 C 213.494134 74.739591 212.510769 75.329514 211.500826 75.866292 C 210.485568 76.408383 209.454363 76.897329 208.391265 77.333128 C 207.333483 77.774242 206.254439 78.16221 205.159448 78.491717 C 204.064457 78.826538 202.95352 79.102899 201.826637 79.326113 C 200.705068 79.549328 199.572869 79.719396 198.430039 79.831003 C 197.287209 79.94261 196.144379 80.001071 195.001549 80.001071 L 44.998457 80.001071 C 43.855627 80.001071 42.712797 79.94261 41.569967 79.831003 C 40.427136 79.719396 39.294937 79.549328 38.173369 79.326113 C 37.046486 79.102899 35.935548 78.826538 34.840558 78.491717 C 33.745567 78.16221 32.666523 77.774242 31.603425 77.333128 C 30.545643 76.897329 29.514438 76.408383 28.49918 75.866292 C 27.489237 75.329514 26.505871 74.739591 25.554399 74.101836 C 24.602926 73.46408 23.683347 72.783808 22.79566 72.055705 C 21.907974 71.327601 21.062811 70.55698 20.249541 69.749157 C 19.441587 68.936019 18.670841 68.090993 17.942619 67.203451 C 17.219713 66.315908 16.534015 65.396478 15.896156 64.44516 C 15.263613 63.493842 14.673594 62.510636 14.131414 61.500857 C 13.594549 60.485763 13.105524 59.454726 12.664339 58.3918 C 12.223153 57.33419 11.840438 56.255321 11.505562 55.160508 C 11.176002 54.06038 10.894281 52.954938 10.67103 51.828237 C 10.44778 50.701536 10.283 49.569521 10.166059 48.432191 C 10.054434 47.289546 10.001279 46.146901 10.001279 44.998942 C 10.001279 43.856297 10.054434 42.708338 10.166059 41.571008 C 10.283 40.428364 10.44778 39.296348 10.67103 38.169647 C 10.894281 37.048261 11.176002 35.937504 11.505562 34.842691 C 11.840438 33.742564 12.223153 32.663695 12.664339 31.606084 C 13.105524 30.548473 13.594549 29.512121 14.131414 28.502342 C 14.673594 27.492563 15.263613 26.509357 15.896156 25.552725 C 16.534015 24.601406 17.219713 23.681976 17.942619 22.794433 C 18.670841 21.912206 19.441587 21.061865 20.249541 20.248728 C 21.062811 19.440904 21.907974 18.670283 22.79566 17.94218 C 23.683347 17.219391 24.602926 16.533804 25.554399 15.896049 C 26.505871 15.263608 27.489237 14.673685 28.49918 14.131593 C 29.514438 13.594815 30.545643 13.100555 31.603425 12.664756 C 32.666523 12.223642 33.745567 11.840989 34.840558 11.506167 C 35.935548 11.17666 37.046486 10.894985 38.173369 10.671771 C 39.294937 10.448557 40.427136 10.278489 41.569967 10.166881 C 42.712797 10.055274 43.855627 10.002128 44.998457 10.002128 Z M 44.998457 10.002128 " stroke="#8e1e1e" stroke-width="3" stroke-opacity="0.8" stroke-miterlimit="4"/></g></svg>