<svg xmlns="http://www.w3.org/2000/svg" xmlns:xlink="http://www.w3.org/1999/xlink" width="120" zoomAndPan="magnify" viewBox="0 0 90 89.999999" height="120" preserveAspectRatio="xMidYMid meet" version="1.0"><defs><clipPath id="45b3f1fadd"><path d="M 3 3 L 87 3 L 87 87 L 3 87 Z M 3 3 " clip-rule="nonzero"/></clipPath><clipPath id="890185cc29"><path d="M 87 45 C 87 46.375 86.933594 47.746094 86.796875 49.117188 C 86.664062 50.484375 86.460938 51.84375 86.191406 53.195312 C 85.925781 54.542969 85.589844 55.875 85.191406 57.191406 C 84.792969 58.507812 84.328125 59.800781 83.804688 61.074219 C 83.277344 62.34375 82.6875 63.585938 82.039062 64.796875 C 81.390625 66.011719 80.6875 67.191406 79.921875 68.332031 C 79.15625 69.476562 78.339844 70.582031 77.464844 71.644531 C 76.59375 72.707031 75.671875 73.726562 74.699219 74.699219 C 73.726562 75.671875 72.707031 76.59375 71.644531 77.464844 C 70.582031 78.339844 69.476562 79.15625 68.332031 79.921875 C 67.191406 80.6875 66.011719 81.390625 64.796875 82.039062 C 63.585938 82.6875 62.34375 83.277344 61.074219 83.804688 C 59.800781 84.328125 58.507812 84.792969 57.191406 85.191406 C 55.875 85.589844 54.542969 85.925781 53.195312 86.191406 C 51.84375 86.460938 50.484375 86.664062 49.117188 86.796875 C 47.746094 86.933594 46.375 87 45 87 C 43.625 87 42.253906 86.933594 40.882812 86.796875 C 39.515625 86.664062 38.15625 86.460938 36.804688 86.191406 C 35.457031 85.925781 34.125 85.589844 32.808594 85.191406 C 31.492188 84.792969 30.199219 84.328125 28.925781 83.804688 C 27.65625 83.277344 26.414062 82.6875 25.203125 82.039062 C 23.988281 81.390625 22.808594 80.6875 21.667969 79.921875 C 20.523438 79.15625 19.417969 78.339844 18.355469 77.464844 C 17.292969 76.59375 16.273438 75.671875 15.300781 74.699219 C 14.328125 73.726562 13.40625 72.707031 12.535156 71.644531 C 11.660156 70.582031 10.84375 69.476562 10.078125 68.332031 C 9.3125 67.191406 8.609375 66.011719 7.960938 64.796875 C 7.3125 63.585938 6.722656 62.34375 6.195312 61.074219 C 5.671875 59.800781 5.207031 58.507812 4.808594 57.191406 C 4.410156 55.875 4.074219 54.542969 3.808594 53.195312 C 3.539062 51.84375 3.335938 50.484375 3.203125 49.117188 C 3.066406 47.746094 3 46.375 3 45 C 3 43.625 3.066406 42.253906 3.203125 40.882812 C 3.335938 39.515625 3.539062 38.15625 3.808594 36.804688 C 4.074219 35.457031 4.410156 34.125 4.808594 32.808594 C 5.207031 31.492188 5.671875 30.199219 6.195312 28.925781 C 6.722656 27.65625 7.3125 26.414062 7.960938 25.203125 C 8.609375 23.988281 9.3125 22.808594 10.078125 21.667969 C 10.84375 20.523438 11.660156 19.417969 12.535156 18.355469 C 13.40625 17.292969 14.328125 16.273438 15.300781 15.300781 C 16.273438 14.328125 17.292969 13.40625 18.355469 12.535156 C 19.417969 11.660156 20.523438 10.84375 21.667969 10.078125 C 22.808594 9.3125 23.988281 8.609375 25.203125 7.960938 C 26.414062 7.3125 27.65625 6.722656 28.925781 6.195312 C 30.199219 5.671875 31.492188 5.207031 32.808594 4.808594 C 34.125 4.410156 35.457031 4.074219 36.804688 3.808594 C 38.15625 3.539062 39.515625 3.335938 40.882812 3.203125 C 42.253906 3.066406 43.625 3 45 3 C 46.375 3 47.746094 3.066406 49.117188 3.203125 C 50.484375 3.335938 51.84375 3.539062 53.195312 3.808594 C 54.542969 4.074219 55.875 4.410156 57.191406 4.808594 C 58.507812 5.207031 59.800781 5.671875 61.074219 6.195312 C 62.34375 6.722656 63.585938 7.3125 64.796875 7.960938 C 66.011719 8.609375 67.191406 9.3125 68.332031 10.078125 C 69.476562 10.84375 70.582031 11.660156 71.644531 12.535156 C 72.707031 13.40625 73.726562 14.328125 74.699219 15.300781 C 75.671875 16.273438 76.59375 17.292969 77.464844 18.355469 C 78.339844 19.417969 79.15625 20.523438 79.921875 21.667969 C 80.6875 22.808594 81.390625 23.988281 82.039062 25.203125 C 82.6875 26.414062 83.277344 27.65625 83.804688 28.925781 C 84.328125 30.199219 84.792969 31.492188 85.191406 32.808594 C 85.589844 34.125 85.925781 35.457031 86.191406 36.804688 C 86.460938 38.15625 86.664062 39.515625 86.796875 40.882812 C 86.933594 42.253906 87 43.625 87 45 Z M 87 45 " clip-rule="nonzero"/></clipPath><linearGradient x1="0" gradientTransform="matrix(83.999999, 0, 0, 83.999999, 3, 3.000002)" y1="-0.0000000014881" x2="0" gradientUnits="userSpaceOnUse" y2="1" id="da394ff86f"><stop stop-opacity="1" stop-color="rgb(20.779419%, 77.648926%, 48.239136%)" offset="0"/><stop stop-opacity="1" stop-color="rgb(20.744324%, 77.539062%, 48.165894%)" offset="0.0078125"/><stop stop-opacity="1" stop-color="rgb(20.674133%, 77.31781%, 48.017883%)" offset="0.015625"/><stop stop-opacity="1" stop-color="rgb(20.602417%, 77.096558%, 47.871399%)" offset="0.0234375"/><stop stop-opacity="1" stop-color="rgb(20.532227%, 76.876831%, 47.723389%)" offset="0.03125"/><stop stop-opacity="1" stop-color="rgb(20.462036%, 76.655579%, 47.576904%)" offset="0.0390625"/><stop stop-opacity="1" stop-color="rgb(20.391846%, 76.435852%, 47.43042%)" offset="0.046875"/><stop stop-opacity="1" stop-color="rgb(20.321655%, 76.2146%, 47.28241%)" offset="0.0546875"/><stop stop-opacity="1" stop-color="rgb(20.249939%, 75.993347%, 47.135925%)" offset="0.0625"/><stop stop-opacity="1" stop-color="rgb(20.179749%, 75.773621%, 46.987915%)" offset="0.0703125"/><stop stop-opacity="1" stop-color="rgb(20.109558%, 75.552368%, 46.841431%)" offset="0.078125"/><stop stop-opacity="1" stop-color="rgb(20.039368%, 75.332642%, 46.694946%)" offset="0.0859375"/><stop stop-opacity="1" stop-color="rgb(19.969177%, 75.111389%, 46.546936%)" offset="0.09375"/><stop stop-opacity="1" stop-color="rgb(19.898987%, 74.891663%, 46.400452%)" offset="0.101562"/><stop stop-opacity="1" stop-color="rgb(19.827271%, 74.67041%, 46.252441%)" offset="0.109375"/><stop stop-opacity="1" stop-color="rgb(19.75708%, 74.449158%, 46.105957%)" offset="0.117188"/><stop stop-opacity="1" stop-color="rgb(19.68689%, 74.229431%, 45.959473%)" offset="0.125"/><stop stop-opacity="1" stop-color="rgb(19.616699%, 74.008179%, 45.811462%)" offset="0.132813"/><stop stop-opacity="1" stop-color="rgb(19.546509%, 73.788452%, 45.664978%)" offset="0.140625"/><stop stop-opacity="1" stop-color="rgb(19.474792%, 73.5672%, 45.516968%)" offset="0.148438"/><stop stop-opacity="1" stop-color="rgb(19.404602%, 73.345947%, 45.370483%)" offset="0.15625"/><stop stop-opacity="1" stop-color="rgb(19.334412%, 73.126221%, 45.222473%)" offset="0.164063"/><stop stop-opacity="1" stop-color="rgb(19.264221%, 72.904968%, 45.075989%)" offset="0.171875"/><stop stop-opacity="1" stop-color="rgb(19.194031%, 72.685242%, 44.929504%)" offset="0.179688"/><stop stop-opacity="1" stop-color="rgb(19.12384%, 72.463989%, 44.781494%)" offset="0.1875"/><stop stop-opacity="1" stop-color="rgb(19.052124%, 72.242737%, 44.63501%)" offset="0.195313"/><stop stop-opacity="1" stop-color="rgb(18.981934%, 72.02301%, 44.487%)" offset="0.203125"/><stop stop-opacity="1" stop-color="rgb(18.911743%, 71.801758%, 44.340515%)" offset="0.210938"/><stop stop-opacity="1" stop-color="rgb(18.841553%, 71.582031%, 44.194031%)" offset="0.21875"/><stop stop-opacity="1" stop-color="rgb(18.771362%, 71.360779%, 44.046021%)" offset="0.226563"/><stop stop-opacity="1" stop-color="rgb(18.699646%, 71.141052%, 43.899536%)" offset="0.234375"/><stop stop-opacity="1" stop-color="rgb(18.629456%, 70.9198%, 43.751526%)" offset="0.242188"/><stop stop-opacity="1" stop-color="rgb(18.559265%, 70.698547%, 43.605042%)" offset="0.25"/><stop stop-opacity="1" stop-color="rgb(18.489075%, 70.478821%, 43.458557%)" offset="0.257813"/><stop stop-opacity="1" stop-color="rgb(18.418884%, 70.257568%, 43.310547%)" offset="0.265625"/><stop stop-opacity="1" stop-color="rgb(18.347168%, 70.037842%, 43.164062%)" offset="0.273438"/><stop stop-opacity="1" stop-color="rgb(18.276978%, 69.816589%, 43.016052%)" offset="0.28125"/><stop stop-opacity="1" stop-color="rgb(18.206787%, 69.595337%, 42.869568%)" offset="0.289063"/><stop stop-opacity="1" stop-color="rgb(18.136597%, 69.37561%, 42.723083%)" offset="0.296875"/><stop stop-opacity="1" stop-color="rgb(18.066406%, 69.154358%, 42.575073%)" offset="0.304688"/><stop stop-opacity="1" stop-color="rgb(17.996216%, 68.934631%, 42.428589%)" offset="0.3125"/><stop stop-opacity="1" stop-color="rgb(17.9245%, 68.713379%, 42.280579%)" offset="0.320313"/><stop stop-opacity="1" stop-color="rgb(17.854309%, 68.492126%, 42.134094%)" offset="0.328125"/><stop stop-opacity="1" stop-color="rgb(17.784119%, 68.2724%, 41.986084%)" offset="0.335938"/><stop stop-opacity="1" stop-color="rgb(17.713928%, 68.051147%, 41.8396%)" offset="0.34375"/><stop stop-opacity="1" stop-color="rgb(17.643738%, 67.831421%, 41.693115%)" offset="0.351563"/><stop stop-opacity="1" stop-color="rgb(17.572021%, 67.610168%, 41.545105%)" offset="0.359375"/><stop stop-opacity="1" stop-color="rgb(17.501831%, 67.390442%, 41.398621%)" offset="0.367188"/><stop stop-opacity="1" stop-color="rgb(17.431641%, 67.169189%, 41.25061%)" offset="0.375"/><stop stop-opacity="1" stop-color="rgb(17.36145%, 66.947937%, 41.104126%)" offset="0.382812"/><stop stop-opacity="1" stop-color="rgb(17.29126%, 66.72821%, 40.957642%)" offset="0.390625"/><stop stop-opacity="1" stop-color="rgb(17.221069%, 66.506958%, 40.809631%)" offset="0.398438"/><stop stop-opacity="1" stop-color="rgb(17.149353%, 66.287231%, 40.663147%)" offset="0.40625"/><stop stop-opacity="1" stop-color="rgb(17.079163%, 66.065979%, 40.515137%)" offset="0.414062"/><stop stop-opacity="1" stop-color="rgb(17.008972%, 65.844727%, 40.368652%)" offset="0.421875"/><stop stop-opacity="1" stop-color="rgb(16.938782%, 65.625%, 40.222168%)" offset="0.429688"/><stop stop-opacity="1" stop-color="rgb(16.868591%, 65.403748%, 40.074158%)" offset="0.4375"/><stop stop-opacity="1" stop-color="rgb(16.796875%, 65.184021%, 39.927673%)" offset="0.445312"/><stop stop-opacity="1" stop-color="rgb(16.726685%, 64.962769%, 39.779663%)" offset="0.453125"/><stop stop-opacity="1" stop-color="rgb(16.656494%, 64.741516%, 39.633179%)" offset="0.460938"/><stop stop-opacity="1" stop-color="rgb(16.586304%, 64.52179%, 39.485168%)" offset="0.46875"/><stop stop-opacity="1" stop-color="rgb(16.516113%, 64.300537%, 39.338684%)" offset="0.476562"/><stop stop-opacity="1" stop-color="rgb(16.445923%, 64.080811%, 39.1922%)" offset="0.484375"/><stop stop-opacity="1" stop-color="rgb(16.374207%, 63.859558%, 39.044189%)" offset="0.492188"/><stop stop-opacity="1" stop-color="rgb(16.304016%, 63.639832%, 38.897705%)" offset="0.5"/><stop stop-opacity="1" stop-color="rgb(16.233826%, 63.418579%, 38.749695%)" offset="0.507812"/><stop stop-opacity="1" stop-color="rgb(16.163635%, 63.197327%, 38.60321%)" offset="0.515625"/><stop stop-opacity="1" stop-color="rgb(16.093445%, 62.9776%, 38.456726%)" offset="0.523438"/><stop stop-opacity="1" stop-color="rgb(16.021729%, 62.756348%, 38.308716%)" offset="0.53125"/><stop stop-opacity="1" stop-color="rgb(15.951538%, 62.536621%, 38.162231%)" offset="0.539063"/><stop stop-opacity="1" stop-color="rgb(15.881348%, 62.315369%, 38.014221%)" offset="0.546875"/><stop stop-opacity="1" stop-color="rgb(15.811157%, 62.094116%, 37.867737%)" offset="0.554688"/><stop stop-opacity="1" stop-color="rgb(15.740967%, 61.87439%, 37.721252%)" offset="0.5625"/><stop stop-opacity="1" stop-color="rgb(15.670776%, 61.653137%, 37.573242%)" offset="0.570313"/><stop stop-opacity="1" stop-color="rgb(15.59906%, 61.433411%, 37.426758%)" offset="0.578125"/><stop stop-opacity="1" stop-color="rgb(15.52887%, 61.212158%, 37.278748%)" offset="0.585938"/><stop stop-opacity="1" stop-color="rgb(15.458679%, 60.990906%, 37.132263%)" offset="0.59375"/><stop stop-opacity="1" stop-color="rgb(15.388489%, 60.771179%, 36.985779%)" offset="0.601563"/><stop stop-opacity="1" stop-color="rgb(15.318298%, 60.549927%, 36.837769%)" offset="0.609375"/><stop stop-opacity="1" stop-color="rgb(15.246582%, 60.3302%, 36.691284%)" offset="0.617188"/><stop stop-opacity="1" stop-color="rgb(15.176392%, 60.108948%, 36.543274%)" offset="0.625"/><stop stop-opacity="1" stop-color="rgb(15.106201%, 59.889221%, 36.39679%)" offset="0.632813"/><stop stop-opacity="1" stop-color="rgb(15.036011%, 59.667969%, 36.248779%)" offset="0.640625"/><stop stop-opacity="1" stop-color="rgb(14.96582%, 59.446716%, 36.102295%)" offset="0.648438"/><stop stop-opacity="1" stop-color="rgb(14.89563%, 59.22699%, 35.955811%)" offset="0.65625"/><stop stop-opacity="1" stop-color="rgb(14.823914%, 59.005737%, 35.8078%)" offset="0.664063"/><stop stop-opacity="1" stop-color="rgb(14.753723%, 58.786011%, 35.661316%)" offset="0.671875"/><stop stop-opacity="1" stop-color="rgb(14.683533%, 58.564758%, 35.513306%)" offset="0.679688"/><stop stop-opacity="1" stop-color="rgb(14.613342%, 58.343506%, 35.366821%)" offset="0.6875"/><stop stop-opacity="1" stop-color="rgb(14.543152%, 58.123779%, 35.220337%)" offset="0.695313"/><stop stop-opacity="1" stop-color="rgb(14.471436%, 57.902527%, 35.072327%)" offset="0.703125"/><stop stop-opacity="1" stop-color="rgb(14.401245%, 57.6828%, 34.925842%)" offset="0.710938"/><stop stop-opacity="1" stop-color="rgb(14.331055%, 57.461548%, 34.777832%)" offset="0.71875"/><stop stop-opacity="1" stop-color="rgb(14.260864%, 57.240295%, 34.631348%)" offset="0.726563"/><stop stop-opacity="1" stop-color="rgb(14.190674%, 57.020569%, 34.484863%)" offset="0.734375"/><stop stop-opacity="1" stop-color="rgb(14.120483%, 56.799316%, 34.336853%)" offset="0.742188"/><stop stop-opacity="1" stop-color="rgb(14.048767%, 56.57959%, 34.190369%)" offset="0.75"/><stop stop-opacity="1" stop-color="rgb(13.978577%, 56.358337%, 34.042358%)" offset="0.757812"/><stop stop-opacity="1" stop-color="rgb(13.908386%, 56.138611%, 33.895874%)" offset="0.765625"/><stop stop-opacity="1" stop-color="rgb(13.838196%, 55.917358%, 33.74939%)" offset="0.773438"/><stop stop-opacity="1" stop-color="rgb(13.768005%, 55.696106%, 33.601379%)" offset="0.78125"/><stop stop-opacity="1" stop-color="rgb(13.696289%, 55.476379%, 33.454895%)" offset="0.789062"/><stop stop-opacity="1" stop-color="rgb(13.626099%, 55.255127%, 33.306885%)" offset="0.796875"/><stop stop-opacity="1" stop-color="rgb(13.555908%, 55.0354%, 33.1604%)" offset="0.804688"/><stop stop-opacity="1" stop-color="rgb(13.485718%, 54.814148%, 33.01239%)" offset="0.8125"/><stop stop-opacity="1" stop-color="rgb(13.415527%, 54.592896%, 32.865906%)" offset="0.820312"/><stop stop-opacity="1" stop-color="rgb(13.345337%, 54.373169%, 32.719421%)" offset="0.828125"/><stop stop-opacity="1" stop-color="rgb(13.273621%, 54.151917%, 32.571411%)" offset="0.835938"/><stop stop-opacity="1" stop-color="rgb(13.20343%, 53.93219%, 32.424927%)" offset="0.84375"/><stop stop-opacity="1" stop-color="rgb(13.13324%, 53.710938%, 32.276917%)" offset="0.851562"/><stop stop-opacity="1" stop-color="rgb(13.063049%, 53.489685%, 32.130432%)" offset="0.859375"/><stop stop-opacity="1" stop-color="rgb(12.992859%, 53.269958%, 31.983948%)" offset="0.867188"/><stop stop-opacity="1" stop-color="rgb(12.921143%, 53.048706%, 31.835938%)" offset="0.875"/><stop stop-opacity="1" stop-color="rgb(12.850952%, 52.828979%, 31.689453%)" offset="0.882812"/><stop stop-opacity="1" stop-color="rgb(12.780762%, 52.607727%, 31.541443%)" offset="0.890625"/><stop stop-opacity="1" stop-color="rgb(12.710571%, 52.386475%, 31.394958%)" offset="0.898438"/><stop stop-opacity="1" stop-color="rgb(12.640381%, 52.166748%, 31.248474%)" offset="0.90625"/><stop stop-opacity="1" stop-color="rgb(12.57019%, 51.945496%, 31.100464%)" offset="0.914062"/><stop stop-opacity="1" stop-color="rgb(12.498474%, 51.725769%, 30.953979%)" offset="0.921875"/><stop stop-opacity="1" stop-color="rgb(12.428284%, 51.504517%, 30.805969%)" offset="0.929688"/><stop stop-opacity="1" stop-color="rgb(12.358093%, 51.28479%, 30.659485%)" offset="0.9375"/><stop stop-opacity="1" stop-color="rgb(12.287903%, 51.063538%, 30.513%)" offset="0.945312"/><stop stop-opacity="1" stop-color="rgb(12.217712%, 50.842285%, 30.36499%)" offset="0.953125"/><stop stop-opacity="1" stop-color="rgb(12.145996%, 50.622559%, 30.218506%)" offset="0.960938"/><stop stop-opacity="1" stop-color="rgb(12.075806%, 50.401306%, 30.070496%)" offset="0.96875"/><stop stop-opacity="1" stop-color="rgb(12.005615%, 50.18158%, 29.924011%)" offset="0.976562"/><stop stop-opacity="1" stop-color="rgb(11.935425%, 49.960327%, 29.776001%)" offset="0.984375"/><stop stop-opacity="1" stop-color="rgb(11.865234%, 49.739075%, 29.629517%)" offset="0.992188"/><stop stop-opacity="1" stop-color="rgb(11.795044%, 49.519348%, 29.483032%)" offset="1"/></linearGradient></defs><g clip-path="url(#45b3f1fadd)"><g clip-path="url(#890185cc29)"><path fill="url(#da394ff86f)" d="M 3 3 L 3 87 L 87 87 L 87 3 Z M 3 3 " fill-rule="nonzero"/></g></g><path stroke-linecap="butt" transform="matrix(0.75, 0, 0, 0.75, 0.0000005, 0.000002)" fill="none" stroke-linejoin="miter" d="M 116.000005 60.000001 C 116.000005 61.833334 115.911464 63.661459 115.729172 65.489584 C 115.552089 67.312501 115.281255 69.125001 114.92188 70.927084 C 114.567714 72.72396 114.119797 74.500001 113.588547 76.25521 C 113.057297 78.010418 112.437505 79.734377 111.739589 81.432293 C 111.036464 83.125002 110.250005 84.781252 109.385422 86.395835 C 108.520838 88.015627 107.583338 89.588544 106.562505 91.109377 C 105.541672 92.635419 104.45313 94.109377 103.286463 95.526044 C 102.125005 96.942711 100.895838 98.302086 99.598963 99.598961 C 98.302088 100.895836 96.942713 102.125003 95.526046 103.286461 C 94.109379 104.453128 92.635421 105.54167 91.109379 106.562503 C 89.588546 107.583336 88.015629 108.520836 86.395837 109.38542 C 84.781254 110.250003 83.125004 111.036462 81.432295 111.739587 C 79.734379 112.437503 78.01042 113.057295 76.255212 113.588545 C 74.500003 114.119795 72.723962 114.567712 70.927086 114.921878 C 69.125003 115.281253 67.312503 115.552087 65.489586 115.72917 C 63.661461 115.911462 61.833336 116.000003 60.000003 116.000003 C 58.166669 116.000003 56.338544 115.911462 54.510419 115.72917 C 52.687502 115.552087 50.875002 115.281253 49.072919 114.921878 C 47.276043 114.567712 45.500002 114.119795 43.744793 113.588545 C 41.989585 113.057295 40.265626 112.437503 38.56771 111.739587 C 36.875001 111.036462 35.218751 110.250003 33.604168 109.38542 C 31.984376 108.520836 30.411459 107.583336 28.890626 106.562503 C 27.364584 105.54167 25.890626 104.453128 24.473959 103.286461 C 23.057292 102.125003 21.697917 100.895836 20.401042 99.598961 C 19.104167 98.302086 17.875 96.942711 16.713542 95.526044 C 15.546875 94.109377 14.458333 92.635419 13.4375 91.109377 C 12.416667 89.588544 11.479167 88.015627 10.614583 86.395835 C 9.75 84.781252 8.963541 83.125002 8.260416 81.432293 C 7.5625 79.734377 6.942708 78.010418 6.411458 76.25521 C 5.880208 74.500001 5.432291 72.72396 5.078125 70.927084 C 4.71875 69.125001 4.447916 67.312501 4.270833 65.489584 C 4.088541 63.661459 4 61.833334 4 60.000001 C 4 58.166667 4.088541 56.338542 4.270833 54.510417 C 4.447916 52.6875 4.71875 50.875 5.078125 49.072917 C 5.432291 47.276041 5.880208 45.5 6.411458 43.744791 C 6.942708 41.989583 7.5625 40.265624 8.260416 38.567708 C 8.963541 36.874999 9.75 35.218749 10.614583 33.604166 C 11.479167 31.984374 12.416667 30.411457 13.4375 28.890624 C 14.458333 27.364582 15.546875 25.890624 16.713542 24.473957 C 17.875 23.05729 19.104167 21.697915 20.401042 20.40104 C 21.697917 19.104165 23.057292 17.874998 24.473959 16.71354 C 25.890626 15.546873 27.364584 14.458331 28.890626 13.437498 C 30.411459 12.416665 31.984376 11.479165 33.604168 10.614581 C 35.218751 9.749998 36.875001 8.963539 38.56771 8.260414 C 40.265626 7.562498 41.989585 6.942706 43.744793 6.411456 C 45.500002 5.880206 47.276043 5.432289 49.072919 5.078123 C 50.875002 4.718748 52.687502 4.447914 54.510419 4.270831 C 56.338544 4.088539 58.166669 3.999998 60.000003 3.999998 C 61.833336 3.999998 63.661461 4.088539 65.489586 4.270831 C 67.312503 4.447914 69.125003 4.718748 70.927086 5.078123 C 72.723962 5.432289 74.500003 5.880206 76.255212 6.411456 C 78.01042 6.942706 79.734379 7.562498 81.432295 8.260414 C 83.125004 8.963539 84.781254 9.749998 86.395837 10.614581 C 88.015629 11.479165 89.588546 12.416665 91.109379 13.437498 C 92.635421 14.458331 94.109379 15.546873 95.526046 16.71354 C 96.942713 17.874998 98.302088 19.104165 99.598963 20.40104 C 100.895838 21.697915 102.125005 23.05729 103.286463 24.473957 C 104.45313 25.890624 105.541672 27.364582 106.562505 28.890624 C 107.583338 30.411457 108.520838 31.984374 109.385422 33.604166 C 110.250005 35.218749 111.036464 36.874999 111.739589 38.567708 C 112.437505 40.265624 113.057297 41.989583 113.588547 43.744791 C 114.119797 45.5 114.567714 47.276041 114.92188 49.072917 C 115.281255 50.875 115.552089 52.6875 115.729172 54.510417 C 115.911464 56.338542 116.000005 58.166667 116.000005 60.000001 Z M 116.000005 60.000001 " stroke="#f2d473" stroke-width="6" stroke-opacity="1" stroke-miterlimit="4"/><path stroke-linecap="round" transform="matrix(0.75, 0, 0, 0.75, 0.0000005, 0.000002)" fill="none" stroke-linejoin="round" d="M 35.000001 62.000001 L 53.000002 78.000001 L 86.000004 42 " stroke="#ffffff" stroke-width="9" stroke-opacity="1" stroke-miterlimit="4"/></svg>