<svg xmlns="http://www.w3.org/2000/svg" xmlns:xlink="http://www.w3.org/1999/xlink" width="96" zoomAndPan="magnify" viewBox="0 0 72 72" height="96" preserveAspectRatio="xMidYMid meet" version="1.0"><defs><clipPath id="6bf5a7bfde"><path d="M 4 4 L 68 4 L 68 68 L 4 68 Z M 4 4 " clip-rule="nonzero"/></clipPath><clipPath id="65d3fa7a33"><path d="M 67.5 36 C 67.5 37.03125 67.449219 38.0625 67.347656 39.085938 C 67.246094 40.113281 67.097656 41.132812 66.894531 42.144531 C 66.695312 43.15625 66.441406 44.15625 66.144531 45.144531 C 65.84375 46.132812 65.496094 47.101562 65.101562 48.054688 C 64.707031 49.007812 64.265625 49.9375 63.78125 50.847656 C 63.292969 51.757812 62.765625 52.644531 62.191406 53.5 C 61.617188 54.359375 61.003906 55.1875 60.351562 55.984375 C 59.695312 56.78125 59.003906 57.542969 58.273438 58.273438 C 57.542969 59.003906 56.78125 59.695312 55.984375 60.351562 C 55.1875 61.003906 54.359375 61.617188 53.5 62.191406 C 52.644531 62.765625 51.757812 63.292969 50.847656 63.78125 C 49.9375 64.265625 49.007812 64.707031 48.054688 65.101562 C 47.101562 65.496094 46.132812 65.84375 45.144531 66.144531 C 44.15625 66.441406 43.15625 66.695312 42.144531 66.894531 C 41.132812 67.097656 40.113281 67.246094 39.085938 67.347656 C 38.0625 67.449219 37.03125 67.5 36 67.5 C 34.96875 67.5 33.9375 67.449219 32.914062 67.347656 C 31.886719 67.246094 30.867188 67.097656 29.855469 66.894531 C 28.84375 66.695312 27.84375 66.441406 26.855469 66.144531 C 25.867188 65.84375 24.898438 65.496094 23.945312 65.101562 C 22.992188 64.707031 22.0625 64.265625 21.152344 63.78125 C 20.242188 63.292969 19.355469 62.765625 18.5 62.191406 C 17.640625 61.617188 16.8125 61.003906 16.015625 60.351562 C 15.21875 59.695312 14.457031 59.003906 13.726562 58.273438 C 12.996094 57.542969 12.304688 56.78125 11.648438 55.984375 C 10.996094 55.1875 10.382812 54.359375 9.808594 53.5 C 9.234375 52.644531 8.707031 51.757812 8.21875 50.847656 C 7.734375 49.9375 7.292969 49.007812 6.898438 48.054688 C 6.503906 47.101562 6.15625 46.132812 5.855469 45.144531 C 5.558594 44.15625 5.304688 43.15625 5.105469 42.144531 C 4.902344 41.132812 4.753906 40.113281 4.652344 39.085938 C 4.550781 38.0625 4.5 37.03125 4.5 36 C 4.5 34.96875 4.550781 33.9375 4.652344 32.914062 C 4.753906 31.886719 4.902344 30.867188 5.105469 29.855469 C 5.304688 28.84375 5.558594 27.84375 5.855469 26.855469 C 6.15625 25.867188 6.503906 24.898438 6.898438 23.945312 C 7.292969 22.992188 7.734375 22.0625 8.21875 21.152344 C 8.707031 20.242188 9.234375 19.355469 9.808594 18.5 C 10.382812 17.640625 10.996094 16.8125 11.648438 16.015625 C 12.304688 15.21875 12.996094 14.457031 13.726562 13.726562 C 14.457031 12.996094 15.21875 12.304688 16.015625 11.648438 C 16.8125 10.996094 17.640625 10.382812 18.5 9.808594 C 19.355469 9.234375 20.242188 8.707031 21.152344 8.21875 C 22.0625 7.734375 22.992188 7.292969 23.945312 6.898438 C 24.898438 6.503906 25.867188 6.15625 26.855469 5.855469 C 27.84375 5.558594 28.84375 5.304688 29.855469 5.105469 C 30.867188 4.902344 31.886719 4.753906 32.914062 4.652344 C 33.9375 4.550781 34.96875 4.5 36 4.5 C 37.03125 4.5 38.0625 4.550781 39.085938 4.652344 C 40.113281 4.753906 41.132812 4.902344 42.144531 5.105469 C 43.15625 5.304688 44.15625 5.558594 45.144531 5.855469 C 46.132812 6.15625 47.101562 6.503906 48.054688 6.898438 C 49.007812 7.292969 49.9375 7.734375 50.847656 8.21875 C 51.757812 8.707031 52.644531 9.234375 53.5 9.808594 C 54.359375 10.382812 55.1875 10.996094 55.984375 11.648438 C 56.78125 12.304688 57.542969 12.996094 58.273438 13.726562 C 59.003906 14.457031 59.695312 15.21875 60.351562 16.015625 C 61.003906 16.8125 61.617188 17.640625 62.191406 18.5 C 62.765625 19.355469 63.292969 20.242188 63.78125 21.152344 C 64.265625 22.0625 64.707031 22.992188 65.101562 23.945312 C 65.496094 24.898438 65.84375 25.867188 66.144531 26.855469 C 66.441406 27.84375 66.695312 28.84375 66.894531 29.855469 C 67.097656 30.867188 67.246094 31.886719 67.347656 32.914062 C 67.449219 33.9375 67.5 34.96875 67.5 36 Z M 67.5 36 " clip-rule="nonzero"/></clipPath><linearGradient x1="0" gradientTransform="matrix(63, 0, 0, 63, 4.5, 4.500002)" y1="-0.00000000297619" x2="0" gradientUnits="userSpaceOnUse" y2="1" id="e1d0ce1783"><stop stop-opacity="1" stop-color="rgb(32.548523%, 76.078796%, 85.488892%)" offset="0"/><stop stop-opacity="1" stop-color="rgb(32.389832%, 75.971985%, 85.415649%)" offset="0.015625"/><stop stop-opacity="1" stop-color="rgb(32.070923%, 75.756836%, 85.269165%)" offset="0.03125"/><stop stop-opacity="1" stop-color="rgb(31.752014%, 75.543213%, 85.121155%)" offset="0.046875"/><stop stop-opacity="1" stop-color="rgb(31.433105%, 75.328064%, 84.97467%)" offset="0.0625"/><stop stop-opacity="1" stop-color="rgb(31.115723%, 75.112915%, 84.82666%)" offset="0.078125"/><stop stop-opacity="1" stop-color="rgb(30.796814%, 74.899292%, 84.680176%)" offset="0.09375"/><stop stop-opacity="1" stop-color="rgb(30.477905%, 74.684143%, 84.533691%)" offset="0.109375"/><stop stop-opacity="1" stop-color="rgb(30.158997%, 74.47052%, 84.385681%)" offset="0.125"/><stop stop-opacity="1" stop-color="rgb(29.840088%, 74.255371%, 84.239197%)" offset="0.140625"/><stop stop-opacity="1" stop-color="rgb(29.522705%, 74.040222%, 84.092712%)" offset="0.15625"/><stop stop-opacity="1" stop-color="rgb(29.203796%, 73.826599%, 83.944702%)" offset="0.171875"/><stop stop-opacity="1" stop-color="rgb(28.884888%, 73.61145%, 83.798218%)" offset="0.1875"/><stop stop-opacity="1" stop-color="rgb(28.565979%, 73.397827%, 83.651733%)" offset="0.203125"/><stop stop-opacity="1" stop-color="rgb(28.24707%, 73.182678%, 83.503723%)" offset="0.21875"/><stop stop-opacity="1" stop-color="rgb(27.929688%, 72.967529%, 83.357239%)" offset="0.234375"/><stop stop-opacity="1" stop-color="rgb(27.610779%, 72.753906%, 83.209229%)" offset="0.25"/><stop stop-opacity="1" stop-color="rgb(27.29187%, 72.538757%, 83.062744%)" offset="0.265625"/><stop stop-opacity="1" stop-color="rgb(26.972961%, 72.325134%, 82.91626%)" offset="0.28125"/><stop stop-opacity="1" stop-color="rgb(26.654053%, 72.109985%, 82.76825%)" offset="0.296875"/><stop stop-opacity="1" stop-color="rgb(26.33667%, 71.894836%, 82.621765%)" offset="0.3125"/><stop stop-opacity="1" stop-color="rgb(26.017761%, 71.681213%, 82.475281%)" offset="0.328125"/><stop stop-opacity="1" stop-color="rgb(25.698853%, 71.466064%, 82.327271%)" offset="0.34375"/><stop stop-opacity="1" stop-color="rgb(25.379944%, 71.252441%, 82.180786%)" offset="0.359375"/><stop stop-opacity="1" stop-color="rgb(25.061035%, 71.037292%, 82.034302%)" offset="0.375"/><stop stop-opacity="1" stop-color="rgb(24.743652%, 70.822144%, 81.886292%)" offset="0.390625"/><stop stop-opacity="1" stop-color="rgb(24.424744%, 70.608521%, 81.739807%)" offset="0.40625"/><stop stop-opacity="1" stop-color="rgb(24.105835%, 70.393372%, 81.593323%)" offset="0.421875"/><stop stop-opacity="1" stop-color="rgb(23.786926%, 70.179749%, 81.445312%)" offset="0.4375"/><stop stop-opacity="1" stop-color="rgb(23.468018%, 69.9646%, 81.298828%)" offset="0.453125"/><stop stop-opacity="1" stop-color="rgb(23.150635%, 69.749451%, 81.150818%)" offset="0.46875"/><stop stop-opacity="1" stop-color="rgb(22.831726%, 69.535828%, 81.004333%)" offset="0.484375"/><stop stop-opacity="1" stop-color="rgb(22.512817%, 69.320679%, 80.857849%)" offset="0.5"/><stop stop-opacity="1" stop-color="rgb(22.193909%, 69.107056%, 80.709839%)" offset="0.515625"/><stop stop-opacity="1" stop-color="rgb(21.875%, 68.891907%, 80.563354%)" offset="0.53125"/><stop stop-opacity="1" stop-color="rgb(21.557617%, 68.676758%, 80.41687%)" offset="0.546875"/><stop stop-opacity="1" stop-color="rgb(21.238708%, 68.463135%, 80.26886%)" offset="0.5625"/><stop stop-opacity="1" stop-color="rgb(20.9198%, 68.247986%, 80.122375%)" offset="0.578125"/><stop stop-opacity="1" stop-color="rgb(20.600891%, 68.034363%, 79.975891%)" offset="0.59375"/><stop stop-opacity="1" stop-color="rgb(20.283508%, 67.819214%, 79.827881%)" offset="0.609375"/><stop stop-opacity="1" stop-color="rgb(19.9646%, 67.604065%, 79.681396%)" offset="0.625"/><stop stop-opacity="1" stop-color="rgb(19.645691%, 67.390442%, 79.534912%)" offset="0.640625"/><stop stop-opacity="1" stop-color="rgb(19.326782%, 67.175293%, 79.386902%)" offset="0.65625"/><stop stop-opacity="1" stop-color="rgb(19.007874%, 66.96167%, 79.240417%)" offset="0.671875"/><stop stop-opacity="1" stop-color="rgb(18.690491%, 66.746521%, 79.092407%)" offset="0.6875"/><stop stop-opacity="1" stop-color="rgb(18.371582%, 66.532898%, 78.945923%)" offset="0.703125"/><stop stop-opacity="1" stop-color="rgb(18.052673%, 66.317749%, 78.799438%)" offset="0.71875"/><stop stop-opacity="1" stop-color="rgb(17.733765%, 66.1026%, 78.651428%)" offset="0.734375"/><stop stop-opacity="1" stop-color="rgb(17.414856%, 65.888977%, 78.504944%)" offset="0.75"/><stop stop-opacity="1" stop-color="rgb(17.097473%, 65.673828%, 78.358459%)" offset="0.765625"/><stop stop-opacity="1" stop-color="rgb(16.778564%, 65.460205%, 78.210449%)" offset="0.78125"/><stop stop-opacity="1" stop-color="rgb(16.459656%, 65.245056%, 78.063965%)" offset="0.796875"/><stop stop-opacity="1" stop-color="rgb(16.140747%, 65.029907%, 77.91748%)" offset="0.8125"/><stop stop-opacity="1" stop-color="rgb(15.821838%, 64.816284%, 77.76947%)" offset="0.828125"/><stop stop-opacity="1" stop-color="rgb(15.504456%, 64.601135%, 77.622986%)" offset="0.84375"/><stop stop-opacity="1" stop-color="rgb(15.185547%, 64.387512%, 77.476501%)" offset="0.859375"/><stop stop-opacity="1" stop-color="rgb(14.866638%, 64.172363%, 77.328491%)" offset="0.875"/><stop stop-opacity="1" stop-color="rgb(14.547729%, 63.957214%, 77.182007%)" offset="0.890625"/><stop stop-opacity="1" stop-color="rgb(14.228821%, 63.743591%, 77.033997%)" offset="0.90625"/><stop stop-opacity="1" stop-color="rgb(13.911438%, 63.528442%, 76.887512%)" offset="0.921875"/><stop stop-opacity="1" stop-color="rgb(13.592529%, 63.314819%, 76.741028%)" offset="0.9375"/><stop stop-opacity="1" stop-color="rgb(13.273621%, 63.09967%, 76.593018%)" offset="0.953125"/><stop stop-opacity="1" stop-color="rgb(12.954712%, 62.884521%, 76.446533%)" offset="0.96875"/><stop stop-opacity="1" stop-color="rgb(12.635803%, 62.670898%, 76.300049%)" offset="0.984375"/><stop stop-opacity="1" stop-color="rgb(12.31842%, 62.45575%, 76.152039%)" offset="1"/></linearGradient><clipPath id="f5ebccf98d"><path d="M 10 10 L 62 10 L 62 62 L 10 62 Z M 10 10 " clip-rule="nonzero"/></clipPath><clipPath id="888c728925"><path d="M 61.5 36 C 61.5 36.835938 61.460938 37.667969 61.378906 38.5 C 61.296875 39.332031 61.171875 40.15625 61.011719 40.976562 C 60.847656 41.792969 60.644531 42.601562 60.402344 43.402344 C 60.160156 44.203125 59.878906 44.988281 59.558594 45.757812 C 59.238281 46.53125 58.882812 47.285156 58.488281 48.019531 C 58.09375 48.757812 57.667969 49.472656 57.203125 50.167969 C 56.738281 50.863281 56.242188 51.53125 55.710938 52.175781 C 55.183594 52.824219 54.621094 53.441406 54.03125 54.03125 C 53.441406 54.621094 52.824219 55.183594 52.175781 55.710938 C 51.53125 56.242188 50.863281 56.738281 50.167969 57.203125 C 49.472656 57.667969 48.757812 58.09375 48.019531 58.488281 C 47.285156 58.882812 46.53125 59.238281 45.757812 59.558594 C 44.988281 59.878906 44.203125 60.160156 43.402344 60.402344 C 42.601562 60.644531 41.792969 60.847656 40.976562 61.011719 C 40.15625 61.171875 39.332031 61.296875 38.5 61.378906 C 37.667969 61.460938 36.835938 61.5 36 61.5 C 35.164062 61.5 34.332031 61.460938 33.5 61.378906 C 32.667969 61.296875 31.84375 61.171875 31.023438 61.011719 C 30.207031 60.847656 29.398438 60.644531 28.597656 60.402344 C 27.796875 60.160156 27.011719 59.878906 26.242188 59.558594 C 25.46875 59.238281 24.714844 58.882812 23.980469 58.488281 C 23.242188 58.09375 22.527344 57.667969 21.832031 57.203125 C 21.136719 56.738281 20.46875 56.242188 19.824219 55.710938 C 19.175781 55.183594 18.558594 54.621094 17.96875 54.03125 C 17.378906 53.441406 16.816406 52.824219 16.289062 52.175781 C 15.757812 51.53125 15.261719 50.863281 14.796875 50.167969 C 14.332031 49.472656 13.90625 48.757812 13.511719 48.019531 C 13.117188 47.285156 12.761719 46.53125 12.441406 45.757812 C 12.121094 44.988281 11.839844 44.203125 11.597656 43.402344 C 11.355469 42.601562 11.152344 41.792969 10.988281 40.976562 C 10.828125 40.15625 10.703125 39.332031 10.621094 38.5 C 10.539062 37.667969 10.5 36.835938 10.5 36 C 10.5 35.164062 10.539062 34.332031 10.621094 33.5 C 10.703125 32.667969 10.828125 31.84375 10.988281 31.023438 C 11.152344 30.207031 11.355469 29.398438 11.597656 28.597656 C 11.839844 27.796875 12.121094 27.011719 12.441406 26.242188 C 12.761719 25.46875 13.117188 24.714844 13.511719 23.980469 C 13.90625 23.242188 14.332031 22.527344 14.796875 21.832031 C 15.261719 21.136719 15.757812 20.46875 16.289062 19.824219 C 16.816406 19.175781 17.378906 18.558594 17.96875 17.96875 C 18.558594 17.378906 19.175781 16.816406 19.824219 16.289062 C 20.46875 15.757812 21.136719 15.261719 21.832031 14.796875 C 22.527344 14.332031 23.242188 13.90625 23.980469 13.511719 C 24.714844 13.117188 25.46875 12.761719 26.242188 12.441406 C 27.011719 12.121094 27.796875 11.839844 28.597656 11.597656 C 29.398438 11.355469 30.207031 11.152344 31.023438 10.988281 C 31.84375 10.828125 32.667969 10.703125 33.5 10.621094 C 34.332031 10.539062 35.164062 10.5 36 10.5 C 36.835938 10.5 37.667969 10.539062 38.5 10.621094 C 39.332031 10.703125 40.15625 10.828125 40.976562 10.988281 C 41.792969 11.152344 42.601562 11.355469 43.402344 11.597656 C 44.203125 11.839844 44.988281 12.121094 45.757812 12.441406 C 46.53125 12.761719 47.285156 13.117188 48.019531 13.511719 C 48.757812 13.90625 49.472656 14.332031 50.167969 14.796875 C 50.863281 15.261719 51.53125 15.757812 52.175781 16.289062 C 52.824219 16.816406 53.441406 17.378906 54.03125 17.96875 C 54.621094 18.558594 55.183594 19.175781 55.710938 19.824219 C 56.242188 20.46875 56.738281 21.136719 57.203125 21.832031 C 57.667969 22.527344 58.09375 23.242188 58.488281 23.980469 C 58.882812 24.714844 59.238281 25.46875 59.558594 26.242188 C 59.878906 27.011719 60.160156 27.796875 60.402344 28.597656 C 60.644531 29.398438 60.847656 30.207031 61.011719 31.023438 C 61.171875 31.84375 61.296875 32.667969 61.378906 33.5 C 61.460938 34.332031 61.5 35.164062 61.5 36 Z M 61.5 36 " clip-rule="nonzero"/></clipPath><linearGradient x1="0" gradientTransform="matrix(51, 0, 0, 51, 10.5, 10.500002)" y1="-0.00000000857843" x2="0" gradientUnits="userSpaceOnUse" y2="1" id="b230d726cc"><stop stop-opacity="1" stop-color="rgb(9.01947%, 19.999695%, 30.198669%)" offset="0"/><stop stop-opacity="1" stop-color="rgb(8.964539%, 19.91272%, 30.088806%)" offset="0.03125"/><stop stop-opacity="1" stop-color="rgb(8.853149%, 19.741821%, 29.867554%)" offset="0.0625"/><stop stop-opacity="1" stop-color="rgb(8.743286%, 19.569397%, 29.647827%)" offset="0.09375"/><stop stop-opacity="1" stop-color="rgb(8.633423%, 19.398499%, 29.426575%)" offset="0.125"/><stop stop-opacity="1" stop-color="rgb(8.522034%, 19.2276%, 29.205322%)" offset="0.15625"/><stop stop-opacity="1" stop-color="rgb(8.41217%, 19.055176%, 28.985596%)" offset="0.1875"/><stop stop-opacity="1" stop-color="rgb(8.302307%, 18.884277%, 28.764343%)" offset="0.21875"/><stop stop-opacity="1" stop-color="rgb(8.190918%, 18.711853%, 28.544617%)" offset="0.25"/><stop stop-opacity="1" stop-color="rgb(8.081055%, 18.540955%, 28.323364%)" offset="0.28125"/><stop stop-opacity="1" stop-color="rgb(7.971191%, 18.36853%, 28.102112%)" offset="0.3125"/><stop stop-opacity="1" stop-color="rgb(7.861328%, 18.197632%, 27.882385%)" offset="0.34375"/><stop stop-opacity="1" stop-color="rgb(7.749939%, 18.025208%, 27.661133%)" offset="0.375"/><stop stop-opacity="1" stop-color="rgb(7.640076%, 17.854309%, 27.441406%)" offset="0.40625"/><stop stop-opacity="1" stop-color="rgb(7.530212%, 17.683411%, 27.220154%)" offset="0.4375"/><stop stop-opacity="1" stop-color="rgb(7.418823%, 17.510986%, 27.000427%)" offset="0.46875"/><stop stop-opacity="1" stop-color="rgb(7.30896%, 17.340088%, 26.779175%)" offset="0.5"/><stop stop-opacity="1" stop-color="rgb(7.199097%, 17.167664%, 26.557922%)" offset="0.53125"/><stop stop-opacity="1" stop-color="rgb(7.089233%, 16.996765%, 26.338196%)" offset="0.5625"/><stop stop-opacity="1" stop-color="rgb(6.977844%, 16.824341%, 26.116943%)" offset="0.59375"/><stop stop-opacity="1" stop-color="rgb(6.867981%, 16.653442%, 25.897217%)" offset="0.625"/><stop stop-opacity="1" stop-color="rgb(6.758118%, 16.482544%, 25.675964%)" offset="0.65625"/><stop stop-opacity="1" stop-color="rgb(6.646729%, 16.31012%, 25.454712%)" offset="0.6875"/><stop stop-opacity="1" stop-color="rgb(6.536865%, 16.139221%, 25.234985%)" offset="0.71875"/><stop stop-opacity="1" stop-color="rgb(6.427002%, 15.966797%, 25.013733%)" offset="0.75"/><stop stop-opacity="1" stop-color="rgb(6.315613%, 15.795898%, 24.794006%)" offset="0.78125"/><stop stop-opacity="1" stop-color="rgb(6.20575%, 15.623474%, 24.572754%)" offset="0.8125"/><stop stop-opacity="1" stop-color="rgb(6.095886%, 15.452576%, 24.351501%)" offset="0.84375"/><stop stop-opacity="1" stop-color="rgb(5.986023%, 15.281677%, 24.131775%)" offset="0.875"/><stop stop-opacity="1" stop-color="rgb(5.874634%, 15.109253%, 23.910522%)" offset="0.90625"/><stop stop-opacity="1" stop-color="rgb(5.764771%, 14.938354%, 23.690796%)" offset="0.9375"/><stop stop-opacity="1" stop-color="rgb(5.654907%, 14.76593%, 23.469543%)" offset="0.96875"/><stop stop-opacity="1" stop-color="rgb(5.543518%, 14.595032%, 23.249817%)" offset="1"/></linearGradient></defs><g clip-path="url(#6bf5a7bfde)"><g clip-path="url(#65d3fa7a33)"><path fill="url(#e1d0ce1783)" d="M 4.5 4.5 L 4.5 67.5 L 67.5 67.5 L 67.5 4.5 Z M 4.5 4.5 " fill-rule="nonzero"/></g></g><g clip-path="url(#f5ebccf98d)"><g clip-path="url(#888c728925)"><path fill="url(#b230d726cc)" d="M 10.5 10.5 L 10.5 61.5 L 61.5 61.5 L 61.5 10.5 Z M 10.5 10.5 " fill-rule="nonzero"/></g></g><path stroke-linecap="butt" transform="matrix(0.75, 0, 0, 0.75, 0, 0.000002)" fill="none" stroke-linejoin="miter" d="M 79.000003 47.999999 C 79.000003 49.015624 78.94792 50.026041 78.848962 51.036458 C 78.750003 52.046875 78.60417 53.052083 78.406253 54.046875 C 78.208337 55.041666 77.958337 56.026041 77.66667 57 C 77.369795 57.96875 77.031253 58.927083 76.640628 59.864583 C 76.250003 60.802083 75.817711 61.71875 75.338545 62.614583 C 74.859378 63.510417 74.338545 64.380208 73.776045 65.223958 C 73.213545 66.067708 72.609378 66.880208 71.963545 67.666667 C 71.317711 68.453125 70.640628 69.203125 69.921878 69.921875 C 69.203128 70.640625 68.453128 71.317709 67.666669 71.963542 C 66.880211 72.609375 66.067711 73.213542 65.223961 73.776042 C 64.380211 74.338542 63.510419 74.859375 62.614586 75.338542 C 61.718753 75.817709 60.802086 76.250001 59.864586 76.640626 C 58.927086 77.031251 57.968752 77.369792 57.000002 77.666667 C 56.026044 77.958334 55.041669 78.208334 54.046877 78.406251 C 53.052086 78.604167 52.046877 78.750001 51.03646 78.848959 C 50.026044 78.947917 49.015627 79.000001 48.000002 79.000001 C 46.984377 79.000001 45.97396 78.947917 44.963544 78.848959 C 43.953127 78.750001 42.947918 78.604167 41.953127 78.406251 C 40.958335 78.208334 39.97396 77.958334 39.000002 77.666667 C 38.031252 77.369792 37.072918 77.031251 36.135418 76.640626 C 35.197918 76.250001 34.281251 75.817709 33.385418 75.338542 C 32.489585 74.859375 31.619793 74.338542 30.776043 73.776042 C 29.932293 73.213542 29.119793 72.609375 28.333335 71.963542 C 27.546876 71.317709 26.796876 70.640625 26.078126 69.921875 C 25.359376 69.203125 24.682293 68.453125 24.036459 67.666667 C 23.390626 66.880208 22.786459 66.067708 22.223959 65.223958 C 21.661459 64.380208 21.140626 63.510417 20.661459 62.614583 C 20.182293 61.71875 19.750001 60.802083 19.359376 59.864583 C 18.968751 58.927083 18.630209 57.96875 18.333334 57 C 18.041667 56.026041 17.791667 55.041666 17.593751 54.046875 C 17.395834 53.052083 17.250001 52.046875 17.151042 51.036458 C 17.052084 50.026041 17.000001 49.015624 17.000001 47.999999 C 17.000001 46.984374 17.052084 45.973958 17.151042 44.963541 C 17.250001 43.953124 17.395834 42.947916 17.593751 41.953124 C 17.791667 40.958332 18.041667 39.973957 18.333334 38.999999 C 18.630209 38.031249 18.968751 37.072916 19.359376 36.135416 C 19.750001 35.197915 20.182293 34.281249 20.661459 33.385415 C 21.140626 32.489582 21.661459 31.61979 22.223959 30.77604 C 22.786459 29.93229 23.390626 29.11979 24.036459 28.333332 C 24.682293 27.546873 25.359376 26.796873 26.078126 26.078123 C 26.796876 25.359373 27.546876 24.68229 28.333335 24.036457 C 29.119793 23.390623 29.932293 22.786457 30.776043 22.223957 C 31.619793 21.661457 32.489585 21.140623 33.385418 20.661457 C 34.281251 20.18229 35.197918 19.749998 36.135418 19.359373 C 37.072918 18.968748 38.031252 18.630206 39.000002 18.333331 C 39.97396 18.041665 40.958335 17.791665 41.953127 17.593748 C 42.947918 17.395831 43.953127 17.249998 44.963544 17.15104 C 45.97396 17.052081 46.984377 16.999998 48.000002 16.999998 C 49.015627 16.999998 50.026044 17.052081 51.03646 17.15104 C 52.046877 17.249998 53.052086 17.395831 54.046877 17.593748 C 55.041669 17.791665 56.026044 18.041665 57.000002 18.333331 C 57.968752 18.630206 58.927086 18.968748 59.864586 19.359373 C 60.802086 19.749998 61.718753 20.18229 62.614586 20.661457 C 63.510419 21.140623 64.380211 21.661457 65.223961 22.223957 C 66.067711 22.786457 66.880211 23.390623 67.666669 24.036457 C 68.453128 24.68229 69.203128 25.359373 69.921878 26.078123 C 70.640628 26.796873 71.317711 27.546873 71.963545 28.333332 C 72.609378 29.11979 73.213545 29.93229 73.776045 30.77604 C 74.338545 31.61979 74.859378 32.489582 75.338545 33.385415 C 75.817711 34.281249 76.250003 35.197915 76.640628 36.135416 C 77.031253 37.072916 77.369795 38.031249 77.66667 38.999999 C 77.958337 39.973957 78.208337 40.958332 78.406253 41.953124 C 78.60417 42.947916 78.750003 43.953124 78.848962 44.963541 C 78.94792 45.973958 79.000003 46.984374 79.000003 47.999999 Z M 79.000003 47.999999 " stroke="#ffffff" stroke-width="4" stroke-opacity="0.9" stroke-miterlimit="4"/><path fill="#ffffff" d="M 10.5 28.5 C 10.3125 28.058594 10.171875 27.613281 10.066406 27.164062 C 9.964844 26.710938 9.902344 26.261719 9.882812 25.808594 C 9.867188 25.355469 9.886719 24.902344 9.953125 24.453125 C 10.019531 24 10.125 23.550781 10.273438 23.105469 C 10.421875 22.660156 10.609375 22.21875 10.839844 21.78125 C 11.070312 21.34375 11.339844 20.917969 11.648438 20.496094 C 11.957031 20.070312 12.308594 19.660156 12.691406 19.253906 C 13.078125 18.851562 13.503906 18.457031 13.960938 18.074219 C 14.421875 17.691406 14.914062 17.324219 15.441406 16.96875 C 15.96875 16.609375 16.53125 16.269531 17.121094 15.941406 C 17.710938 15.613281 18.332031 15.304688 18.980469 15.007812 C 19.632812 14.714844 20.304688 14.4375 21.007812 14.175781 C 21.707031 13.914062 22.429688 13.675781 23.175781 13.453125 C 23.921875 13.230469 24.683594 13.027344 25.46875 12.84375 C 26.25 12.660156 27.046875 12.5 27.859375 12.359375 C 28.675781 12.21875 29.5 12.097656 30.332031 12 C 31.167969 11.902344 32.011719 11.824219 32.859375 11.769531 C 33.710938 11.714844 34.5625 11.683594 35.417969 11.675781 C 36.273438 11.664062 37.125 11.675781 37.980469 11.710938 C 38.832031 11.746094 39.679688 11.800781 40.523438 11.878906 C 41.367188 11.957031 42.199219 12.058594 43.023438 12.179688 C 43.847656 12.300781 44.65625 12.445312 45.457031 12.609375 C 46.253906 12.773438 47.035156 12.957031 47.796875 13.160156 C 48.558594 13.367188 49.300781 13.589844 50.023438 13.832031 C 50.746094 14.074219 51.445312 14.335938 52.117188 14.617188 C 52.789062 14.894531 53.4375 15.191406 54.054688 15.503906 C 54.671875 15.820312 55.261719 16.148438 55.816406 16.492188 C 56.375 16.835938 56.898438 17.191406 57.390625 17.5625 C 57.882812 17.933594 58.335938 18.316406 58.757812 18.710938 C 59.175781 19.105469 59.558594 19.507812 59.90625 19.925781 C 60.25 20.339844 60.554688 20.761719 60.820312 21.191406 C 61.089844 21.621094 61.3125 22.058594 61.5 22.5 C 61.230469 21.667969 60.84375 20.847656 60.335938 20.046875 C 59.828125 19.246094 59.207031 18.46875 58.472656 17.71875 C 57.738281 16.964844 56.894531 16.246094 55.949219 15.5625 C 55.003906 14.878906 53.964844 14.234375 52.828125 13.636719 C 51.695312 13.035156 50.480469 12.484375 49.183594 11.980469 C 47.886719 11.476562 46.527344 11.03125 45.097656 10.636719 C 43.671875 10.242188 42.195312 9.910156 40.667969 9.636719 C 39.144531 9.359375 37.585938 9.148438 36 9 C 34.964844 9.09375 33.945312 9.214844 32.933594 9.363281 C 31.925781 9.507812 30.929688 9.683594 29.953125 9.882812 C 28.976562 10.082031 28.019531 10.304688 27.085938 10.554688 C 26.152344 10.804688 25.242188 11.078125 24.359375 11.375 C 23.476562 11.671875 22.625 11.992188 21.804688 12.332031 C 20.984375 12.675781 20.195312 13.035156 19.441406 13.417969 C 18.691406 13.800781 17.976562 14.203125 17.300781 14.621094 C 16.625 15.042969 15.992188 15.480469 15.398438 15.933594 C 14.804688 16.386719 14.257812 16.851562 13.753906 17.335938 C 13.25 17.816406 12.792969 18.3125 12.382812 18.816406 C 11.976562 19.324219 11.613281 19.835938 11.304688 20.363281 C 10.992188 20.886719 10.730469 21.417969 10.523438 21.957031 C 10.3125 22.496094 10.15625 23.039062 10.046875 23.585938 C 9.941406 24.128906 9.886719 24.679688 9.886719 25.226562 C 9.882812 25.777344 9.933594 26.324219 10.035156 26.871094 C 10.140625 27.417969 10.292969 27.960938 10.5 28.5 Z M 10.5 28.5 " fill-opacity="0.18" fill-rule="nonzero"/><path stroke-linecap="round" transform="matrix(0.75, 0, 0, 0.75, 0, 0.000002)" fill="none" stroke-linejoin="round" d="M 56.000002 31.999999 L 40.000002 47.999999 L 56.000002 64 " stroke="#ffffff" stroke-width="8" stroke-opacity="1" stroke-miterlimit="4"/></svg>