<svg xmlns="http://www.w3.org/2000/svg" xmlns:xlink="http://www.w3.org/1999/xlink" width="128" zoomAndPan="magnify" viewBox="0 0 96 95.999999" height="128" preserveAspectRatio="xMidYMid meet" version="1.0"><defs><clipPath id="2b6652cefe"><path d="M 27 22 L 69 22 L 69 62 L 27 62 Z M 27 22 " clip-rule="nonzero"/></clipPath><clipPath id="ce5f421b93"><path d="M 48 22.5 L 53.25 37.5 L 69 37.5 L 56.25 46.5 L 60.75 61.5 L 48 52.5 L 35.25 61.5 L 39.75 46.5 L 27 37.5 L 42.75 37.5 Z M 48 22.5 " clip-rule="nonzero"/></clipPath><linearGradient x1="0" gradientTransform="matrix(42, 0, 0, 39, 27, 22.500002)" y1="-0.0000000240385" x2="0" gradientUnits="userSpaceOnUse" y2="1" id="74b28cb4dc"><stop stop-opacity="1" stop-color="rgb(100%, 82.749939%, 41.569519%)" offset="0"/><stop stop-opacity="1" stop-color="rgb(99.961853%, 82.659912%, 41.427612%)" offset="0.0078125"/><stop stop-opacity="1" stop-color="rgb(99.888611%, 82.481384%, 41.145325%)" offset="0.015625"/><stop stop-opacity="1" stop-color="rgb(99.815369%, 82.304382%, 40.864563%)" offset="0.0234375"/><stop stop-opacity="1" stop-color="rgb(99.742126%, 82.125854%, 40.582275%)" offset="0.03125"/><stop stop-opacity="1" stop-color="rgb(99.667358%, 81.948853%, 40.299988%)" offset="0.0390625"/><stop stop-opacity="1" stop-color="rgb(99.594116%, 81.770325%, 40.0177%)" offset="0.046875"/><stop stop-opacity="1" stop-color="rgb(99.520874%, 81.593323%, 39.736938%)" offset="0.0546875"/><stop stop-opacity="1" stop-color="rgb(99.447632%, 81.414795%, 39.454651%)" offset="0.0625"/><stop stop-opacity="1" stop-color="rgb(99.372864%, 81.237793%, 39.172363%)" offset="0.0703125"/><stop stop-opacity="1" stop-color="rgb(99.299622%, 81.059265%, 38.891602%)" offset="0.078125"/><stop stop-opacity="1" stop-color="rgb(99.226379%, 80.882263%, 38.609314%)" offset="0.0859375"/><stop stop-opacity="1" stop-color="rgb(99.153137%, 80.703735%, 38.327026%)" offset="0.09375"/><stop stop-opacity="1" stop-color="rgb(99.079895%, 80.526733%, 38.044739%)" offset="0.101562"/><stop stop-opacity="1" stop-color="rgb(99.005127%, 80.348206%, 37.763977%)" offset="0.109375"/><stop stop-opacity="1" stop-color="rgb(98.931885%, 80.171204%, 37.481689%)" offset="0.117188"/><stop stop-opacity="1" stop-color="rgb(98.858643%, 79.992676%, 37.199402%)" offset="0.125"/><stop stop-opacity="1" stop-color="rgb(98.7854%, 79.815674%, 36.917114%)" offset="0.132812"/><stop stop-opacity="1" stop-color="rgb(98.710632%, 79.637146%, 36.636353%)" offset="0.140625"/><stop stop-opacity="1" stop-color="rgb(98.63739%, 79.458618%, 36.354065%)" offset="0.148438"/><stop stop-opacity="1" stop-color="rgb(98.564148%, 79.281616%, 36.071777%)" offset="0.15625"/><stop stop-opacity="1" stop-color="rgb(98.490906%, 79.103088%, 35.78949%)" offset="0.164062"/><stop stop-opacity="1" stop-color="rgb(98.416138%, 78.926086%, 35.508728%)" offset="0.171875"/><stop stop-opacity="1" stop-color="rgb(98.342896%, 78.747559%, 35.22644%)" offset="0.179688"/><stop stop-opacity="1" stop-color="rgb(98.269653%, 78.570557%, 34.944153%)" offset="0.1875"/><stop stop-opacity="1" stop-color="rgb(98.196411%, 78.392029%, 34.663391%)" offset="0.195312"/><stop stop-opacity="1" stop-color="rgb(98.123169%, 78.215027%, 34.381104%)" offset="0.203125"/><stop stop-opacity="1" stop-color="rgb(98.048401%, 78.036499%, 34.098816%)" offset="0.210938"/><stop stop-opacity="1" stop-color="rgb(97.975159%, 77.859497%, 33.816528%)" offset="0.21875"/><stop stop-opacity="1" stop-color="rgb(97.901917%, 77.680969%, 33.535767%)" offset="0.226562"/><stop stop-opacity="1" stop-color="rgb(97.828674%, 77.503967%, 33.253479%)" offset="0.234375"/><stop stop-opacity="1" stop-color="rgb(97.753906%, 77.325439%, 32.971191%)" offset="0.242188"/><stop stop-opacity="1" stop-color="rgb(97.680664%, 77.148438%, 32.688904%)" offset="0.25"/><stop stop-opacity="1" stop-color="rgb(97.607422%, 76.96991%, 32.408142%)" offset="0.257812"/><stop stop-opacity="1" stop-color="rgb(97.53418%, 76.791382%, 32.125854%)" offset="0.265625"/><stop stop-opacity="1" stop-color="rgb(97.459412%, 76.61438%, 31.843567%)" offset="0.273438"/><stop stop-opacity="1" stop-color="rgb(97.386169%, 76.435852%, 31.562805%)" offset="0.28125"/><stop stop-opacity="1" stop-color="rgb(97.312927%, 76.25885%, 31.280518%)" offset="0.289062"/><stop stop-opacity="1" stop-color="rgb(97.239685%, 76.080322%, 30.99823%)" offset="0.296875"/><stop stop-opacity="1" stop-color="rgb(97.166443%, 75.90332%, 30.715942%)" offset="0.304688"/><stop stop-opacity="1" stop-color="rgb(97.091675%, 75.724792%, 30.435181%)" offset="0.3125"/><stop stop-opacity="1" stop-color="rgb(97.018433%, 75.547791%, 30.152893%)" offset="0.320312"/><stop stop-opacity="1" stop-color="rgb(96.94519%, 75.369263%, 29.870605%)" offset="0.328125"/><stop stop-opacity="1" stop-color="rgb(96.871948%, 75.192261%, 29.588318%)" offset="0.335938"/><stop stop-opacity="1" stop-color="rgb(96.79718%, 75.013733%, 29.307556%)" offset="0.34375"/><stop stop-opacity="1" stop-color="rgb(96.723938%, 74.836731%, 29.025269%)" offset="0.351562"/><stop stop-opacity="1" stop-color="rgb(96.650696%, 74.658203%, 28.742981%)" offset="0.359375"/><stop stop-opacity="1" stop-color="rgb(96.577454%, 74.481201%, 28.462219%)" offset="0.367188"/><stop stop-opacity="1" stop-color="rgb(96.502686%, 74.302673%, 28.179932%)" offset="0.375"/><stop stop-opacity="1" stop-color="rgb(96.429443%, 74.125671%, 27.897644%)" offset="0.382812"/><stop stop-opacity="1" stop-color="rgb(96.356201%, 73.947144%, 27.615356%)" offset="0.390625"/><stop stop-opacity="1" stop-color="rgb(96.282959%, 73.768616%, 27.334595%)" offset="0.398438"/><stop stop-opacity="1" stop-color="rgb(96.209717%, 73.591614%, 27.052307%)" offset="0.40625"/><stop stop-opacity="1" stop-color="rgb(96.134949%, 73.413086%, 26.77002%)" offset="0.414062"/><stop stop-opacity="1" stop-color="rgb(96.061707%, 73.236084%, 26.487732%)" offset="0.421875"/><stop stop-opacity="1" stop-color="rgb(95.988464%, 73.057556%, 26.20697%)" offset="0.429688"/><stop stop-opacity="1" stop-color="rgb(95.915222%, 72.880554%, 25.924683%)" offset="0.4375"/><stop stop-opacity="1" stop-color="rgb(95.840454%, 72.702026%, 25.642395%)" offset="0.445312"/><stop stop-opacity="1" stop-color="rgb(95.767212%, 72.525024%, 25.360107%)" offset="0.453125"/><stop stop-opacity="1" stop-color="rgb(95.69397%, 72.346497%, 25.079346%)" offset="0.460938"/><stop stop-opacity="1" stop-color="rgb(95.620728%, 72.169495%, 24.797058%)" offset="0.46875"/><stop stop-opacity="1" stop-color="rgb(95.545959%, 71.990967%, 24.514771%)" offset="0.476562"/><stop stop-opacity="1" stop-color="rgb(95.472717%, 71.813965%, 24.234009%)" offset="0.484375"/><stop stop-opacity="1" stop-color="rgb(95.399475%, 71.635437%, 23.951721%)" offset="0.492188"/><stop stop-opacity="1" stop-color="rgb(95.326233%, 71.458435%, 23.669434%)" offset="0.5"/><stop stop-opacity="1" stop-color="rgb(95.141602%, 71.203613%, 23.425293%)" offset="0.515625"/><stop stop-opacity="1" stop-color="rgb(94.847107%, 70.872498%, 23.216248%)" offset="0.53125"/><stop stop-opacity="1" stop-color="rgb(94.554138%, 70.541382%, 23.007202%)" offset="0.546875"/><stop stop-opacity="1" stop-color="rgb(94.259644%, 70.210266%, 22.799683%)" offset="0.5625"/><stop stop-opacity="1" stop-color="rgb(93.965149%, 69.87915%, 22.590637%)" offset="0.578125"/><stop stop-opacity="1" stop-color="rgb(93.670654%, 69.548035%, 22.383118%)" offset="0.59375"/><stop stop-opacity="1" stop-color="rgb(93.377686%, 69.216919%, 22.174072%)" offset="0.609375"/><stop stop-opacity="1" stop-color="rgb(93.083191%, 68.885803%, 21.965027%)" offset="0.625"/><stop stop-opacity="1" stop-color="rgb(92.788696%, 68.556213%, 21.757507%)" offset="0.640625"/><stop stop-opacity="1" stop-color="rgb(92.495728%, 68.225098%, 21.548462%)" offset="0.65625"/><stop stop-opacity="1" stop-color="rgb(92.201233%, 67.893982%, 21.340942%)" offset="0.671875"/><stop stop-opacity="1" stop-color="rgb(91.906738%, 67.562866%, 21.131897%)" offset="0.6875"/><stop stop-opacity="1" stop-color="rgb(91.612244%, 67.23175%, 20.922852%)" offset="0.703125"/><stop stop-opacity="1" stop-color="rgb(91.319275%, 66.900635%, 20.715332%)" offset="0.71875"/><stop stop-opacity="1" stop-color="rgb(91.02478%, 66.569519%, 20.506287%)" offset="0.734375"/><stop stop-opacity="1" stop-color="rgb(90.730286%, 66.238403%, 20.297241%)" offset="0.75"/><stop stop-opacity="1" stop-color="rgb(90.437317%, 65.908813%, 20.089722%)" offset="0.765625"/><stop stop-opacity="1" stop-color="rgb(90.142822%, 65.577698%, 19.880676%)" offset="0.78125"/><stop stop-opacity="1" stop-color="rgb(89.848328%, 65.246582%, 19.673157%)" offset="0.796875"/><stop stop-opacity="1" stop-color="rgb(89.553833%, 64.915466%, 19.464111%)" offset="0.8125"/><stop stop-opacity="1" stop-color="rgb(89.260864%, 64.584351%, 19.255066%)" offset="0.828125"/><stop stop-opacity="1" stop-color="rgb(88.96637%, 64.253235%, 19.047546%)" offset="0.84375"/><stop stop-opacity="1" stop-color="rgb(88.671875%, 63.922119%, 18.838501%)" offset="0.859375"/><stop stop-opacity="1" stop-color="rgb(88.378906%, 63.591003%, 18.630981%)" offset="0.875"/><stop stop-opacity="1" stop-color="rgb(88.084412%, 63.259888%, 18.421936%)" offset="0.890625"/><stop stop-opacity="1" stop-color="rgb(87.789917%, 62.930298%, 18.212891%)" offset="0.90625"/><stop stop-opacity="1" stop-color="rgb(87.495422%, 62.599182%, 18.005371%)" offset="0.921875"/><stop stop-opacity="1" stop-color="rgb(87.202454%, 62.268066%, 17.796326%)" offset="0.9375"/><stop stop-opacity="1" stop-color="rgb(86.907959%, 61.936951%, 17.588806%)" offset="0.953125"/><stop stop-opacity="1" stop-color="rgb(86.613464%, 61.605835%, 17.379761%)" offset="0.96875"/><stop stop-opacity="1" stop-color="rgb(86.320496%, 61.274719%, 17.170715%)" offset="0.984375"/><stop stop-opacity="1" stop-color="rgb(86.026001%, 60.943604%, 16.963196%)" offset="1"/></linearGradient></defs><path stroke-linecap="butt" transform="matrix(0.75, 0, 0, 0.75, 0.0000005, 0.000002)" fill-opacity="1" fill="#1e3554" fill-rule="nonzero" stroke-linejoin="miter" d="M 120.000006 64.000001 C 120.000006 65.833334 119.911464 67.661459 119.729172 69.489584 C 119.552089 71.312501 119.281256 73.125001 118.921881 74.927085 C 118.567714 76.72396 118.119797 78.500001 117.588547 80.25521 C 117.057297 82.010418 116.437505 83.734377 115.739589 85.432293 C 115.036464 87.125002 114.250005 88.781252 113.385422 90.395835 C 112.520839 92.015627 111.583338 93.588544 110.562505 95.109377 C 109.541672 96.635419 108.45313 98.109377 107.286463 99.526044 C 106.125005 100.942711 104.895838 102.302086 103.598963 103.598961 C 102.302088 104.895836 100.942713 106.125003 99.526046 107.286461 C 98.109379 108.453128 96.635421 109.54167 95.109379 110.562503 C 93.588546 111.583336 92.015629 112.520837 90.395837 113.38542 C 88.781254 114.250003 87.125004 115.036462 85.432295 115.739587 C 83.734379 116.437503 82.01042 117.057295 80.255212 117.588545 C 78.500003 118.119795 76.723962 118.567712 74.927087 118.921879 C 73.125003 119.281254 71.312503 119.552087 69.489586 119.72917 C 67.661461 119.911462 65.833336 120.000004 64.000003 120.000004 C 62.166669 120.000004 60.338544 119.911462 58.510419 119.72917 C 56.687502 119.552087 54.875002 119.281254 53.072919 118.921879 C 51.276044 118.567712 49.500002 118.119795 47.744793 117.588545 C 45.989585 117.057295 44.265627 116.437503 42.56771 115.739587 C 40.875001 115.036462 39.218751 114.250003 37.604168 113.38542 C 35.984376 112.520837 34.411459 111.583336 32.890626 110.562503 C 31.364584 109.54167 29.890626 108.453128 28.473959 107.286461 C 27.057292 106.125003 25.697917 104.895836 24.401042 103.598961 C 23.104167 102.302086 21.875 100.942711 20.713542 99.526044 C 19.546875 98.109377 18.458334 96.635419 17.4375 95.109377 C 16.416667 93.588544 15.479167 92.015627 14.614583 90.395835 C 13.75 88.781252 12.963542 87.125002 12.260417 85.432293 C 11.5625 83.734377 10.942708 82.010418 10.411458 80.25521 C 9.880208 78.500001 9.432291 76.72396 9.078125 74.927085 C 8.71875 73.125001 8.447916 71.312501 8.270833 69.489584 C 8.088541 67.661459 8 65.833334 8 64.000001 C 8 62.166667 8.088541 60.338542 8.270833 58.510417 C 8.447916 56.6875 8.71875 54.875 9.078125 53.072917 C 9.432291 51.276042 9.880208 49.5 10.411458 47.744791 C 10.942708 45.989583 11.5625 44.265625 12.260417 42.567708 C 12.963542 40.874999 13.75 39.218749 14.614583 37.604166 C 15.479167 35.984374 16.416667 34.411457 17.4375 32.890624 C 18.458334 31.364582 19.546875 29.890624 20.713542 28.473957 C 21.875 27.05729 23.104167 25.697915 24.401042 24.40104 C 25.697917 23.104165 27.057292 21.874998 28.473959 20.71354 C 29.890626 19.546873 31.364584 18.458332 32.890626 17.437498 C 34.411459 16.416665 35.984376 15.479165 37.604168 14.614581 C 39.218751 13.749998 40.875001 12.96354 42.56771 12.260415 C 44.265627 11.562498 45.989585 10.942706 47.744793 10.411456 C 49.500002 9.880206 51.276044 9.432289 53.072919 9.078123 C 54.875002 8.718748 56.687502 8.447914 58.510419 8.270831 C 60.338544 8.088539 62.166669 7.999998 64.000003 7.999998 C 65.833336 7.999998 67.661461 8.088539 69.489586 8.270831 C 71.312503 8.447914 73.125003 8.718748 74.927087 9.078123 C 76.723962 9.432289 78.500003 9.880206 80.255212 10.411456 C 82.01042 10.942706 83.734379 11.562498 85.432295 12.260415 C 87.125004 12.96354 88.781254 13.749998 90.395837 14.614581 C 92.015629 15.479165 93.588546 16.416665 95.109379 17.437498 C 96.635421 18.458332 98.109379 19.546873 99.526046 20.71354 C 100.942713 21.874998 102.302088 23.104165 103.598963 24.40104 C 104.895838 25.697915 106.125005 27.05729 107.286463 28.473957 C 108.45313 29.890624 109.541672 31.364582 110.562505 32.890624 C 111.583338 34.411457 112.520839 35.984374 113.385422 37.604166 C 114.250005 39.218749 115.036464 40.874999 115.739589 42.567708 C 116.437505 44.265625 117.057297 45.989583 117.588547 47.744791 C 118.119797 49.5 118.567714 51.276042 118.921881 53.072917 C 119.281256 54.875 119.552089 56.6875 119.729172 58.510417 C 119.911464 60.338542 120.000006 62.166667 120.000006 64.000001 Z M 120.000006 64.000001 " stroke="#2aa8c8" stroke-width="6" stroke-opacity="0.25" stroke-miterlimit="4"/><path fill="#000000" d="M 73.5 61.5 C 73.5 61.792969 73.460938 62.089844 73.378906 62.382812 C 73.296875 62.675781 73.171875 62.964844 73.011719 63.253906 C 72.847656 63.542969 72.644531 63.832031 72.402344 64.113281 C 72.160156 64.394531 71.878906 64.671875 71.558594 64.945312 C 71.238281 65.214844 70.882812 65.484375 70.488281 65.742188 C 70.09375 66.003906 69.667969 66.253906 69.203125 66.5 C 68.738281 66.746094 68.242188 66.980469 67.710938 67.210938 C 67.183594 67.4375 66.621094 67.65625 66.03125 67.863281 C 65.441406 68.074219 64.824219 68.269531 64.175781 68.457031 C 63.53125 68.644531 62.863281 68.820312 62.167969 68.984375 C 61.472656 69.148438 60.757812 69.296875 60.019531 69.4375 C 59.285156 69.578125 58.53125 69.703125 57.757812 69.816406 C 56.988281 69.925781 56.203125 70.027344 55.402344 70.113281 C 54.601562 70.199219 53.792969 70.269531 52.976562 70.328125 C 52.15625 70.382812 51.332031 70.429688 50.5 70.457031 C 49.667969 70.484375 48.835938 70.5 48 70.5 C 47.164062 70.5 46.332031 70.484375 45.5 70.457031 C 44.667969 70.429688 43.84375 70.382812 43.023438 70.328125 C 42.207031 70.269531 41.398438 70.199219 40.597656 70.113281 C 39.796875 70.027344 39.011719 69.925781 38.242188 69.816406 C 37.46875 69.703125 36.714844 69.578125 35.980469 69.4375 C 35.242188 69.296875 34.527344 69.148438 33.832031 68.984375 C 33.136719 68.820312 32.46875 68.644531 31.824219 68.457031 C 31.175781 68.269531 30.558594 68.074219 29.96875 67.863281 C 29.378906 67.65625 28.816406 67.4375 28.289062 67.210938 C 27.757812 66.980469 27.261719 66.746094 26.796875 66.5 C 26.332031 66.253906 25.90625 66.003906 25.511719 65.742188 C 25.117188 65.484375 24.761719 65.214844 24.441406 64.945312 C 24.121094 64.671875 23.839844 64.394531 23.597656 64.113281 C 23.355469 63.832031 23.152344 63.542969 22.988281 63.253906 C 22.828125 62.964844 22.703125 62.675781 22.621094 62.382812 C 22.539062 62.089844 22.5 61.792969 22.5 61.5 C 22.5 61.207031 22.539062 60.910156 22.621094 60.617188 C 22.703125 60.324219 22.828125 60.035156 22.988281 59.746094 C 23.152344 59.457031 23.355469 59.167969 23.597656 58.886719 C 23.839844 58.605469 24.121094 58.328125 24.441406 58.054688 C 24.761719 57.785156 25.117188 57.515625 25.511719 57.257812 C 25.90625 56.996094 26.332031 56.746094 26.796875 56.5 C 27.261719 56.253906 27.757812 56.019531 28.289062 55.789062 C 28.816406 55.5625 29.378906 55.34375 29.96875 55.136719 C 30.558594 54.925781 31.175781 54.730469 31.824219 54.542969 C 32.46875 54.355469 33.136719 54.179688 33.832031 54.015625 C 34.527344 53.851562 35.242188 53.703125 35.980469 53.5625 C 36.714844 53.421875 37.46875 53.296875 38.242188 53.183594 C 39.011719 53.074219 39.796875 52.972656 40.597656 52.886719 C 41.398438 52.800781 42.207031 52.730469 43.023438 52.671875 C 43.84375 52.617188 44.667969 52.570312 45.5 52.542969 C 46.332031 52.515625 47.164062 52.5 48 52.5 C 48.835938 52.5 49.667969 52.515625 50.5 52.542969 C 51.332031 52.570312 52.15625 52.617188 52.976562 52.671875 C 53.792969 52.730469 54.601562 52.800781 55.402344 52.886719 C 56.203125 52.972656 56.988281 53.074219 57.757812 53.183594 C 58.53125 53.296875 59.285156 53.421875 60.019531 53.5625 C 60.757812 53.703125 61.472656 53.851562 62.167969 54.015625 C 62.863281 54.179688 63.53125 54.355469 64.175781 54.542969 C 64.824219 54.730469 65.441406 54.925781 66.03125 55.136719 C 66.621094 55.34375 67.183594 55.5625 67.710938 55.789062 C 68.242188 56.019531 68.738281 56.253906 69.203125 56.5 C 69.667969 56.746094 70.09375 56.996094 70.488281 57.257812 C 70.882812 57.515625 71.238281 57.785156 71.558594 58.054688 C 71.878906 58.328125 72.160156 58.605469 72.402344 58.886719 C 72.644531 59.167969 72.847656 59.457031 73.011719 59.746094 C 73.171875 60.035156 73.296875 60.324219 73.378906 60.617188 C 73.460938 60.910156 73.5 61.207031 73.5 61.5 Z M 73.5 61.5 " fill-opacity="0.25" fill-rule="nonzero"/><g clip-path="url(#2b6652cefe)"><g clip-path="url(#ce5f421b93)"><path fill="url(#74b28cb4dc)" d="M 27 22.5 L 27 61.5 L 69 61.5 L 69 22.5 Z M 27 22.5 " fill-rule="nonzero"/></g></g><path stroke-linecap="butt" transform="matrix(0.75, 0, 0, 0.75, 47.999998, 42)" fill="none" stroke-linejoin="miter" d="M 0.00000266667 -26.000001 L 7.000003 -6 L 28.000004 -6 L 11.000003 6.000001 L 17.000004 26.000002 L 0.00000266667 14.000001 L -16.999998 26.000002 L -10.999998 6.000001 L -27.999999 -6 L -6.999998 -6 Z M 0.00000266667 -26.000001 " stroke="#c88618" stroke-width="2" stroke-opacity="1" stroke-miterlimit="4"/></svg>