<svg xmlns="http://www.w3.org/2000/svg" xmlns:xlink="http://www.w3.org/1999/xlink" width="700" zoomAndPan="magnify" viewBox="0 0 525 344.999992" height="460" preserveAspectRatio="xMidYMid meet" version="1.0"><defs><clipPath id="1186cb26f6"><path d="M 11 13 L 507 13 L 507 323 L 11 323 Z M 11 13 " clip-rule="nonzero"/></clipPath><clipPath id="56cda0c5a4"><path d="M 30.75 13.574219 L 486.75 13.574219 C 487.386719 13.574219 488.027344 13.605469 488.660156 13.667969 C 489.296875 13.730469 489.929688 13.824219 490.554688 13.949219 C 491.179688 14.074219 491.800781 14.226562 492.410156 14.414062 C 493.023438 14.597656 493.621094 14.8125 494.210938 15.058594 C 494.800781 15.300781 495.378906 15.574219 495.941406 15.875 C 496.503906 16.175781 497.050781 16.503906 497.582031 16.859375 C 498.113281 17.214844 498.628906 17.59375 499.121094 18 C 499.613281 18.402344 500.085938 18.832031 500.539062 19.285156 C 500.988281 19.734375 501.417969 20.207031 501.824219 20.699219 C 502.230469 21.195312 502.609375 21.707031 502.964844 22.238281 C 503.320312 22.769531 503.644531 23.316406 503.949219 23.878906 C 504.25 24.441406 504.519531 25.015625 504.765625 25.605469 C 505.011719 26.195312 505.226562 26.796875 505.410156 27.40625 C 505.59375 28.019531 505.75 28.636719 505.875 29.261719 C 506 29.890625 506.09375 30.519531 506.15625 31.15625 C 506.21875 31.789062 506.25 32.425781 506.25 33.066406 L 506.25 302.9375 C 506.25 303.578125 506.21875 304.214844 506.15625 304.847656 C 506.09375 305.484375 506 306.113281 505.875 306.742188 C 505.75 307.367188 505.59375 307.984375 505.410156 308.597656 C 505.226562 309.207031 505.011719 309.808594 504.765625 310.398438 C 504.519531 310.988281 504.25 311.5625 503.949219 312.125 C 503.644531 312.691406 503.320312 313.238281 502.964844 313.765625 C 502.609375 314.296875 502.230469 314.808594 501.824219 315.304688 C 501.417969 315.796875 500.988281 316.269531 500.539062 316.722656 C 500.085938 317.171875 499.613281 317.601562 499.121094 318.003906 C 498.628906 318.410156 498.113281 318.789062 497.582031 319.144531 C 497.050781 319.5 496.503906 319.828125 495.941406 320.128906 C 495.378906 320.429688 494.800781 320.703125 494.210938 320.945312 C 493.621094 321.191406 493.023438 321.40625 492.410156 321.589844 C 491.800781 321.777344 491.179688 321.929688 490.554688 322.054688 C 489.929688 322.179688 489.296875 322.273438 488.660156 322.335938 C 488.027344 322.398438 487.386719 322.429688 486.75 322.429688 L 30.75 322.429688 C 30.113281 322.429688 29.472656 322.398438 28.839844 322.335938 C 28.203125 322.273438 27.570312 322.179688 26.945312 322.054688 C 26.320312 321.929688 25.699219 321.777344 25.089844 321.589844 C 24.476562 321.40625 23.878906 321.191406 23.289062 320.945312 C 22.699219 320.703125 22.121094 320.429688 21.558594 320.128906 C 20.996094 319.828125 20.449219 319.5 19.917969 319.144531 C 19.386719 318.789062 18.871094 318.410156 18.378906 318.003906 C 17.886719 317.601562 17.414062 317.171875 16.960938 316.722656 C 16.511719 316.269531 16.082031 315.796875 15.675781 315.304688 C 15.269531 314.808594 14.890625 314.296875 14.535156 313.765625 C 14.179688 313.238281 13.855469 312.691406 13.550781 312.125 C 13.25 311.5625 12.980469 310.988281 12.734375 310.398438 C 12.488281 309.808594 12.273438 309.207031 12.089844 308.597656 C 11.902344 307.984375 11.75 307.367188 11.625 306.742188 C 11.5 306.113281 11.40625 305.484375 11.34375 304.847656 C 11.28125 304.214844 11.25 303.578125 11.25 302.9375 L 11.25 33.066406 C 11.25 32.425781 11.28125 31.789062 11.34375 31.15625 C 11.40625 30.519531 11.5 29.890625 11.625 29.261719 C 11.75 28.636719 11.902344 28.019531 12.089844 27.40625 C 12.273438 26.796875 12.488281 26.195312 12.734375 25.605469 C 12.980469 25.015625 13.25 24.441406 13.550781 23.878906 C 13.855469 23.316406 14.179688 22.769531 14.535156 22.238281 C 14.890625 21.707031 15.269531 21.195312 15.675781 20.699219 C 16.082031 20.207031 16.511719 19.734375 16.960938 19.285156 C 17.414062 18.832031 17.886719 18.402344 18.378906 18 C 18.871094 17.59375 19.386719 17.214844 19.917969 16.859375 C 20.449219 16.503906 20.996094 16.175781 21.558594 15.875 C 22.121094 15.574219 22.699219 15.300781 23.289062 15.058594 C 23.878906 14.8125 24.476562 14.597656 25.089844 14.414062 C 25.699219 14.226562 26.320312 14.074219 26.945312 13.949219 C 27.570312 13.824219 28.203125 13.730469 28.839844 13.667969 C 29.472656 13.605469 30.113281 13.574219 30.75 13.574219 Z M 30.75 13.574219 " clip-rule="nonzero"/></clipPath><linearGradient x1="0" gradientTransform="matrix(494.999988, 0, 0, 308.855122, 11.250006, 13.57456)" y1="-0.000000094307" x2="0" gradientUnits="userSpaceOnUse" y2="1" id="500640c5c3"><stop stop-opacity="1" stop-color="rgb(7.839966%, 16.079712%, 24.308777%)" offset="0"/><stop stop-opacity="1" stop-color="rgb(7.691956%, 15.907288%, 24.113464%)" offset="0.125"/><stop stop-opacity="1" stop-color="rgb(7.472229%, 15.649414%, 23.820496%)" offset="0.1875"/><stop stop-opacity="1" stop-color="rgb(7.324219%, 15.47699%, 23.623657%)" offset="0.25"/><stop stop-opacity="1" stop-color="rgb(7.104492%, 15.219116%, 23.330688%)" offset="0.375"/><stop stop-opacity="1" stop-color="rgb(6.809998%, 14.875793%, 22.940063%)" offset="0.5"/><stop stop-opacity="1" stop-color="rgb(6.590271%, 14.61792%, 22.645569%)" offset="0.5625"/><stop stop-opacity="1" stop-color="rgb(6.443787%, 14.445496%, 22.450256%)" offset="0.625"/><stop stop-opacity="1" stop-color="rgb(6.222534%, 14.187622%, 22.157288%)" offset="0.75"/><stop stop-opacity="1" stop-color="rgb(6.002808%, 13.929749%, 21.864319%)" offset="0.8125"/><stop stop-opacity="1" stop-color="rgb(5.856323%, 13.75885%, 21.66748%)" offset="0.875"/><stop stop-opacity="1" stop-color="rgb(5.635071%, 13.500977%, 21.374512%)" offset="1"/></linearGradient><linearGradient x1="0" gradientTransform="matrix(656.000027, 0, 0, 407.999981, 17.000001, 20.00003)" y1="-0.00735646" x2="0" gradientUnits="userSpaceOnUse" y2="1.007356" id="c2b0e13c6b"><stop stop-opacity="1" stop-color="rgb(100%, 82.749939%, 41.569519%)" offset="0"/><stop stop-opacity="1" stop-color="rgb(99.967957%, 82.669067%, 41.441345%)" offset="0.015625"/><stop stop-opacity="1" stop-color="rgb(99.908447%, 82.511902%, 41.194153%)" offset="0.0234375"/><stop stop-opacity="1" stop-color="rgb(99.85199%, 82.362366%, 40.956116%)" offset="0.03125"/><stop stop-opacity="1" stop-color="rgb(99.795532%, 82.211304%, 40.718079%)" offset="0.0390625"/><stop stop-opacity="1" stop-color="rgb(99.739075%, 82.061768%, 40.480042%)" offset="0.046875"/><stop stop-opacity="1" stop-color="rgb(99.681091%, 81.910706%, 40.240479%)" offset="0.0546875"/><stop stop-opacity="1" stop-color="rgb(99.624634%, 81.761169%, 40.002441%)" offset="0.0625"/><stop stop-opacity="1" stop-color="rgb(99.568176%, 81.610107%, 39.764404%)" offset="0.0703125"/><stop stop-opacity="1" stop-color="rgb(99.510193%, 81.460571%, 39.526367%)" offset="0.078125"/><stop stop-opacity="1" stop-color="rgb(99.453735%, 81.309509%, 39.28833%)" offset="0.0859375"/><stop stop-opacity="1" stop-color="rgb(99.397278%, 81.159973%, 39.048767%)" offset="0.09375"/><stop stop-opacity="1" stop-color="rgb(99.339294%, 81.008911%, 38.81073%)" offset="0.101563"/><stop stop-opacity="1" stop-color="rgb(99.282837%, 80.857849%, 38.572693%)" offset="0.109375"/><stop stop-opacity="1" stop-color="rgb(99.226379%, 80.708313%, 38.334656%)" offset="0.117188"/><stop stop-opacity="1" stop-color="rgb(99.168396%, 80.557251%, 38.095093%)" offset="0.125"/><stop stop-opacity="1" stop-color="rgb(99.111938%, 80.407715%, 37.857056%)" offset="0.132812"/><stop stop-opacity="1" stop-color="rgb(99.055481%, 80.256653%, 37.619019%)" offset="0.140625"/><stop stop-opacity="1" stop-color="rgb(98.997498%, 80.107117%, 37.380981%)" offset="0.148438"/><stop stop-opacity="1" stop-color="rgb(98.94104%, 79.956055%, 37.142944%)" offset="0.15625"/><stop stop-opacity="1" stop-color="rgb(98.884583%, 79.806519%, 36.903381%)" offset="0.164063"/><stop stop-opacity="1" stop-color="rgb(98.826599%, 79.655457%, 36.665344%)" offset="0.171875"/><stop stop-opacity="1" stop-color="rgb(98.770142%, 79.50592%, 36.427307%)" offset="0.179688"/><stop stop-opacity="1" stop-color="rgb(98.713684%, 79.354858%, 36.18927%)" offset="0.1875"/><stop stop-opacity="1" stop-color="rgb(98.655701%, 79.205322%, 35.951233%)" offset="0.195313"/><stop stop-opacity="1" stop-color="rgb(98.599243%, 79.05426%, 35.71167%)" offset="0.203125"/><stop stop-opacity="1" stop-color="rgb(98.542786%, 78.903198%, 35.473633%)" offset="0.210938"/><stop stop-opacity="1" stop-color="rgb(98.484802%, 78.753662%, 35.235596%)" offset="0.21875"/><stop stop-opacity="1" stop-color="rgb(98.428345%, 78.6026%, 34.997559%)" offset="0.226563"/><stop stop-opacity="1" stop-color="rgb(98.371887%, 78.453064%, 34.759521%)" offset="0.234375"/><stop stop-opacity="1" stop-color="rgb(98.31543%, 78.302002%, 34.519958%)" offset="0.242188"/><stop stop-opacity="1" stop-color="rgb(98.257446%, 78.152466%, 34.281921%)" offset="0.25"/><stop stop-opacity="1" stop-color="rgb(98.200989%, 78.001404%, 34.043884%)" offset="0.257812"/><stop stop-opacity="1" stop-color="rgb(98.144531%, 77.851868%, 33.805847%)" offset="0.265625"/><stop stop-opacity="1" stop-color="rgb(98.086548%, 77.700806%, 33.56781%)" offset="0.273438"/><stop stop-opacity="1" stop-color="rgb(98.03009%, 77.55127%, 33.328247%)" offset="0.28125"/><stop stop-opacity="1" stop-color="rgb(97.973633%, 77.400208%, 33.09021%)" offset="0.289062"/><stop stop-opacity="1" stop-color="rgb(97.915649%, 77.250671%, 32.852173%)" offset="0.296875"/><stop stop-opacity="1" stop-color="rgb(97.859192%, 77.099609%, 32.614136%)" offset="0.304688"/><stop stop-opacity="1" stop-color="rgb(97.802734%, 76.948547%, 32.376099%)" offset="0.3125"/><stop stop-opacity="1" stop-color="rgb(97.744751%, 76.799011%, 32.136536%)" offset="0.320312"/><stop stop-opacity="1" stop-color="rgb(97.688293%, 76.647949%, 31.898499%)" offset="0.328125"/><stop stop-opacity="1" stop-color="rgb(97.631836%, 76.498413%, 31.660461%)" offset="0.335938"/><stop stop-opacity="1" stop-color="rgb(97.573853%, 76.347351%, 31.422424%)" offset="0.34375"/><stop stop-opacity="1" stop-color="rgb(97.517395%, 76.197815%, 31.182861%)" offset="0.351562"/><stop stop-opacity="1" stop-color="rgb(97.460938%, 76.046753%, 30.944824%)" offset="0.359375"/><stop stop-opacity="1" stop-color="rgb(97.402954%, 75.897217%, 30.706787%)" offset="0.367188"/><stop stop-opacity="1" stop-color="rgb(97.346497%, 75.746155%, 30.46875%)" offset="0.375"/><stop stop-opacity="1" stop-color="rgb(97.290039%, 75.596619%, 30.230713%)" offset="0.382812"/><stop stop-opacity="1" stop-color="rgb(97.232056%, 75.445557%, 29.99115%)" offset="0.390625"/><stop stop-opacity="1" stop-color="rgb(97.175598%, 75.296021%, 29.753113%)" offset="0.398438"/><stop stop-opacity="1" stop-color="rgb(97.119141%, 75.144958%, 29.515076%)" offset="0.40625"/><stop stop-opacity="1" stop-color="rgb(97.062683%, 74.993896%, 29.277039%)" offset="0.414062"/><stop stop-opacity="1" stop-color="rgb(97.0047%, 74.84436%, 29.039001%)" offset="0.421875"/><stop stop-opacity="1" stop-color="rgb(96.948242%, 74.693298%, 28.799438%)" offset="0.429688"/><stop stop-opacity="1" stop-color="rgb(96.891785%, 74.543762%, 28.561401%)" offset="0.4375"/><stop stop-opacity="1" stop-color="rgb(96.833801%, 74.3927%, 28.323364%)" offset="0.445312"/><stop stop-opacity="1" stop-color="rgb(96.777344%, 74.243164%, 28.085327%)" offset="0.453125"/><stop stop-opacity="1" stop-color="rgb(96.720886%, 74.092102%, 27.84729%)" offset="0.460938"/><stop stop-opacity="1" stop-color="rgb(96.662903%, 73.942566%, 27.607727%)" offset="0.46875"/><stop stop-opacity="1" stop-color="rgb(96.606445%, 73.791504%, 27.36969%)" offset="0.476562"/><stop stop-opacity="1" stop-color="rgb(96.549988%, 73.641968%, 27.131653%)" offset="0.484375"/><stop stop-opacity="1" stop-color="rgb(96.492004%, 73.490906%, 26.893616%)" offset="0.492188"/><stop stop-opacity="1" stop-color="rgb(96.435547%, 73.34137%, 26.655579%)" offset="0.5"/><stop stop-opacity="1" stop-color="rgb(96.379089%, 73.190308%, 26.416016%)" offset="0.507812"/><stop stop-opacity="1" stop-color="rgb(96.321106%, 73.039246%, 26.177979%)" offset="0.515625"/><stop stop-opacity="1" stop-color="rgb(96.264648%, 72.889709%, 25.939941%)" offset="0.523438"/><stop stop-opacity="1" stop-color="rgb(96.208191%, 72.738647%, 25.701904%)" offset="0.53125"/><stop stop-opacity="1" stop-color="rgb(96.150208%, 72.589111%, 25.463867%)" offset="0.539063"/><stop stop-opacity="1" stop-color="rgb(96.09375%, 72.438049%, 25.224304%)" offset="0.546875"/><stop stop-opacity="1" stop-color="rgb(96.037292%, 72.288513%, 24.986267%)" offset="0.554688"/><stop stop-opacity="1" stop-color="rgb(95.979309%, 72.137451%, 24.74823%)" offset="0.5625"/><stop stop-opacity="1" stop-color="rgb(95.922852%, 71.987915%, 24.510193%)" offset="0.570312"/><stop stop-opacity="1" stop-color="rgb(95.866394%, 71.836853%, 24.272156%)" offset="0.578125"/><stop stop-opacity="1" stop-color="rgb(95.808411%, 71.687317%, 24.032593%)" offset="0.585937"/><stop stop-opacity="1" stop-color="rgb(95.751953%, 71.536255%, 23.794556%)" offset="0.59375"/><stop stop-opacity="1" stop-color="rgb(95.666504%, 71.366882%, 23.574829%)" offset="0.601562"/><stop stop-opacity="1" stop-color="rgb(95.503235%, 71.148682%, 23.405457%)" offset="0.609375"/><stop stop-opacity="1" stop-color="rgb(95.292664%, 70.899963%, 23.265076%)" offset="0.617188"/><stop stop-opacity="1" stop-color="rgb(95.083618%, 70.651245%, 23.124695%)" offset="0.625"/><stop stop-opacity="1" stop-color="rgb(94.873047%, 70.402527%, 22.98584%)" offset="0.632812"/><stop stop-opacity="1" stop-color="rgb(94.664001%, 70.153809%, 22.845459%)" offset="0.640625"/><stop stop-opacity="1" stop-color="rgb(94.45343%, 69.90509%, 22.705078%)" offset="0.648438"/><stop stop-opacity="1" stop-color="rgb(94.244385%, 69.656372%, 22.566223%)" offset="0.65625"/><stop stop-opacity="1" stop-color="rgb(94.033813%, 69.407654%, 22.425842%)" offset="0.664063"/><stop stop-opacity="1" stop-color="rgb(93.823242%, 69.158936%, 22.285461%)" offset="0.671875"/><stop stop-opacity="1" stop-color="rgb(93.614197%, 68.910217%, 22.145081%)" offset="0.679688"/><stop stop-opacity="1" stop-color="rgb(93.403625%, 68.661499%, 22.006226%)" offset="0.6875"/><stop stop-opacity="1" stop-color="rgb(93.19458%, 68.412781%, 21.865845%)" offset="0.695312"/><stop stop-opacity="1" stop-color="rgb(92.984009%, 68.164062%, 21.725464%)" offset="0.703125"/><stop stop-opacity="1" stop-color="rgb(92.774963%, 67.915344%, 21.586609%)" offset="0.710937"/><stop stop-opacity="1" stop-color="rgb(92.564392%, 67.666626%, 21.446228%)" offset="0.71875"/><stop stop-opacity="1" stop-color="rgb(92.355347%, 67.417908%, 21.305847%)" offset="0.726562"/><stop stop-opacity="1" stop-color="rgb(92.144775%, 67.169189%, 21.166992%)" offset="0.734375"/><stop stop-opacity="1" stop-color="rgb(91.93573%, 66.920471%, 21.026611%)" offset="0.742188"/><stop stop-opacity="1" stop-color="rgb(91.725159%, 66.671753%, 20.88623%)" offset="0.75"/><stop stop-opacity="1" stop-color="rgb(91.514587%, 66.423035%, 20.747375%)" offset="0.757812"/><stop stop-opacity="1" stop-color="rgb(91.305542%, 66.174316%, 20.606995%)" offset="0.765625"/><stop stop-opacity="1" stop-color="rgb(91.094971%, 65.925598%, 20.466614%)" offset="0.773438"/><stop stop-opacity="1" stop-color="rgb(90.885925%, 65.67688%, 20.326233%)" offset="0.78125"/><stop stop-opacity="1" stop-color="rgb(90.675354%, 65.428162%, 20.187378%)" offset="0.789063"/><stop stop-opacity="1" stop-color="rgb(90.466309%, 65.179443%, 20.046997%)" offset="0.796875"/><stop stop-opacity="1" stop-color="rgb(90.255737%, 64.930725%, 19.906616%)" offset="0.804688"/><stop stop-opacity="1" stop-color="rgb(90.046692%, 64.682007%, 19.767761%)" offset="0.8125"/><stop stop-opacity="1" stop-color="rgb(89.836121%, 64.433289%, 19.62738%)" offset="0.820312"/><stop stop-opacity="1" stop-color="rgb(89.627075%, 64.18457%, 19.487%)" offset="0.828125"/><stop stop-opacity="1" stop-color="rgb(89.416504%, 63.935852%, 19.348145%)" offset="0.835937"/><stop stop-opacity="1" stop-color="rgb(89.205933%, 63.687134%, 19.207764%)" offset="0.84375"/><stop stop-opacity="1" stop-color="rgb(88.996887%, 63.438416%, 19.067383%)" offset="0.851562"/><stop stop-opacity="1" stop-color="rgb(88.786316%, 63.189697%, 18.927002%)" offset="0.859375"/><stop stop-opacity="1" stop-color="rgb(88.577271%, 62.940979%, 18.788147%)" offset="0.867188"/><stop stop-opacity="1" stop-color="rgb(88.366699%, 62.692261%, 18.647766%)" offset="0.875"/><stop stop-opacity="1" stop-color="rgb(88.157654%, 62.443542%, 18.507385%)" offset="0.882812"/><stop stop-opacity="1" stop-color="rgb(87.947083%, 62.194824%, 18.36853%)" offset="0.890625"/><stop stop-opacity="1" stop-color="rgb(87.738037%, 61.946106%, 18.228149%)" offset="0.898438"/><stop stop-opacity="1" stop-color="rgb(87.527466%, 61.697388%, 18.087769%)" offset="0.90625"/><stop stop-opacity="1" stop-color="rgb(87.31842%, 61.448669%, 17.948914%)" offset="0.914063"/><stop stop-opacity="1" stop-color="rgb(87.107849%, 61.199951%, 17.808533%)" offset="0.921875"/><stop stop-opacity="1" stop-color="rgb(86.897278%, 60.951233%, 17.668152%)" offset="0.929688"/><stop stop-opacity="1" stop-color="rgb(86.688232%, 60.702515%, 17.527771%)" offset="0.9375"/><stop stop-opacity="1" stop-color="rgb(86.477661%, 60.453796%, 17.388916%)" offset="0.945312"/><stop stop-opacity="1" stop-color="rgb(86.268616%, 60.205078%, 17.248535%)" offset="0.953125"/><stop stop-opacity="1" stop-color="rgb(86.058044%, 59.95636%, 17.108154%)" offset="0.960937"/><stop stop-opacity="1" stop-color="rgb(85.848999%, 59.707642%, 16.969299%)" offset="0.96875"/><stop stop-opacity="1" stop-color="rgb(85.638428%, 59.458923%, 16.828918%)" offset="0.976562"/><stop stop-opacity="1" stop-color="rgb(85.429382%, 59.210205%, 16.688538%)" offset="0.984375"/><stop stop-opacity="1" stop-color="rgb(85.211182%, 58.952332%, 16.543579%)" offset="1"/></linearGradient></defs><path fill="#04121f" d="M 34.5 18.074219 L 490.5 18.074219 C 491.136719 18.074219 491.777344 18.105469 492.410156 18.167969 C 493.046875 18.230469 493.679688 18.324219 494.304688 18.445312 C 494.929688 18.570312 495.550781 18.726562 496.160156 18.910156 C 496.773438 19.097656 497.371094 19.3125 497.960938 19.554688 C 498.550781 19.800781 499.128906 20.074219 499.691406 20.375 C 500.253906 20.675781 500.800781 21.003906 501.332031 21.355469 C 501.863281 21.710938 502.378906 22.089844 502.871094 22.496094 C 503.363281 22.902344 503.835938 23.328125 504.289062 23.78125 C 504.738281 24.234375 505.167969 24.703125 505.574219 25.199219 C 505.980469 25.691406 506.359375 26.203125 506.714844 26.734375 C 507.070312 27.265625 507.394531 27.8125 507.699219 28.375 C 508 28.9375 508.269531 29.515625 508.515625 30.105469 C 508.761719 30.695312 508.976562 31.292969 509.160156 31.90625 C 509.34375 32.515625 509.5 33.132812 509.625 33.761719 C 509.75 34.386719 509.84375 35.015625 509.90625 35.652344 C 509.96875 36.289062 510 36.925781 510 37.5625 L 510 307.4375 C 510 308.074219 509.96875 308.710938 509.90625 309.347656 C 509.84375 309.980469 509.75 310.613281 509.625 311.238281 C 509.5 311.863281 509.34375 312.484375 509.160156 313.09375 C 508.976562 313.707031 508.761719 314.304688 508.515625 314.894531 C 508.269531 315.484375 508 316.0625 507.699219 316.625 C 507.394531 317.1875 507.070312 317.734375 506.714844 318.265625 C 506.359375 318.796875 505.980469 319.308594 505.574219 319.800781 C 505.167969 320.296875 504.738281 320.765625 504.289062 321.21875 C 503.835938 321.671875 503.363281 322.097656 502.871094 322.503906 C 502.378906 322.910156 501.863281 323.289062 501.332031 323.644531 C 500.800781 323.996094 500.253906 324.324219 499.691406 324.625 C 499.128906 324.925781 498.550781 325.199219 497.960938 325.445312 C 497.371094 325.6875 496.773438 325.902344 496.160156 326.089844 C 495.550781 326.273438 494.929688 326.429688 494.304688 326.554688 C 493.679688 326.675781 493.046875 326.769531 492.410156 326.832031 C 491.777344 326.894531 491.136719 326.925781 490.5 326.925781 L 34.5 326.925781 C 33.863281 326.925781 33.222656 326.894531 32.589844 326.832031 C 31.953125 326.769531 31.320312 326.675781 30.695312 326.554688 C 30.070312 326.429688 29.449219 326.273438 28.839844 326.089844 C 28.226562 325.902344 27.628906 325.6875 27.039062 325.445312 C 26.449219 325.199219 25.871094 324.925781 25.308594 324.625 C 24.746094 324.324219 24.199219 323.996094 23.667969 323.644531 C 23.136719 323.289062 22.621094 322.910156 22.128906 322.503906 C 21.636719 322.097656 21.164062 321.671875 20.710938 321.21875 C 20.261719 320.765625 19.832031 320.296875 19.425781 319.800781 C 19.019531 319.308594 18.640625 318.796875 18.285156 318.265625 C 17.929688 317.734375 17.605469 317.1875 17.300781 316.625 C 17 316.0625 16.730469 315.484375 16.484375 314.894531 C 16.238281 314.304688 16.023438 313.707031 15.839844 313.09375 C 15.652344 312.484375 15.5 311.863281 15.375 311.238281 C 15.25 310.613281 15.15625 309.980469 15.09375 309.347656 C 15.03125 308.710938 15 308.074219 15 307.4375 L 15 37.5625 C 15 36.925781 15.03125 36.289062 15.09375 35.652344 C 15.15625 35.015625 15.25 34.386719 15.375 33.761719 C 15.5 33.132812 15.652344 32.515625 15.839844 31.90625 C 16.023438 31.292969 16.238281 30.695312 16.484375 30.105469 C 16.730469 29.515625 17 28.9375 17.300781 28.375 C 17.605469 27.8125 17.929688 27.265625 18.285156 26.734375 C 18.640625 26.203125 19.019531 25.691406 19.425781 25.199219 C 19.832031 24.703125 20.261719 24.234375 20.710938 23.78125 C 21.164062 23.328125 21.636719 22.902344 22.128906 22.496094 C 22.621094 22.089844 23.136719 21.710938 23.667969 21.355469 C 24.199219 21.003906 24.746094 20.675781 25.308594 20.375 C 25.871094 20.074219 26.449219 19.800781 27.039062 19.554688 C 27.628906 19.3125 28.226562 19.097656 28.839844 18.910156 C 29.449219 18.726562 30.070312 18.570312 30.695312 18.445312 C 31.320312 18.324219 31.953125 18.230469 32.589844 18.167969 C 33.222656 18.105469 33.863281 18.074219 34.5 18.074219 Z M 34.5 18.074219 " fill-opacity="0.45" fill-rule="nonzero"/><g clip-path="url(#1186cb26f6)"><g clip-path="url(#56cda0c5a4)"><path fill="url(#500640c5c3)" d="M 11.25 13.574219 L 11.25 322.429688 L 506.25 322.429688 L 506.25 13.574219 Z M 11.25 13.574219 " fill-rule="nonzero"/></g></g><path stroke-linecap="butt" transform="matrix(0.75, 0, 0, 0.749648, 0.00000646739, 0.0808594)" fill="none" stroke-linejoin="miter" d="M 40.999994 17.999584 L 649.000034 17.999584 C 649.848993 17.999584 650.70316 18.04127 651.54691 18.124643 C 652.395868 18.208015 653.239618 18.333074 654.072951 18.499819 C 654.906285 18.666563 655.73441 18.869784 656.54691 19.119901 C 657.364618 19.364807 658.161493 19.6514 658.947952 19.979679 C 659.73441 20.302747 660.505244 20.667501 661.255244 21.068731 C 662.005244 21.469961 662.73441 21.907666 663.442744 22.381847 C 664.151077 22.856027 664.838577 23.361473 665.494827 23.903393 C 666.151077 24.440103 666.781286 25.013289 667.385452 25.617739 C 667.984411 26.216978 668.557327 26.847482 669.098994 27.50404 C 669.640661 28.165808 670.145869 28.84842 670.619828 29.557086 C 671.093786 30.265751 671.526078 30.99526 671.932328 31.745612 C 672.333369 32.495963 672.692744 33.261947 673.020869 34.048775 C 673.348994 34.835602 673.635453 35.638061 673.880244 36.450942 C 674.125036 37.269034 674.333369 38.092337 674.500036 38.926061 C 674.666703 39.764996 674.791703 40.603931 674.875036 41.453288 C 674.958369 42.297433 675.000036 43.14679 675.000036 44.001357 L 675.000036 403.998249 C 675.000036 404.852817 674.958369 405.702173 674.875036 406.546319 C 674.791703 407.395676 674.666703 408.23461 674.500036 409.073545 C 674.333369 409.90727 674.125036 410.730572 673.880244 411.548664 C 673.635453 412.361545 673.348994 413.164005 673.020869 413.950832 C 672.692744 414.737659 672.333369 415.503643 671.932328 416.253995 C 671.526078 417.009558 671.093786 417.739066 670.619828 418.442521 C 670.145869 419.151187 669.640661 419.833798 669.098994 420.495567 C 668.557327 421.152125 667.984411 421.782628 667.385452 422.387079 C 666.781286 422.986318 666.151077 423.559503 665.494827 424.096213 C 664.838577 424.638134 664.151077 425.143579 663.442744 425.61776 C 662.73441 426.09194 662.005244 426.529646 661.255244 426.930875 C 660.505244 427.332105 659.73441 427.696859 658.947952 428.019928 C 658.161493 428.348206 657.364618 428.634799 656.54691 428.879706 C 655.73441 429.129823 654.906285 429.333043 654.072951 429.499788 C 653.239618 429.666533 652.395868 429.791591 651.54691 429.874964 C 650.70316 429.958336 649.848993 430.000022 649.000034 430.000022 L 40.999994 430.000022 C 40.151036 430.000022 39.296869 429.958336 38.453119 429.874964 C 37.604161 429.791591 36.76041 429.666533 35.927077 429.499788 C 35.093744 429.333043 34.265619 429.129823 33.453119 428.879706 C 32.63541 428.634799 31.838535 428.348206 31.052077 428.019928 C 30.265618 427.696859 29.494785 427.332105 28.744785 426.930875 C 27.994785 426.529646 27.265618 426.09194 26.557285 425.61776 C 25.848951 425.143579 25.161451 424.638134 24.505201 424.096213 C 23.848951 423.559503 23.218743 422.986318 22.614576 422.387079 C 22.015618 421.782628 21.442701 421.152125 20.901034 420.495567 C 20.359368 419.833798 19.854159 419.151187 19.380201 418.442521 C 18.906243 417.739066 18.473951 417.009558 18.067701 416.253995 C 17.666659 415.503643 17.307284 414.737659 16.979159 413.950832 C 16.651034 413.164005 16.364576 412.361545 16.119784 411.548664 C 15.869784 410.730572 15.666659 409.90727 15.499992 409.073545 C 15.333326 408.23461 15.208326 407.395676 15.124992 406.546319 C 15.041659 405.702173 14.999992 404.852817 14.999992 403.998249 L 14.999992 44.001357 C 14.999992 43.14679 15.041659 42.297433 15.124992 41.453288 C 15.208326 40.603931 15.333326 39.764996 15.499992 38.926061 C 15.666659 38.092337 15.869784 37.269034 16.119784 36.450942 C 16.364576 35.638061 16.651034 34.835602 16.979159 34.048775 C 17.307284 33.261947 17.666659 32.495963 18.067701 31.745612 C 18.473951 30.99526 18.906243 30.265751 19.380201 29.557086 C 19.854159 28.84842 20.359368 28.165808 20.901034 27.50404 C 21.442701 26.847482 22.015618 26.216978 22.614576 25.617739 C 23.218743 25.013289 23.848951 24.440103 24.505201 23.903393 C 25.161451 23.361473 25.848951 22.856027 26.557285 22.381847 C 27.265618 21.907666 27.994785 21.469961 28.744785 21.068731 C 29.494785 20.667501 30.265618 20.302747 31.052077 19.979679 C 31.838535 19.6514 32.63541 19.364807 33.453119 19.119901 C 34.265619 18.869784 35.093744 18.666563 35.927077 18.499819 C 36.76041 18.333074 37.604161 18.208015 38.453119 18.124643 C 39.296869 18.04127 40.151036 17.999584 40.999994 17.999584 Z M 40.999994 17.999584 " stroke="#091b2d" stroke-width="3" stroke-opacity="0.8" stroke-miterlimit="4"/><path stroke-linecap="butt" transform="matrix(0.75, 0, 0, 0.749648, 0.00000646739, 0.0808594)" fill="none" stroke-linejoin="miter" d="M 40.999994 20.000522 L 649.000034 20.000522 C 649.786493 20.000522 650.567743 20.036998 651.354201 20.115159 C 652.135451 20.193321 652.911493 20.307958 653.682326 20.45907 C 654.45316 20.615394 655.213576 20.802982 655.968785 21.032256 C 656.718785 21.26153 657.458368 21.52728 658.182327 21.824294 C 658.911493 22.126519 659.619827 22.465219 660.312535 22.835184 C 661.005244 23.205149 661.682327 23.606379 662.333369 24.044084 C 662.989619 24.48179 663.619827 24.950759 664.223994 25.445783 C 664.833369 25.946018 665.416702 26.472306 665.968786 27.029859 C 666.526077 27.587412 667.052119 28.165808 667.552119 28.775469 C 668.052119 29.379919 668.520869 30.010423 668.953161 30.666981 C 669.390661 31.318328 669.796911 31.995729 670.166702 32.688762 C 670.536494 33.381795 670.869828 34.090461 671.171911 34.814759 C 671.473994 35.544267 671.739619 36.278987 671.968786 37.034549 C 672.192744 37.784901 672.385453 38.545674 672.536494 39.316869 C 672.692744 40.088064 672.807328 40.86447 672.885453 41.646086 C 672.963578 42.427703 673.000036 43.21453 673.000036 44.001357 L 673.000036 403.998249 C 673.000036 404.785077 672.963578 405.571904 672.885453 406.35352 C 672.807328 407.135137 672.692744 407.911542 672.536494 408.682737 C 672.385453 409.453932 672.192744 410.214705 671.968786 410.965057 C 671.739619 411.72062 671.473994 412.46055 671.171911 413.184848 C 670.869828 413.909146 670.536494 414.617811 670.166702 415.316055 C 669.796911 416.009089 669.390661 416.681279 668.953161 417.332626 C 668.520869 417.989183 668.052119 418.619687 667.552119 419.224137 C 667.052119 419.833798 666.526077 420.412194 665.968786 420.969747 C 665.416702 421.5273 664.833369 422.053589 664.223994 422.553823 C 663.619827 423.048847 662.989619 423.517817 662.333369 423.955522 C 661.682327 424.393227 661.005244 424.794457 660.312535 425.164422 C 659.619827 425.534387 658.911493 425.873088 658.182327 426.175313 C 657.458368 426.472327 656.718785 426.738077 655.968785 426.967351 C 655.213576 427.196625 654.45316 427.384213 653.682326 427.540536 C 652.911493 427.691649 652.135451 427.806286 651.354201 427.884447 C 650.567743 427.962609 649.786493 427.999084 649.000034 427.999084 L 40.999994 427.999084 C 40.213536 427.999084 39.432286 427.962609 38.645827 427.884447 C 37.864577 427.806286 37.088536 427.691649 36.317702 427.540536 C 35.546869 427.384213 34.786452 427.196625 34.031244 426.967351 C 33.281244 426.738077 32.54166 426.472327 31.817702 426.175313 C 31.088535 425.873088 30.380202 425.534387 29.687493 425.164422 C 28.994785 424.794457 28.317702 424.393227 27.66666 423.955522 C 27.01041 423.517817 26.380201 423.048847 25.776035 422.553823 C 25.16666 422.053589 24.583326 421.5273 24.031243 420.969747 C 23.473951 420.412194 22.94791 419.833798 22.44791 419.224137 C 21.947909 418.619687 21.479159 417.989183 21.046868 417.332626 C 20.609368 416.681279 20.203118 416.009089 19.833326 415.316055 C 19.463534 414.617811 19.130201 413.909146 18.828118 413.184848 C 18.526034 412.46055 18.260409 411.72062 18.031243 410.965057 C 17.807284 410.214705 17.614576 409.453932 17.463534 408.682737 C 17.307284 407.911542 17.192701 407.135137 17.114576 406.35352 C 17.036451 405.571904 16.999993 404.785077 16.999993 403.998249 L 16.999993 44.001357 C 16.999993 43.21453 17.036451 42.427703 17.114576 41.646086 C 17.192701 40.86447 17.307284 40.088064 17.463534 39.316869 C 17.614576 38.545674 17.807284 37.784901 18.031243 37.034549 C 18.260409 36.278987 18.526034 35.544267 18.828118 34.814759 C 19.130201 34.090461 19.463534 33.381795 19.833326 32.688762 C 20.203118 31.995729 20.609368 31.318328 21.046868 30.666981 C 21.479159 30.010423 21.947909 29.379919 22.44791 28.775469 C 22.94791 28.165808 23.473951 27.587412 24.031243 27.029859 C 24.583326 26.472306 25.16666 25.946018 25.776035 25.445783 C 26.380201 24.950759 27.01041 24.48179 27.66666 24.044084 C 28.317702 23.606379 28.994785 23.205149 29.687493 22.835184 C 30.380202 22.465219 31.088535 22.126519 31.817702 21.824294 C 32.54166 21.52728 33.281244 21.26153 34.031244 21.032256 C 34.786452 20.802982 35.546869 20.615394 36.317702 20.45907 C 37.088536 20.307958 37.864577 20.193321 38.645827 20.115159 C 39.432286 20.036998 40.213536 20.000522 40.999994 20.000522 Z M 40.999994 20.000522 " stroke="url(#c2b0e13c6b)" stroke-width="6" stroke-miterlimit="4"/><path fill="#ffffff" d="M 41.25 28.566406 L 477.75 28.566406 C 478.191406 28.566406 478.632812 28.609375 479.066406 28.695312 C 479.5 28.785156 479.921875 28.910156 480.332031 29.082031 C 480.742188 29.25 481.132812 29.457031 481.5 29.703125 C 481.867188 29.949219 482.210938 30.230469 482.523438 30.542969 C 482.835938 30.855469 483.117188 31.199219 483.363281 31.566406 C 483.609375 31.933594 483.816406 32.324219 483.984375 32.734375 C 484.15625 33.140625 484.285156 33.5625 484.371094 34 C 484.457031 34.433594 484.5 34.871094 484.5 35.3125 C 484.5 35.757812 484.457031 36.195312 484.371094 36.628906 C 484.285156 37.066406 484.15625 37.488281 483.984375 37.894531 C 483.816406 38.304688 483.609375 38.695312 483.363281 39.0625 C 483.117188 39.429688 482.835938 39.773438 482.523438 40.085938 C 482.210938 40.398438 481.867188 40.679688 481.5 40.925781 C 481.132812 41.171875 480.742188 41.378906 480.332031 41.546875 C 479.921875 41.71875 479.5 41.84375 479.066406 41.929688 C 478.632812 42.019531 478.191406 42.0625 477.75 42.0625 L 41.25 42.0625 C 40.808594 42.0625 40.367188 42.019531 39.933594 41.929688 C 39.5 41.84375 39.078125 41.71875 38.667969 41.546875 C 38.257812 41.378906 37.867188 41.171875 37.5 40.925781 C 37.132812 40.679688 36.789062 40.398438 36.476562 40.085938 C 36.164062 39.773438 35.882812 39.429688 35.636719 39.0625 C 35.390625 38.695312 35.183594 38.304688 35.015625 37.894531 C 34.84375 37.488281 34.714844 37.066406 34.628906 36.628906 C 34.542969 36.195312 34.5 35.757812 34.5 35.3125 C 34.5 34.871094 34.542969 34.433594 34.628906 34 C 34.714844 33.5625 34.84375 33.140625 35.015625 32.734375 C 35.183594 32.324219 35.390625 31.933594 35.636719 31.566406 C 35.882812 31.199219 36.164062 30.855469 36.476562 30.542969 C 36.789062 30.230469 37.132812 29.949219 37.5 29.703125 C 37.867188 29.457031 38.257812 29.25 38.667969 29.082031 C 39.078125 28.910156 39.5 28.785156 39.933594 28.695312 C 40.367188 28.609375 40.808594 28.566406 41.25 28.566406 Z M 41.25 28.566406 " fill-opacity="0.12" fill-rule="nonzero"/></svg>