<svg xmlns="http://www.w3.org/2000/svg" xmlns:xlink="http://www.w3.org/1999/xlink" width="220" zoomAndPan="magnify" viewBox="0 0 165 40.499999" height="54" preserveAspectRatio="xMidYMid meet" version="1.0"><defs><clipPath id="2ce9ecd4e1"><path d="M 1.007812 4 L 163.992188 4 L 163.992188 38 L 1.007812 38 Z M 1.007812 4 " clip-rule="nonzero"/></clipPath><clipPath id="c66124a13e"><path d="M 1.007812 0 L 163.992188 0 L 163.992188 33 L 1.007812 33 Z M 1.007812 0 " clip-rule="nonzero"/></clipPath><clipPath id="ef7717bb6d"><path d="M 17.304688 0.0195312 L 147.695312 0.0195312 C 148.230469 0.0195312 148.761719 0.0429688 149.292969 0.0976562 C 149.824219 0.148438 150.351562 0.226562 150.875 0.332031 C 151.398438 0.433594 151.914062 0.566406 152.425781 0.71875 C 152.9375 0.875 153.4375 1.054688 153.933594 1.257812 C 154.425781 1.460938 154.90625 1.691406 155.378906 1.941406 C 155.847656 2.191406 156.304688 2.464844 156.75 2.761719 C 157.195312 3.058594 157.621094 3.375 158.035156 3.714844 C 158.449219 4.054688 158.84375 4.410156 159.21875 4.789062 C 159.597656 5.164062 159.957031 5.558594 160.292969 5.972656 C 160.632812 6.382812 160.949219 6.8125 161.246094 7.253906 C 161.542969 7.699219 161.816406 8.15625 162.070312 8.625 C 162.320312 9.097656 162.550781 9.578125 162.753906 10.070312 C 162.957031 10.5625 163.136719 11.066406 163.292969 11.574219 C 163.445312 12.085938 163.578125 12.601562 163.679688 13.125 C 163.785156 13.648438 163.863281 14.175781 163.914062 14.707031 C 163.96875 15.238281 163.992188 15.769531 163.992188 16.300781 C 163.992188 16.835938 163.96875 17.367188 163.914062 17.898438 C 163.863281 18.429688 163.785156 18.957031 163.679688 19.480469 C 163.578125 20.003906 163.445312 20.519531 163.292969 21.027344 C 163.136719 21.539062 162.957031 22.039062 162.753906 22.535156 C 162.550781 23.027344 162.320312 23.507812 162.070312 23.976562 C 161.816406 24.449219 161.542969 24.90625 161.246094 25.347656 C 160.949219 25.792969 160.632812 26.21875 160.292969 26.632812 C 159.957031 27.042969 159.597656 27.4375 159.21875 27.816406 C 158.84375 28.195312 158.449219 28.550781 158.035156 28.890625 C 157.621094 29.226562 157.195312 29.546875 156.75 29.839844 C 156.304688 30.136719 155.847656 30.410156 155.378906 30.664062 C 154.90625 30.914062 154.425781 31.140625 153.933594 31.347656 C 153.4375 31.550781 152.9375 31.730469 152.425781 31.882812 C 151.914062 32.039062 151.398438 32.167969 150.875 32.273438 C 150.351562 32.378906 149.824219 32.457031 149.292969 32.507812 C 148.761719 32.558594 148.230469 32.585938 147.695312 32.585938 L 17.304688 32.585938 C 16.769531 32.585938 16.238281 32.558594 15.707031 32.507812 C 15.175781 32.457031 14.648438 32.378906 14.125 32.273438 C 13.601562 32.167969 13.085938 32.039062 12.574219 31.882812 C 12.0625 31.730469 11.5625 31.550781 11.066406 31.347656 C 10.574219 31.140625 10.09375 30.914062 9.621094 30.664062 C 9.152344 30.410156 8.695312 30.136719 8.25 29.839844 C 7.804688 29.546875 7.378906 29.226562 6.964844 28.890625 C 6.550781 28.550781 6.15625 28.195312 5.78125 27.816406 C 5.402344 27.4375 5.042969 27.042969 4.707031 26.632812 C 4.367188 26.21875 4.050781 25.792969 3.753906 25.347656 C 3.457031 24.90625 3.183594 24.449219 2.929688 23.976562 C 2.679688 23.507812 2.449219 23.027344 2.246094 22.535156 C 2.042969 22.039062 1.863281 21.539062 1.707031 21.027344 C 1.554688 20.519531 1.421875 20.003906 1.320312 19.480469 C 1.214844 18.957031 1.136719 18.429688 1.085938 17.898438 C 1.03125 17.367188 1.007812 16.835938 1.007812 16.300781 C 1.007812 15.769531 1.03125 15.238281 1.085938 14.707031 C 1.136719 14.175781 1.214844 13.648438 1.320312 13.125 C 1.421875 12.601562 1.554688 12.085938 1.707031 11.574219 C 1.863281 11.066406 2.042969 10.5625 2.246094 10.070312 C 2.449219 9.578125 2.679688 9.097656 2.929688 8.625 C 3.183594 8.15625 3.457031 7.699219 3.753906 7.253906 C 4.050781 6.8125 4.367188 6.382812 4.707031 5.972656 C 5.042969 5.558594 5.402344 5.164062 5.78125 4.789062 C 6.15625 4.410156 6.550781 4.054688 6.964844 3.714844 C 7.378906 3.375 7.804688 3.058594 8.25 2.761719 C 8.695312 2.464844 9.152344 2.191406 9.621094 1.941406 C 10.09375 1.691406 10.574219 1.460938 11.066406 1.257812 C 11.5625 1.054688 12.0625 0.875 12.574219 0.71875 C 13.085938 0.566406 13.601562 0.433594 14.125 0.332031 C 14.648438 0.226562 15.175781 0.148438 15.707031 0.0976562 C 16.238281 0.0429688 16.769531 0.0195312 17.304688 0.0195312 Z M 17.304688 0.0195312 " clip-rule="nonzero"/></clipPath><linearGradient x1="0" gradientTransform="matrix(162.987814, 0, 0, 32.567463, 1.0061, 0.018468)" y1="0.0000000222151" x2="0" gradientUnits="userSpaceOnUse" y2="1" id="db71481cef"><stop stop-opacity="1" stop-color="rgb(9.408569%, 22.749329%, 32.939148%)" offset="0"/><stop stop-opacity="1" stop-color="rgb(9.353638%, 22.644043%, 32.833862%)" offset="0.03125"/><stop stop-opacity="1" stop-color="rgb(9.243774%, 22.436523%, 32.626343%)" offset="0.0625"/><stop stop-opacity="1" stop-color="rgb(9.133911%, 22.227478%, 32.417297%)" offset="0.09375"/><stop stop-opacity="1" stop-color="rgb(9.022522%, 22.019958%, 32.209778%)" offset="0.125"/><stop stop-opacity="1" stop-color="rgb(8.912659%, 21.810913%, 32.000732%)" offset="0.15625"/><stop stop-opacity="1" stop-color="rgb(8.802795%, 21.601868%, 31.791687%)" offset="0.1875"/><stop stop-opacity="1" stop-color="rgb(8.691406%, 21.394348%, 31.584167%)" offset="0.21875"/><stop stop-opacity="1" stop-color="rgb(8.581543%, 21.185303%, 31.375122%)" offset="0.25"/><stop stop-opacity="1" stop-color="rgb(8.47168%, 20.977783%, 31.167603%)" offset="0.28125"/><stop stop-opacity="1" stop-color="rgb(8.360291%, 20.768738%, 30.958557%)" offset="0.3125"/><stop stop-opacity="1" stop-color="rgb(8.250427%, 20.559692%, 30.749512%)" offset="0.34375"/><stop stop-opacity="1" stop-color="rgb(8.140564%, 20.352173%, 30.541992%)" offset="0.375"/><stop stop-opacity="1" stop-color="rgb(8.030701%, 20.143127%, 30.332947%)" offset="0.40625"/><stop stop-opacity="1" stop-color="rgb(7.919312%, 19.935608%, 30.125427%)" offset="0.4375"/><stop stop-opacity="1" stop-color="rgb(7.809448%, 19.726562%, 29.916382%)" offset="0.46875"/><stop stop-opacity="1" stop-color="rgb(7.699585%, 19.517517%, 29.707336%)" offset="0.5"/><stop stop-opacity="1" stop-color="rgb(7.588196%, 19.309998%, 29.499817%)" offset="0.53125"/><stop stop-opacity="1" stop-color="rgb(7.478333%, 19.100952%, 29.290771%)" offset="0.5625"/><stop stop-opacity="1" stop-color="rgb(7.368469%, 18.893433%, 29.083252%)" offset="0.59375"/><stop stop-opacity="1" stop-color="rgb(7.258606%, 18.684387%, 28.874207%)" offset="0.625"/><stop stop-opacity="1" stop-color="rgb(7.147217%, 18.475342%, 28.665161%)" offset="0.65625"/><stop stop-opacity="1" stop-color="rgb(7.037354%, 18.267822%, 28.457642%)" offset="0.6875"/><stop stop-opacity="1" stop-color="rgb(6.92749%, 18.058777%, 28.248596%)" offset="0.71875"/><stop stop-opacity="1" stop-color="rgb(6.816101%, 17.851257%, 28.041077%)" offset="0.75"/><stop stop-opacity="1" stop-color="rgb(6.706238%, 17.642212%, 27.832031%)" offset="0.78125"/><stop stop-opacity="1" stop-color="rgb(6.596375%, 17.433167%, 27.622986%)" offset="0.8125"/><stop stop-opacity="1" stop-color="rgb(6.484985%, 17.225647%, 27.415466%)" offset="0.84375"/><stop stop-opacity="1" stop-color="rgb(6.375122%, 17.016602%, 27.206421%)" offset="0.875"/><stop stop-opacity="1" stop-color="rgb(6.265259%, 16.807556%, 26.998901%)" offset="0.90625"/><stop stop-opacity="1" stop-color="rgb(6.155396%, 16.600037%, 26.789856%)" offset="0.9375"/><stop stop-opacity="1" stop-color="rgb(6.044006%, 16.390991%, 26.580811%)" offset="0.96875"/><stop stop-opacity="1" stop-color="rgb(5.934143%, 16.183472%, 26.373291%)" offset="1"/></linearGradient><clipPath id="7b5b0c9e56"><path d="M 1.007812 0 L 163.992188 0 L 163.992188 40.007812 L 1.007812 40.007812 Z M 1.007812 0 " clip-rule="nonzero"/></clipPath></defs><g clip-path="url(#2ce9ecd4e1)"><path fill="#000000" d="M 17.304688 4.460938 L 147.695312 4.460938 C 148.230469 4.460938 148.761719 4.484375 149.292969 4.539062 C 149.824219 4.589844 150.351562 4.667969 150.875 4.773438 C 151.398438 4.875 151.914062 5.003906 152.425781 5.160156 C 152.9375 5.316406 153.4375 5.496094 153.933594 5.699219 C 154.425781 5.902344 154.90625 6.128906 155.378906 6.382812 C 155.847656 6.632812 156.304688 6.90625 156.75 7.203125 C 157.195312 7.5 157.621094 7.816406 158.035156 8.15625 C 158.449219 8.492188 158.84375 8.851562 159.21875 9.230469 C 159.597656 9.605469 159.957031 10 160.292969 10.414062 C 160.632812 10.824219 160.949219 11.253906 161.246094 11.695312 C 161.542969 12.140625 161.816406 12.597656 162.070312 13.066406 C 162.320312 13.539062 162.550781 14.019531 162.753906 14.511719 C 162.957031 15.003906 163.136719 15.507812 163.292969 16.015625 C 163.445312 16.527344 163.578125 17.042969 163.679688 17.566406 C 163.785156 18.089844 163.863281 18.617188 163.914062 19.148438 C 163.96875 19.679688 163.992188 20.210938 163.992188 20.742188 C 163.992188 21.277344 163.96875 21.808594 163.914062 22.339844 C 163.863281 22.871094 163.785156 23.398438 163.679688 23.921875 C 163.578125 24.441406 163.445312 24.960938 163.292969 25.46875 C 163.136719 25.980469 162.957031 26.480469 162.753906 26.976562 C 162.550781 27.46875 162.320312 27.949219 162.070312 28.417969 C 161.816406 28.890625 161.542969 29.347656 161.246094 29.789062 C 160.949219 30.234375 160.632812 30.660156 160.292969 31.074219 C 159.957031 31.484375 159.597656 31.878906 159.21875 32.257812 C 158.84375 32.632812 158.449219 32.992188 158.035156 33.332031 C 157.621094 33.667969 157.195312 33.988281 156.75 34.28125 C 156.304688 34.578125 155.847656 34.851562 155.378906 35.105469 C 154.90625 35.355469 154.425781 35.582031 153.933594 35.789062 C 153.4375 35.992188 152.9375 36.171875 152.425781 36.324219 C 151.914062 36.480469 151.398438 36.609375 150.875 36.714844 C 150.351562 36.816406 149.824219 36.894531 149.292969 36.949219 C 148.761719 37 148.230469 37.027344 147.695312 37.027344 L 17.304688 37.027344 C 16.769531 37.027344 16.238281 37 15.707031 36.949219 C 15.175781 36.894531 14.648438 36.816406 14.125 36.714844 C 13.601562 36.609375 13.085938 36.480469 12.574219 36.324219 C 12.0625 36.171875 11.5625 35.992188 11.066406 35.789062 C 10.574219 35.582031 10.09375 35.355469 9.621094 35.105469 C 9.152344 34.851562 8.695312 34.578125 8.25 34.28125 C 7.804688 33.988281 7.378906 33.667969 6.964844 33.332031 C 6.550781 32.992188 6.15625 32.632812 5.78125 32.257812 C 5.402344 31.878906 5.042969 31.484375 4.707031 31.074219 C 4.367188 30.660156 4.050781 30.234375 3.753906 29.789062 C 3.457031 29.347656 3.183594 28.890625 2.929688 28.417969 C 2.679688 27.949219 2.449219 27.46875 2.246094 26.976562 C 2.042969 26.480469 1.863281 25.980469 1.707031 25.46875 C 1.554688 24.960938 1.421875 24.441406 1.320312 23.921875 C 1.214844 23.398438 1.136719 22.871094 1.085938 22.339844 C 1.03125 21.808594 1.007812 21.277344 1.007812 20.742188 C 1.007812 20.210938 1.03125 19.679688 1.085938 19.148438 C 1.136719 18.617188 1.214844 18.089844 1.320312 17.566406 C 1.421875 17.042969 1.554688 16.527344 1.707031 16.015625 C 1.863281 15.507812 2.042969 15.003906 2.246094 14.511719 C 2.449219 14.019531 2.679688 13.539062 2.929688 13.066406 C 3.183594 12.597656 3.457031 12.140625 3.753906 11.695312 C 4.050781 11.253906 4.367188 10.824219 4.707031 10.414062 C 5.042969 10 5.402344 9.605469 5.78125 9.230469 C 6.15625 8.851562 6.550781 8.492188 6.964844 8.15625 C 7.378906 7.816406 7.804688 7.5 8.25 7.203125 C 8.695312 6.90625 9.152344 6.632812 9.621094 6.382812 C 10.09375 6.128906 10.574219 5.902344 11.066406 5.699219 C 11.5625 5.496094 12.0625 5.316406 12.574219 5.160156 C 13.085938 5.003906 13.601562 4.875 14.125 4.773438 C 14.648438 4.667969 15.175781 4.589844 15.707031 4.539062 C 16.238281 4.484375 16.769531 4.460938 17.304688 4.460938 Z M 17.304688 4.460938 " fill-opacity="0.25" fill-rule="nonzero"/></g><g clip-path="url(#c66124a13e)"><g clip-path="url(#ef7717bb6d)"><path fill="url(#db71481cef)" d="M 1.007812 0.0195312 L 1.007812 32.585938 L 163.992188 32.585938 L 163.992188 0.0195312 Z M 1.007812 0.0195312 " fill-rule="nonzero"/></g></g><g clip-path="url(#7b5b0c9e56)"><path stroke-linecap="butt" transform="matrix(0.740854, 0, 0, 0.74017, 1.0061, 0.0184687)" fill="none" stroke-linejoin="miter" d="M 21.999739 0.00143552 L 198.000256 0.00143552 C 198.722607 0.00143552 199.439685 0.0331006 200.156763 0.106986 C 200.873841 0.175593 201.585647 0.281143 202.29218 0.423636 C 202.998713 0.560851 203.6947 0.740286 204.385415 0.946109 C 205.07613 1.15721 205.751028 1.399975 206.420652 1.674405 C 207.085004 1.948836 207.733538 2.260208 208.371527 2.597969 C 209.004243 2.935729 209.621141 3.305155 210.222221 3.706245 C 210.823301 4.107336 211.398018 4.534814 211.956918 4.993957 C 212.515817 5.4531 213.048353 5.933353 213.554526 6.445271 C 214.065971 6.951912 214.551053 7.48494 215.0045 8.044356 C 215.463219 8.598494 215.890302 9.17902 216.291023 9.775378 C 216.691743 10.377014 217.060827 10.994482 217.403548 11.627783 C 217.740997 12.266361 218.052082 12.915495 218.326259 13.580461 C 218.600436 14.245427 218.842977 14.926225 219.053883 15.612301 C 219.259515 16.303654 219.438785 17.000285 219.575873 17.707471 C 219.718234 18.414657 219.823687 19.12712 219.892231 19.844861 C 219.966048 20.562602 219.997684 21.280343 219.997684 21.998084 C 219.997684 22.721102 219.966048 23.438843 219.892231 24.156584 C 219.823687 24.874325 219.718234 25.586789 219.575873 26.293975 C 219.438785 27.001161 219.259515 27.697791 219.053883 28.383867 C 218.842977 29.075221 218.600436 29.750742 218.326259 30.420985 C 218.052082 31.085951 217.740997 31.735084 217.403548 32.368385 C 217.060827 33.006963 216.691743 33.624432 216.291023 34.22079 C 215.890302 34.822426 215.463219 35.397674 215.0045 35.95709 C 214.551053 36.511228 214.065971 37.044256 213.554526 37.556174 C 213.048353 38.068092 212.515817 38.548346 211.956918 39.007489 C 211.398018 39.461354 210.823301 39.89411 210.222221 40.289923 C 209.621141 40.691013 209.004243 41.060439 208.371527 41.403477 C 207.733538 41.741237 207.085004 42.047333 206.420652 42.32704 C 205.751028 42.601471 205.07613 42.844236 204.385415 43.050059 C 203.6947 43.261159 202.998713 43.435317 202.29218 43.57781 C 201.585647 43.720302 200.873841 43.825852 200.156763 43.89446 C 199.439685 43.963068 198.722607 44.00001 198.000256 44.00001 L 21.999739 44.00001 C 21.277388 44.00001 20.56031 43.963068 19.843232 43.89446 C 19.126154 43.825852 18.414348 43.720302 17.707815 43.57781 C 17.001282 43.435317 16.305295 43.261159 15.61458 43.050059 C 14.923865 42.844236 14.248968 42.601471 13.579343 42.32704 C 12.914991 42.047333 12.266457 41.741237 11.628469 41.403477 C 10.995753 41.060439 10.378854 40.691013 9.777774 40.289923 C 9.176694 39.89411 8.601977 39.461354 8.043078 39.007489 C 7.484178 38.548346 6.951642 38.068092 6.44547 37.556174 C 5.934024 37.044256 5.448942 36.511228 4.995495 35.95709 C 4.536776 35.397674 4.109693 34.822426 3.708973 34.22079 C 3.308252 33.624432 2.939168 33.006963 2.596447 32.368385 C 2.258998 31.735084 1.947913 31.085951 1.673736 30.420985 C 1.399559 29.750742 1.157018 29.075221 0.946112 28.383867 C 0.74048 27.697791 0.56121 27.001161 0.424122 26.293975 C 0.281761 25.586789 0.176308 24.874325 0.107764 24.156584 C 0.0339468 23.438843 0.00231101 22.721102 0.00231101 21.998084 C 0.00231101 21.280343 0.0339468 20.562602 0.107764 19.844861 C 0.176308 19.12712 0.281761 18.414657 0.424122 17.707471 C 0.56121 17.000285 0.74048 16.303654 0.946112 15.612301 C 1.157018 14.926225 1.399559 14.245427 1.673736 13.580461 C 1.947913 12.915495 2.258998 12.266361 2.596447 11.627783 C 2.939168 10.994482 3.308252 10.377014 3.708973 9.775378 C 4.109693 9.17902 4.536776 8.598494 4.995495 8.044356 C 5.448942 7.48494 5.934024 6.951912 6.44547 6.445271 C 6.951642 5.933353 7.484178 5.4531 8.043078 4.993957 C 8.601977 4.534814 9.176694 4.107336 9.777774 3.706245 C 10.378854 3.305155 10.995753 2.935729 11.628469 2.597969 C 12.266457 2.260208 12.914991 1.948836 13.579343 1.674405 C 14.248968 1.399975 14.923865 1.15721 15.61458 0.946109 C 16.305295 0.740286 17.001282 0.560851 17.707815 0.423636 C 18.414348 0.281143 19.126154 0.175593 19.843232 0.106986 C 20.56031 0.0331006 21.277388 0.00143552 21.999739 0.00143552 Z M 21.999739 0.00143552 " stroke="#7bc0df" stroke-width="2" stroke-opacity="0.35" stroke-miterlimit="4"/></g><path fill="#ffffff" d="M 15.082031 4.460938 L 149.917969 4.460938 C 150.410156 4.460938 150.882812 4.554688 151.335938 4.742188 C 151.789062 4.929688 152.191406 5.195312 152.535156 5.542969 C 152.882812 5.890625 153.152344 6.289062 153.339844 6.742188 C 153.527344 7.199219 153.621094 7.667969 153.621094 8.160156 C 153.621094 8.652344 153.527344 9.125 153.339844 9.578125 C 153.152344 10.03125 152.882812 10.429688 152.535156 10.777344 C 152.191406 11.125 151.789062 11.390625 151.335938 11.578125 C 150.882812 11.765625 150.410156 11.859375 149.917969 11.859375 L 15.082031 11.859375 C 14.589844 11.859375 14.117188 11.765625 13.664062 11.578125 C 13.210938 11.390625 12.808594 11.125 12.464844 10.777344 C 12.117188 10.429688 11.847656 10.03125 11.660156 9.578125 C 11.472656 9.125 11.378906 8.652344 11.378906 8.160156 C 11.378906 7.667969 11.472656 7.199219 11.660156 6.742188 C 11.847656 6.289062 12.117188 5.890625 12.464844 5.542969 C 12.808594 5.195312 13.210938 4.929688 13.664062 4.742188 C 14.117188 4.554688 14.589844 4.460938 15.082031 4.460938 Z M 15.082031 4.460938 " fill-opacity="0.07" fill-rule="nonzero"/></svg>