<svg xmlns="http://www.w3.org/2000/svg" xmlns:xlink="http://www.w3.org/1999/xlink" width="600" zoomAndPan="magnify" viewBox="0 0 450 60" height="80" preserveAspectRatio="xMidYMid meet" version="1.0"><defs><clipPath id="9b80084a82"><path d="M 0 0 L 450 0 L 450 59.558594 L 0 59.558594 Z M 0 0 " clip-rule="nonzero"/></clipPath><linearGradient x1="0" gradientTransform="matrix(580.000024, 0, 0, 59.999997, 10, 10.000001)" y1="-0.0333333" x2="0" gradientUnits="userSpaceOnUse" y2="1.033333" id="dd400f6019"><stop stop-opacity="1" stop-color="rgb(100%, 82.749939%, 41.569519%)" offset="0"/><stop stop-opacity="1" stop-color="rgb(100%, 82.749939%, 41.569519%)" offset="0.03125"/><stop stop-opacity="1" stop-color="rgb(99.960327%, 82.653809%, 41.418457%)" offset="0.0390625"/><stop stop-opacity="1" stop-color="rgb(99.880981%, 82.4646%, 41.117859%)" offset="0.046875"/><stop stop-opacity="1" stop-color="rgb(99.803162%, 82.275391%, 40.817261%)" offset="0.0546875"/><stop stop-opacity="1" stop-color="rgb(99.723816%, 82.084656%, 40.516663%)" offset="0.0625"/><stop stop-opacity="1" stop-color="rgb(99.645996%, 81.895447%, 40.216064%)" offset="0.0703125"/><stop stop-opacity="1" stop-color="rgb(99.56665%, 81.706238%, 39.915466%)" offset="0.078125"/><stop stop-opacity="1" stop-color="rgb(99.488831%, 81.515503%, 39.614868%)" offset="0.0859375"/><stop stop-opacity="1" stop-color="rgb(99.409485%, 81.326294%, 39.31427%)" offset="0.09375"/><stop stop-opacity="1" stop-color="rgb(99.331665%, 81.137085%, 39.012146%)" offset="0.101562"/><stop stop-opacity="1" stop-color="rgb(99.252319%, 80.947876%, 38.711548%)" offset="0.109375"/><stop stop-opacity="1" stop-color="rgb(99.1745%, 80.757141%, 38.41095%)" offset="0.117187"/><stop stop-opacity="1" stop-color="rgb(99.09668%, 80.567932%, 38.110352%)" offset="0.125"/><stop stop-opacity="1" stop-color="rgb(99.017334%, 80.378723%, 37.809753%)" offset="0.132812"/><stop stop-opacity="1" stop-color="rgb(98.939514%, 80.187988%, 37.509155%)" offset="0.140625"/><stop stop-opacity="1" stop-color="rgb(98.860168%, 79.998779%, 37.208557%)" offset="0.148438"/><stop stop-opacity="1" stop-color="rgb(98.782349%, 79.80957%, 36.907959%)" offset="0.15625"/><stop stop-opacity="1" stop-color="rgb(98.703003%, 79.618835%, 36.607361%)" offset="0.164062"/><stop stop-opacity="1" stop-color="rgb(98.625183%, 79.429626%, 36.306763%)" offset="0.171875"/><stop stop-opacity="1" stop-color="rgb(98.545837%, 79.240417%, 36.006165%)" offset="0.179688"/><stop stop-opacity="1" stop-color="rgb(98.468018%, 79.051208%, 35.705566%)" offset="0.1875"/><stop stop-opacity="1" stop-color="rgb(98.390198%, 78.860474%, 35.404968%)" offset="0.195312"/><stop stop-opacity="1" stop-color="rgb(98.310852%, 78.671265%, 35.10437%)" offset="0.203125"/><stop stop-opacity="1" stop-color="rgb(98.233032%, 78.482056%, 34.803772%)" offset="0.210937"/><stop stop-opacity="1" stop-color="rgb(98.153687%, 78.291321%, 34.503174%)" offset="0.21875"/><stop stop-opacity="1" stop-color="rgb(98.075867%, 78.102112%, 34.202576%)" offset="0.226562"/><stop stop-opacity="1" stop-color="rgb(97.996521%, 77.912903%, 33.901978%)" offset="0.234375"/><stop stop-opacity="1" stop-color="rgb(97.918701%, 77.722168%, 33.601379%)" offset="0.242187"/><stop stop-opacity="1" stop-color="rgb(97.839355%, 77.532959%, 33.300781%)" offset="0.25"/><stop stop-opacity="1" stop-color="rgb(97.761536%, 77.34375%, 33.000183%)" offset="0.257812"/><stop stop-opacity="1" stop-color="rgb(97.683716%, 77.154541%, 32.699585%)" offset="0.265625"/><stop stop-opacity="1" stop-color="rgb(97.60437%, 76.963806%, 32.397461%)" offset="0.273438"/><stop stop-opacity="1" stop-color="rgb(97.52655%, 76.774597%, 32.096863%)" offset="0.28125"/><stop stop-opacity="1" stop-color="rgb(97.447205%, 76.585388%, 31.796265%)" offset="0.289062"/><stop stop-opacity="1" stop-color="rgb(97.369385%, 76.394653%, 31.495667%)" offset="0.296875"/><stop stop-opacity="1" stop-color="rgb(97.290039%, 76.205444%, 31.195068%)" offset="0.304688"/><stop stop-opacity="1" stop-color="rgb(97.212219%, 76.016235%, 30.89447%)" offset="0.3125"/><stop stop-opacity="1" stop-color="rgb(97.132874%, 75.8255%, 30.593872%)" offset="0.320313"/><stop stop-opacity="1" stop-color="rgb(97.055054%, 75.636292%, 30.293274%)" offset="0.328125"/><stop stop-opacity="1" stop-color="rgb(96.977234%, 75.447083%, 29.992676%)" offset="0.335937"/><stop stop-opacity="1" stop-color="rgb(96.897888%, 75.257874%, 29.692078%)" offset="0.34375"/><stop stop-opacity="1" stop-color="rgb(96.820068%, 75.067139%, 29.391479%)" offset="0.351562"/><stop stop-opacity="1" stop-color="rgb(96.740723%, 74.87793%, 29.090881%)" offset="0.359375"/><stop stop-opacity="1" stop-color="rgb(96.662903%, 74.688721%, 28.790283%)" offset="0.367188"/><stop stop-opacity="1" stop-color="rgb(96.583557%, 74.497986%, 28.489685%)" offset="0.375"/><stop stop-opacity="1" stop-color="rgb(96.505737%, 74.308777%, 28.189087%)" offset="0.382812"/><stop stop-opacity="1" stop-color="rgb(96.426392%, 74.119568%, 27.888489%)" offset="0.390625"/><stop stop-opacity="1" stop-color="rgb(96.348572%, 73.928833%, 27.587891%)" offset="0.398438"/><stop stop-opacity="1" stop-color="rgb(96.270752%, 73.739624%, 27.287292%)" offset="0.40625"/><stop stop-opacity="1" stop-color="rgb(96.191406%, 73.550415%, 26.986694%)" offset="0.414063"/><stop stop-opacity="1" stop-color="rgb(96.113586%, 73.361206%, 26.686096%)" offset="0.421875"/><stop stop-opacity="1" stop-color="rgb(96.034241%, 73.170471%, 26.385498%)" offset="0.429687"/><stop stop-opacity="1" stop-color="rgb(95.956421%, 72.981262%, 26.0849%)" offset="0.4375"/><stop stop-opacity="1" stop-color="rgb(95.877075%, 72.792053%, 25.782776%)" offset="0.445312"/><stop stop-opacity="1" stop-color="rgb(95.799255%, 72.601318%, 25.482178%)" offset="0.453125"/><stop stop-opacity="1" stop-color="rgb(95.71991%, 72.412109%, 25.18158%)" offset="0.460938"/><stop stop-opacity="1" stop-color="rgb(95.64209%, 72.2229%, 24.880981%)" offset="0.46875"/><stop stop-opacity="1" stop-color="rgb(95.56427%, 72.032166%, 24.580383%)" offset="0.476562"/><stop stop-opacity="1" stop-color="rgb(95.484924%, 71.842957%, 24.279785%)" offset="0.484375"/><stop stop-opacity="1" stop-color="rgb(95.407104%, 71.653748%, 23.979187%)" offset="0.492188"/><stop stop-opacity="1" stop-color="rgb(95.327759%, 71.464539%, 23.678589%)" offset="0.5"/><stop stop-opacity="1" stop-color="rgb(95.132446%, 71.192932%, 23.417664%)" offset="0.515625"/><stop stop-opacity="1" stop-color="rgb(94.818115%, 70.838928%, 23.194885%)" offset="0.53125"/><stop stop-opacity="1" stop-color="rgb(94.50531%, 70.48645%, 22.973633%)" offset="0.546875"/><stop stop-opacity="1" stop-color="rgb(94.190979%, 70.133972%, 22.750854%)" offset="0.5625"/><stop stop-opacity="1" stop-color="rgb(93.876648%, 69.779968%, 22.528076%)" offset="0.578125"/><stop stop-opacity="1" stop-color="rgb(93.563843%, 69.42749%, 22.306824%)" offset="0.59375"/><stop stop-opacity="1" stop-color="rgb(93.249512%, 69.073486%, 22.084045%)" offset="0.609375"/><stop stop-opacity="1" stop-color="rgb(92.936707%, 68.721008%, 21.861267%)" offset="0.625"/><stop stop-opacity="1" stop-color="rgb(92.622375%, 68.36853%, 21.638489%)" offset="0.640625"/><stop stop-opacity="1" stop-color="rgb(92.30957%, 68.014526%, 21.417236%)" offset="0.65625"/><stop stop-opacity="1" stop-color="rgb(91.995239%, 67.662048%, 21.194458%)" offset="0.671875"/><stop stop-opacity="1" stop-color="rgb(91.682434%, 67.30957%, 20.97168%)" offset="0.6875"/><stop stop-opacity="1" stop-color="rgb(91.368103%, 66.955566%, 20.750427%)" offset="0.703125"/><stop stop-opacity="1" stop-color="rgb(91.053772%, 66.603088%, 20.527649%)" offset="0.71875"/><stop stop-opacity="1" stop-color="rgb(90.740967%, 66.25061%, 20.304871%)" offset="0.734375"/><stop stop-opacity="1" stop-color="rgb(90.426636%, 65.896606%, 20.082092%)" offset="0.75"/><stop stop-opacity="1" stop-color="rgb(90.113831%, 65.544128%, 19.86084%)" offset="0.765625"/><stop stop-opacity="1" stop-color="rgb(89.7995%, 65.19165%, 19.638062%)" offset="0.78125"/><stop stop-opacity="1" stop-color="rgb(89.486694%, 64.837646%, 19.415283%)" offset="0.796875"/><stop stop-opacity="1" stop-color="rgb(89.172363%, 64.485168%, 19.194031%)" offset="0.8125"/><stop stop-opacity="1" stop-color="rgb(88.858032%, 64.13269%, 18.971252%)" offset="0.828125"/><stop stop-opacity="1" stop-color="rgb(88.545227%, 63.778687%, 18.748474%)" offset="0.84375"/><stop stop-opacity="1" stop-color="rgb(88.230896%, 63.426208%, 18.527222%)" offset="0.859375"/><stop stop-opacity="1" stop-color="rgb(87.918091%, 63.07373%, 18.304443%)" offset="0.875"/><stop stop-opacity="1" stop-color="rgb(87.60376%, 62.719727%, 18.081665%)" offset="0.890625"/><stop stop-opacity="1" stop-color="rgb(87.290955%, 62.367249%, 17.858887%)" offset="0.90625"/><stop stop-opacity="1" stop-color="rgb(86.976624%, 62.014771%, 17.637634%)" offset="0.921875"/><stop stop-opacity="1" stop-color="rgb(86.663818%, 61.660767%, 17.414856%)" offset="0.9375"/><stop stop-opacity="1" stop-color="rgb(86.349487%, 61.308289%, 17.192078%)" offset="0.953125"/><stop stop-opacity="1" stop-color="rgb(86.035156%, 60.955811%, 16.970825%)" offset="0.96875"/><stop stop-opacity="1" stop-color="rgb(85.879517%, 60.778809%, 16.859436%)" offset="1"/></linearGradient></defs><path fill="#000000" d="M 19.5 3.675781 L 430.5 3.675781 C 431.484375 3.675781 432.460938 3.769531 433.425781 3.964844 C 434.390625 4.15625 435.332031 4.441406 436.238281 4.816406 C 437.148438 5.195312 438.015625 5.65625 438.832031 6.203125 C 439.652344 6.75 440.410156 7.375 441.105469 8.070312 C 441.804688 8.765625 442.425781 9.523438 442.972656 10.34375 C 443.519531 11.164062 443.980469 12.027344 444.359375 12.9375 C 444.734375 13.847656 445.019531 14.785156 445.210938 15.753906 C 445.402344 16.71875 445.5 17.695312 445.5 18.679688 L 445.5 39.6875 C 445.5 40.675781 445.402344 41.648438 445.210938 42.617188 C 445.019531 43.582031 444.734375 44.519531 444.359375 45.429688 C 443.980469 46.339844 443.519531 47.207031 442.972656 48.027344 C 442.425781 48.84375 441.804688 49.601562 441.105469 50.300781 C 440.410156 50.996094 439.652344 51.617188 438.832031 52.164062 C 438.015625 52.714844 437.148438 53.175781 436.238281 53.550781 C 435.332031 53.929688 434.390625 54.214844 433.425781 54.40625 C 432.460938 54.597656 431.484375 54.695312 430.5 54.695312 L 19.5 54.695312 C 18.515625 54.695312 17.539062 54.597656 16.574219 54.40625 C 15.609375 54.214844 14.667969 53.929688 13.757812 53.550781 C 12.851562 53.175781 11.984375 52.714844 11.167969 52.164062 C 10.347656 51.617188 9.589844 50.996094 8.894531 50.300781 C 8.195312 49.601562 7.574219 48.84375 7.027344 48.027344 C 6.480469 47.207031 6.019531 46.339844 5.640625 45.429688 C 5.265625 44.519531 4.980469 43.582031 4.789062 42.617188 C 4.597656 41.648438 4.5 40.675781 4.5 39.6875 L 4.5 18.679688 C 4.5 17.695312 4.597656 16.71875 4.789062 15.753906 C 4.980469 14.785156 5.265625 13.847656 5.640625 12.9375 C 6.019531 12.027344 6.480469 11.164062 7.027344 10.34375 C 7.574219 9.523438 8.195312 8.765625 8.894531 8.070312 C 9.589844 7.375 10.347656 6.75 11.167969 6.203125 C 11.984375 5.65625 12.851562 5.195312 13.757812 4.816406 C 14.667969 4.441406 15.609375 4.15625 16.574219 3.964844 C 17.539062 3.769531 18.515625 3.675781 19.5 3.675781 Z M 19.5 3.675781 " fill-opacity="0.25" fill-rule="nonzero"/><path fill="#0e2438" d="M 21 6.675781 L 429 6.675781 C 429.886719 6.675781 430.765625 6.761719 431.632812 6.933594 C 432.503906 7.109375 433.347656 7.363281 434.167969 7.703125 C 434.984375 8.042969 435.761719 8.460938 436.5 8.953125 C 437.238281 9.445312 437.917969 10.003906 438.546875 10.632812 C 439.171875 11.257812 439.730469 11.941406 440.226562 12.679688 C 440.71875 13.414062 441.132812 14.195312 441.472656 15.011719 C 441.8125 15.832031 442.066406 16.675781 442.242188 17.546875 C 442.414062 18.417969 442.5 19.292969 442.5 20.179688 L 442.5 38.1875 C 442.5 39.074219 442.414062 39.953125 442.242188 40.824219 C 442.066406 41.691406 441.8125 42.535156 441.472656 43.355469 C 441.132812 44.175781 440.71875 44.953125 440.226562 45.691406 C 439.730469 46.429688 439.171875 47.109375 438.546875 47.738281 C 437.917969 48.363281 437.238281 48.925781 436.5 49.417969 C 435.761719 49.910156 434.984375 50.324219 434.167969 50.664062 C 433.347656 51.003906 432.503906 51.261719 431.632812 51.433594 C 430.765625 51.605469 429.886719 51.691406 429 51.691406 L 21 51.691406 C 20.113281 51.691406 19.234375 51.605469 18.367188 51.433594 C 17.496094 51.261719 16.652344 51.003906 15.832031 50.664062 C 15.015625 50.324219 14.238281 49.910156 13.5 49.417969 C 12.761719 48.925781 12.082031 48.363281 11.453125 47.738281 C 10.828125 47.109375 10.269531 46.429688 9.773438 45.691406 C 9.28125 44.953125 8.867188 44.175781 8.527344 43.355469 C 8.1875 42.535156 7.933594 41.691406 7.757812 40.824219 C 7.585938 39.953125 7.5 39.074219 7.5 38.1875 L 7.5 20.179688 C 7.5 19.292969 7.585938 18.417969 7.757812 17.546875 C 7.933594 16.675781 8.1875 15.832031 8.527344 15.011719 C 8.867188 14.195312 9.28125 13.414062 9.773438 12.679688 C 10.269531 11.941406 10.828125 11.257812 11.453125 10.632812 C 12.082031 10.003906 12.761719 9.445312 13.5 8.953125 C 14.238281 8.460938 15.015625 8.042969 15.832031 7.703125 C 16.652344 7.363281 17.496094 7.109375 18.367188 6.933594 C 19.234375 6.761719 20.113281 6.675781 21 6.675781 Z M 21 6.675781 " fill-opacity="1" fill-rule="nonzero"/><path fill="#132c44" d="M 39 20.179688 L 411 20.179688 C 411.589844 20.179688 412.175781 20.238281 412.753906 20.355469 C 413.335938 20.46875 413.898438 20.640625 414.445312 20.867188 C 414.988281 21.09375 415.507812 21.371094 416 21.699219 C 416.492188 22.027344 416.945312 22.398438 417.363281 22.816406 C 417.78125 23.234375 418.15625 23.691406 418.484375 24.183594 C 418.8125 24.675781 419.089844 25.191406 419.316406 25.738281 C 419.539062 26.285156 419.710938 26.847656 419.828125 27.429688 C 419.941406 28.007812 420 28.59375 420 29.183594 C 420 29.777344 419.941406 30.363281 419.828125 30.941406 C 419.710938 31.519531 419.539062 32.082031 419.316406 32.628906 C 419.089844 33.175781 418.8125 33.695312 418.484375 34.1875 C 418.15625 34.679688 417.78125 35.132812 417.363281 35.550781 C 416.945312 35.96875 416.492188 36.34375 416 36.671875 C 415.507812 37 414.988281 37.277344 414.445312 37.503906 C 413.898438 37.730469 413.335938 37.898438 412.753906 38.015625 C 412.175781 38.128906 411.589844 38.1875 411 38.1875 L 39 38.1875 C 38.410156 38.1875 37.824219 38.128906 37.246094 38.015625 C 36.664062 37.898438 36.101562 37.730469 35.554688 37.503906 C 35.011719 37.277344 34.492188 37 34 36.671875 C 33.507812 36.34375 33.054688 35.96875 32.636719 35.550781 C 32.21875 35.132812 31.84375 34.679688 31.515625 34.1875 C 31.1875 33.695312 30.910156 33.175781 30.683594 32.628906 C 30.457031 32.082031 30.289062 31.519531 30.171875 30.941406 C 30.058594 30.363281 30 29.777344 30 29.183594 C 30 28.59375 30.058594 28.007812 30.171875 27.429688 C 30.289062 26.847656 30.457031 26.285156 30.683594 25.738281 C 30.910156 25.191406 31.1875 24.675781 31.515625 24.183594 C 31.84375 23.691406 32.21875 23.234375 32.636719 22.816406 C 33.054688 22.398438 33.507812 22.027344 34 21.699219 C 34.492188 21.371094 35.011719 21.09375 35.554688 20.867188 C 36.101562 20.640625 36.664062 20.46875 37.246094 20.355469 C 37.824219 20.238281 38.410156 20.179688 39 20.179688 Z M 39 20.179688 " fill-opacity="1" fill-rule="nonzero"/><path fill="#ffffff" d="M 39 20.179688 L 411 20.179688 C 411.589844 20.179688 412.175781 20.238281 412.753906 20.355469 C 413.335938 20.46875 413.898438 20.640625 414.445312 20.867188 C 414.988281 21.09375 415.507812 21.371094 416 21.699219 C 416.492188 22.027344 416.945312 22.398438 417.363281 22.816406 C 417.78125 23.234375 418.15625 23.691406 418.484375 24.183594 C 418.8125 24.675781 419.089844 25.191406 419.316406 25.738281 C 419.539062 26.285156 419.710938 26.847656 419.828125 27.429688 C 419.941406 28.007812 420 28.59375 420 29.183594 C 420 29.777344 419.941406 30.363281 419.828125 30.941406 C 419.710938 31.519531 419.539062 32.082031 419.316406 32.628906 C 419.089844 33.175781 418.8125 33.695312 418.484375 34.1875 C 418.15625 34.679688 417.78125 35.132812 417.363281 35.550781 C 416.945312 35.96875 416.492188 36.34375 416 36.671875 C 415.507812 37 414.988281 37.277344 414.445312 37.503906 C 413.898438 37.730469 413.335938 37.898438 412.753906 38.015625 C 412.175781 38.128906 411.589844 38.1875 411 38.1875 L 39 38.1875 C 38.410156 38.1875 37.824219 38.128906 37.246094 38.015625 C 36.664062 37.898438 36.101562 37.730469 35.554688 37.503906 C 35.011719 37.277344 34.492188 37 34 36.671875 C 33.507812 36.34375 33.054688 35.96875 32.636719 35.550781 C 32.21875 35.132812 31.84375 34.679688 31.515625 34.1875 C 31.1875 33.695312 30.910156 33.175781 30.683594 32.628906 C 30.457031 32.082031 30.289062 31.519531 30.171875 30.941406 C 30.058594 30.363281 30 29.777344 30 29.183594 C 30 28.59375 30.058594 28.007812 30.171875 27.429688 C 30.289062 26.847656 30.457031 26.285156 30.683594 25.738281 C 30.910156 25.191406 31.1875 24.675781 31.515625 24.183594 C 31.84375 23.691406 32.21875 23.234375 32.636719 22.816406 C 33.054688 22.398438 33.507812 22.027344 34 21.699219 C 34.492188 21.371094 35.011719 21.09375 35.554688 20.867188 C 36.101562 20.640625 36.664062 20.46875 37.246094 20.355469 C 37.824219 20.238281 38.410156 20.179688 39 20.179688 Z M 39 20.179688 " fill-opacity="0.06" fill-rule="nonzero"/><path stroke-linecap="butt" transform="matrix(0.75, 0, 0, 0.750289, 0, -0.82691)" fill="none" stroke-linejoin="miter" d="M 52.000002 28.497798 L 548.000023 28.497798 C 548.755231 28.497798 549.505231 28.575893 550.244815 28.72167 C 550.984398 28.867447 551.703148 29.086113 552.401065 29.377667 C 553.098981 29.664015 553.76044 30.018045 554.390648 30.439757 C 555.015648 30.856263 555.598981 31.335245 556.130232 31.86629 C 556.66669 32.402541 557.140648 32.985649 557.562523 33.610408 C 557.97919 34.240374 558.333357 34.901577 558.625023 35.599224 C 558.911482 36.296871 559.130232 37.015344 559.281273 37.754642 C 559.427107 38.499147 559.500023 39.243651 559.500023 39.998568 C 559.500023 40.753485 559.427107 41.503195 559.281273 42.242493 C 559.130232 42.981792 558.911482 43.705471 558.625023 44.403118 C 558.333357 45.100765 557.97919 45.761969 557.562523 46.386727 C 557.140648 47.016693 556.66669 47.599801 556.130232 48.130846 C 555.598981 48.667097 555.015648 49.140873 554.390648 49.562585 C 553.76044 49.979091 553.098981 50.333121 552.401065 50.624675 C 551.703148 50.911023 550.984398 51.129689 550.244815 51.280672 C 549.505231 51.426449 548.755231 51.499338 548.000023 51.499338 L 52.000002 51.499338 C 51.244794 51.499338 50.494794 51.426449 49.75521 51.280672 C 49.015627 51.129689 48.296877 50.911023 47.59896 50.624675 C 46.901044 50.333121 46.239585 49.979091 45.609377 49.562585 C 44.984377 49.140873 44.401044 48.667097 43.869793 48.130846 C 43.333335 47.599801 42.859377 47.016693 42.437502 46.386727 C 42.020835 45.761969 41.666668 45.100765 41.375002 44.403118 C 41.088543 43.705471 40.869793 42.981792 40.718752 42.242493 C 40.572918 41.503195 40.500002 40.753485 40.500002 39.998568 C 40.500002 39.243651 40.572918 38.499147 40.718752 37.754642 C 40.869793 37.015344 41.088543 36.296871 41.375002 35.599224 C 41.666668 34.901577 42.020835 34.240374 42.437502 33.610408 C 42.859377 32.985649 43.333335 32.402541 43.869793 31.86629 C 44.401044 31.335245 44.984377 30.856263 45.609377 30.439757 C 46.239585 30.018045 46.901044 29.664015 47.59896 29.377667 C 48.296877 29.086113 49.015627 28.867447 49.75521 28.72167 C 50.494794 28.575893 51.244794 28.497798 52.000002 28.497798 Z M 52.000002 28.497798 " stroke="#0a1d2c" stroke-width="1.5" stroke-opacity="0.8" stroke-miterlimit="4"/><g clip-path="url(#9b80084a82)"><path stroke-linecap="butt" transform="matrix(0.75, 0, 0, 0.750289, 0, -0.82691)" fill="none" stroke-linejoin="miter" d="M 28.000001 9.999729 L 572.000024 9.999729 C 573.182316 9.999729 574.354191 10.114268 575.510441 10.343346 C 576.671899 10.577631 577.796899 10.916042 578.890649 11.368992 C 579.979191 11.821942 581.015649 12.379019 582.000024 13.035016 C 582.984399 13.691013 583.890649 14.435517 584.729191 15.273735 C 585.562524 16.106747 586.307316 17.017854 586.968774 18.001849 C 587.625024 18.980638 588.177108 20.021903 588.630233 21.110024 C 589.083358 22.203352 589.4219 23.327918 589.656275 24.488929 C 589.885441 25.649939 590.000025 26.816156 590.000025 27.997991 L 590.000025 51.999145 C 590.000025 53.18098 589.885441 54.352403 589.656275 55.513413 C 589.4219 56.669217 589.083358 57.793783 588.630233 58.887111 C 588.177108 59.980439 587.625024 61.016498 586.968774 62.000493 C 586.307316 62.984488 585.562524 63.890389 584.729191 64.728607 C 583.890649 65.561619 582.984399 66.311329 582.000024 66.967326 C 581.015649 67.623323 579.979191 68.175193 578.890649 68.628143 C 577.796899 69.081094 576.671899 69.424711 575.510441 69.653789 C 574.354191 69.882868 573.182316 69.997407 572.000024 69.997407 L 28.000001 69.997407 C 26.817709 69.997407 25.645834 69.882868 24.489584 69.653789 C 23.328126 69.424711 22.203126 69.081094 21.109376 68.628143 C 20.020834 68.175193 18.984376 67.623323 18.000001 66.967326 C 17.015626 66.311329 16.109376 65.561619 15.270834 64.728607 C 14.437501 63.890389 13.692709 62.984488 13.031251 62.000493 C 12.375001 61.016498 11.822917 59.980439 11.369792 58.887111 C 10.916667 57.793783 10.578125 56.669217 10.34375 55.513413 C 10.114584 54.352403 10 53.18098 10 51.999145 L 10 27.997991 C 10 26.816156 10.114584 25.649939 10.34375 24.488929 C 10.578125 23.327918 10.916667 22.203352 11.369792 21.110024 C 11.822917 20.021903 12.375001 18.980638 13.031251 18.001849 C 13.692709 17.017854 14.437501 16.106747 15.270834 15.273735 C 16.109376 14.435517 17.015626 13.691013 18.000001 13.035016 C 18.984376 12.379019 20.020834 11.821942 21.109376 11.368992 C 22.203126 10.916042 23.328126 10.577631 24.489584 10.343346 C 25.645834 10.114268 26.817709 9.999729 28.000001 9.999729 Z M 28.000001 9.999729 " stroke="url(#dd400f6019)" stroke-width="4" stroke-miterlimit="4"/></g></svg>