<svg xmlns="http://www.w3.org/2000/svg" xmlns:xlink="http://www.w3.org/1999/xlink" width="200" zoomAndPan="magnify" viewBox="0 0 150 149.999998" height="200" preserveAspectRatio="xMidYMid meet" version="1.0"><defs><clipPath id="0ec58db917"><path d="M 69.859375 0 L 78.859375 0 L 78.859375 150 L 69.859375 150 Z M 69.859375 0 " clip-rule="nonzero"/></clipPath><clipPath id="015bc6cbbe"><path d="M 69.859375 30 L 78.859375 30 L 78.859375 75 L 69.859375 75 Z M 69.859375 30 " clip-rule="nonzero"/></clipPath><clipPath id="415983f492"><path d="M 74.359375 30 C 74.65625 30 74.949219 30.027344 75.238281 30.085938 C 75.527344 30.144531 75.808594 30.230469 76.082031 30.34375 C 76.355469 30.457031 76.613281 30.59375 76.859375 30.757812 C 77.105469 30.921875 77.332031 31.109375 77.542969 31.316406 C 77.75 31.527344 77.9375 31.753906 78.101562 32 C 78.265625 32.246094 78.40625 32.503906 78.519531 32.777344 C 78.632812 33.050781 78.714844 33.332031 78.773438 33.621094 C 78.832031 33.910156 78.859375 34.203125 78.859375 34.5 L 78.859375 70.5 C 78.859375 70.796875 78.832031 71.089844 78.773438 71.378906 C 78.714844 71.667969 78.632812 71.949219 78.519531 72.222656 C 78.40625 72.496094 78.265625 72.753906 78.101562 73 C 77.9375 73.246094 77.75 73.472656 77.542969 73.683594 C 77.332031 73.890625 77.105469 74.078125 76.859375 74.242188 C 76.613281 74.40625 76.355469 74.542969 76.082031 74.65625 C 75.808594 74.769531 75.527344 74.855469 75.238281 74.914062 C 74.949219 74.972656 74.65625 75 74.359375 75 C 74.066406 75 73.773438 74.972656 73.484375 74.914062 C 73.191406 74.855469 72.910156 74.769531 72.636719 74.65625 C 72.367188 74.542969 72.105469 74.40625 71.859375 74.242188 C 71.613281 74.078125 71.386719 73.890625 71.179688 73.683594 C 70.96875 73.472656 70.78125 73.246094 70.617188 73 C 70.453125 72.753906 70.316406 72.496094 70.203125 72.222656 C 70.089844 71.949219 70.003906 71.667969 69.945312 71.378906 C 69.890625 71.089844 69.859375 70.796875 69.859375 70.5 L 69.859375 34.5 C 69.859375 34.203125 69.890625 33.910156 69.945312 33.621094 C 70.003906 33.332031 70.089844 33.050781 70.203125 32.777344 C 70.316406 32.503906 70.453125 32.246094 70.617188 32 C 70.78125 31.753906 70.96875 31.527344 71.179688 31.316406 C 71.386719 31.109375 71.613281 30.921875 71.859375 30.757812 C 72.105469 30.59375 72.367188 30.457031 72.636719 30.34375 C 72.910156 30.230469 73.191406 30.144531 73.484375 30.085938 C 73.773438 30.027344 74.066406 30 74.359375 30 Z M 74.359375 30 " clip-rule="nonzero"/></clipPath><linearGradient x1="0" gradientTransform="matrix(9, 0, 0, 44.999999, 69.860588, 30.000001)" y1="-0.0000000277778" x2="0" gradientUnits="userSpaceOnUse" y2="1" id="2a69b29140"><stop stop-opacity="1" stop-color="rgb(100%, 82.749939%, 41.569519%)" offset="0"/><stop stop-opacity="1" stop-color="rgb(99.961853%, 82.659912%, 41.427612%)" offset="0.0078125"/><stop stop-opacity="1" stop-color="rgb(99.888611%, 82.481384%, 41.145325%)" offset="0.015625"/><stop stop-opacity="1" stop-color="rgb(99.815369%, 82.304382%, 40.864563%)" offset="0.0234375"/><stop stop-opacity="1" stop-color="rgb(99.742126%, 82.125854%, 40.582275%)" offset="0.03125"/><stop stop-opacity="1" stop-color="rgb(99.667358%, 81.948853%, 40.299988%)" offset="0.0390625"/><stop stop-opacity="1" stop-color="rgb(99.594116%, 81.770325%, 40.0177%)" offset="0.046875"/><stop stop-opacity="1" stop-color="rgb(99.520874%, 81.593323%, 39.736938%)" offset="0.0546875"/><stop stop-opacity="1" stop-color="rgb(99.447632%, 81.414795%, 39.454651%)" offset="0.0625"/><stop stop-opacity="1" stop-color="rgb(99.372864%, 81.237793%, 39.172363%)" offset="0.0703125"/><stop stop-opacity="1" stop-color="rgb(99.299622%, 81.059265%, 38.891602%)" offset="0.078125"/><stop stop-opacity="1" stop-color="rgb(99.226379%, 80.882263%, 38.609314%)" offset="0.0859375"/><stop stop-opacity="1" stop-color="rgb(99.153137%, 80.703735%, 38.327026%)" offset="0.09375"/><stop stop-opacity="1" stop-color="rgb(99.079895%, 80.526733%, 38.044739%)" offset="0.101562"/><stop stop-opacity="1" stop-color="rgb(99.005127%, 80.348206%, 37.763977%)" offset="0.109375"/><stop stop-opacity="1" stop-color="rgb(98.931885%, 80.171204%, 37.481689%)" offset="0.117187"/><stop stop-opacity="1" stop-color="rgb(98.858643%, 79.992676%, 37.199402%)" offset="0.125"/><stop stop-opacity="1" stop-color="rgb(98.7854%, 79.815674%, 36.917114%)" offset="0.132812"/><stop stop-opacity="1" stop-color="rgb(98.710632%, 79.637146%, 36.636353%)" offset="0.140625"/><stop stop-opacity="1" stop-color="rgb(98.63739%, 79.458618%, 36.354065%)" offset="0.148438"/><stop stop-opacity="1" stop-color="rgb(98.564148%, 79.281616%, 36.071777%)" offset="0.15625"/><stop stop-opacity="1" stop-color="rgb(98.490906%, 79.103088%, 35.78949%)" offset="0.164062"/><stop stop-opacity="1" stop-color="rgb(98.416138%, 78.926086%, 35.508728%)" offset="0.171875"/><stop stop-opacity="1" stop-color="rgb(98.342896%, 78.747559%, 35.22644%)" offset="0.179688"/><stop stop-opacity="1" stop-color="rgb(98.269653%, 78.570557%, 34.944153%)" offset="0.1875"/><stop stop-opacity="1" stop-color="rgb(98.196411%, 78.392029%, 34.663391%)" offset="0.195312"/><stop stop-opacity="1" stop-color="rgb(98.123169%, 78.215027%, 34.381104%)" offset="0.203125"/><stop stop-opacity="1" stop-color="rgb(98.048401%, 78.036499%, 34.098816%)" offset="0.210937"/><stop stop-opacity="1" stop-color="rgb(97.975159%, 77.859497%, 33.816528%)" offset="0.21875"/><stop stop-opacity="1" stop-color="rgb(97.901917%, 77.680969%, 33.535767%)" offset="0.226562"/><stop stop-opacity="1" stop-color="rgb(97.828674%, 77.503967%, 33.253479%)" offset="0.234375"/><stop stop-opacity="1" stop-color="rgb(97.753906%, 77.325439%, 32.971191%)" offset="0.242187"/><stop stop-opacity="1" stop-color="rgb(97.680664%, 77.148438%, 32.688904%)" offset="0.25"/><stop stop-opacity="1" stop-color="rgb(97.607422%, 76.96991%, 32.408142%)" offset="0.257812"/><stop stop-opacity="1" stop-color="rgb(97.53418%, 76.791382%, 32.125854%)" offset="0.265625"/><stop stop-opacity="1" stop-color="rgb(97.459412%, 76.61438%, 31.843567%)" offset="0.273438"/><stop stop-opacity="1" stop-color="rgb(97.386169%, 76.435852%, 31.562805%)" offset="0.28125"/><stop stop-opacity="1" stop-color="rgb(97.312927%, 76.25885%, 31.280518%)" offset="0.289062"/><stop stop-opacity="1" stop-color="rgb(97.239685%, 76.080322%, 30.99823%)" offset="0.296875"/><stop stop-opacity="1" stop-color="rgb(97.166443%, 75.90332%, 30.715942%)" offset="0.304688"/><stop stop-opacity="1" stop-color="rgb(97.091675%, 75.724792%, 30.435181%)" offset="0.3125"/><stop stop-opacity="1" stop-color="rgb(97.018433%, 75.547791%, 30.152893%)" offset="0.320312"/><stop stop-opacity="1" stop-color="rgb(96.94519%, 75.369263%, 29.870605%)" offset="0.328125"/><stop stop-opacity="1" stop-color="rgb(96.871948%, 75.192261%, 29.588318%)" offset="0.335938"/><stop stop-opacity="1" stop-color="rgb(96.79718%, 75.013733%, 29.307556%)" offset="0.34375"/><stop stop-opacity="1" stop-color="rgb(96.723938%, 74.836731%, 29.025269%)" offset="0.351562"/><stop stop-opacity="1" stop-color="rgb(96.650696%, 74.658203%, 28.742981%)" offset="0.359375"/><stop stop-opacity="1" stop-color="rgb(96.577454%, 74.481201%, 28.462219%)" offset="0.367188"/><stop stop-opacity="1" stop-color="rgb(96.502686%, 74.302673%, 28.179932%)" offset="0.375"/><stop stop-opacity="1" stop-color="rgb(96.429443%, 74.125671%, 27.897644%)" offset="0.382812"/><stop stop-opacity="1" stop-color="rgb(96.356201%, 73.947144%, 27.615356%)" offset="0.390625"/><stop stop-opacity="1" stop-color="rgb(96.282959%, 73.768616%, 27.334595%)" offset="0.398438"/><stop stop-opacity="1" stop-color="rgb(96.209717%, 73.591614%, 27.052307%)" offset="0.40625"/><stop stop-opacity="1" stop-color="rgb(96.134949%, 73.413086%, 26.77002%)" offset="0.414062"/><stop stop-opacity="1" stop-color="rgb(96.061707%, 73.236084%, 26.487732%)" offset="0.421875"/><stop stop-opacity="1" stop-color="rgb(95.988464%, 73.057556%, 26.20697%)" offset="0.429687"/><stop stop-opacity="1" stop-color="rgb(95.915222%, 72.880554%, 25.924683%)" offset="0.4375"/><stop stop-opacity="1" stop-color="rgb(95.840454%, 72.702026%, 25.642395%)" offset="0.445312"/><stop stop-opacity="1" stop-color="rgb(95.767212%, 72.525024%, 25.360107%)" offset="0.453125"/><stop stop-opacity="1" stop-color="rgb(95.69397%, 72.346497%, 25.079346%)" offset="0.460937"/><stop stop-opacity="1" stop-color="rgb(95.620728%, 72.169495%, 24.797058%)" offset="0.46875"/><stop stop-opacity="1" stop-color="rgb(95.545959%, 71.990967%, 24.514771%)" offset="0.476562"/><stop stop-opacity="1" stop-color="rgb(95.472717%, 71.813965%, 24.234009%)" offset="0.484375"/><stop stop-opacity="1" stop-color="rgb(95.399475%, 71.635437%, 23.951721%)" offset="0.492187"/><stop stop-opacity="1" stop-color="rgb(95.326233%, 71.458435%, 23.669434%)" offset="0.5"/><stop stop-opacity="1" stop-color="rgb(95.141602%, 71.203613%, 23.425293%)" offset="0.515625"/><stop stop-opacity="1" stop-color="rgb(94.847107%, 70.872498%, 23.216248%)" offset="0.53125"/><stop stop-opacity="1" stop-color="rgb(94.554138%, 70.541382%, 23.007202%)" offset="0.546875"/><stop stop-opacity="1" stop-color="rgb(94.259644%, 70.210266%, 22.799683%)" offset="0.5625"/><stop stop-opacity="1" stop-color="rgb(93.965149%, 69.87915%, 22.590637%)" offset="0.578125"/><stop stop-opacity="1" stop-color="rgb(93.670654%, 69.548035%, 22.383118%)" offset="0.59375"/><stop stop-opacity="1" stop-color="rgb(93.377686%, 69.216919%, 22.174072%)" offset="0.609375"/><stop stop-opacity="1" stop-color="rgb(93.083191%, 68.885803%, 21.965027%)" offset="0.625"/><stop stop-opacity="1" stop-color="rgb(92.788696%, 68.556213%, 21.757507%)" offset="0.640625"/><stop stop-opacity="1" stop-color="rgb(92.495728%, 68.225098%, 21.548462%)" offset="0.65625"/><stop stop-opacity="1" stop-color="rgb(92.201233%, 67.893982%, 21.340942%)" offset="0.671875"/><stop stop-opacity="1" stop-color="rgb(91.906738%, 67.562866%, 21.131897%)" offset="0.6875"/><stop stop-opacity="1" stop-color="rgb(91.612244%, 67.23175%, 20.922852%)" offset="0.703125"/><stop stop-opacity="1" stop-color="rgb(91.319275%, 66.900635%, 20.715332%)" offset="0.71875"/><stop stop-opacity="1" stop-color="rgb(91.02478%, 66.569519%, 20.506287%)" offset="0.734375"/><stop stop-opacity="1" stop-color="rgb(90.730286%, 66.238403%, 20.297241%)" offset="0.75"/><stop stop-opacity="1" stop-color="rgb(90.437317%, 65.908813%, 20.089722%)" offset="0.765625"/><stop stop-opacity="1" stop-color="rgb(90.142822%, 65.577698%, 19.880676%)" offset="0.78125"/><stop stop-opacity="1" stop-color="rgb(89.848328%, 65.246582%, 19.673157%)" offset="0.796875"/><stop stop-opacity="1" stop-color="rgb(89.553833%, 64.915466%, 19.464111%)" offset="0.8125"/><stop stop-opacity="1" stop-color="rgb(89.260864%, 64.584351%, 19.255066%)" offset="0.828125"/><stop stop-opacity="1" stop-color="rgb(88.96637%, 64.253235%, 19.047546%)" offset="0.84375"/><stop stop-opacity="1" stop-color="rgb(88.671875%, 63.922119%, 18.838501%)" offset="0.859375"/><stop stop-opacity="1" stop-color="rgb(88.378906%, 63.591003%, 18.630981%)" offset="0.875"/><stop stop-opacity="1" stop-color="rgb(88.084412%, 63.259888%, 18.421936%)" offset="0.890625"/><stop stop-opacity="1" stop-color="rgb(87.789917%, 62.930298%, 18.212891%)" offset="0.90625"/><stop stop-opacity="1" stop-color="rgb(87.495422%, 62.599182%, 18.005371%)" offset="0.921875"/><stop stop-opacity="1" stop-color="rgb(87.202454%, 62.268066%, 17.796326%)" offset="0.9375"/><stop stop-opacity="1" stop-color="rgb(86.907959%, 61.936951%, 17.588806%)" offset="0.953125"/><stop stop-opacity="1" stop-color="rgb(86.613464%, 61.605835%, 17.379761%)" offset="0.96875"/><stop stop-opacity="1" stop-color="rgb(86.320496%, 61.274719%, 17.170715%)" offset="0.984375"/><stop stop-opacity="1" stop-color="rgb(86.026001%, 60.943604%, 16.963196%)" offset="1"/></linearGradient></defs><g clip-path="url(#0ec58db917)"><path fill="#ffffff" d="M 74.359375 0 C 74.65625 0 74.949219 0.0273438 75.238281 0.0859375 C 75.527344 0.144531 75.808594 0.230469 76.082031 0.34375 C 76.355469 0.457031 76.613281 0.59375 76.859375 0.757812 C 77.105469 0.921875 77.332031 1.109375 77.542969 1.316406 C 77.75 1.527344 77.9375 1.753906 78.101562 2 C 78.265625 2.246094 78.40625 2.503906 78.519531 2.777344 C 78.632812 3.050781 78.714844 3.332031 78.773438 3.621094 C 78.832031 3.910156 78.859375 4.203125 78.859375 4.5 L 78.859375 145.5 C 78.859375 145.796875 78.832031 146.089844 78.773438 146.378906 C 78.714844 146.667969 78.632812 146.949219 78.519531 147.222656 C 78.40625 147.496094 78.265625 147.753906 78.101562 148 C 77.9375 148.246094 77.75 148.472656 77.542969 148.683594 C 77.332031 148.890625 77.105469 149.078125 76.859375 149.242188 C 76.613281 149.40625 76.355469 149.542969 76.082031 149.65625 C 75.808594 149.769531 75.527344 149.855469 75.238281 149.914062 C 74.949219 149.972656 74.65625 150 74.359375 150 C 74.066406 150 73.773438 149.972656 73.484375 149.914062 C 73.191406 149.855469 72.910156 149.769531 72.636719 149.65625 C 72.367188 149.542969 72.105469 149.40625 71.859375 149.242188 C 71.613281 149.078125 71.386719 148.890625 71.179688 148.683594 C 70.96875 148.472656 70.78125 148.246094 70.617188 148 C 70.453125 147.753906 70.316406 147.496094 70.203125 147.222656 C 70.089844 146.949219 70.003906 146.667969 69.945312 146.378906 C 69.890625 146.089844 69.859375 145.796875 69.859375 145.5 L 69.859375 4.5 C 69.859375 4.203125 69.890625 3.910156 69.945312 3.621094 C 70.003906 3.332031 70.089844 3.050781 70.203125 2.777344 C 70.316406 2.503906 70.453125 2.246094 70.617188 2 C 70.78125 1.753906 70.96875 1.527344 71.179688 1.316406 C 71.386719 1.109375 71.613281 0.921875 71.859375 0.757812 C 72.105469 0.59375 72.367188 0.457031 72.636719 0.34375 C 72.910156 0.230469 73.191406 0.144531 73.484375 0.0859375 C 73.773438 0.0273438 74.066406 0 74.359375 0 Z M 74.359375 0 " fill-opacity="0.0784" fill-rule="nonzero"/></g><g clip-path="url(#015bc6cbbe)"><g clip-path="url(#415983f492)"><path fill="url(#2a69b29140)" d="M 69.859375 30 L 69.859375 75 L 78.859375 75 L 78.859375 30 Z M 69.859375 30 " fill-rule="nonzero"/></g></g></svg>