<svg xmlns="http://www.w3.org/2000/svg" xmlns:xlink="http://www.w3.org/1999/xlink" width="150" zoomAndPan="magnify" viewBox="0 0 112.5 157.499993" height="210" preserveAspectRatio="xMidYMid meet" version="1.0"><defs><clipPath id="ab63bc1cc0"><path d="M 0 0.0976562 L 112.003906 0.0976562 L 112.003906 156.902344 L 0 156.902344 Z M 0 0.0976562 " clip-rule="nonzero"/></clipPath><clipPath id="3c2b93c3dd"><path d="M 0 0.0976562 L 112.003906 0.0976562 L 112.003906 156.902344 L 0 156.902344 Z M 0 0.0976562 " clip-rule="nonzero"/></clipPath></defs><g clip-path="url(#ab63bc1cc0)"><path fill="#ffffff" d="M 0 0.0976562 L 112.003906 0.0976562 L 112.003906 156.902344 L 0 156.902344 Z M 0 0.0976562 " fill-opacity="1" fill-rule="nonzero"/><path fill="#ffffff" d="M 0 0.0976562 L 112.003906 0.0976562 L 112.003906 156.902344 L 0 156.902344 Z M 0 0.0976562 " fill-opacity="1" fill-rule="nonzero"/></g><path fill="#ffffff" d="M 20.160156 2.339844 L 91.84375 2.339844 C 92.429688 2.339844 93.015625 2.367188 93.597656 2.425781 C 94.183594 2.484375 94.761719 2.570312 95.339844 2.683594 C 95.914062 2.796875 96.480469 2.941406 97.042969 3.109375 C 97.605469 3.28125 98.15625 3.480469 98.699219 3.703125 C 99.242188 3.929688 99.773438 4.179688 100.289062 4.457031 C 100.808594 4.730469 101.308594 5.035156 101.796875 5.359375 C 102.285156 5.6875 102.757812 6.035156 103.210938 6.40625 C 103.664062 6.78125 104.097656 7.171875 104.511719 7.589844 C 104.929688 8.003906 105.320312 8.4375 105.695312 8.890625 C 106.066406 9.34375 106.414062 9.816406 106.742188 10.304688 C 107.066406 10.792969 107.371094 11.292969 107.644531 11.8125 C 107.921875 12.328125 108.171875 12.859375 108.398438 13.402344 C 108.621094 13.945312 108.820312 14.496094 108.992188 15.058594 C 109.160156 15.621094 109.304688 16.1875 109.417969 16.765625 C 109.53125 17.339844 109.617188 17.917969 109.675781 18.503906 C 109.734375 19.085938 109.761719 19.671875 109.761719 20.261719 L 109.761719 136.742188 C 109.761719 137.328125 109.734375 137.914062 109.675781 138.5 C 109.617188 139.082031 109.53125 139.664062 109.417969 140.238281 C 109.304688 140.8125 109.160156 141.382812 108.992188 141.945312 C 108.820312 142.507812 108.621094 143.058594 108.398438 143.601562 C 108.171875 144.140625 107.921875 144.671875 107.644531 145.191406 C 107.371094 145.707031 107.066406 146.210938 106.742188 146.699219 C 106.414062 147.1875 106.066406 147.65625 105.695312 148.109375 C 105.320312 148.566406 104.929688 149 104.511719 149.414062 C 104.097656 149.828125 103.664062 150.222656 103.210938 150.59375 C 102.757812 150.96875 102.285156 151.316406 101.796875 151.640625 C 101.308594 151.96875 100.808594 152.269531 100.289062 152.546875 C 99.773438 152.824219 99.242188 153.074219 98.699219 153.296875 C 98.15625 153.523438 97.605469 153.71875 97.042969 153.890625 C 96.480469 154.0625 95.914062 154.203125 95.339844 154.316406 C 94.761719 154.433594 94.183594 154.519531 93.597656 154.578125 C 93.015625 154.632812 92.429688 154.664062 91.84375 154.664062 L 20.160156 154.664062 C 19.574219 154.664062 18.988281 154.632812 18.402344 154.578125 C 17.820312 154.519531 17.238281 154.433594 16.664062 154.316406 C 16.089844 154.203125 15.519531 154.0625 14.957031 153.890625 C 14.398438 153.71875 13.84375 153.523438 13.300781 153.296875 C 12.761719 153.074219 12.230469 152.824219 11.710938 152.546875 C 11.195312 152.269531 10.691406 151.96875 10.203125 151.640625 C 9.714844 151.316406 9.246094 150.96875 8.792969 150.59375 C 8.339844 150.222656 7.902344 149.828125 7.488281 149.414062 C 7.074219 149 6.679688 148.566406 6.308594 148.109375 C 5.933594 147.65625 5.585938 147.1875 5.261719 146.699219 C 4.933594 146.210938 4.632812 145.707031 4.355469 145.191406 C 4.078125 144.671875 3.828125 144.140625 3.605469 143.601562 C 3.378906 143.058594 3.183594 142.507812 3.011719 141.945312 C 2.839844 141.382812 2.699219 140.8125 2.585938 140.238281 C 2.46875 139.664062 2.382812 139.082031 2.328125 138.5 C 2.269531 137.914062 2.238281 137.328125 2.238281 136.742188 L 2.238281 20.261719 C 2.238281 19.671875 2.269531 19.085938 2.328125 18.503906 C 2.382812 17.917969 2.46875 17.339844 2.585938 16.765625 C 2.699219 16.1875 2.839844 15.621094 3.011719 15.058594 C 3.183594 14.496094 3.378906 13.945312 3.605469 13.402344 C 3.828125 12.859375 4.078125 12.328125 4.355469 11.8125 C 4.632812 11.292969 4.933594 10.792969 5.261719 10.304688 C 5.585938 9.816406 5.933594 9.34375 6.308594 8.890625 C 6.679688 8.4375 7.074219 8.003906 7.488281 7.589844 C 7.902344 7.171875 8.339844 6.78125 8.792969 6.40625 C 9.246094 6.035156 9.714844 5.6875 10.203125 5.359375 C 10.691406 5.035156 11.195312 4.730469 11.710938 4.457031 C 12.230469 4.179688 12.761719 3.929688 13.300781 3.703125 C 13.84375 3.480469 14.398438 3.28125 14.957031 3.109375 C 15.519531 2.941406 16.089844 2.796875 16.664062 2.683594 C 17.238281 2.570312 17.820312 2.484375 18.402344 2.425781 C 18.988281 2.367188 19.574219 2.339844 20.160156 2.339844 Z M 20.160156 2.339844 " fill-opacity="1" fill-rule="nonzero"/><g clip-path="url(#3c2b93c3dd)"><path stroke-linecap="butt" transform="matrix(0.448009, 0, 0, 0.448009, 0, 0.099552)" fill="none" stroke-linejoin="miter" d="M 44.999459 5.000552 L 205.004319 5.000552 C 206.312189 5.000552 207.620059 5.061586 208.919211 5.192373 C 210.227081 5.32316 211.517513 5.514981 212.807945 5.767836 C 214.089658 6.020691 215.353933 6.343299 216.609488 6.718222 C 217.865044 7.101864 219.094442 7.54654 220.306402 8.043531 C 221.518362 8.549241 222.704164 9.107265 223.85509 9.726324 C 225.014735 10.336663 226.130784 11.016756 227.220676 11.740444 C 228.310568 12.472852 229.365584 13.248855 230.377003 14.077173 C 231.388423 14.91421 232.356247 15.786123 233.280476 16.719071 C 234.213423 17.643299 235.085337 18.611123 235.922374 19.622543 C 236.750692 20.633963 237.526695 21.688978 238.259102 22.77887 C 238.98279 23.868762 239.662883 24.984811 240.273223 26.144456 C 240.892281 27.295382 241.450306 28.481185 241.956016 29.693145 C 242.453006 30.905104 242.897682 32.134503 243.281324 33.390058 C 243.656247 34.645614 243.978855 35.909888 244.23171 37.20032 C 244.484565 38.482033 244.676386 39.772465 244.807173 41.080336 C 244.93796 42.379487 244.998994 43.687357 244.998994 45.003947 L 244.998994 304.999854 C 244.998994 306.307725 244.93796 307.615595 244.807173 308.923465 C 244.676386 310.222617 244.484565 311.521768 244.23171 312.803481 C 243.978855 314.085194 243.656247 315.358188 243.281324 316.613743 C 242.897682 317.869299 242.453006 319.098697 241.956016 320.310657 C 241.450306 321.513897 240.892281 322.6997 240.273223 323.859345 C 239.662883 325.010271 238.98279 326.135039 238.259102 327.224931 C 237.526695 328.314823 236.750692 329.36112 235.922374 330.372539 C 235.085337 331.392678 234.213423 332.360502 233.280476 333.284731 C 232.356247 334.208959 231.388423 335.089592 230.377003 335.91791 C 229.365584 336.754947 228.310568 337.53095 227.220676 338.254638 C 226.130784 338.987045 225.014735 339.658419 223.85509 340.277477 C 222.704164 340.896536 221.518362 341.454561 220.306402 341.951551 C 219.094442 342.457261 217.865044 342.893218 216.609488 343.27686 C 215.353933 343.660502 214.089658 343.974391 212.807945 344.227246 C 211.517513 344.48882 210.227081 344.680641 208.919211 344.811428 C 207.620059 344.933496 206.312189 345.003249 205.004319 345.003249 L 44.999459 345.003249 C 43.691589 345.003249 42.383719 344.933496 41.075848 344.811428 C 39.776697 344.680641 38.477546 344.48882 37.195833 344.227246 C 35.91412 343.974391 34.641126 343.660502 33.385571 343.27686 C 32.138734 342.893218 30.900617 342.457261 29.688657 341.951551 C 28.485416 341.454561 27.299614 340.896536 26.139969 340.277477 C 24.989043 339.658419 23.864274 338.987045 22.774382 338.254638 C 21.68449 337.53095 20.638194 336.754947 19.626774 335.91791 C 18.615355 335.089592 17.638812 334.208959 16.714583 333.284731 C 15.790355 332.360502 14.909722 331.392678 14.081404 330.372539 C 13.244367 329.36112 12.468364 328.314823 11.744676 327.224931 C 11.012268 326.135039 10.340895 325.010271 9.721836 323.859345 C 9.102778 322.6997 8.544753 321.513897 8.047762 320.310657 C 7.542052 319.098697 7.106096 317.869299 6.722454 316.613743 C 6.338812 315.358188 6.024923 314.085194 5.772068 312.803481 C 5.510494 311.521768 5.318673 310.222617 5.196605 308.923465 C 5.065818 307.615595 4.996065 306.307725 4.996065 304.999854 L 4.996065 45.003947 C 4.996065 43.687357 5.065818 42.379487 5.196605 41.080336 C 5.318673 39.772465 5.510494 38.482033 5.772068 37.20032 C 6.024923 35.909888 6.338812 34.645614 6.722454 33.390058 C 7.106096 32.134503 7.542052 30.905104 8.047762 29.693145 C 8.544753 28.481185 9.102778 27.295382 9.721836 26.144456 C 10.340895 24.984811 11.012268 23.868762 11.744676 22.77887 C 12.468364 21.688978 13.244367 20.633963 14.081404 19.622543 C 14.909722 18.611123 15.790355 17.643299 16.714583 16.719071 C 17.638812 15.786123 18.615355 14.91421 19.626774 14.077173 C 20.638194 13.248855 21.68449 12.472852 22.774382 11.740444 C 23.864274 11.016756 24.989043 10.336663 26.139969 9.726324 C 27.299614 9.107265 28.485416 8.549241 29.688657 8.043531 C 30.900617 7.54654 32.138734 7.101864 33.385571 6.718222 C 34.641126 6.343299 35.91412 6.020691 37.195833 5.767836 C 38.477546 5.514981 39.776697 5.32316 41.075848 5.192373 C 42.383719 5.061586 43.691589 5.000552 44.999459 5.000552 Z M 44.999459 5.000552 " stroke="#d4af37" stroke-width="8" stroke-opacity="1" stroke-miterlimit="4"/><path stroke-linecap="butt" transform="matrix(0.448009, 0, 0, 0.448009, 0, 0.099552)" fill="none" stroke-linejoin="miter" d="M 46.996141 15.001401 L 202.998917 15.001401 C 205.100229 15.001401 207.184103 15.201941 209.241819 15.61174 C 211.299535 16.02154 213.304936 16.631879 215.249303 17.43404 C 217.184951 18.2362 219.033408 19.221463 220.777235 20.389827 C 222.521062 21.558191 224.142821 22.8835 225.625075 24.374472 C 227.116047 25.856725 228.441355 27.478484 229.60972 29.222311 C 230.778084 30.966138 231.763346 32.814595 232.565507 34.750243 C 233.367667 36.694611 233.978007 38.700012 234.387806 40.757728 C 234.797605 42.815444 234.998145 44.899317 234.998145 47.000629 L 234.998145 303.003172 C 234.998145 305.104484 234.797605 307.179638 234.387806 309.246073 C 233.978007 311.303789 233.367667 313.300472 232.565507 315.244839 C 231.763346 317.189206 230.778084 319.028944 229.60972 320.78149 C 228.441355 322.525317 227.116047 324.138357 225.625075 325.629329 C 224.142821 327.111583 222.521062 328.436891 220.777235 329.605255 C 219.033408 330.77362 217.184951 331.758882 215.249303 332.561042 C 213.304936 333.371922 211.299535 333.973542 209.241819 334.383342 C 207.184103 334.793141 205.100229 335.0024 202.998917 335.0024 L 46.996141 335.0024 C 44.89483 335.0024 42.819675 334.793141 40.75324 334.383342 C 38.695524 333.973542 36.698842 333.371922 34.754475 332.561042 C 32.810108 331.758882 30.97037 330.77362 29.217824 329.605255 C 27.473997 328.436891 25.860956 327.111583 24.369984 325.629329 C 22.887731 324.138357 21.562423 322.525317 20.394058 320.78149 C 19.225694 319.028944 18.240432 317.189206 17.438271 315.244839 C 16.636111 313.300472 16.025771 311.303789 15.615972 309.246073 C 15.206173 307.179638 14.996913 305.104484 14.996913 303.003172 L 14.996913 47.000629 C 14.996913 44.899317 15.206173 42.815444 15.615972 40.757728 C 16.025771 38.700012 16.636111 36.694611 17.438271 34.750243 C 18.240432 32.814595 19.225694 30.966138 20.394058 29.222311 C 21.562423 27.478484 22.887731 25.856725 24.369984 24.374472 C 25.860956 22.8835 27.473997 21.558191 29.217824 20.389827 C 30.97037 19.221463 32.810108 18.2362 34.754475 17.43404 C 36.698842 16.631879 38.695524 16.02154 40.75324 15.61174 C 42.819675 15.201941 44.89483 15.001401 46.996141 15.001401 Z M 46.996141 15.001401 " stroke="#2b4a7f" stroke-width="3" stroke-opacity="1" stroke-miterlimit="4"/></g><path fill="#fdfdfd" d="M 21.503906 9.058594 L 90.496094 9.058594 C 91.320312 9.058594 92.136719 9.140625 92.945312 9.300781 C 93.753906 9.460938 94.539062 9.699219 95.296875 10.015625 C 96.058594 10.328125 96.78125 10.714844 97.46875 11.171875 C 98.152344 11.632812 98.785156 12.152344 99.367188 12.734375 C 99.949219 13.316406 100.46875 13.949219 100.929688 14.636719 C 101.386719 15.320312 101.773438 16.042969 102.085938 16.804688 C 102.402344 17.566406 102.640625 18.347656 102.800781 19.15625 C 102.960938 19.964844 103.042969 20.78125 103.042969 21.605469 L 103.042969 135.398438 C 103.042969 136.222656 102.960938 137.039062 102.800781 137.84375 C 102.640625 138.652344 102.402344 139.4375 102.085938 140.199219 C 101.773438 140.960938 101.386719 141.683594 100.929688 142.367188 C 100.46875 143.050781 99.949219 143.6875 99.367188 144.269531 C 98.785156 144.851562 98.152344 145.371094 97.46875 145.828125 C 96.78125 146.285156 96.058594 146.671875 95.296875 146.988281 C 94.539062 147.304688 93.753906 147.539062 92.945312 147.703125 C 92.136719 147.863281 91.320312 147.941406 90.496094 147.941406 L 21.503906 147.941406 C 20.679688 147.941406 19.863281 147.863281 19.058594 147.703125 C 18.25 147.539062 17.464844 147.304688 16.703125 146.988281 C 15.941406 146.671875 15.21875 146.285156 14.535156 145.828125 C 13.851562 145.371094 13.214844 144.851562 12.632812 144.269531 C 12.050781 143.6875 11.53125 143.050781 11.074219 142.367188 C 10.617188 141.683594 10.230469 140.960938 9.914062 140.199219 C 9.601562 139.4375 9.363281 138.652344 9.203125 137.84375 C 9.039062 137.039062 8.960938 136.222656 8.960938 135.398438 L 8.960938 21.605469 C 8.960938 20.78125 9.039062 19.964844 9.203125 19.15625 C 9.363281 18.347656 9.601562 17.566406 9.914062 16.804688 C 10.230469 16.042969 10.617188 15.320312 11.074219 14.632812 C 11.53125 13.949219 12.050781 13.316406 12.632812 12.734375 C 13.214844 12.152344 13.851562 11.632812 14.535156 11.171875 C 15.21875 10.714844 15.941406 10.328125 16.703125 10.015625 C 17.464844 9.699219 18.25 9.460938 19.058594 9.300781 C 19.863281 9.140625 20.679688 9.058594 21.503906 9.058594 Z M 21.503906 9.058594 " fill-opacity="1" fill-rule="nonzero"/></svg>