<svg xmlns="http://www.w3.org/2000/svg" xmlns:xlink="http://www.w3.org/1999/xlink" width="250" zoomAndPan="magnify" viewBox="0 0 187.5 262.500001" height="350" preserveAspectRatio="xMidYMid meet" version="1.0"><defs><clipPath id="025f15d8fc"><path d="M 0 0.101562 L 187 0.101562 L 187 261.902344 L 0 261.902344 Z M 0 0.101562 " clip-rule="nonzero"/></clipPath><clipPath id="d8acbe1d06"><path d="M 0 0.101562 L 187 0.101562 L 187 261.902344 L 0 261.902344 Z M 0 0.101562 " clip-rule="nonzero"/></clipPath></defs><g clip-path="url(#025f15d8fc)"><path fill="#ffffff" d="M 0 0.101562 L 187 0.101562 L 187 261.902344 L 0 261.902344 Z M 0 0.101562 " fill-opacity="1" fill-rule="nonzero"/><path fill="#ffffff" d="M 0 0.101562 L 187 0.101562 L 187 261.902344 L 0 261.902344 Z M 0 0.101562 " fill-opacity="1" fill-rule="nonzero"/></g><path fill="#ffffff" d="M 33.660156 3.839844 L 153.339844 3.839844 C 154.320312 3.839844 155.296875 3.886719 156.273438 3.984375 C 157.25 4.078125 158.21875 4.222656 159.179688 4.414062 C 160.140625 4.605469 161.089844 4.84375 162.027344 5.128906 C 162.964844 5.414062 163.886719 5.742188 164.792969 6.117188 C 165.695312 6.492188 166.582031 6.910156 167.445312 7.371094 C 168.308594 7.835938 169.148438 8.335938 169.964844 8.882812 C 170.777344 9.425781 171.566406 10.007812 172.320312 10.632812 C 173.078125 11.253906 173.804688 11.910156 174.496094 12.601562 C 175.191406 13.296875 175.847656 14.019531 176.46875 14.777344 C 177.089844 15.535156 177.675781 16.324219 178.21875 17.136719 C 178.761719 17.953125 179.265625 18.792969 179.726562 19.65625 C 180.191406 20.519531 180.609375 21.40625 180.984375 22.308594 C 181.359375 23.214844 181.6875 24.136719 181.972656 25.074219 C 182.257812 26.011719 182.496094 26.960938 182.6875 27.921875 C 182.878906 28.882812 183.019531 29.851562 183.117188 30.828125 C 183.214844 31.800781 183.261719 32.78125 183.261719 33.761719 L 183.261719 228.242188 C 183.261719 229.222656 183.214844 230.199219 183.117188 231.175781 C 183.019531 232.148438 182.878906 233.117188 182.6875 234.078125 C 182.496094 235.039062 182.257812 235.988281 181.972656 236.925781 C 181.6875 237.863281 181.359375 238.785156 180.984375 239.691406 C 180.609375 240.597656 180.191406 241.480469 179.726562 242.34375 C 179.265625 243.210938 178.761719 244.050781 178.21875 244.863281 C 177.675781 245.679688 177.089844 246.464844 176.46875 247.222656 C 175.847656 247.980469 175.191406 248.707031 174.496094 249.398438 C 173.804688 250.089844 173.078125 250.75 172.320312 251.371094 C 171.566406 251.992188 170.777344 252.574219 169.964844 253.117188 C 169.148438 253.664062 168.308594 254.167969 167.445312 254.628906 C 166.582031 255.089844 165.695312 255.507812 164.792969 255.882812 C 163.886719 256.257812 162.964844 256.589844 162.027344 256.875 C 161.089844 257.15625 160.140625 257.394531 159.179688 257.585938 C 158.21875 257.777344 157.25 257.921875 156.273438 258.015625 C 155.296875 258.113281 154.320312 258.160156 153.339844 258.160156 L 33.660156 258.160156 C 32.679688 258.160156 31.703125 258.113281 30.726562 258.015625 C 29.753906 257.921875 28.785156 257.777344 27.824219 257.585938 C 26.863281 257.394531 25.914062 257.15625 24.976562 256.875 C 24.039062 256.589844 23.117188 256.257812 22.210938 255.882812 C 21.304688 255.507812 20.421875 255.089844 19.554688 254.628906 C 18.691406 254.167969 17.851562 253.664062 17.039062 253.117188 C 16.222656 252.574219 15.4375 251.992188 14.679688 251.371094 C 13.921875 250.75 13.195312 250.089844 12.503906 249.398438 C 11.808594 248.707031 11.152344 247.980469 10.53125 247.222656 C 9.910156 246.464844 9.328125 245.679688 8.78125 244.863281 C 8.238281 244.050781 7.734375 243.210938 7.273438 242.34375 C 6.8125 241.480469 6.390625 240.597656 6.015625 239.691406 C 5.640625 238.785156 5.3125 237.863281 5.027344 236.925781 C 4.742188 235.988281 4.507812 235.039062 4.316406 234.078125 C 4.125 233.117188 3.980469 232.148438 3.882812 231.175781 C 3.789062 230.199219 3.738281 229.222656 3.738281 228.242188 L 3.738281 33.761719 C 3.738281 32.78125 3.789062 31.800781 3.882812 30.828125 C 3.980469 29.851562 4.125 28.882812 4.316406 27.921875 C 4.507812 26.960938 4.742188 26.011719 5.027344 25.074219 C 5.3125 24.136719 5.640625 23.214844 6.015625 22.308594 C 6.390625 21.40625 6.8125 20.519531 7.273438 19.65625 C 7.734375 18.792969 8.238281 17.953125 8.78125 17.136719 C 9.328125 16.324219 9.910156 15.535156 10.53125 14.777344 C 11.152344 14.019531 11.808594 13.296875 12.503906 12.601562 C 13.195312 11.910156 13.921875 11.253906 14.679688 10.632812 C 15.4375 10.007812 16.222656 9.425781 17.039062 8.882812 C 17.851562 8.335938 18.691406 7.835938 19.554688 7.371094 C 20.421875 6.910156 21.304688 6.492188 22.210938 6.117188 C 23.117188 5.742188 24.039062 5.414062 24.976562 5.128906 C 25.914062 4.84375 26.863281 4.605469 27.824219 4.414062 C 28.785156 4.222656 29.753906 4.078125 30.726562 3.984375 C 31.703125 3.886719 32.679688 3.839844 33.660156 3.839844 Z M 33.660156 3.839844 " fill-opacity="1" fill-rule="nonzero"/><g clip-path="url(#d8acbe1d06)"><path stroke-linecap="butt" transform="matrix(0.748005, 0, 0, 0.748005, 0, 0.0997445)" fill="none" stroke-linejoin="miter" d="M 44.999891 5.000097 L 204.998342 5.000097 C 206.30912 5.000097 207.614675 5.062764 208.920231 5.19332 C 210.225787 5.318653 211.520898 5.511875 212.805564 5.767764 C 214.090231 6.023653 215.359231 6.342208 216.612565 6.723431 C 217.865898 7.104653 219.098342 7.54332 220.309898 8.044653 C 221.516231 8.545986 222.701676 9.104764 223.855787 9.720986 C 225.009898 10.342431 226.132676 11.010875 227.224121 11.741986 C 228.310343 12.467875 229.365232 13.245987 230.373121 14.081542 C 231.386232 14.911876 232.357565 15.789209 233.281899 16.713542 C 234.211454 17.643098 235.088788 18.609209 235.919121 19.62232 C 236.749454 20.635431 237.532788 21.69032 238.258677 22.776543 C 238.984566 23.867987 239.658232 24.990765 240.274454 26.144876 C 240.895899 27.298987 241.454677 28.484432 241.95601 29.690765 C 242.457343 30.902321 242.89601 32.134765 243.277232 33.388099 C 243.658455 34.641432 243.97701 35.910432 244.232899 37.195099 C 244.488788 38.479765 244.676788 39.774877 244.807344 41.080432 C 244.937899 42.380766 245.000566 43.691543 245.000566 45.002321 L 245.000566 305.00111 C 245.000566 306.311888 244.937899 307.617443 244.807344 308.922999 C 244.676788 310.223332 244.488788 311.518443 244.232899 312.80311 C 243.97701 314.087777 243.658455 315.356777 243.277232 316.61011 C 242.89601 317.863444 242.457343 319.095888 241.95601 320.307444 C 241.454677 321.518999 240.895899 322.699222 240.274454 323.853333 C 239.658232 325.012666 238.984566 326.135444 238.258677 327.221666 C 237.532788 328.313111 236.749454 329.362777 235.919121 330.375889 C 235.088788 331.389 234.211454 332.360333 233.281899 333.284667 C 232.357565 334.209 231.386232 335.091556 230.373121 335.921889 C 229.365232 336.752222 228.310343 337.530333 227.224121 338.256222 C 226.132676 338.987333 225.009898 339.661 223.855787 340.277222 C 222.701676 340.893445 221.516231 341.452222 220.309898 341.953556 C 219.098342 342.454889 217.865898 342.898778 216.612565 343.28 C 215.359231 343.656 214.090231 343.974556 212.805564 344.230445 C 211.520898 344.486334 210.225787 344.679556 208.920231 344.804889 C 207.614675 344.935445 206.30912 344.998111 204.998342 344.998111 L 44.999891 344.998111 C 43.689113 344.998111 42.383557 344.935445 41.078002 344.804889 C 39.777668 344.679556 38.482557 344.486334 37.19789 344.230445 C 35.913224 343.974556 34.644224 343.656 33.39089 343.28 C 32.137557 342.898778 30.905112 342.454889 29.693557 341.953556 C 28.482001 341.452222 27.301779 340.893445 26.142446 340.277222 C 24.988334 339.661 23.865557 338.987333 22.779334 338.256222 C 21.68789 337.530333 20.638223 336.752222 19.625112 335.921889 C 18.612001 335.091556 17.640667 334.209 16.716334 333.284667 C 15.786778 332.360333 14.909445 331.389 14.079112 330.375889 C 13.248778 329.362777 12.470667 328.313111 11.739556 327.221666 C 11.013667 326.135444 10.34 325.012666 9.723778 323.853333 C 9.107556 322.699222 8.543556 321.518999 8.042223 320.307444 C 7.540889 319.095888 7.102223 317.863444 6.721 316.61011 C 6.339778 315.356777 6.026445 314.087777 5.770556 312.80311 C 5.514667 311.518443 5.321445 310.223332 5.190889 308.922999 C 5.065556 307.617443 4.997667 306.311888 4.997667 305.00111 L 4.997667 45.002321 C 4.997667 43.691543 5.065556 42.380766 5.190889 41.080432 C 5.321445 39.774877 5.514667 38.479765 5.770556 37.195099 C 6.026445 35.910432 6.339778 34.641432 6.721 33.388099 C 7.102223 32.134765 7.540889 30.902321 8.042223 29.690765 C 8.543556 28.484432 9.107556 27.298987 9.723778 26.144876 C 10.34 24.990765 11.013667 23.867987 11.739556 22.776543 C 12.470667 21.69032 13.248778 20.635431 14.079112 19.62232 C 14.909445 18.609209 15.786778 17.643098 16.716334 16.713542 C 17.640667 15.789209 18.612001 14.911876 19.625112 14.081542 C 20.638223 13.245987 21.68789 12.467875 22.779334 11.741986 C 23.865557 11.010875 24.988334 10.342431 26.142446 9.720986 C 27.301779 9.104764 28.482001 8.545986 29.693557 8.044653 C 30.905112 7.54332 32.137557 7.104653 33.39089 6.723431 C 34.644224 6.342208 35.913224 6.023653 37.19789 5.767764 C 38.482557 5.511875 39.777668 5.318653 41.078002 5.19332 C 42.383557 5.062764 43.689113 5.000097 44.999891 5.000097 Z M 44.999891 5.000097 " stroke="#d4af37" stroke-width="8" stroke-opacity="1" stroke-miterlimit="4"/><path stroke-linecap="butt" transform="matrix(0.748005, 0, 0, 0.748005, 0, 0.0997445)" fill="none" stroke-linejoin="miter" d="M 47.000002 15.000653 L 202.998231 15.000653 C 204.047897 15.000653 205.092342 15.052876 206.136786 15.152098 C 207.181231 15.256542 208.215231 15.407987 209.244009 15.616876 C 210.272787 15.820542 211.285898 16.071209 212.288564 16.37932 C 213.291231 16.682209 214.278231 17.03732 215.244342 17.434209 C 216.215676 17.83632 217.160898 18.285431 218.085231 18.77632 C 219.009565 19.272431 219.907787 19.81032 220.779898 20.395209 C 221.652009 20.974876 222.492787 21.59632 223.302232 22.264765 C 224.111676 22.927987 224.884565 23.632987 225.626121 24.374543 C 226.367676 25.116098 227.072676 25.888987 227.735898 26.698432 C 228.399121 27.507876 229.025787 28.348654 229.605454 29.220765 C 230.190343 30.092876 230.728232 30.991098 231.219121 31.915432 C 231.715232 32.839765 232.164343 33.784987 232.566454 34.756321 C 232.963343 35.722432 233.318454 36.709432 233.621343 37.712099 C 233.924232 38.714765 234.180121 39.727877 234.383788 40.756654 C 234.587454 41.785432 234.744121 42.819432 234.843343 43.863877 C 234.947788 44.908321 235.00001 45.952766 235.00001 47.002432 L 235.00001 303.000999 C 235.00001 304.045443 234.947788 305.09511 234.843343 306.134332 C 234.744121 307.178777 234.587454 308.212777 234.383788 309.241554 C 234.180121 310.270332 233.924232 311.288666 233.621343 312.291332 C 233.318454 313.293999 232.963343 314.275777 232.566454 315.24711 C 232.164343 316.213221 231.715232 317.158444 231.219121 318.082777 C 230.728232 319.00711 230.190343 319.905333 229.605454 320.777444 C 229.025787 321.649555 228.399121 322.490333 227.735898 323.299777 C 227.072676 324.109222 226.367676 324.887333 225.626121 325.628888 C 224.884565 326.370444 224.111676 327.070222 223.302232 327.738666 C 222.492787 328.401889 221.652009 329.023333 220.779898 329.608222 C 219.907787 330.187889 219.009565 330.725778 218.085231 331.221889 C 217.160898 331.718 216.215676 332.161889 215.244342 332.564 C 214.278231 332.966111 213.291231 333.316 212.288564 333.624111 C 211.285898 333.927 210.272787 334.182889 209.244009 334.386555 C 208.215231 334.590222 207.181231 334.741667 206.136786 334.846111 C 205.092342 334.950556 204.047897 334.997556 202.998231 334.997556 L 47.000002 334.997556 C 45.950335 334.997556 44.905891 334.950556 43.861446 334.846111 C 42.822224 334.741667 41.783002 334.590222 40.759446 334.386555 C 39.730668 334.182889 38.712335 333.927 37.709668 333.624111 C 36.707002 333.316 35.720001 332.966111 34.75389 332.564 C 33.787779 332.161889 32.837335 331.718 31.913001 331.221889 C 30.988668 330.725778 30.095668 330.187889 29.223557 329.608222 C 28.351446 329.023333 27.510668 328.401889 26.701223 327.738666 C 25.891779 327.070222 25.113668 326.370444 24.372112 325.628888 C 23.630557 324.887333 22.930779 324.109222 22.262334 323.299777 C 21.599112 322.490333 20.977668 321.649555 20.392779 320.777444 C 19.813112 319.905333 19.270001 319.00711 18.779112 318.082777 C 18.283001 317.158444 17.839112 316.213221 17.437001 315.24711 C 17.03489 314.275777 16.679778 313.293999 16.37689 312.291332 C 16.074001 311.288666 15.818112 310.270332 15.614445 309.241554 C 15.410778 308.212777 15.259334 307.178777 15.15489 306.134332 C 15.050445 305.09511 14.998223 304.045443 14.998223 303.000999 L 14.998223 47.002432 C 14.998223 45.952766 15.050445 44.908321 15.15489 43.863877 C 15.259334 42.819432 15.410778 41.785432 15.614445 40.756654 C 15.818112 39.727877 16.074001 38.714765 16.37689 37.712099 C 16.679778 36.709432 17.03489 35.722432 17.437001 34.756321 C 17.839112 33.784987 18.283001 32.839765 18.779112 31.915432 C 19.270001 30.991098 19.813112 30.092876 20.392779 29.220765 C 20.977668 28.348654 21.599112 27.507876 22.262334 26.698432 C 22.930779 25.888987 23.630557 25.116098 24.372112 24.374543 C 25.113668 23.632987 25.891779 22.927987 26.701223 22.264765 C 27.510668 21.59632 28.351446 20.974876 29.223557 20.395209 C 30.095668 19.81032 30.988668 19.272431 31.913001 18.77632 C 32.837335 18.285431 33.787779 17.83632 34.75389 17.434209 C 35.720001 17.03732 36.707002 16.682209 37.709668 16.37932 C 38.712335 16.071209 39.730668 15.820542 40.759446 15.616876 C 41.783002 15.407987 42.822224 15.256542 43.861446 15.152098 C 44.905891 15.052876 45.950335 15.000653 47.000002 15.000653 Z M 47.000002 15.000653 " stroke="#2b4a7f" stroke-width="3" stroke-opacity="1" stroke-miterlimit="4"/></g><path fill="#fdfdfd" d="M 35.902344 15.058594 L 151.097656 15.058594 C 151.78125 15.058594 152.46875 15.09375 153.148438 15.160156 C 153.832031 15.226562 154.511719 15.328125 155.183594 15.460938 C 155.855469 15.597656 156.519531 15.761719 157.175781 15.960938 C 157.832031 16.160156 158.476562 16.390625 159.113281 16.652344 C 159.746094 16.917969 160.363281 17.210938 160.96875 17.53125 C 161.574219 17.855469 162.164062 18.207031 162.734375 18.589844 C 163.304688 18.96875 163.855469 19.378906 164.382812 19.8125 C 164.914062 20.25 165.421875 20.710938 165.90625 21.195312 C 166.390625 21.679688 166.851562 22.1875 167.289062 22.71875 C 167.722656 23.246094 168.128906 23.796875 168.511719 24.367188 C 168.890625 24.9375 169.246094 25.527344 169.566406 26.132812 C 169.890625 26.734375 170.183594 27.355469 170.445312 27.988281 C 170.710938 28.621094 170.941406 29.269531 171.140625 29.925781 C 171.339844 30.582031 171.503906 31.246094 171.640625 31.917969 C 171.773438 32.589844 171.875 33.269531 171.941406 33.949219 C 172.007812 34.632812 172.042969 35.316406 172.042969 36.003906 L 172.042969 225.996094 C 172.042969 226.683594 172.007812 227.367188 171.941406 228.050781 C 171.875 228.734375 171.773438 229.410156 171.640625 230.082031 C 171.503906 230.757812 171.339844 231.421875 171.140625 232.078125 C 170.941406 232.734375 170.710938 233.378906 170.445312 234.011719 C 170.183594 234.644531 169.890625 235.265625 169.566406 235.871094 C 169.246094 236.476562 168.890625 237.0625 168.511719 237.632812 C 168.128906 238.203125 167.722656 238.753906 167.285156 239.285156 C 166.851562 239.8125 166.390625 240.320312 165.90625 240.808594 C 165.421875 241.292969 164.914062 241.753906 164.382812 242.1875 C 163.855469 242.621094 163.304688 243.03125 162.734375 243.410156 C 162.164062 243.792969 161.574219 244.144531 160.96875 244.46875 C 160.363281 244.792969 159.746094 245.085938 159.113281 245.347656 C 158.476562 245.609375 157.832031 245.839844 157.175781 246.039062 C 156.519531 246.238281 155.855469 246.40625 155.183594 246.539062 C 154.511719 246.671875 153.832031 246.773438 153.148438 246.839844 C 152.46875 246.90625 151.78125 246.941406 151.097656 246.941406 L 35.902344 246.941406 C 35.21875 246.941406 34.535156 246.90625 33.851562 246.839844 C 33.167969 246.773438 32.492188 246.671875 31.816406 246.539062 C 31.144531 246.40625 30.480469 246.238281 29.824219 246.039062 C 29.167969 245.839844 28.523438 245.609375 27.890625 245.347656 C 27.253906 245.085938 26.636719 244.792969 26.03125 244.46875 C 25.425781 244.144531 24.839844 243.792969 24.269531 243.410156 C 23.699219 243.03125 23.148438 242.621094 22.617188 242.1875 C 22.085938 241.753906 21.578125 241.292969 21.09375 240.808594 C 20.609375 240.320312 20.148438 239.8125 19.714844 239.285156 C 19.277344 238.753906 18.871094 238.203125 18.488281 237.632812 C 18.109375 237.0625 17.757812 236.476562 17.433594 235.871094 C 17.109375 235.265625 16.816406 234.644531 16.554688 234.011719 C 16.292969 233.378906 16.0625 232.734375 15.863281 232.078125 C 15.664062 231.421875 15.496094 230.757812 15.363281 230.082031 C 15.230469 229.410156 15.128906 228.734375 15.0625 228.050781 C 14.992188 227.367188 14.960938 226.683594 14.960938 225.996094 L 14.960938 36.003906 C 14.960938 35.316406 14.992188 34.632812 15.0625 33.949219 C 15.128906 33.269531 15.230469 32.589844 15.363281 31.917969 C 15.496094 31.246094 15.664062 30.582031 15.863281 29.925781 C 16.0625 29.269531 16.292969 28.621094 16.554688 27.988281 C 16.816406 27.355469 17.109375 26.734375 17.433594 26.132812 C 17.757812 25.527344 18.109375 24.9375 18.488281 24.367188 C 18.871094 23.796875 19.277344 23.246094 19.714844 22.71875 C 20.148438 22.1875 20.609375 21.679688 21.09375 21.195312 C 21.578125 20.710938 22.085938 20.25 22.617188 19.8125 C 23.148438 19.378906 23.699219 18.96875 24.269531 18.589844 C 24.839844 18.207031 25.425781 17.855469 26.03125 17.53125 C 26.636719 17.210938 27.253906 16.917969 27.890625 16.652344 C 28.523438 16.390625 29.167969 16.160156 29.824219 15.960938 C 30.480469 15.761719 31.144531 15.597656 31.816406 15.460938 C 32.492188 15.328125 33.167969 15.226562 33.851562 15.160156 C 34.535156 15.09375 35.21875 15.058594 35.902344 15.058594 Z M 35.902344 15.058594 " fill-opacity="1" fill-rule="nonzero"/></svg>